<svg width="162" height="134" viewBox="0 0 162 134" fill="none" xmlns="http://www.w3.org/2000/svg">
<path d="M46.4395 121.761C46.9512 121.865 47.4074 122.084 47.9754 122.187C48.5434 122.29 49.0958 122.291 49.6643 122.384C50.2328 122.478 50.6668 122.718 51.2358 122.803C51.8047 122.889 52.3477 122.935 52.917 123.013C53.4863 123.091 54.0867 122.986 54.6528 123.057C55.219 123.129 55.7321 123.272 56.302 123.339C56.872 123.407 57.3793 123.591 57.9495 123.653C58.5197 123.716 59.0652 123.779 59.6357 123.835C60.2062 123.892 60.7857 123.782 61.3564 123.835C61.927 123.889 62.4569 124.046 63.0277 124.097C63.5986 124.147 64.1414 124.261 64.709 124.306C65.2765 124.352 65.8536 124.156 66.4214 124.197C66.9892 124.238 67.5357 124.479 68.1038 124.515C68.6719 124.552 69.2342 124.629 69.8021 124.669C70.37 124.708 70.9268 124.562 71.4918 124.59C72.0568 124.619 72.6137 124.6 73.1824 124.625C73.751 124.651 74.3102 124.722 74.8756 124.743C75.441 124.763 75.9905 124.687 76.5526 124.704C77.1146 124.721 77.6949 124.858 78.2607 124.87C78.8266 124.883 79.3766 124.862 79.9391 124.87C80.5017 124.878 81.0405 124.804 81.6033 124.809C82.166 124.814 82.7485 124.909 83.308 124.909C83.8675 124.909 84.4298 124.92 84.9896 124.915C85.5493 124.91 86.1114 124.926 86.6679 124.917C87.2243 124.907 87.8282 124.997 88.381 124.99C88.9338 124.984 89.4633 124.887 90.0132 124.868C90.5632 124.849 91.0536 124.693 91.6004 124.668C92.1471 124.642 92.7616 124.731 93.3052 124.699C93.8488 124.667 94.3669 124.585 94.9108 124.548C95.4546 124.512 95.9495 124.405 96.4866 124.362C97.0238 124.318 97.6102 124.34 98.1408 124.289C98.6714 124.237 99.2584 124.248 99.7823 124.19C100.306 124.132 100.685 123.897 101.209 123.831C101.733 123.765 102.468 123.919 102.968 123.846C103.468 123.774 103.971 123.696 104.468 123.617C104.965 123.538 105.278 123.287 105.768 123.203C106.258 123.119 106.714 123.007 107.191 122.917C107.667 122.828 108.12 122.709 108.614 122.618C109.108 122.526 109.652 122.496 110.125 122.398C110.598 122.301 111.034 122.174 111.504 122.072C111.974 121.97 112.518 121.927 112.981 121.821C113.445 121.715 113.975 121.657 114.432 121.546C114.888 121.435 115.175 121.204 115.628 121.091C116.081 120.978 116.52 120.858 116.966 120.741C117.412 120.623 118.083 120.651 118.522 120.529C118.962 120.408 119.197 120.154 119.633 120.029C120.069 119.904 120.634 119.86 121.056 119.731C121.479 119.602 121.864 119.44 122.289 119.314C122.715 119.189 123.37 119.183 123.785 119.046C124.201 118.909 124.377 118.637 124.789 118.495C125.202 118.353 125.658 118.245 126.063 118.101C126.468 117.957 127.062 117.912 127.46 117.766C127.859 117.619 128.213 117.449 128.608 117.301C129.003 117.153 129.364 116.978 129.724 116.825C130.084 116.671 130.576 116.555 130.954 116.4C131.332 116.245 131.332 115.91 131.71 115.752C132.088 115.593 132.641 115.52 133.005 115.359C133.369 115.198 133.692 115.013 134.053 114.849C134.414 114.685 134.967 114.602 135.321 114.436C135.674 114.27 136.073 114.117 136.42 113.948C136.767 113.778 136.98 113.551 137.32 113.377C137.66 113.204 138.11 113.074 138.443 112.9C138.776 112.726 138.765 112.414 139.095 112.237C139.424 112.06 139.757 111.886 140.08 111.705C140.403 111.524 141.061 111.463 141.376 111.288C141.692 111.113 141.649 110.795 141.958 110.611C142.267 110.426 142.97 110.378 143.269 110.19C143.567 110.001 143.621 109.729 143.916 109.538C144.211 109.348 144.669 109.214 144.957 109.021C145.245 108.829 145.146 108.515 145.428 108.321C145.709 108.126 146.212 108.005 146.486 107.808C146.76 107.612 146.893 107.371 147.157 107.174C147.421 106.977 147.903 106.841 148.16 106.64C148.417 106.44 148.519 106.192 148.769 105.989C149.019 105.787 149.47 105.64 149.717 105.435C149.964 105.23 150.207 105.026 150.454 104.819C150.701 104.613 150.975 104.417 151.19 104.207C151.406 103.997 151.469 103.744 151.688 103.531C151.907 103.319 152.153 103.115 152.362 102.902C152.57 102.689 152.706 102.461 152.908 102.241C153.109 102.02 153.391 101.828 153.582 101.61C153.773 101.392 154.044 101.191 154.228 100.971C154.413 100.751 154.336 100.478 154.51 100.255C154.684 100.033 155.191 99.8794 155.355 99.6551C155.518 99.4308 155.577 99.1852 155.744 98.9611C155.911 98.737 156.175 98.5259 156.318 98.3032C156.46 98.0805 156.386 97.8087 156.518 97.5791C156.65 97.3495 156.758 97.1166 156.876 96.8845C156.994 96.6524 157.192 96.432 157.3 96.1991C157.407 95.9663 157.368 95.7124 157.465 95.4773C157.562 95.2421 157.565 94.9958 157.652 94.7599C157.738 94.5241 158.062 94.3233 158.135 94.0787C158.208 93.8341 157.986 93.5692 158.045 93.3298C158.104 93.0904 158.512 92.8862 158.557 92.6459C158.601 92.4056 158.233 92.1273 158.246 91.8832C158.259 91.6392 158.829 91.4415 158.853 91.1981C158.876 90.9548 158.711 90.6984 158.717 90.4538C158.723 90.2093 158.392 89.9476 158.377 89.7016C158.362 89.4556 158.523 89.2217 158.501 88.9768C158.479 88.7319 158.351 88.4827 158.315 88.2383C158.279 87.994 158.661 87.7553 158.611 87.51C158.561 87.2647 158.395 87.0128 158.331 86.7665C158.267 86.5202 158.188 86.2729 158.11 86.0256C158.032 85.7784 157.507 85.5388 157.414 85.2921C157.322 85.0454 157.525 84.7944 157.419 84.5498C157.312 84.3052 157.142 84.0655 157.019 83.8135C156.895 83.5615 156.943 83.3153 156.805 83.07C156.667 82.8248 156.455 82.5806 156.303 82.3406C156.15 82.1006 156.072 81.8471 155.906 81.6046C155.739 81.362 155.686 81.1056 155.506 80.8652C155.325 80.6247 154.603 80.4367 154.409 80.1969C154.214 79.957 154.135 79.7128 153.927 79.4689C153.718 79.225 153.403 79.0078 153.176 78.7719C152.95 78.536 152.871 78.2856 152.627 78.047C152.383 77.8084 152.302 77.5593 152.044 77.3228C151.785 77.0863 151.608 76.843 151.336 76.6148C151.063 76.3866 150.392 76.2393 150.105 76.0148C149.818 75.7902 149.805 75.5041 149.504 75.2816C149.202 75.0592 148.712 74.8841 148.393 74.6651C148.074 74.4461 148.069 74.1511 147.729 73.9353C147.388 73.7195 146.987 73.5242 146.64 73.3141C146.292 73.1039 146.021 72.8464 145.652 72.6363C145.283 72.4263 144.65 72.2971 144.274 72.0912C143.898 71.8853 143.691 71.6043 143.294 71.4031C142.897 71.2019 142.424 71.0234 142.012 70.8274C141.601 70.6315 141.197 70.4251 140.774 70.2346C140.351 70.0441 139.951 69.8349 139.514 69.6496C139.077 69.4643 138.474 69.3666 138.012 69.1842C137.55 69.0019 137.16 68.8012 136.701 68.6283C136.243 68.4554 135.66 68.353 135.187 68.1838C134.714 68.0146 134.321 67.8059 133.844 67.6411C133.368 67.4763 132.767 67.3974 132.283 67.2383C131.799 67.0791 131.457 66.8244 130.965 66.671C130.474 66.5175 129.895 66.4293 129.396 66.28C128.897 66.1307 128.487 65.9069 127.981 65.7695C127.474 65.6321 126.972 65.481 126.459 65.3416C125.946 65.2021 125.317 65.1741 124.8 65.0406C124.283 64.907 123.907 64.6329 123.386 64.5053C122.865 64.3778 122.346 64.2316 121.828 64.1074C121.31 63.9831 120.787 63.8352 120.262 63.7167C119.737 63.5981 119.198 63.474 118.663 63.3578C118.127 63.2416 117.425 63.334 116.886 63.2222C116.347 63.1104 115.886 62.9033 115.347 62.7961C114.807 62.689 114.305 62.5394 113.747 62.4357C113.19 62.3319 112.653 62.2358 112.106 62.1374C111.559 62.039 111.023 61.9213 110.473 61.8257C109.922 61.7302 109.402 61.5825 108.851 61.4916C108.3 61.4007 107.737 61.3261 107.183 61.2365C106.628 61.1468 105.986 61.2372 105.428 61.152C104.869 61.0668 104.322 60.9777 103.763 60.8956C103.205 60.8134 102.727 60.5369 102.179 60.4586C101.63 60.3803 100.963 60.5465 100.401 60.4718C99.8385 60.3972 99.3155 60.2416 98.7564 60.1687C98.1974 60.0958 97.6426 60.0078 97.0799 59.9378C96.5171 59.8677 95.9751 59.7402 95.416 59.6674C94.8569 59.5945 94.3036 59.4802 93.7406 59.4148C93.1776 59.3495 92.5929 59.3616 92.0299 59.2963C91.4669 59.2309 90.8859 59.2371 90.3226 59.1779C89.7593 59.1187 89.1827 59.1098 88.6189 59.0598C88.0551 59.0099 87.5318 58.7287 86.9682 58.6741C86.4047 58.6195 85.8403 58.5804 85.2766 58.5274C84.713 58.4744 84.1577 58.3956 83.5938 58.3472C83.0299 58.2988 82.4543 58.338 81.8903 58.2911C81.3263 58.2443 80.7663 58.1884 80.2021 58.1447C79.638 58.1009 79.0659 58.2055 78.5015 58.1648C77.9372 58.1241 77.3771 58.0714 76.8126 58.0338C76.2481 57.9962 75.6899 57.9063 75.1253 57.8719C74.5606 57.8374 73.9983 57.6945 73.4334 57.6631C72.8686 57.6317 72.3059 57.6268 71.7444 57.5988C71.1829 57.5707 70.6243 57.687 70.0625 57.6636C69.5008 57.6402 68.9413 57.6402 68.376 57.618C67.8107 57.5959 67.2536 57.5526 66.688 57.5351C66.1224 57.5176 65.5455 57.3846 64.9867 57.3707C64.428 57.3568 63.8812 57.4491 63.3224 57.4367C62.7636 57.4244 62.1749 57.3123 61.6157 57.3076C61.0565 57.303 60.4993 57.3263 59.9434 57.325C59.3875 57.3237 58.794 57.2376 58.2379 57.2409C57.6817 57.2442 57.1463 57.3203 56.5897 57.3329C56.0331 57.3455 55.527 57.4654 54.9703 57.4796C54.4136 57.4937 53.8011 57.366 53.2513 57.3837C52.7014 57.4014 52.2079 57.5486 51.6612 57.5727C51.1146 57.5968 50.4583 57.4335 49.9078 57.4636C49.3572 57.4936 48.8232 57.5434 48.2827 57.5835C47.7422 57.6236 47.3381 57.8762 46.801 57.918C46.2639 57.9599 45.6288 57.8616 45.0949 57.9098C44.561 57.9581 44.0534 58.0408 43.5226 58.0955C42.9919 58.1501 42.3487 58.0714 41.8281 58.133C41.3076 58.1946 40.8959 58.3909 40.3784 58.4605C39.861 58.53 39.2301 58.4832 38.7193 58.5594C38.2085 58.6357 37.7779 58.7919 37.2948 58.8762C36.8118 58.9606 36.2898 59.0484 35.7959 59.1382C35.302 59.228 34.7333 59.2677 34.2565 59.3664C33.7797 59.4652 33.4202 59.6728 32.9465 59.7795C32.4728 59.8862 32.0229 60.0085 31.5592 60.1237C31.0956 60.2388 30.5948 60.3266 30.1343 60.4497C29.6737 60.5728 29.173 60.6591 28.7331 60.7914C28.2932 60.9237 27.908 61.0846 27.4853 61.2243C27.0626 61.364 26.7356 61.5568 26.3265 61.7037C25.9175 61.8505 25.6354 62.0589 25.2436 62.2131C24.8518 62.3674 24.1441 62.3741 23.7659 62.5371C23.3877 62.7 23.3258 63.0011 22.9613 63.1712C22.5967 63.3413 22.2163 63.4808 21.8798 63.6529C21.5433 63.8249 21.045 63.9314 20.7258 64.1093C20.4066 64.2872 20.0252 64.4437 19.7198 64.6272C19.4143 64.8107 19.413 65.0974 19.1214 65.285C18.8299 65.4725 18.2652 65.5698 17.9875 65.7614C17.7098 65.953 17.5565 66.1858 17.2856 66.381C17.0148 66.5762 16.543 66.7125 16.2896 66.9104C16.0361 67.1084 15.8032 67.3171 15.5532 67.5168C15.3032 67.7165 15.4477 68.0413 15.2008 68.2474C14.954 68.4536 14.6655 68.6491 14.4255 68.8588C14.1856 69.0685 13.7028 69.2134 13.4837 69.4261C13.2647 69.6388 13.1253 69.8757 12.9062 70.09C12.6871 70.3042 12.2144 70.4575 12.0023 70.6723C11.7902 70.887 11.8871 71.179 11.6818 71.3974C11.4766 71.6157 11.4314 71.8668 11.2366 72.0875C11.0418 72.3081 10.8787 72.5278 10.6906 72.7535C10.5025 72.9792 10.2071 73.1727 10.0298 73.3961C9.85239 73.6195 9.63327 73.8337 9.46274 74.0607C9.29221 74.2876 9.08728 74.4998 8.93412 74.731C8.78095 74.9623 8.73612 75.2072 8.58654 75.4372C8.43695 75.6671 7.8343 75.8161 7.70575 76.0475C7.5772 76.2789 7.67853 76.5541 7.54297 76.785C7.40742 77.016 7.12896 77.2215 7.00709 77.4595C6.88522 77.6976 6.86835 77.9461 6.75374 78.18C6.63914 78.4139 6.43355 78.6384 6.32587 78.8744C6.21819 79.1103 6.47719 79.398 6.38003 79.6347C6.28286 79.8714 6.2276 80.1141 6.13737 80.3528C6.04713 80.5915 5.76125 80.8043 5.68846 81.0457C5.61567 81.2872 5.69687 81.544 5.62767 81.7842C5.55847 82.0243 5.21283 82.236 5.15406 82.4785C5.09529 82.7209 4.95606 82.9547 4.9043 83.1976C4.85255 83.4406 4.82174 83.6865 4.777 83.9299C4.73225 84.1733 4.7259 84.4225 4.69168 84.6666C4.65745 84.9108 4.40237 85.1396 4.38917 85.3852C4.37598 85.6308 4.73413 85.9068 4.71743 86.1522C4.70073 86.3975 4.43847 86.629 4.42878 86.8748C4.4191 87.1207 4.63377 87.3821 4.6346 87.6286C4.63542 87.8752 4.86779 88.1347 4.87913 88.382C4.89048 88.6293 4.5824 88.8623 4.60075 89.11C4.61911 89.3578 4.43748 89.5949 4.46611 89.848C4.49473 90.1012 4.79078 90.3542 4.81264 90.6023C4.8345 90.8503 5.0672 91.1037 5.12412 91.3541C5.18103 91.6046 5.20657 91.8498 5.26006 92.0984C5.31356 92.3471 5.11733 92.594 5.18134 92.8434C5.24535 93.0928 5.28825 93.3423 5.35927 93.5922C5.43029 93.8421 5.46267 94.0908 5.54421 94.3414C5.62575 94.5921 6.1338 94.8288 6.22569 95.0833C6.31758 95.3377 6.16008 95.5841 6.25931 95.8329C6.35855 96.0816 6.23209 96.3395 6.33492 96.587C6.43774 96.8344 6.53322 97.0876 6.64656 97.3357C6.7599 97.5839 7.19758 97.8204 7.311 98.0671C7.42443 98.3137 7.63667 98.5548 7.77797 98.8064C7.91928 99.0581 7.68332 99.3239 7.82838 99.5712C7.97343 99.8184 8.21364 100.063 8.36946 100.306C8.52528 100.55 8.56409 100.81 8.72684 101.055C8.88959 101.301 9.16519 101.541 9.33854 101.786C9.51189 102.031 9.94681 102.253 10.1272 102.498C10.3075 102.743 10.6472 102.97 10.8383 103.212C11.0293 103.455 11.1283 103.709 11.3299 103.95C11.5316 104.192 11.882 104.417 12.0907 104.657C12.2994 104.898 12.1504 105.184 12.3661 105.425C12.5819 105.667 12.6918 105.913 12.9145 106.156C13.1372 106.4 13.5662 106.6 13.8208 106.839C14.0753 107.079 14.1888 107.325 14.4576 107.561C14.7264 107.797 15.3693 107.947 15.6561 108.176C15.9429 108.405 16.159 108.64 16.46 108.866C16.7611 109.091 17.141 109.29 17.4563 109.512C17.7716 109.733 17.9839 109.974 18.3065 110.191C18.6292 110.407 19.1088 110.583 19.4421 110.798C19.7753 111.013 19.8874 111.286 20.2275 111.504C20.5677 111.721 20.8832 111.94 21.2485 112.148C21.6138 112.356 21.8145 112.617 22.18 112.822C22.5454 113.027 23.1402 113.157 23.5163 113.36C23.8925 113.562 24.3296 113.745 24.6988 113.945C25.068 114.146 25.232 114.434 25.6226 114.63C26.0132 114.826 26.425 115.02 26.8264 115.212C27.2277 115.404 27.989 115.448 28.3978 115.631C28.8067 115.815 28.8761 116.161 29.2955 116.345C29.7149 116.529 30.3975 116.595 30.824 116.776C31.2506 116.958 31.6411 117.155 32.0752 117.328C32.5093 117.501 33.0514 117.627 33.489 117.8C33.9266 117.973 34.0626 118.322 34.5075 118.49C34.9523 118.659 35.6907 118.67 36.1464 118.832C36.6022 118.994 37.0137 119.193 37.4768 119.351C37.9398 119.508 38.435 119.657 38.9054 119.808C39.3759 119.958 39.7315 120.215 40.2127 120.363C40.6938 120.512 41.3986 120.492 41.8871 120.635C42.3755 120.777 42.8562 120.934 43.3525 121.062C43.8488 121.189 44.3959 121.289 44.8998 121.406C45.4037 121.523 45.9244 121.655 46.4395 121.761Z" fill="#E8C15D"/>
<path d="M143.018 42.6181L87.0389 5.27679L15.5549 34.7003L16.6419 69.1115L74.3044 113.286L144.105 77.0292L143.018 42.6181Z" fill="#EFDAC5"/>
<path fill-rule="evenodd" clip-rule="evenodd" d="M88.5021 2.63871C87.8247 2.20466 86.979 2.12399 86.2303 2.42198L17.2815 29.8653C16.6107 30.1323 16.0968 30.6711 15.8548 31.3321C14.4416 32.5302 13.5161 34.3359 13.5841 36.4864L14.5755 67.8744C14.6246 69.4263 15.325 70.8888 16.5224 71.8946C22.7553 77.1307 56.8898 105.653 72.5281 115.349C73.2193 115.777 74.0764 115.842 74.8255 115.522C111.775 99.7547 139.074 84.8339 145.751 81.1042C147.564 80.0918 148.599 78.1726 148.535 76.156L147.5 43.3957C147.438 41.424 146.376 39.8021 144.879 38.8862C144.722 38.7021 144.537 38.5393 144.327 38.4049L88.5021 2.63871ZM18.7311 35.6082L58.8271 63.5795L70.0458 72.0314L71.1979 108.504C54.7074 97.2924 25.6039 72.9874 19.7423 68.0633C19.6409 67.978 19.5773 67.8522 19.5727 67.707L18.5813 36.319C18.573 36.0569 18.6287 35.8169 18.7311 35.6082ZM84.7654 8.38324L26.8379 31.4398L73.7803 39.3841C73.8659 39.3219 73.9564 39.2645 74.0516 39.2123L85.5405 32.9196L84.7654 8.38324ZM90.4866 31.1343C90.5048 31.1405 90.523 31.1469 90.541 31.1535L131.358 37.6409L89.8251 10.1923L90.4866 31.1343ZM90.0585 36.1414L77.2583 43.1524L75.8796 65.923L108.774 52.1365L130.583 42.5823L90.0585 36.1414ZM72.1874 44.1875L32.4856 37.4686L55.0731 54.4854L70.9002 65.4464L72.1874 44.1875ZM140.671 44.1857L141.981 44.3939C142.166 44.4232 142.35 44.4314 142.53 44.4202L143.538 76.3235C143.544 76.5272 143.448 76.6681 143.32 76.7397C136.942 80.3023 111.255 94.3462 76.2312 109.481L75.0587 72.3619L110.736 56.7323L140.671 44.1857Z" fill="#ECECEC"/>
</svg>
