<svg width="190" height="254" viewBox="0 0 190 254" fill="none" xmlns="http://www.w3.org/2000/svg">
<path d="M143.587 208.859C144.685 208.731 145.744 208.867 146.955 208.701C148.167 208.534 149.282 208.177 150.489 207.993C151.695 207.808 152.722 207.998 153.925 207.798C155.127 207.597 156.252 207.334 157.45 207.118C158.649 206.902 159.794 206.303 160.982 206.077C162.17 205.85 163.296 205.798 164.489 205.56C165.681 205.323 166.821 205.356 168.012 205.109C169.202 204.862 170.343 204.631 171.53 204.372C172.717 204.113 173.818 203.518 175.004 203.253C176.189 202.987 177.358 202.954 178.542 202.682C179.726 202.411 180.893 202.282 182.068 202.003C183.242 201.723 184.284 200.962 185.456 200.673C186.628 200.385 187.883 200.505 189.052 200.207C190.222 199.91 191.406 199.697 192.577 199.406C193.748 199.114 194.78 198.464 195.939 198.153C197.097 197.841 198.209 197.442 199.373 197.122C200.537 196.803 201.711 196.58 202.865 196.253C204.02 195.926 205.081 195.417 206.226 195.086C207.372 194.754 208.629 194.646 209.779 194.303C210.929 193.961 212.027 193.562 213.167 193.212C214.308 192.862 215.349 192.365 216.488 192.009C217.627 191.652 218.862 191.46 219.992 191.097C221.121 190.733 222.263 190.389 223.39 190.016C224.517 189.643 225.662 189.308 226.779 188.928C227.897 188.547 229.172 188.332 230.284 187.959C231.396 187.587 232.404 187.052 233.502 186.656C234.6 186.26 235.492 185.635 236.58 185.229C237.668 184.823 238.964 184.599 240.041 184.182C241.118 183.765 242.113 183.267 243.188 182.84C244.262 182.414 245.194 181.882 246.251 181.447C247.308 181.012 248.506 180.674 249.545 180.227C250.583 179.78 251.775 179.421 252.796 178.965C253.817 178.509 254.434 177.801 255.451 177.329C256.468 176.858 258.046 176.683 259.01 176.215C259.974 175.747 260.942 175.265 261.895 174.787C262.849 174.308 263.322 173.609 264.258 173.125C265.195 172.641 266.046 172.122 266.951 171.635C267.856 171.149 268.696 170.619 269.636 170.118C270.576 169.616 271.654 169.202 272.548 168.702C273.442 168.202 274.243 167.669 275.127 167.162C276.011 166.654 277.083 166.216 277.951 165.705C278.82 165.195 279.855 164.736 280.706 164.22C281.558 163.704 281.991 163.061 282.835 162.544C283.678 162.027 284.489 161.504 285.316 160.981C286.143 160.459 287.514 160.078 288.324 159.552C289.135 159.027 289.45 158.373 290.252 157.843C291.053 157.313 292.167 156.858 292.938 156.329C293.709 155.8 294.384 155.229 295.164 154.704C295.944 154.18 297.262 153.743 298.015 153.202C298.768 152.661 298.953 152.01 299.696 151.462C300.439 150.914 301.292 150.404 302.02 149.856C302.747 149.308 303.917 148.832 304.629 148.285C305.342 147.737 305.949 147.17 306.654 146.621C307.358 146.073 307.977 145.492 308.608 144.956C309.238 144.419 310.158 143.869 310.823 143.317C311.488 142.765 311.278 142.104 311.942 141.546C312.605 140.987 313.675 140.483 314.309 139.929C314.942 139.375 315.478 138.799 316.103 138.24C316.728 137.682 317.793 137.159 318.403 136.601C319.012 136.043 319.722 135.483 320.315 134.922C320.909 134.362 321.195 133.775 321.773 133.212C322.35 132.648 323.178 132.099 323.741 131.539C324.304 130.979 324.084 130.37 324.638 129.806C325.193 129.242 325.756 128.682 326.294 128.116C326.832 127.549 328.121 127 328.648 126.449C329.175 125.899 328.889 125.299 329.396 124.734C329.904 124.168 331.293 123.617 331.777 123.051C332.261 122.484 332.198 121.912 332.674 121.344C333.15 120.776 333.99 120.214 334.451 119.647C334.912 119.079 334.514 118.524 334.96 117.958C335.405 117.391 336.344 116.824 336.774 116.257C337.205 115.691 337.321 115.13 337.73 114.569C338.139 114.008 339.027 113.427 339.42 112.864C339.812 112.3 339.861 111.746 340.239 111.183C340.616 110.62 341.435 110.036 341.804 109.472C342.174 108.908 342.536 108.345 342.904 107.778C343.273 107.21 343.703 106.644 344.006 106.09C344.309 105.535 344.277 104.995 344.585 104.433C344.894 103.87 345.264 103.309 345.55 102.752C345.837 102.195 345.967 101.657 346.236 101.092C346.505 100.526 346.952 99.9623 347.201 99.4081C347.45 98.854 347.87 98.2801 348.104 97.7265C348.338 97.1728 348.011 96.6828 348.222 96.1315C348.433 95.5801 349.362 94.9459 349.55 94.3969C349.739 93.8478 349.704 93.3248 349.899 92.774C350.095 92.2231 350.497 91.6343 350.644 91.1022C350.791 90.5702 350.472 90.0815 350.594 89.5424C350.716 89.0033 350.786 88.4738 350.879 87.9388C350.971 87.4038 351.233 86.8399 351.303 86.3103C351.374 85.7807 351.135 85.3051 351.183 84.7778C351.231 84.2505 351.082 83.7625 351.108 83.2407C351.135 82.7188 351.663 82.1118 351.656 81.5816C351.649 81.0514 351.036 80.6724 351.003 80.1619C350.971 79.6513 351.668 78.9824 351.606 78.4791C351.545 77.9757 350.626 77.6661 350.499 77.1759C350.372 76.6856 351.399 75.9246 351.293 75.4289C351.188 74.9333 350.692 74.5348 350.551 74.0481C350.409 73.5614 349.577 73.26 349.392 72.7841C349.208 72.3082 349.384 71.7424 349.186 71.2732C348.987 70.804 348.573 70.3951 348.347 69.9362C348.12 69.4774 348.742 68.7577 348.486 68.3061C348.231 67.8544 347.737 67.4652 347.453 67.0208C347.169 66.5763 346.855 66.139 346.542 65.7018C346.228 65.2645 345.017 65.1334 344.676 64.7065C344.334 64.2795 344.587 63.6517 344.218 63.2381C343.849 62.8246 343.355 62.4621 342.947 62.0451C342.539 61.6281 342.482 61.1105 342.049 60.7163C341.616 60.322 341.034 59.978 340.575 59.6034C340.117 59.2287 339.8 58.7791 339.312 58.4085C338.823 58.038 338.555 57.5664 338.039 57.2092C337.523 56.8521 335.948 56.9503 335.404 56.6035C334.86 56.2567 334.548 55.8256 333.974 55.4798C333.399 55.134 332.626 54.9104 332.02 54.5922C331.414 54.2739 331.099 53.8305 330.457 53.5181C329.814 53.2058 329.492 52.7673 328.822 52.4683C328.152 52.1694 327.642 51.8043 326.948 51.5312C326.254 51.2581 324.807 51.4038 324.086 51.1472C323.365 50.8906 323.16 50.3341 322.412 50.0909C321.664 49.8477 320.564 49.821 319.782 49.5961C319.001 49.3712 318.804 48.7925 317.982 48.5877C317.159 48.3829 316.227 48.2584 315.393 48.0697C314.559 47.8809 313.85 47.5488 312.973 47.374C312.097 47.1992 310.737 47.3561 309.848 47.1942C308.96 47.0322 308.366 46.6119 307.437 46.4732C306.509 46.3345 305.443 46.2894 304.488 46.1703C303.534 46.0512 302.588 45.9067 301.616 45.8054C300.643 45.7041 299.703 45.5517 298.704 45.47C297.706 45.3883 296.426 45.588 295.379 45.5282C294.333 45.4685 293.418 45.3261 292.384 45.2832C291.349 45.2402 290.11 45.4167 289.048 45.3903C287.987 45.3638 287.062 45.2078 285.996 45.1924C284.93 45.1771 283.667 45.4122 282.59 45.4129C281.513 45.4136 280.663 45.133 279.574 45.1497C278.486 45.1664 277.261 45.369 276.16 45.3986C275.06 45.4282 274.091 45.2532 272.982 45.3112C271.874 45.3692 270.765 45.3975 269.641 45.456C268.517 45.5145 267.231 45.8678 266.104 45.9405C264.976 46.0132 264.045 45.7166 262.913 45.8035C261.781 45.8904 260.639 45.9401 259.516 46.0315C258.393 46.1228 257.244 46.1712 256.11 46.2786C254.975 46.3859 253.81 46.4912 252.655 46.6101C251.501 46.7291 250.143 47.3679 248.984 47.4979C247.824 47.628 246.765 47.5186 245.608 47.658C244.451 47.7973 243.344 47.8287 242.153 47.9864C240.963 48.1441 239.819 48.3034 238.652 48.465C237.486 48.6266 236.331 48.7424 235.159 48.912C233.987 49.0816 232.845 49.1282 231.675 49.3071C230.505 49.486 229.323 49.7045 228.147 49.8883C226.971 50.0721 225.732 50.6679 224.551 50.8628C223.371 51.0577 222.209 51.238 221.03 51.4391C219.851 51.6402 218.712 51.405 217.556 51.607C216.4 51.8089 215.159 52.5707 213.976 52.7891C212.794 53.0075 211.64 53.0404 210.466 53.2601C209.291 53.4799 208.116 53.6668 206.936 53.8946C205.756 54.1223 204.582 54.2232 203.407 54.4429C202.233 54.6626 201.044 54.7968 199.866 55.0339C198.689 55.2709 197.516 55.6753 196.338 55.9123C195.161 56.1494 193.992 56.5395 192.818 56.789C191.643 57.0384 190.474 57.3957 189.304 57.6638C188.134 57.9319 186.901 57.717 185.729 57.9758C184.557 58.2346 183.393 58.5244 182.222 58.7863C181.051 59.0482 179.881 59.2537 178.712 59.5249C177.543 59.7961 176.406 60.2478 175.238 60.5221C174.07 60.7964 172.904 61.0502 171.738 61.3307C170.571 61.6112 169.482 62.1896 168.318 62.4764C167.153 62.7631 165.989 63.0231 164.826 63.316C163.663 63.609 162.479 63.7946 161.318 64.0937C160.156 64.3928 158.931 64.4765 157.771 64.7819C156.611 65.0872 155.472 65.4435 154.321 65.7532C153.17 66.0629 152.115 66.6558 150.967 66.9749C149.818 67.2939 148.689 67.6577 147.534 67.9817C146.378 68.3056 145.227 68.5825 144.074 68.9158C142.921 69.249 141.673 69.3617 140.536 69.6975C139.4 70.0334 138.354 70.5712 137.218 70.9102C136.082 71.2492 134.823 71.4106 133.692 71.7651C132.56 72.1196 131.45 72.5281 130.327 72.887C129.204 73.2459 127.951 73.4619 126.831 73.8301C125.71 74.1983 124.677 74.6966 123.562 75.0834C122.446 75.4703 121.5 76.0361 120.385 76.4261C119.27 76.816 117.953 76.9621 116.854 77.3547C115.755 77.7472 114.852 78.3586 113.763 78.7618C112.675 79.1649 111.247 79.2693 110.155 79.6866C109.063 80.104 108.016 80.5495 106.95 80.9801C105.884 81.4107 105.227 82.1721 104.169 82.604C103.111 83.0359 101.767 83.2549 100.72 83.6973C99.6726 84.1398 98.6998 84.633 97.6628 85.0861C96.6258 85.5392 95.2779 85.8022 94.2658 86.2623C93.2537 86.7224 92.5461 87.3775 91.5453 87.8513C90.5444 88.3251 89.2415 88.643 88.2583 89.1256C87.2752 89.6082 86.5041 90.1966 85.582 90.6772C84.6599 91.1579 83.6614 91.6707 82.7208 92.1691C81.7802 92.6676 80.6573 93.1157 79.7569 93.6206C78.8564 94.1256 78.2613 94.7692 77.3721 95.2879C76.4829 95.8066 75.6516 96.3406 74.7881 96.8694C73.9246 97.3982 72.9688 97.8971 72.1166 98.4397C71.2644 98.9822 70.3077 99.478 69.5029 100.025C68.698 100.572 68.0217 101.141 67.2563 101.691C66.4908 102.242 65.9519 102.835 65.2186 103.391C64.4852 103.947 64.0467 104.542 63.3528 105.101C62.6588 105.66 61.2346 106.134 60.5736 106.701C59.9126 107.269 59.9769 107.903 59.348 108.476C58.7191 109.049 58.0388 109.572 57.4678 110.13C56.8967 110.689 55.9577 111.223 55.4252 111.782C54.8927 112.34 54.2213 112.897 53.7201 113.458C53.2189 114.019 53.3965 114.586 52.9259 115.146C52.4553 115.705 51.3765 116.265 50.9364 116.823C50.4963 117.382 50.3333 117.941 49.9092 118.503C49.4852 119.064 48.6185 119.64 48.2314 120.196C47.8443 120.751 47.5054 121.315 47.1263 121.871C46.7473 122.428 47.243 122.975 46.8744 123.543C46.5057 124.11 46.0464 124.684 45.6938 125.254C45.3412 125.824 44.4577 126.424 44.1493 126.986C43.8409 127.548 43.7085 128.106 43.4009 128.672C43.0934 129.237 42.2355 129.847 41.9424 130.409C41.6493 130.971 42.0285 131.484 41.7515 132.049C41.4745 132.613 41.5412 133.138 41.2867 133.701C41.0321 134.263 40.841 134.802 40.6033 135.37C40.3656 135.938 39.891 136.512 39.6734 137.068C39.4558 137.625 39.1482 138.19 38.9467 138.749C38.7451 139.308 38.4649 139.86 38.3011 140.416C38.1373 140.972 38.2009 141.485 38.0435 142.036C37.8862 142.587 36.7632 143.273 36.6493 143.813C36.5353 144.354 36.9129 144.831 36.7845 145.375C36.6561 145.919 36.2232 146.506 36.1269 147.055C36.0306 147.604 36.1528 148.105 36.0685 148.642C35.9842 149.178 35.7104 149.755 35.6414 150.291C35.5724 150.826 36.2762 151.226 36.2289 151.756C36.1816 152.287 36.2226 152.802 36.1906 153.332C36.1586 153.861 35.7152 154.467 35.7201 154.991C35.7251 155.515 36.0505 155.969 36.0618 156.488C36.0732 157.007 35.5085 157.65 35.5424 158.167C35.5762 158.684 35.4421 159.236 35.4904 159.749C35.5387 160.262 35.6312 160.767 35.6939 161.277C35.7567 161.787 35.9005 162.283 35.985 162.787C36.0694 163.291 35.6984 163.909 35.8262 164.402C35.954 164.895 36.8506 165.207 36.9711 165.702C37.0917 166.198 36.7078 166.825 36.8429 167.316C36.9779 167.808 37.5757 168.184 37.7324 168.671C37.8891 169.157 38.5214 169.518 38.6998 169.999C38.8782 170.479 38.4028 171.14 38.5956 171.617C38.7885 172.094 38.5709 172.68 38.7879 173.161C39.0049 173.642 39.7617 173.949 39.9618 174.424C40.1619 174.9 40.7909 175.249 41.0633 175.706C41.3357 176.163 41.5415 176.631 41.8058 177.087C42.0702 177.543 41.8293 178.158 42.1154 178.608C42.4014 179.059 42.6449 179.524 42.9454 179.971C43.2459 180.418 43.4677 180.888 43.7899 181.329C44.1121 181.771 45.2866 181.908 45.6321 182.351C45.9776 182.793 45.8146 183.382 46.1714 183.808C46.5281 184.235 46.435 184.826 46.7982 185.248C47.1614 185.669 47.5133 186.107 47.8982 186.523C48.283 186.939 49.3153 187.122 49.6994 187.535C50.0834 187.948 50.6635 188.285 51.107 188.69C51.5505 189.095 51.2413 189.773 51.6896 190.167C52.1379 190.561 52.7766 190.887 53.2442 191.266C53.7118 191.645 53.9537 192.134 54.4365 192.512C54.9194 192.891 55.6272 193.187 56.1309 193.557C56.6346 193.927 57.6525 194.083 58.1707 194.449C58.6889 194.816 59.5171 195.042 60.0554 195.397C60.5937 195.752 60.9528 196.188 61.512 196.534C62.0712 196.881 62.9195 197.095 63.4923 197.435C64.0651 197.775 63.944 198.436 64.5312 198.772C65.1185 199.108 65.4953 199.523 66.0979 199.858C66.7004 200.194 67.6925 200.31 68.3569 200.617C69.0213 200.924 69.4054 201.337 70.0963 201.627C70.7872 201.918 72.1793 201.796 72.9023 202.062C73.6253 202.328 74.2094 202.651 74.9589 202.901C75.7085 203.15 76.6002 203.295 77.3762 203.527C78.1523 203.76 78.7323 204.098 79.5196 204.315C80.3069 204.532 81.3857 204.567 82.1939 204.776C83.0021 204.984 83.3998 205.45 84.2232 205.658C85.0466 205.865 85.8211 206.092 86.6895 206.266C87.5579 206.439 88.1267 206.823 88.9935 206.99C89.8603 207.157 91.1424 207.027 92.0293 207.182C92.9162 207.338 93.9131 207.413 94.7847 207.57C95.6563 207.726 96.1681 208.186 97.0799 208.319C97.9917 208.452 98.9452 208.569 99.8763 208.687C100.807 208.805 102.371 208.396 103.312 208.492C104.253 208.588 104.61 209.226 105.573 209.316C106.535 209.407 107.954 209.093 108.93 209.174C109.905 209.255 110.818 209.391 111.802 209.45C112.787 209.509 113.961 209.405 114.953 209.461C115.945 209.518 116.439 210.119 117.443 210.163C118.448 210.207 119.945 209.748 120.967 209.771C121.988 209.794 122.944 209.919 123.978 209.929C125.012 209.94 126.105 209.912 127.15 209.903C128.194 209.894 129.074 210.17 130.138 210.15C131.203 210.129 132.613 209.633 133.689 209.596C134.764 209.559 135.834 209.557 136.916 209.486C137.998 209.415 139.165 209.256 140.256 209.16C141.347 209.063 142.481 208.986 143.587 208.859Z" fill="#E8C15D"/>
<path d="M18.1849 109.294L61.085 85.7528L115.152 107.744L114.006 130.941L69.7628 159.045L17.0393 132.492L18.1849 109.294Z" fill="#EFDAC5"/>
<path fill-rule="evenodd" clip-rule="evenodd" d="M61.4701 84.6715C62.1059 84.3595 62.8489 84.3371 63.5121 84.61L114.655 105.655C115.555 106.025 116.169 106.879 116.232 107.847C116.251 108.131 116.221 108.409 116.148 108.673C117.129 109.893 117.696 111.479 117.569 113.255L116.307 130.993C116.188 132.662 115.326 134.185 113.91 135.115C108.213 138.855 82.9128 155.343 71.2054 160.884C70.5588 161.19 69.8073 161.199 69.1435 160.909C42.6376 149.319 22.8975 138.649 17.1673 135.479C15.249 134.418 14.1618 132.349 14.3133 130.22L15.6927 110.841C15.7985 109.356 16.4672 108.097 17.4511 107.21C17.6306 106.533 18.0912 105.956 18.737 105.639L61.4701 84.6715ZM112.184 111.669L82.7338 127.527L74.4841 132.355L72.9172 154.368C85.2836 147.769 105.898 134.344 111.127 130.912C111.236 130.84 111.314 130.721 111.326 130.553L112.589 112.815C112.621 112.361 112.457 111.96 112.184 111.669ZM64.8487 90.5398L103.752 106.548L71.975 109.352C71.9389 109.33 71.9021 109.308 71.8646 109.288L63.8267 104.897L64.8487 90.5398ZM59.5874 108.242L32.4777 110.392L45.4203 116.183L69.0043 126.334L68.5507 113.139L59.5874 108.242ZM73.582 114.244L99.3381 111.971L85.3299 120.169L73.9938 126.225L73.582 114.244ZM21.4213 111.269L20.67 111.328L19.2939 130.66C19.2793 130.866 19.3798 131.026 19.5223 131.105C24.9312 134.097 43.1703 143.96 67.8665 154.912L69.4696 132.392L43.4833 120.764L21.4213 111.269ZM58.931 103.265L32.7496 105.341L59.7592 91.6295L58.931 103.265Z" fill="#ECECEC"/>
<path d="M116.534 108.271L157.997 82.2806L213.248 101.099L213.45 124.323L170.911 154.946L116.736 131.496L116.534 108.271Z" fill="#EFDAC5"/>
<path fill-rule="evenodd" clip-rule="evenodd" d="M158.317 81.1785C158.933 80.8302 159.674 80.7648 160.352 80.9987L212.629 99.042C213.549 99.3594 214.212 100.176 214.331 101.139C214.366 101.42 214.352 101.699 214.296 101.966C215.346 103.127 216.005 104.679 215.982 106.46L215.75 124.241C215.728 125.914 214.956 127.485 213.597 128.495C208.125 132.559 183.824 150.488 172.458 156.698C171.83 157.041 171.081 157.093 170.401 156.842C143.268 146.809 122.942 137.302 117.038 134.47C115.061 133.522 113.855 131.52 113.883 129.385L114.136 109.959C114.156 108.472 114.749 107.177 115.679 106.234C115.818 105.548 116.245 104.943 116.872 104.589L158.317 81.1785ZM210.512 105.188L182.054 122.715L174.077 128.027L173.789 150.094C185.752 142.788 205.553 128.19 210.574 124.461C210.679 124.382 210.75 124.259 210.752 124.091L210.984 106.31C210.99 105.854 210.802 105.463 210.512 105.188ZM162.031 86.8413L201.796 100.566L170.235 105.208C170.199 105.188 170.161 105.169 170.123 105.151L161.843 101.233L162.031 86.8413ZM157.805 104.819L130.868 108.537L144.178 113.588L168.256 122.334L167.037 109.187L157.805 104.819ZM172.124 109.998L197.707 106.235L184.213 115.222L173.23 121.935L172.124 109.998ZM119.879 110.054L119.133 110.157L118.881 129.536C118.878 129.742 118.988 129.896 119.135 129.967C124.708 132.64 143.489 141.428 168.779 150.93L169.073 128.354L142.51 118.274L119.879 110.054ZM156.861 99.8884L130.844 103.48L157.013 88.2246L156.861 99.8884Z" fill="#ECECEC"/>
<path d="M128.915 146.744L170.209 136.365L166.879 189.759L120.824 201.985L86.8041 188.83L91.8956 144.435L128.915 146.744Z" fill="#EEEDEC"/>
<path d="M5.4947 161.113L16.4414 106.631L48.9078 126.076L46.3826 166.566L5.4947 161.113Z" fill="#EEEDEC"/>
<path d="M172.531 134.948L130.623 145.779C130.419 145.832 130.208 145.852 129.998 145.839L91.8811 143.461C90.8146 143.395 89.8842 144.179 89.7684 145.241L85.2888 186.322C85.1912 187.217 85.7037 188.067 86.5409 188.398L121.966 202.419C122.388 202.587 122.855 202.605 123.289 202.472L173.433 187.094" stroke="#D7D7D7" stroke-width="4"/>
<path d="M51.8336 90.2565L16.2637 104.611M16.2637 104.611L49.6007 125.782C50.2317 126.183 50.5866 126.902 50.5207 127.647L47.2563 164.523C47.1557 165.659 46.1267 166.481 44.9963 166.328L6.48642 161.125C5.33368 160.97 4.55653 159.867 4.79763 158.729L16.2637 104.611Z" stroke="#D7D7D7" stroke-width="4"/>
<path d="M125.626 152.927L123.317 189.946" stroke="#D7D7D7" stroke-width="4" stroke-linecap="round"/>
<path d="M171.679 131.305L46.2349 88.3708C44.3962 87.7415 44.4448 85.1244 46.3055 84.5636L235.277 27.6185C235.715 27.4862 236.187 27.5087 236.611 27.6823L362.495 79.1776L359.09 133.764C359.054 134.352 358.815 134.863 358.301 135.15C345.481 142.287 230.279 175.31 170.513 191.981C169.188 192.351 167.938 191.291 168.024 189.918L171.679 131.305Z" fill="#FFC42C"/>
<path d="M171.679 131.305L46.2349 88.3708C44.3962 87.7415 44.4448 85.1244 46.3055 84.5636L235.277 27.6185C235.715 27.4862 236.187 27.5087 236.611 27.6823L362.495 79.1776M171.679 131.305L362.495 79.1776M171.679 131.305L168.024 189.918C167.938 191.291 169.188 192.351 170.513 191.981C230.279 175.31 345.481 142.287 358.301 135.15C358.815 134.863 359.054 134.352 359.09 133.764L362.495 79.1776" stroke="#E8BF58" stroke-width="4"/>
<path d="M329.469 62.2479L204.942 103.417C190.264 108.269 174.327 109.181 159.937 103.531C154.006 101.202 148.309 98.5128 144.87 95.7626C138.171 90.405 140.443 81.5636 142.512 76.5671C143.551 74.0606 145.691 72.2527 148.186 71.1882L157.047 67.4082L180.185 58.623L209.344 49.8027L258.068 34.0837L329.469 62.2479Z" fill="#FFC42C" stroke="#F5F5F5" stroke-width="4"/>
<path d="M281.459 71.2164L204.444 93.6024C190.87 97.5478 176.11 98.7202 163.262 92.8256C161.396 91.9695 159.751 91.0787 158.527 90.1822C154.703 87.3809 155.164 83.1068 156.211 80.0315C157.091 77.4487 159.381 75.7302 161.932 74.7637L166.44 73.0564L181.815 67.8954L202.196 61.1122L234.152 51.491L281.459 71.2164Z" stroke="#F5F5F5" stroke-width="3"/>
</svg>
