<svg width="150" height="126" viewBox="0 0 150 126" fill="none" xmlns="http://www.w3.org/2000/svg">
<path d="M41.1726 116.714C41.6508 116.82 42.0748 117.047 42.6059 117.152C43.137 117.257 43.6553 117.256 44.187 117.352C44.7187 117.447 45.1215 117.696 45.6538 117.783C46.186 117.871 46.6947 117.916 47.2275 117.995C47.7603 118.075 48.3256 117.962 48.8556 118.035C49.3855 118.107 49.8643 118.254 50.3979 118.322C50.9314 118.39 51.404 118.58 51.9379 118.644C52.4718 118.707 52.9825 118.77 53.5168 118.827C54.0511 118.884 54.597 118.767 55.1315 118.82C55.666 118.874 56.1603 119.036 56.695 119.087C57.2297 119.137 57.737 119.254 58.2687 119.299C58.8005 119.344 59.3457 119.138 59.8777 119.178C60.4098 119.218 60.9181 119.468 61.4505 119.504C61.9829 119.539 62.5092 119.618 63.0413 119.657C63.5735 119.696 64.0988 119.541 64.6284 119.569C65.1581 119.596 65.6811 119.574 66.2142 119.598C66.7474 119.623 67.2707 119.695 67.8009 119.714C68.3311 119.734 68.8482 119.651 69.3754 119.667C69.9025 119.683 70.4444 119.823 70.9752 119.834C71.5059 119.845 72.0225 119.822 72.5502 119.828C73.078 119.834 73.585 119.754 74.113 119.757C74.641 119.76 75.1858 119.856 75.7108 119.854C76.2359 119.852 76.7634 119.861 77.2887 119.854C77.8141 119.847 78.3413 119.861 78.8637 119.849C79.386 119.837 79.951 119.929 80.4699 119.92C80.9888 119.91 81.4874 119.807 82.0039 119.785C82.5203 119.763 82.9835 119.599 83.497 119.57C84.0106 119.541 84.5856 119.632 85.0963 119.596C85.6071 119.56 86.0948 119.473 86.6059 119.432C87.1169 119.392 87.5833 119.278 88.0882 119.231C88.5931 119.183 89.143 119.204 89.6419 119.148C90.1407 119.092 90.6914 119.102 91.1841 119.039C91.6768 118.976 92.0365 118.73 92.5297 118.659C93.023 118.588 93.7091 118.745 94.1797 118.667C94.6503 118.59 95.1246 118.506 95.5923 118.422C96.0601 118.338 96.3581 118.074 96.8196 117.985C97.2811 117.895 97.7116 117.776 98.1602 117.681C98.6089 117.586 99.0365 117.46 99.5018 117.362C99.9671 117.265 100.478 117.231 100.924 117.127C101.37 117.024 101.781 116.89 102.224 116.781C102.667 116.673 103.179 116.626 103.615 116.513C104.052 116.401 104.551 116.339 104.981 116.221C105.412 116.103 105.685 115.861 106.112 115.741C106.54 115.621 106.954 115.494 107.375 115.37C107.796 115.245 108.425 115.271 108.839 115.143C109.254 115.014 109.479 114.748 109.891 114.616C110.302 114.484 110.834 114.436 111.232 114.299C111.631 114.163 111.995 113.992 112.397 113.859C112.799 113.727 113.413 113.718 113.806 113.573C114.198 113.428 114.369 113.144 114.759 112.994C115.148 112.845 115.578 112.73 115.961 112.578C116.345 112.426 116.902 112.376 117.279 112.222C117.656 112.068 117.991 111.888 118.365 111.732C118.738 111.577 119.08 111.392 119.421 111.231C119.762 111.069 120.226 110.946 120.583 110.783C120.941 110.619 120.947 110.269 121.305 110.103C121.663 109.936 122.183 109.857 122.528 109.688C122.872 109.518 123.179 109.324 123.521 109.151C123.862 108.978 124.383 108.89 124.718 108.715C125.053 108.54 125.43 108.379 125.759 108.201C126.088 108.022 126.292 107.784 126.614 107.602C126.937 107.42 127.362 107.282 127.677 107.099C127.993 106.916 127.989 106.59 128.301 106.404C128.614 106.218 128.93 106.035 129.236 105.845C129.543 105.655 130.161 105.588 130.461 105.404C130.76 105.22 130.726 104.889 131.019 104.695C131.313 104.501 131.973 104.448 132.257 104.25C132.541 104.052 132.596 103.768 132.877 103.568C133.157 103.368 133.589 103.226 133.863 103.024C134.138 102.822 134.05 102.495 134.318 102.29C134.586 102.086 135.06 101.957 135.321 101.751C135.582 101.545 135.711 101.293 135.963 101.086C136.214 100.879 136.669 100.736 136.914 100.525C137.16 100.315 137.259 100.056 137.498 99.8433C137.736 99.6306 138.163 99.4753 138.398 99.2607C138.633 99.0461 138.866 98.8313 139.101 98.6151C139.337 98.3989 139.598 98.1927 139.804 97.9727C140.01 97.7527 140.074 97.4883 140.283 97.2653C140.493 97.0424 140.728 96.8294 140.928 96.6057C141.128 96.382 141.259 96.1436 141.453 95.913C141.646 95.6824 141.914 95.4799 142.097 95.2518C142.281 95.0237 142.539 94.8124 142.716 94.5822C142.893 94.352 142.826 94.0667 142.994 93.8341C143.161 93.6016 143.64 93.4389 143.798 93.204C143.955 92.9692 144.015 92.7126 144.176 92.478C144.337 92.2433 144.589 92.0219 144.727 91.7888C144.865 91.5557 144.801 91.2723 144.929 91.032C145.057 90.7918 145.163 90.5482 145.278 90.3054C145.393 90.0626 145.583 89.8317 145.689 89.5882C145.794 89.3447 145.762 89.0798 145.857 88.8339C145.953 88.588 145.96 88.3308 146.046 88.0842C146.131 87.8376 146.439 87.6267 146.512 87.3711C146.585 87.1155 146.383 86.8397 146.442 86.5896C146.502 86.3395 146.889 86.1246 146.935 85.8735C146.982 85.6224 146.641 85.3334 146.658 85.0785C146.675 84.8237 147.214 84.615 147.24 84.3609C147.267 84.1067 147.117 83.8396 147.127 83.5843C147.137 83.329 146.832 83.0571 146.822 82.8003C146.813 82.5435 146.968 82.2987 146.952 82.0431C146.936 81.7875 146.821 81.5278 146.792 81.2729C146.763 81.0179 147.126 80.7672 147.083 80.5113C147.041 80.2553 146.89 79.9931 146.834 79.7362C146.779 79.4793 146.71 79.2214 146.641 78.9635C146.573 78.7057 146.084 78.4577 146.002 78.2005C145.92 77.9433 146.116 77.6804 146.021 77.4254C145.925 77.1705 145.77 76.9209 145.659 76.6583C145.548 76.3957 145.598 76.1384 145.473 75.8829C145.348 75.6274 145.153 75.3734 145.015 75.1234C144.876 74.8734 144.808 74.6091 144.656 74.3565C144.505 74.1039 144.46 73.8364 144.295 73.5861C144.13 73.3358 143.456 73.1424 143.278 72.8927C143.1 72.6431 143.031 72.3885 142.84 72.1346C142.649 71.8808 142.357 71.6552 142.148 71.4099C141.94 71.1645 141.872 70.9034 141.647 70.6553C141.423 70.4071 141.351 70.1474 141.113 69.9015C140.875 69.6556 140.714 69.4023 140.462 69.1651C140.21 68.9279 139.583 68.7768 139.318 68.5435C139.053 68.3102 139.047 68.0115 138.768 67.7804C138.49 67.5494 138.033 67.3686 137.738 67.1412C137.443 66.9138 137.443 66.6059 137.128 66.3819C136.813 66.1579 136.44 65.9556 136.118 65.7376C135.795 65.5196 135.546 65.2517 135.204 65.0339C134.862 64.816 134.27 64.6837 133.921 64.4702C133.572 64.2567 133.383 63.9641 133.014 63.7557C132.645 63.5472 132.205 63.3627 131.823 63.1597C131.44 62.9567 131.065 62.7429 130.672 62.5457C130.279 62.3484 129.907 62.1317 129.5 61.9399C129.094 61.7481 128.529 61.6486 128.1 61.46C127.67 61.2714 127.307 61.0634 126.88 60.8847C126.453 60.706 125.909 60.6015 125.468 60.4267C125.027 60.2519 124.662 60.0355 124.218 59.8653C123.774 59.6951 123.211 59.6152 122.76 59.451C122.309 59.2867 121.993 59.0222 121.534 58.8639C121.076 58.7056 120.534 58.6158 120.069 58.4619C119.604 58.308 119.223 58.076 118.751 57.9345C118.278 57.7931 117.81 57.6373 117.331 57.4938C116.852 57.3502 116.263 57.3234 115.78 57.186C115.297 57.0487 114.95 56.764 114.463 56.6328C113.977 56.5017 113.492 56.3512 113.008 56.2235C112.525 56.0958 112.037 55.9435 111.546 55.8218C111.056 55.7001 110.553 55.5726 110.052 55.4534C109.552 55.3342 108.892 55.4335 108.387 55.3189C107.883 55.2043 107.455 54.9899 106.951 54.8801C106.447 54.7704 105.978 54.6162 105.457 54.5101C104.936 54.404 104.434 54.3058 103.922 54.2052C103.411 54.1046 102.911 53.9838 102.395 53.8863C101.88 53.7887 101.395 53.6366 100.88 53.5438C100.364 53.4511 99.8381 53.3754 99.3193 53.284C98.8005 53.1927 98.1965 53.2896 97.6741 53.2028C97.1517 53.1161 96.6395 53.0252 96.1169 52.9417C95.5943 52.8581 95.1511 52.5713 94.6382 52.4917C94.1252 52.4121 93.4962 52.5883 92.9698 52.5125C92.4433 52.4368 91.9555 52.2764 91.4323 52.2026C90.909 52.1287 90.3901 52.0389 89.8633 51.9681C89.3366 51.8972 88.8303 51.7662 88.307 51.6924C87.7838 51.6185 87.2667 51.5014 86.7396 51.4353C86.2125 51.3693 85.6636 51.3843 85.1365 51.3183C84.6094 51.2522 84.0641 51.2611 83.5366 51.2015C83.0091 51.1419 82.4682 51.1348 81.94 51.0849C81.4119 51.035 80.9262 50.7435 80.3984 50.6887C79.8705 50.634 79.3416 50.5954 78.8137 50.5423C78.2857 50.4891 77.7662 50.4091 77.2379 50.3608C76.7097 50.3125 76.1687 50.3556 75.6404 50.309C75.112 50.2623 74.5876 50.2062 74.059 50.1627C73.5304 50.1193 72.9915 50.2307 72.4627 50.1904C71.9339 50.1502 71.4093 50.0973 70.8803 50.0603C70.3513 50.0233 69.8292 49.9317 69.3 49.898C68.7707 49.8642 68.2457 49.7173 67.7163 49.6867C67.1868 49.6562 66.6589 49.6533 66.1325 49.6262C65.6061 49.5991 65.0797 49.7228 64.553 49.7005C64.0263 49.6783 63.5013 49.6805 62.9712 49.6596C62.4411 49.6387 61.9191 49.5958 61.3887 49.5797C60.8583 49.5637 60.3194 49.4271 59.7953 49.4148C59.2713 49.4025 58.7564 49.501 58.2322 49.4903C57.7081 49.4796 57.1578 49.3649 56.6331 49.3622C56.1085 49.3596 55.5851 49.3862 55.0635 49.387C54.5419 49.3878 53.9865 49.3003 53.4646 49.306C52.9426 49.3116 52.4388 49.3932 51.9162 49.4085C51.3936 49.4238 50.9164 49.5511 50.3937 49.568C49.871 49.585 49.2987 49.454 48.7824 49.4747C48.2661 49.4954 47.8002 49.651 47.2867 49.6783C46.7733 49.7057 46.1605 49.5378 45.6433 49.5713C45.1261 49.6049 44.6241 49.659 44.1161 49.703C43.6081 49.7469 43.2241 50.0122 42.7193 50.0581C42.2145 50.1039 41.6203 50.0038 41.1184 50.0563C40.6165 50.1088 40.1386 50.1971 39.6395 50.2563C39.1404 50.3154 38.5383 50.2358 38.0486 50.3022C37.559 50.3686 37.1689 50.5751 36.682 50.6498C36.1951 50.7244 35.604 50.6781 35.1232 50.7597C34.6425 50.8413 34.2354 51.006 33.7805 51.096C33.3256 51.186 32.8341 51.2798 32.3689 51.3755C31.9037 51.4712 31.3693 51.5148 30.92 51.6198C30.4707 51.7248 30.1294 51.943 29.6829 52.0563C29.2363 52.1695 28.8118 52.299 28.3746 52.4211C27.9373 52.5431 27.4657 52.6367 27.0312 52.7671C26.5967 52.8975 26.1251 52.9895 25.7098 53.1293C25.2945 53.2692 24.93 53.4387 24.5307 53.5862C24.1314 53.7337 23.8209 53.9364 23.4343 54.0913C23.0477 54.2462 22.779 54.4649 22.4084 54.6274C22.0377 54.79 21.3736 54.7999 21.0156 54.9715C20.6576 55.1431 20.5938 55.4578 20.2485 55.6368C19.9032 55.8158 19.5435 55.963 19.2245 56.1439C18.9055 56.3248 18.4358 56.438 18.1329 56.625C17.83 56.812 17.4692 56.9769 17.1791 57.1697C16.889 57.3624 16.8823 57.6618 16.6052 57.8588C16.328 58.0557 15.7963 58.1595 15.532 58.3607C15.2678 58.5618 15.1196 58.8055 14.8617 59.0103C14.6038 59.2152 14.1585 59.3593 13.917 59.567C13.6754 59.7746 13.4529 59.9934 13.2145 60.2029C12.9762 60.4125 13.1055 60.7509 12.87 60.9671C12.6345 61.1833 12.3601 61.3886 12.1309 61.6085C11.9017 61.8284 11.4459 61.9815 11.2364 62.2045C11.0268 62.4275 10.8915 62.6753 10.6819 62.8999C10.4722 63.1244 10.0257 63.2864 9.8226 63.5114C9.6195 63.7365 9.70491 64.0409 9.50817 64.2697C9.31143 64.4985 9.2643 64.7608 9.0773 64.9919C8.89031 65.223 8.73309 65.453 8.55235 65.6894C8.3716 65.9259 8.09073 66.129 7.92005 66.3629C7.74937 66.5968 7.5397 66.8214 7.37538 67.059C7.21106 67.2966 7.01474 67.519 6.86663 67.761C6.71852 68.003 6.67182 68.259 6.52711 68.4996C6.38239 68.7403 5.81403 68.8982 5.68902 69.1403C5.56402 69.3824 5.6539 69.6693 5.52232 69.9109C5.39075 70.1526 5.12555 70.3682 5.00668 70.6173C4.88782 70.8663 4.86729 71.1257 4.75532 71.3704C4.64335 71.6151 4.44617 71.8503 4.34066 72.0971C4.23515 72.3438 4.47276 72.6432 4.3771 72.8907C4.28145 73.1382 4.225 73.3918 4.13581 73.6414C4.04662 73.8909 3.77431 74.1142 3.70144 74.3666C3.62857 74.619 3.69992 74.8868 3.63044 75.1378C3.56096 75.3888 3.23259 75.6112 3.17286 75.8645C3.11313 76.1179 2.97805 76.3625 2.92489 76.6163C2.87172 76.8702 2.83816 77.127 2.79157 77.3813C2.74498 77.6357 2.73431 77.8958 2.69757 78.1509C2.66083 78.4059 2.41713 78.6458 2.40011 78.9023C2.38308 79.1587 2.71396 79.4455 2.69364 79.7017C2.67333 79.9579 2.42285 80.2006 2.40911 80.4573C2.39537 80.714 2.59187 80.9861 2.58799 81.2435C2.5841 81.5009 2.79724 81.771 2.80321 82.0291C2.80918 82.2873 2.51567 82.5316 2.52821 82.7903C2.54075 83.0489 2.36582 83.2971 2.3879 83.5613C2.40997 83.8255 2.683 84.0885 2.69882 84.3474C2.71465 84.6062 2.92822 84.8698 2.9769 85.1311C3.02557 85.3924 3.0449 85.6482 3.09039 85.9076C3.13589 86.1671 2.94708 86.4256 3.00243 86.6857C3.05778 86.9458 3.09332 87.2061 3.15524 87.4668C3.21716 87.7274 3.24284 87.987 3.31462 88.2483C3.3864 88.5096 3.85868 88.7548 3.9401 89.0201C4.02152 89.2854 3.86905 89.5433 3.95747 89.8026C4.04589 90.0619 3.92234 90.3317 4.01415 90.5896C4.10596 90.8475 4.19078 91.1114 4.29244 91.3701C4.39411 91.6287 4.80036 91.8739 4.90213 92.131C5.00391 92.388 5.19852 92.6389 5.32636 92.9011C5.4542 93.1632 5.22775 93.4417 5.35919 93.6993C5.49064 93.9569 5.71143 94.2112 5.85305 94.4647C5.99467 94.7182 6.02617 94.9895 6.17426 95.2451C6.32234 95.5006 6.57641 95.751 6.73446 96.0056C6.89251 96.2603 7.29644 96.4908 7.46106 96.7459C7.62567 97.001 7.94016 97.2363 8.11484 97.489C8.28953 97.7416 8.37763 98.0057 8.56228 98.2575C8.74693 98.5092 9.07148 98.742 9.26281 98.9926C9.45414 99.2432 9.30885 99.5422 9.50675 99.7933C9.70465 100.044 9.80313 100.301 10.0075 100.554C10.2119 100.808 10.6107 101.015 10.8451 101.264C11.0794 101.513 11.1812 101.77 11.429 102.015C11.6768 102.26 12.2773 102.414 12.5421 102.652C12.8069 102.89 13.0052 103.135 13.2834 103.369C13.5617 103.603 13.9144 103.809 14.2061 104.039C14.4978 104.27 14.6924 104.521 14.9911 104.745C15.2898 104.969 15.7366 105.151 16.0453 105.375C16.3539 105.598 16.4539 105.883 16.769 106.108C17.0841 106.334 17.3761 106.561 17.7149 106.777C18.0538 106.993 18.2372 107.264 18.5763 107.477C18.9153 107.69 19.471 107.823 19.8201 108.033C20.1693 108.243 20.576 108.432 20.9187 108.64C21.2614 108.848 21.4099 109.147 21.7727 109.35C22.1355 109.554 22.5183 109.755 22.8913 109.954C23.2643 110.153 23.9778 110.195 24.358 110.385C24.7383 110.575 24.7968 110.936 25.1869 111.127C25.577 111.317 26.2163 111.383 26.6132 111.571C27.01 111.759 27.3727 111.964 27.7768 112.142C28.1809 112.321 28.6873 112.45 29.0946 112.629C29.502 112.808 29.6231 113.172 30.0373 113.346C30.4516 113.521 31.1442 113.529 31.5689 113.696C31.9935 113.863 32.3759 114.07 32.8075 114.232C33.239 114.395 33.7008 114.549 34.1395 114.704C34.5781 114.859 34.907 115.126 35.3557 115.279C35.8044 115.432 36.4661 115.409 36.9219 115.556C37.3776 115.702 37.8256 115.865 38.289 115.996C38.7523 116.127 39.2638 116.229 39.7345 116.349C40.2051 116.469 40.6912 116.605 41.1726 116.714Z" fill="#E8C15D"/>
<path d="M18.832 39.1673L70.7336 2.87695L139.318 27.8879V59.7645L86.026 102.43L18.832 71.044V39.1673Z" fill="#EFDAC5"/>
<path fill-rule="evenodd" clip-rule="evenodd" d="M69.3843 0.422708C70.0379 -0.0149562 70.8594 -0.119469 71.6018 0.14059L137.966 23.3882C138.775 23.6716 139.377 24.3474 139.572 25.1721C140.9 26.3241 141.782 28.0249 141.782 30.0623V58.5204C141.782 60.0889 141.122 61.5927 139.915 62.6458C133.972 67.8343 102.565 95.1039 88.0393 104.526C87.3724 104.958 86.5395 105.048 85.7958 104.767C50.3869 91.3984 24.0793 78.5085 17.4405 75.1786C15.5637 74.2373 14.4492 72.3365 14.4492 70.2994V40.4076C14.4492 38.5605 15.3357 36.9888 16.6547 36.0034C16.8396 35.703 17.089 35.4399 17.3929 35.2364L69.3843 0.422708ZM136.556 29.2638L99.5238 56.2038L89.1789 64.3181V97.6926C104.47 86.8134 131.059 63.7409 136.627 58.8793C136.721 58.7971 136.782 58.6781 136.782 58.5204V30.0623C136.782 29.7596 136.698 29.489 136.556 29.2638ZM73.2749 6.0246L128.224 25.2733L84.5394 33.9381C84.4608 33.8878 84.3786 33.8414 84.2929 33.7993L73.2749 28.3799V6.0246ZM68.9427 31.8211L31.284 38.9091L51.7327 46.8496L83.1808 58.4957L81.2231 37.8615L68.9427 31.8211ZM86.3234 38.6817L123.048 31.3973L102.681 47.3729L88.1442 57.8731L86.3234 38.6817ZM21.0794 40.8297L19.8576 41.0597C19.721 41.0854 19.5845 41.0994 19.4492 41.1024V70.2994C19.4492 70.5078 19.5517 70.6439 19.6821 70.7093C26.012 73.8842 50.6966 85.983 84.1789 98.8032V64.8129L49.9594 51.5248L21.0794 40.8297ZM68.2749 26.859L30.5156 33.9659L68.2749 7.90728V26.859Z" fill="#ECECEC"/>
</svg>
