<svg width="135" height="108" viewBox="0 0 135 108" fill="none" xmlns="http://www.w3.org/2000/svg">
<path d="M37.8396 99.4355C38.2791 99.5321 38.6688 99.7387 39.1569 99.8344C39.6449 99.9301 40.1213 99.9291 40.61 100.016C41.0987 100.103 41.4688 100.329 41.958 100.408C42.4472 100.488 42.9147 100.529 43.4043 100.601C43.894 100.673 44.4136 100.571 44.9006 100.637C45.3877 100.703 45.8277 100.837 46.3181 100.899C46.8084 100.961 47.2428 101.134 47.7334 101.191C48.2241 101.249 48.6935 101.306 49.1845 101.358C49.6756 101.41 50.1773 101.303 50.6685 101.352C51.1597 101.4 51.614 101.548 52.1054 101.594C52.5969 101.64 53.063 101.746 53.5518 101.787C54.0405 101.828 54.5415 101.64 55.0305 101.677C55.5195 101.714 55.9867 101.941 56.476 101.973C56.9653 102.006 57.4489 102.077 57.938 102.113C58.4271 102.148 58.9098 102.007 59.3966 102.032C59.8834 102.057 60.3641 102.037 60.8541 102.059C61.3441 102.082 61.8251 102.147 62.3123 102.165C62.7996 102.182 63.2748 102.108 63.7593 102.122C64.2437 102.136 64.7418 102.264 65.2296 102.274C65.7174 102.284 66.1921 102.262 66.6771 102.268C67.1622 102.273 67.6282 102.201 68.1134 102.204C68.5986 102.206 69.0994 102.294 69.5819 102.292C70.0644 102.29 70.5493 102.298 71.0321 102.292C71.5149 102.286 71.9994 102.299 72.4795 102.288C72.9596 102.277 73.4788 102.36 73.9557 102.351C74.4326 102.343 74.8909 102.249 75.3655 102.229C75.8402 102.209 76.2658 102.06 76.7378 102.034C77.2098 102.007 77.7382 102.09 78.2076 102.057C78.677 102.025 79.1253 101.945 79.5949 101.908C80.0646 101.871 80.4933 101.768 80.9573 101.725C81.4213 101.682 81.9267 101.701 82.3852 101.65C82.8437 101.599 83.3497 101.608 83.8026 101.55C84.2554 101.493 84.5859 101.269 85.0393 101.205C85.4926 101.14 86.1232 101.283 86.5557 101.213C86.9882 101.142 87.4241 101.066 87.8539 100.99C88.2838 100.913 88.5578 100.673 88.9819 100.592C89.406 100.51 89.8016 100.402 90.214 100.315C90.6263 100.229 91.0193 100.114 91.4469 100.026C91.8746 99.937 92.3439 99.906 92.7537 99.8118C93.1635 99.7176 93.5418 99.596 93.9489 99.4972C94.356 99.3984 94.826 99.3557 95.2273 99.2534C95.6285 99.1512 96.0874 99.0945 96.4829 98.9874C96.8784 98.8804 97.1299 98.6597 97.5225 98.551C97.915 98.4422 98.296 98.3268 98.6828 98.2132C99.0696 98.0996 99.6475 98.1237 100.028 98.0067C100.409 97.8898 100.617 97.6483 100.995 97.5282C101.373 97.4081 101.862 97.3637 102.228 97.2398C102.594 97.1159 102.929 96.9603 103.298 96.8395C103.667 96.7188 104.232 96.711 104.593 96.5793C104.954 96.4476 105.111 96.1892 105.469 96.0529C105.827 95.9166 106.222 95.8125 106.574 95.6743C106.926 95.5361 107.439 95.4906 107.785 95.3505C108.131 95.2104 108.44 95.0469 108.783 94.9051C109.126 94.7633 109.441 94.5959 109.754 94.449C110.067 94.3021 110.493 94.1899 110.822 94.0411C111.15 93.8924 111.157 93.5744 111.485 93.4227C111.814 93.271 112.292 93.1994 112.609 93.0454C112.926 92.8914 113.207 92.7142 113.521 92.5571C113.835 92.3999 114.314 92.3195 114.622 92.1604C114.93 92.0013 115.276 91.8554 115.579 91.6929C115.881 91.5305 116.068 91.3141 116.365 91.1482C116.661 90.9824 117.051 90.8573 117.342 90.6911C117.632 90.5248 117.628 90.2282 117.915 90.0588C118.203 89.8894 118.493 89.7232 118.774 89.5504C119.056 89.3776 119.624 89.317 119.899 89.1496C120.175 88.9823 120.143 88.6808 120.413 88.5042C120.683 88.3276 121.29 88.28 121.551 88.0999C121.811 87.9197 121.862 87.661 122.12 87.4791C122.378 87.2973 122.775 87.1682 123.027 86.9844C123.279 86.8007 123.199 86.503 123.445 86.3173C123.691 86.1317 124.127 86.0143 124.367 85.8267C124.607 85.6391 124.725 85.4104 124.956 85.2221C125.187 85.0339 125.606 84.9035 125.831 84.7119C126.056 84.5203 126.148 84.2851 126.367 84.0916C126.586 83.8982 126.978 83.7569 127.194 83.5617C127.411 83.3666 127.624 83.1712 127.841 82.9745C128.057 82.7779 128.297 82.5903 128.487 82.3903C128.676 82.1902 128.735 81.9497 128.927 81.7469C129.12 81.5441 129.336 81.3504 129.52 81.147C129.703 80.9435 129.824 80.7267 130.002 80.5169C130.18 80.3072 130.426 80.123 130.594 79.9155C130.763 79.7081 131 79.5159 131.163 79.3065C131.326 79.0971 131.264 78.8377 131.418 78.6262C131.572 78.4147 132.012 78.2667 132.157 78.053C132.302 77.8394 132.357 77.6061 132.505 77.3927C132.653 77.1793 132.885 76.9779 133.011 76.7659C133.138 76.5539 133.079 76.2961 133.197 76.0776C133.315 75.8591 133.411 75.6376 133.517 75.4167C133.623 75.1958 133.798 74.9859 133.895 74.7644C133.992 74.5429 133.962 74.3019 134.05 74.0783C134.138 73.8547 134.144 73.6208 134.223 73.3965C134.302 73.1722 134.585 72.9803 134.652 72.7479C134.719 72.5154 134.533 72.2645 134.587 72.0371C134.642 71.8096 134.998 71.6141 135.041 71.3858C135.083 71.1574 134.77 70.8945 134.786 70.6627C134.801 70.4309 135.296 70.2411 135.321 70.01C135.346 69.7788 135.207 69.5359 135.217 69.3037C135.226 69.0715 134.945 68.8241 134.937 68.5906C134.928 68.3571 135.071 68.1344 135.056 67.9019C135.041 67.6694 134.936 67.4333 134.909 67.2014C134.882 66.9694 135.216 66.7415 135.177 66.5087C135.138 66.2759 134.999 66.0374 134.948 65.8037C134.897 65.5701 134.834 65.3355 134.771 65.101C134.707 64.8665 134.258 64.6409 134.183 64.407C134.108 64.173 134.288 63.9339 134.2 63.7021C134.112 63.4702 133.97 63.2432 133.868 63.0043C133.765 62.7655 133.811 62.5315 133.696 62.2991C133.582 62.0667 133.403 61.8356 133.276 61.6083C133.148 61.3809 133.085 61.1405 132.946 60.9108C132.807 60.681 132.766 60.4378 132.614 60.2101C132.462 59.9824 131.843 59.8065 131.679 59.5794C131.516 59.3524 131.452 59.1208 131.277 58.8899C131.101 58.659 130.833 58.4539 130.641 58.2308C130.45 58.0076 130.387 57.7701 130.181 57.5444C129.974 57.3187 129.908 57.0825 129.69 56.8588C129.471 56.6352 129.323 56.4048 129.091 56.1891C128.86 55.9733 128.284 55.8359 128.04 55.6237C127.797 55.4115 127.791 55.1398 127.535 54.9297C127.279 54.7196 126.859 54.5551 126.588 54.3483C126.316 54.1414 126.317 53.8614 126.027 53.6576C125.737 53.4539 125.395 53.27 125.099 53.0717C124.803 52.8734 124.573 52.6298 124.259 52.4316C123.944 52.2335 123.4 52.1131 123.08 51.9189C122.759 51.7248 122.586 51.4587 122.247 51.2691C121.907 51.0794 121.503 50.9117 121.151 50.727C120.8 50.5424 120.455 50.348 120.094 50.1686C119.732 49.9891 119.391 49.792 119.017 49.6176C118.643 49.4432 118.125 49.3526 117.73 49.1811C117.335 49.0095 117.001 48.8204 116.609 48.6579C116.216 48.4953 115.716 48.4002 115.311 48.2412C114.906 48.0823 114.57 47.8855 114.162 47.7307C113.754 47.5759 113.237 47.5032 112.822 47.3538C112.407 47.2044 112.117 46.9638 111.696 46.8199C111.275 46.6759 110.777 46.5943 110.349 46.4543C109.922 46.3143 109.572 46.1033 109.138 45.9746C108.703 45.8459 108.273 45.7043 107.833 45.5737C107.392 45.4431 106.851 45.4187 106.407 45.2938C105.964 45.1689 105.644 44.91 105.197 44.7907C104.75 44.6714 104.304 44.5345 103.86 44.4184C103.416 44.3023 102.967 44.1637 102.516 44.053C102.066 43.9423 101.603 43.8264 101.143 43.7179C100.683 43.6095 100.077 43.6998 99.6133 43.5956C99.15 43.4914 98.7566 43.2964 98.2931 43.1965C97.8295 43.0967 97.399 42.9565 96.9201 42.86C96.4411 42.7635 95.9799 42.6741 95.5097 42.5827C95.0396 42.4912 94.5797 42.3813 94.1064 42.2926C93.633 42.2039 93.1872 42.0655 92.7135 41.9812C92.2398 41.8968 91.756 41.828 91.2792 41.7449C90.8024 41.6618 90.2473 41.7499 89.7672 41.671C89.2871 41.5921 88.8163 41.5094 88.336 41.4335C87.8557 41.3575 87.4485 41.0966 86.977 41.0242C86.5056 40.9518 85.9275 41.112 85.4437 41.0432C84.9599 40.9743 84.5115 40.8284 84.0306 40.7612C83.5497 40.6941 83.0728 40.6124 82.5887 40.548C82.1046 40.4835 81.6393 40.3644 81.1584 40.2972C80.6775 40.23 80.2023 40.1235 79.7179 40.0634C79.2335 40.0033 78.7289 40.017 78.2445 39.957C77.7601 39.8969 77.259 39.9049 76.7742 39.8507C76.2894 39.7965 75.7922 39.7901 75.3068 39.7447C74.8214 39.6993 74.3751 39.4342 73.89 39.3844C73.4049 39.3346 72.9188 39.2995 72.4336 39.2511C71.9484 39.2028 71.4709 39.13 70.9854 39.0861C70.4999 39.0421 70.0027 39.0814 69.5171 39.039C69.0315 38.9965 68.5496 38.9455 68.0638 38.9059C67.578 38.8664 67.0827 38.9678 66.5967 38.9312C66.1108 38.8946 65.6286 38.8465 65.1424 38.8128C64.6562 38.7792 64.1764 38.6959 63.69 38.6651C63.2036 38.6344 62.7211 38.5008 62.2345 38.473C61.7479 38.4452 61.2627 38.4426 60.779 38.418C60.2952 38.3933 59.8113 38.5058 59.3273 38.4856C58.8432 38.4653 58.3607 38.4673 57.8736 38.4484C57.3864 38.4294 56.9066 38.3903 56.4192 38.3757C55.9317 38.3611 55.4364 38.2369 54.9548 38.2257C54.4732 38.2145 54 38.3041 53.5182 38.2944C53.0365 38.2846 52.5308 38.1803 52.0486 38.1779C51.5664 38.1755 51.0854 38.1997 50.606 38.2004C50.1266 38.2012 49.6162 38.1216 49.1365 38.1267C48.6568 38.1318 48.1938 38.206 47.7135 38.22C47.2332 38.2339 46.7946 38.3496 46.3143 38.3651C45.8339 38.3805 45.3079 38.2614 44.8334 38.2802C44.3588 38.299 43.9307 38.4405 43.4588 38.4654C42.9869 38.4903 42.4237 38.3375 41.9484 38.3681C41.4731 38.3986 41.0117 38.4478 40.5448 38.4878C40.078 38.5278 39.725 38.7691 39.2611 38.8108C38.7971 38.8524 38.2511 38.7614 37.7898 38.8091C37.3285 38.8569 36.8893 38.9372 36.4306 38.991C35.9719 39.0449 35.4185 38.9724 34.9685 39.0328C34.5185 39.0932 34.16 39.281 33.7125 39.3489C33.2651 39.4169 32.7218 39.3747 32.2799 39.4489C31.8381 39.5231 31.464 39.673 31.0459 39.7548C30.6278 39.8366 30.1761 39.9219 29.7486 40.009C29.321 40.096 28.8299 40.1357 28.417 40.2312C28.0041 40.3267 27.6904 40.5251 27.28 40.6282C26.8696 40.7312 26.4794 40.8489 26.0776 40.96C25.6757 41.071 25.2423 41.1561 24.8429 41.2747C24.4436 41.3933 24.0103 41.4769 23.6286 41.6041C23.2469 41.7314 22.9119 41.8855 22.5449 42.0197C22.1779 42.1539 21.8925 42.3382 21.5372 42.4791C21.1819 42.62 20.935 42.8189 20.5944 42.9667C20.2537 43.1146 19.6434 43.1236 19.3143 43.2796C18.9853 43.4357 18.9267 43.7219 18.6093 43.8847C18.292 44.0475 17.9614 44.1814 17.6683 44.346C17.3751 44.5105 16.9434 44.6135 16.665 44.7836C16.3867 44.9536 16.055 45.1036 15.7884 45.2789C15.5218 45.4543 15.5157 45.7266 15.261 45.9057C15.0062 46.0848 14.5175 46.1792 14.2747 46.3622C14.0318 46.5451 13.8956 46.7667 13.6586 46.953C13.4216 47.1394 13.0124 47.2705 12.7904 47.4594C12.5684 47.6482 12.3639 47.8472 12.1448 48.0378C11.9257 48.2283 12.0446 48.5362 11.8282 48.7328C11.6117 48.9295 11.3595 49.1161 11.1489 49.3162C10.9383 49.5162 10.5194 49.6554 10.3268 49.8582C10.1342 50.061 10.0098 50.2864 9.81714 50.4907C9.62444 50.695 9.2141 50.8422 9.02744 51.0469C8.84078 51.2516 8.91928 51.5285 8.73847 51.7366C8.55765 51.9446 8.51434 52.1833 8.34248 52.3935C8.17062 52.6036 8.02613 52.8129 7.86002 53.0279C7.6939 53.2429 7.43577 53.4277 7.27891 53.6404C7.12205 53.8532 6.92935 54.0574 6.77833 54.2735C6.62731 54.4897 6.44689 54.6919 6.31077 54.912C6.17465 55.1321 6.13173 55.3649 5.99872 55.5838C5.86572 55.8027 5.34337 55.9463 5.22849 56.1665C5.1136 56.3867 5.19621 56.6477 5.07528 56.8674C4.95436 57.0872 4.71063 57.2833 4.60138 57.5098C4.49214 57.7363 4.47328 57.9723 4.37037 58.1949C4.26746 58.4174 4.08625 58.6313 3.98928 58.8558C3.89231 59.0802 4.11068 59.3525 4.02277 59.5776C3.93486 59.8027 3.88298 60.0333 3.80101 60.2603C3.71904 60.4873 3.46878 60.6904 3.4018 60.9199C3.33483 61.1495 3.4004 61.3931 3.33655 61.6214C3.27269 61.8497 2.97091 62.0519 2.91601 62.2824C2.86111 62.5128 2.73697 62.7353 2.68811 62.9661C2.63925 63.197 2.60841 63.4306 2.56559 63.6619C2.52277 63.8932 2.51296 64.1299 2.4792 64.3618C2.44543 64.5938 2.22146 64.812 2.20582 65.0453C2.19017 65.2785 2.49426 65.5393 2.47559 65.7724C2.45692 66.0054 2.22671 66.2261 2.21409 66.4596C2.20146 66.6931 2.38205 66.9405 2.37848 67.1747C2.37491 67.4088 2.5708 67.6544 2.57629 67.8892C2.58177 68.124 2.31202 68.3463 2.32355 68.5815C2.33507 68.8167 2.17431 69.0425 2.19459 69.2827C2.21488 69.523 2.4658 69.7623 2.48035 69.9977C2.49489 70.2332 2.69118 70.4729 2.73591 70.7105C2.78065 70.9481 2.79841 71.1809 2.84022 71.4168C2.88204 71.6528 2.7085 71.8879 2.75938 72.1245C2.81025 72.3611 2.84291 72.5978 2.89982 72.8349C2.95673 73.0719 2.98033 73.308 3.0463 73.5457C3.11226 73.7834 3.54631 74.0064 3.62114 74.2477C3.69597 74.4889 3.55584 74.7235 3.6371 74.9594C3.71836 75.1952 3.60482 75.4406 3.6892 75.6752C3.77358 75.9097 3.85153 76.1498 3.94496 76.385C4.0384 76.6203 4.41176 76.8433 4.5053 77.0771C4.59883 77.3109 4.77769 77.539 4.89518 77.7775C5.01267 78.016 4.80455 78.2692 4.92536 78.5035C5.04616 78.7378 5.24908 78.9691 5.37923 79.1997C5.50939 79.4302 5.53834 79.677 5.67444 79.9094C5.81054 80.1419 6.04404 80.3696 6.18929 80.6012C6.33454 80.8328 6.70578 81.0424 6.85707 81.2745C7.00836 81.5065 7.29739 81.7205 7.45793 81.9503C7.61848 82.1801 7.69945 82.4203 7.86915 82.6493C8.03885 82.8783 8.33713 83.09 8.51297 83.3179C8.68881 83.5459 8.55528 83.8178 8.73716 84.0461C8.91904 84.2745 9.00955 84.5081 9.19737 84.7384C9.38519 84.9686 9.75176 85.1573 9.96714 85.3836C10.1825 85.61 10.2761 85.8438 10.5038 86.0666C10.7316 86.2895 11.2834 86.4296 11.5268 86.6462C11.7701 86.8628 11.9524 87.0853 12.2081 87.2983C12.4638 87.5114 12.788 87.6985 13.0561 87.908C13.3242 88.1175 13.5031 88.3457 13.7776 88.5498C14.0521 88.7539 14.4627 88.9192 14.7464 89.1225C15.0301 89.3258 15.1219 89.5845 15.4115 89.7897C15.7012 89.9949 15.9694 90.2015 16.2809 90.398C16.5923 90.5944 16.7608 90.841 17.0725 91.0345C17.3841 91.228 17.8948 91.349 18.2157 91.5402C18.5366 91.7314 18.9104 91.9029 19.2253 92.0922C19.5403 92.2816 19.6767 92.5538 20.0102 92.7386C20.3436 92.9234 20.6954 93.1066 21.0382 93.2876C21.381 93.4686 22.0368 93.5071 22.3862 93.6798C22.7357 93.8525 22.7895 94.1807 23.148 94.354C23.5065 94.5273 24.094 94.5875 24.4588 94.7583C24.8235 94.9291 25.1569 95.1153 25.5282 95.2778C25.8996 95.4403 26.365 95.5579 26.7394 95.7206C27.1137 95.8833 27.225 96.2141 27.6057 96.3728C27.9865 96.5316 28.623 96.5392 29.0133 96.6912C29.4036 96.8433 29.755 97.0308 30.1516 97.1789C30.5482 97.3269 30.9727 97.4667 31.3758 97.6079C31.779 97.749 32.0812 97.992 32.4936 98.1309C32.906 98.2698 33.5141 98.2488 33.933 98.3823C34.3518 98.5157 34.7636 98.6634 35.1894 98.7826C35.6152 98.9019 36.0853 98.9948 36.5179 99.1042C36.9504 99.2136 37.3972 99.3372 37.8396 99.4355Z" fill="#E8C15D"/>
<path d="M11.9688 35.6388L59.6688 2.63184L122.701 25.3799V54.3725L73.7233 93.178L11.9688 64.6314V35.6388Z" fill="#EFDAC5"/>
<path fill-rule="evenodd" clip-rule="evenodd" d="M58.2723 0.416046C58.9221 -0.0145648 59.7356 -0.117412 60.4721 0.137926L121.464 21.2822C122.346 21.5879 122.984 22.3592 123.119 23.2827C123.134 23.3851 123.142 23.4875 123.145 23.5893C124.338 24.7334 125.114 26.3493 125.114 28.2605V53.3203C125.114 54.8916 124.457 56.4017 123.232 57.4595C117.565 62.3538 88.9167 86.9565 75.62 95.4917C74.9571 95.9172 74.1324 96.0054 73.3945 95.7297C41.0975 83.6622 17.0371 72.0236 10.7007 68.8829C8.81387 67.9476 7.68457 66.0401 7.68457 63.9916V37.3587C7.68457 35.6743 8.42193 34.2185 9.55252 33.2278C9.73833 32.7677 10.0603 32.3645 10.4897 32.08L58.2723 0.416046ZM119.798 27.3346L86.1981 51.5246L76.7695 58.8435V88.6706C90.7746 78.7557 114.69 58.2301 119.964 53.6756C120.053 53.598 120.114 53.486 120.114 53.3203V28.2605C120.114 27.8984 119.993 27.5823 119.798 27.3346ZM62.1531 6.01262L111.593 23.1521L72.3388 30.8575C72.28 30.8227 72.2193 30.79 72.1567 30.7595L62.1531 25.89V6.01262ZM57.9434 29.4018L24.1778 35.6911L42.1847 42.6111L70.8199 53.1056L69.0665 34.8162L57.9434 29.4018ZM74.164 35.5947L106.825 29.1835L88.8679 43.1226L75.7825 52.4765L74.164 35.5947ZM13.9638 37.5936L12.8904 37.7936C12.8217 37.8064 12.7531 37.8162 12.6846 37.8232V63.9916C12.6846 64.1978 12.788 64.3369 12.9212 64.403C18.9397 67.3861 41.3882 78.2493 71.7695 89.7752V59.3369L40.4273 47.2922L13.9638 37.5936ZM57.1531 24.463L23.6473 30.7039L57.1531 7.82043V24.463Z" fill="#ECECEC"/>
</svg>
