<svg width="136" height="99" viewBox="0 0 136 99" fill="none" xmlns="http://www.w3.org/2000/svg">
<path d="M37.2177 89.9447C37.6478 90.0388 38.0276 90.2339 38.5054 90.3277C38.9832 90.4215 39.4506 90.4258 39.929 90.5115C40.4075 90.5971 40.768 90.8098 41.247 90.8887C41.726 90.9675 42.1842 91.0107 42.6638 91.0828C43.1434 91.1549 43.6544 91.0659 44.1315 91.1323C44.6086 91.1988 45.0387 91.327 45.5191 91.3896C45.9995 91.4523 46.4236 91.6168 46.9044 91.6754C47.3851 91.7339 47.845 91.7922 48.3262 91.8453C48.8074 91.8985 49.3009 91.8054 49.7823 91.8558C50.2637 91.9062 50.7076 92.0478 51.1893 92.0955C51.6709 92.1432 52.127 92.2462 52.6061 92.2897C53.0851 92.3331 53.5789 92.165 54.0583 92.2043C54.5377 92.2437 54.9933 92.4585 55.473 92.4938C55.9527 92.5291 56.4264 92.6007 56.9059 92.6387C57.3854 92.6767 57.8607 92.5522 58.338 92.5805C58.8153 92.6088 59.2872 92.5957 59.7677 92.6215C60.2482 92.6474 60.7193 92.7134 61.1972 92.7349C61.6751 92.7564 62.1423 92.6925 62.6175 92.7111C63.0926 92.7297 63.5798 92.8529 64.0583 92.8676C64.5367 92.8824 65.0028 92.8675 65.4786 92.878C65.9545 92.8884 66.4126 92.8266 66.8886 92.8343C67.3647 92.842 67.855 92.9286 68.3284 92.9321C68.8019 92.9355 69.2775 92.9487 69.7513 92.9481C70.2251 92.9475 70.7004 92.9647 71.1715 92.9598C71.6427 92.9549 72.1512 93.0374 72.6192 93.035C73.0872 93.0326 73.538 92.951 74.0039 92.9375C74.4699 92.924 74.8893 92.7909 75.3527 92.7717C75.8161 92.7526 76.3336 92.8345 76.7946 92.8097C77.2555 92.7849 77.6963 92.7162 78.1576 92.6873C78.6188 92.6584 79.0406 92.5678 79.4964 92.533C79.9523 92.4982 80.4479 92.5212 80.8984 92.4792C81.3488 92.4372 81.8453 92.4506 82.2903 92.4027C82.7353 92.3548 83.0622 92.1517 83.5078 92.097C83.9534 92.0423 84.5704 92.1812 84.9956 92.1208C85.4207 92.0605 85.8494 91.9949 86.272 91.9289C86.6947 91.8628 86.9664 91.6444 87.3835 91.5738C87.8006 91.5033 88.1901 91.4073 88.5957 91.3318C89.0013 91.2562 89.3883 91.1546 89.8089 91.0775C90.2296 91.0004 90.6904 90.9769 91.0936 90.8944C91.4968 90.8118 91.8694 90.7036 92.27 90.6168C92.6706 90.5299 93.1324 90.4956 93.5273 90.4055C93.9222 90.3155 94.3731 90.2681 94.7625 90.1735C95.1518 90.0789 95.4012 89.8778 95.7876 89.7816C96.1741 89.6854 96.5493 89.5829 96.9302 89.4822C97.3111 89.3815 97.8778 89.41 98.253 89.3062C98.6282 89.2023 98.8345 88.9814 99.207 88.8746C99.5795 88.7677 100.059 88.7321 100.42 88.6217C100.781 88.5112 101.112 88.371 101.475 88.2635C101.839 88.156 102.393 88.1549 102.749 88.0372C103.104 87.9195 103.261 87.6824 103.614 87.5604C103.967 87.4384 104.356 87.3465 104.703 87.2227C105.05 87.0988 105.554 87.0624 105.895 86.9367C106.237 86.8111 106.541 86.6634 106.88 86.5361C107.218 86.4089 107.529 86.2576 107.838 86.1253C108.147 85.993 108.566 85.894 108.89 85.7602C109.215 85.6263 109.224 85.3326 109.549 85.196C109.873 85.0595 110.343 84.9985 110.656 84.8597C110.968 84.7209 111.247 84.5602 111.557 84.4184C111.867 84.2767 112.337 84.2076 112.641 84.064C112.946 83.9204 113.287 83.7893 113.586 83.6425C113.884 83.4957 114.071 83.2978 114.363 83.1478C114.656 82.9978 115.041 82.8865 115.328 82.7361C115.614 82.5857 115.614 82.3115 115.898 82.1581C116.182 82.0048 116.469 81.8543 116.747 81.6978C117.025 81.5412 117.584 81.4914 117.856 81.3398C118.128 81.1882 118.1 80.9092 118.367 80.749C118.634 80.5888 119.23 80.5515 119.488 80.3879C119.746 80.2243 119.799 79.9857 120.054 79.8205C120.31 79.6553 120.701 79.5404 120.95 79.3734C121.199 79.2063 121.124 78.9304 121.368 78.7615C121.612 78.5927 122.041 78.489 122.278 78.3183C122.516 78.1476 122.635 77.9375 122.864 77.7661C123.093 77.5947 123.505 77.4788 123.728 77.3042C123.952 77.1296 124.044 76.9134 124.262 76.737C124.479 76.5606 124.865 76.4344 125.08 76.2564C125.294 76.0784 125.506 75.9002 125.721 75.7209C125.936 75.5416 126.173 75.3709 126.362 75.1881C126.55 75.0053 126.61 74.7837 126.802 74.5984C126.993 74.4132 127.207 74.2365 127.39 74.0506C127.573 73.8646 127.694 73.6656 127.871 73.4737C128.048 73.2818 128.291 73.1143 128.459 72.9245C128.627 72.7346 128.862 72.5596 129.024 72.3679C129.187 72.1763 129.129 71.9358 129.283 71.7421C129.436 71.5483 129.87 71.4164 130.015 71.2206C130.16 71.0248 130.216 70.8098 130.364 70.6142C130.511 70.4187 130.741 70.2351 130.868 70.0406C130.995 69.8461 130.94 69.6072 131.059 69.4066C131.177 69.206 131.274 69.0024 131.381 68.7995C131.487 68.5965 131.661 68.4044 131.759 68.2008C131.857 67.9972 131.831 67.7743 131.919 67.5686C132.008 67.3629 132.018 67.1468 132.097 66.9405C132.177 66.7341 132.457 66.5599 132.526 66.3458C132.595 66.1317 132.415 65.8979 132.471 65.6883C132.527 65.4787 132.879 65.302 132.924 65.0915C132.968 64.8809 132.664 64.6346 132.682 64.4205C132.7 64.2065 133.188 64.0366 133.215 63.8233C133.242 63.61 133.109 63.384 133.121 63.1695C133.133 62.955 132.861 62.7234 132.855 62.5075C132.849 62.2916 132.992 62.0875 132.98 61.8725C132.968 61.6575 132.868 61.4381 132.844 61.2235C132.82 61.0089 133.151 60.8019 133.115 60.5864C133.08 60.3709 132.946 60.149 132.899 59.9325C132.852 59.716 132.793 59.4986 132.733 59.2812C132.674 59.0638 132.236 58.8504 132.165 58.6334C132.094 58.4165 132.274 58.1975 132.19 57.9823C132.107 57.7671 131.97 57.5557 131.873 57.3339C131.775 57.1121 131.823 56.8964 131.713 56.6804C131.603 56.4644 131.431 56.2489 131.308 56.0374C131.186 55.8259 131.127 55.6031 130.993 55.3893C130.859 55.1755 130.822 54.9503 130.676 54.7382C130.53 54.5262 129.924 54.3569 129.766 54.1453C129.608 53.9336 129.549 53.7189 129.379 53.5037C129.21 53.2884 128.949 53.0959 128.764 52.8876C128.579 52.6793 128.52 52.4592 128.32 52.2484C128.12 52.0376 128.058 51.8186 127.847 51.6095C127.635 51.4005 127.492 51.186 127.268 50.9841C127.043 50.7822 126.479 50.6489 126.243 50.4501C126.006 50.2514 126.004 50.0003 125.755 49.8033C125.506 49.6063 125.097 49.4498 124.833 49.2557C124.569 49.0616 124.573 48.8028 124.291 48.6114C124.009 48.42 123.675 48.2462 123.387 48.0597C123.099 47.8733 122.877 47.6457 122.571 47.4591C122.265 47.2726 121.732 47.1554 121.42 46.9724C121.108 46.7895 120.941 46.5417 120.61 46.3628C120.28 46.1839 119.885 46.0244 119.542 45.85C119.199 45.6755 118.863 45.4921 118.511 45.3223C118.159 45.1526 117.826 44.9667 117.461 44.8014C117.097 44.6361 116.589 44.5468 116.203 44.384C115.818 44.2211 115.493 44.0427 115.11 43.8882C114.727 43.7337 114.237 43.6403 113.841 43.489C113.446 43.3377 113.119 43.1522 112.72 43.0047C112.321 42.8571 111.815 42.7843 111.41 42.6417C111.005 42.4992 110.723 42.2736 110.311 42.136C109.9 41.9984 109.412 41.9174 108.994 41.7834C108.577 41.6494 108.236 41.4506 107.811 41.3269C107.387 41.2032 106.966 41.0676 106.536 40.9421C106.105 40.8167 105.574 40.7882 105.14 40.6679C104.707 40.5476 104.396 40.3048 103.959 40.1897C103.522 40.0746 103.086 39.9432 102.652 39.8311C102.217 39.7189 101.778 39.5859 101.337 39.4787C100.897 39.3715 100.444 39.2593 99.9942 39.154C99.5442 39.0488 98.9478 39.1256 98.4945 39.0242C98.0413 38.9228 97.6575 38.7383 97.2039 38.641C96.7503 38.5437 96.3296 38.4094 95.8608 38.315C95.392 38.2205 94.9406 38.1329 94.4803 38.0433C94.0201 37.9536 93.5702 37.847 93.1068 37.7598C92.6434 37.6726 92.2076 37.5399 91.7439 37.4568C91.2801 37.3737 90.8062 37.3047 90.3394 37.2227C89.8726 37.1407 89.3269 37.2161 88.8568 37.1379C88.3866 37.0597 87.9257 36.9782 87.4554 36.9027C86.985 36.8272 86.5885 36.5817 86.1268 36.5097C85.6651 36.4376 85.096 36.5793 84.6221 36.5104C84.1482 36.4414 83.7101 36.3017 83.239 36.2344C82.768 36.167 82.301 36.0864 81.8268 36.0215C81.3526 35.9566 80.8975 35.8415 80.4264 35.7741C79.9553 35.7068 79.4903 35.6031 79.0158 35.5423C78.5412 35.4815 78.046 35.4886 77.5714 35.4278C77.0968 35.367 76.605 35.3689 76.13 35.3135C75.655 35.2581 75.1673 35.2467 74.6916 35.1994C74.2159 35.1522 73.781 34.9023 73.3057 34.8509C72.8303 34.7996 72.3538 34.7618 71.8783 34.7119C71.4028 34.6619 70.9351 34.5894 70.4593 34.5435C69.9835 34.4976 69.4952 34.5284 69.0193 34.4838C68.5433 34.4393 68.071 34.3868 67.5948 34.345C67.1187 34.3032 66.6315 34.3914 66.1551 34.3522C65.6787 34.3131 65.2062 34.2633 64.7296 34.2269C64.2529 34.1905 63.7831 34.1083 63.3063 34.0745C62.8294 34.0408 62.3576 33.9121 61.8805 33.8811C61.4034 33.85 60.9273 33.8423 60.453 33.8142C59.9786 33.7862 59.5025 33.8848 59.0278 33.8608C58.5531 33.8368 58.0797 33.8333 57.6019 33.8105C57.1241 33.7876 56.6539 33.7462 56.1758 33.7274C55.6976 33.7086 55.2132 33.5884 54.7407 33.5727C54.2683 33.5571 53.8029 33.6347 53.3304 33.6204C52.8579 33.6062 52.3629 33.5042 51.8898 33.4967C51.4167 33.4892 50.9445 33.5063 50.4741 33.5017C50.0037 33.4971 49.5039 33.418 49.0332 33.4175C48.5625 33.417 48.1072 33.4804 47.6358 33.488C47.1644 33.4957 46.7327 33.5978 46.2612 33.6068C45.7897 33.6158 45.275 33.5 44.8092 33.5121C44.3434 33.5243 43.9216 33.6504 43.4583 33.6682C42.9949 33.686 42.4442 33.5387 41.9775 33.5617C41.5107 33.5847 41.0574 33.6251 40.5989 33.6569C40.1403 33.6888 39.7912 33.9079 39.3355 33.9413C38.8798 33.9747 38.3451 33.8846 37.8919 33.9237C37.4387 33.9627 37.0068 34.0321 36.5561 34.0768C36.1054 34.1216 35.5633 34.0486 35.1211 34.0994C34.6788 34.1503 34.3248 34.3199 33.885 34.3778C33.4451 34.4356 32.9126 34.3907 32.4781 34.4544C32.0437 34.5181 31.6749 34.6525 31.2637 34.7236C30.8525 34.7946 30.4083 34.8685 29.9877 34.9442C29.5672 35.02 29.0849 35.0513 28.6786 35.135C28.2723 35.2186 27.9622 35.3986 27.5582 35.4893C27.1543 35.58 26.7701 35.6845 26.3745 35.7827C25.9789 35.8809 25.5526 35.9548 25.1594 36.06C24.7661 36.1652 24.3399 36.2377 23.9639 36.3511C23.5879 36.4645 23.2574 36.6033 22.8957 36.7232C22.534 36.8432 22.2518 37.0103 21.9015 37.1366C21.5512 37.2629 21.3065 37.444 20.9706 37.5769C20.6346 37.7098 20.0356 37.7114 19.7109 37.852C19.3862 37.9926 19.3253 38.2564 19.012 38.4034C18.6987 38.5504 18.3727 38.6704 18.0831 38.8193C17.7935 38.9681 17.3687 39.0585 17.0935 39.2126C16.8184 39.3667 16.4912 39.5017 16.2275 39.6608C15.9638 39.8199 15.9546 40.0714 15.7025 40.2341C15.4504 40.3969 14.9698 40.4787 14.7294 40.6451C14.4889 40.8115 14.3526 41.0148 14.1178 41.1843C13.8831 41.3539 13.48 41.4706 13.2599 41.6427C13.0398 41.8148 12.8368 41.9964 12.6196 42.1701C12.4023 42.3437 12.5153 42.6295 12.3006 42.8088C12.0859 42.9882 11.8362 43.1579 11.6272 43.3404C11.4181 43.5229 11.0055 43.647 10.8141 43.8323C10.6227 44.0176 10.498 44.2245 10.3065 44.4111C10.115 44.5977 9.7106 44.7293 9.52501 44.9164C9.33942 45.1035 9.41315 45.3603 9.23325 45.5505C9.05336 45.7408 9.00802 45.9608 8.83689 46.1532C8.66576 46.3455 8.52149 46.5372 8.35594 46.7341C8.19039 46.931 7.93491 47.0989 7.77846 47.2937C7.62202 47.4886 7.43051 47.6752 7.27976 47.8733C7.129 48.0713 6.94956 48.2562 6.81338 48.4581C6.6772 48.66 6.63231 48.8746 6.4992 49.0754C6.36609 49.2762 5.85187 49.4032 5.73651 49.6054C5.62116 49.8076 5.6991 50.0497 5.57783 50.2514C5.45656 50.4532 5.21508 50.6317 5.10519 50.8398C4.99531 51.0479 4.97398 51.2658 4.87036 51.4703C4.76673 51.6748 4.58638 51.8705 4.48856 52.0768C4.39074 52.2831 4.60175 52.5371 4.51281 52.7441C4.42387 52.9512 4.37022 53.1637 4.28708 53.3726C4.20394 53.5814 3.95597 53.7663 3.88752 53.9777C3.81907 54.1891 3.88051 54.4149 3.81513 54.6251C3.74975 54.8354 3.45124 55.019 3.39463 55.2313C3.33801 55.4436 3.21356 55.6478 3.16286 55.8606C3.11217 56.0734 3.07912 56.289 3.03435 56.5022C2.98957 56.7155 2.97713 56.934 2.94124 57.148C2.90534 57.362 2.68298 57.5611 2.66485 57.7765C2.64671 57.9919 2.94197 58.2362 2.92087 58.4513C2.89978 58.6665 2.67127 58.8679 2.6561 59.0835C2.64092 59.2991 2.81517 59.5297 2.80887 59.746C2.80257 59.9623 2.99185 60.1914 2.99443 60.4084C2.99701 60.6255 2.72969 60.8279 2.73819 61.0454C2.74669 61.2629 2.58626 61.4697 2.6033 61.6919C2.62034 61.9142 2.86369 62.138 2.87515 62.3557C2.88661 62.5734 3.07634 62.7971 3.1174 63.0172C3.15846 63.2372 3.17311 63.4525 3.21132 63.671C3.24954 63.8894 3.07647 64.1048 3.12356 64.324C3.17065 64.5432 3.19987 64.7623 3.25289 64.9819C3.3059 65.2016 3.32624 65.42 3.38813 65.6403C3.45002 65.8607 3.87324 66.0715 3.94378 66.2953C4.01432 66.5191 3.87404 66.7343 3.95096 66.9531C4.02787 67.1719 3.91354 67.3974 3.99354 67.6151C4.07353 67.8328 4.14714 68.0554 4.23601 68.2738C4.32489 68.4922 4.68856 68.7024 4.77755 68.9195C4.86653 69.1365 5.0393 69.3493 5.15174 69.5709C5.26418 69.7926 5.05695 70.0243 5.17269 70.2421C5.28843 70.4599 5.48476 70.6759 5.60972 70.8904C5.73468 71.1048 5.76014 71.3332 5.8909 71.5494C6.02167 71.7657 6.24806 71.9787 6.38781 72.1943C6.52757 72.4099 6.88932 72.6076 7.03499 72.8237C7.18067 73.0398 7.4617 73.2407 7.61648 73.4548C7.77127 73.6689 7.84785 73.8918 8.01162 74.1052C8.1754 74.3186 8.46554 74.5175 8.63535 74.7301C8.80516 74.9426 8.67091 75.1924 8.84664 75.4054C9.02237 75.6185 9.10839 75.8353 9.28993 76.0501C9.47146 76.2649 9.82889 76.4433 10.0375 76.6548C10.2461 76.8663 10.3351 77.0834 10.5559 77.2918C10.7768 77.5002 11.3165 77.6357 11.5527 77.8385C11.7889 78.0413 11.9651 78.2489 12.2135 78.4486C12.4618 78.6483 12.7777 78.8247 13.0382 79.0213C13.2988 79.2178 13.4715 79.4306 13.7385 79.6222C14.0054 79.8138 14.4063 79.9711 14.6822 80.162C14.9581 80.353 15.0452 80.593 15.3269 80.7858C15.6086 80.9786 15.8694 81.1725 16.1726 81.3574C16.4758 81.5423 16.6382 81.772 16.9417 81.9543C17.2452 82.1365 17.7448 82.2538 18.0573 82.4341C18.3699 82.6143 18.7346 82.7768 19.0414 82.9552C19.3482 83.1336 19.4788 83.3867 19.8038 83.5611C20.1288 83.7355 20.4717 83.9086 20.8059 84.0796C21.1401 84.2507 21.7831 84.2935 22.1239 84.4568C22.4647 84.6202 22.5136 84.9241 22.8633 85.0882C23.2129 85.2522 23.7887 85.3143 24.1445 85.4761C24.5004 85.6379 24.8252 85.8137 25.1877 85.9679C25.5501 86.1221 26.0053 86.2359 26.3707 86.3903C26.7361 86.5447 26.8414 86.8517 27.213 87.0025C27.5847 87.1533 28.2092 87.1674 28.5903 87.3121C28.9714 87.4569 29.314 87.6341 29.7014 87.7752C30.0888 87.9164 30.5036 88.0502 30.8974 88.185C31.2913 88.3199 31.5849 88.5477 31.9879 88.6806C32.3909 88.8134 32.9878 88.8007 33.3972 88.9286C33.8065 89.0565 34.2088 89.1975 34.6252 89.3124C35.0416 89.4272 35.5017 89.5182 35.9248 89.624C36.3479 89.7298 36.7848 89.849 37.2177 89.9447Z" fill="#E8C15D"/>
<path d="M120.656 32.3293L71.8861 3.47797L8.21302 24.4369L8.55056 50.2489L58.6838 84.2483L120.993 58.1413L120.656 32.3293Z" fill="#EFDAC5"/>
<path fill-rule="evenodd" clip-rule="evenodd" d="M73.2296 0.907264C72.6228 0.562225 71.8999 0.486077 71.2355 0.697213L9.8376 20.2107C8.90754 20.5063 8.2358 21.3166 8.11759 22.2856L8.11426 22.3143L8.11202 22.3354C6.91223 23.4985 6.14251 25.1394 6.16763 27.0604L6.45205 48.8106C6.47411 50.4976 7.25265 52.1006 8.65206 53.1395C14.728 57.6501 43.6443 78.9845 57.0815 86.3822C57.699 86.7222 58.4307 86.7862 59.0968 86.5586C91.3873 75.5221 115.464 64.9534 122.009 62.0088C124.011 61.1081 125.236 59.1159 125.208 56.9637L124.905 33.8402C124.883 32.127 124.098 30.6527 122.914 29.6722C122.698 29.2201 122.346 28.8336 121.892 28.5755L73.2296 0.907264ZM11.4755 26.0716L45.9008 47.3554L55.3847 53.6815L55.7265 79.8173C41.5902 71.2488 17.2888 53.3301 11.6273 49.1272C11.5261 49.0521 11.4541 48.9353 11.4517 48.7554L11.1673 27.0051C11.1626 26.6423 11.2807 26.3228 11.4755 26.0716ZM69.5409 6.48523L20.8392 21.9636L59.5577 28.2192C59.6373 28.1729 59.7202 28.1305 59.8064 28.0923L69.7658 23.6854L69.5409 6.48523ZM74 27.2834L107.2 32.3553L90.2031 38.3257L61.301 48.0202L62.8101 32.2349L74 27.2834ZM57.7145 32.9846L25.5735 27.7916L42.8164 39.2933L56.3191 47.5818L57.7145 32.9846ZM118.56 34.0908L119.732 34.2697C119.792 34.2789 119.851 34.2858 119.911 34.2906L120.208 57.0189C120.211 57.2278 120.099 57.3812 119.949 57.4485C113.717 60.2525 91.1878 70.1457 60.7384 80.7023L60.3906 54.1003L91.8354 43.055L118.56 34.0908ZM74.7486 22.3414L107.592 27.3588L74.561 7.99633L74.7486 22.3414Z" fill="#ECECEC"/>
</svg>
