<svg width="123" height="107" viewBox="0 0 123 107" fill="none" xmlns="http://www.w3.org/2000/svg">
<path d="M33.6448 97.4183C34.0334 97.52 34.3766 97.7314 34.8083 97.8327C35.24 97.934 35.6625 97.9383 36.0949 98.0308C36.5272 98.1233 36.8529 98.3537 37.2857 98.4389C37.7186 98.524 38.1327 98.5704 38.5661 98.6482C38.9995 98.726 39.4615 98.6289 39.8927 98.7006C40.3238 98.7722 40.7125 98.9109 41.1466 98.9784C41.5808 99.0459 41.964 99.2241 42.3984 99.2872C42.8328 99.3503 43.2485 99.4131 43.6833 99.4703C44.1182 99.5275 44.5643 99.4259 44.9994 99.4802C45.4345 99.5345 45.8356 99.6877 46.2709 99.739C46.7062 99.7903 47.1183 99.9017 47.5513 99.9483C47.9842 99.995 48.4307 99.8121 48.8639 99.8543C49.2972 99.8966 49.7088 100.129 50.1424 100.167C50.5759 100.205 51.004 100.282 51.4373 100.323C51.8706 100.364 52.3004 100.228 52.7317 100.258C53.1631 100.289 53.5896 100.274 54.0239 100.302C54.4582 100.329 54.884 100.4 55.3159 100.423C55.7478 100.446 56.1702 100.376 56.5996 100.396C57.029 100.416 57.4693 100.549 57.9017 100.564C58.3342 100.58 58.7554 100.563 59.1855 100.574C59.6156 100.585 60.0297 100.518 60.46 100.526C60.8902 100.533 61.3333 100.627 61.7612 100.63C62.1891 100.634 62.619 100.647 63.0472 100.646C63.4755 100.645 63.905 100.663 64.3309 100.658C64.7568 100.652 65.2163 100.741 65.6393 100.738C66.0623 100.735 66.4698 100.646 66.891 100.631C67.3121 100.615 67.6913 100.471 68.1102 100.449C68.5291 100.428 68.9968 100.517 69.4134 100.489C69.83 100.462 70.2285 100.387 70.6454 100.355C71.0624 100.323 71.4437 100.224 71.8557 100.186C72.2677 100.148 72.7157 100.172 73.1229 100.126C73.5301 100.08 73.9788 100.095 74.381 100.042C74.7833 99.9897 75.079 99.7689 75.4818 99.7091C75.8845 99.6493 76.442 99.7995 76.8264 99.7336C77.2108 99.6676 77.5982 99.5961 77.9803 99.524C78.3624 99.4519 78.6082 99.2145 78.9853 99.1376C79.3623 99.0606 79.7144 98.9561 80.0811 98.8737C80.4478 98.7913 80.7976 98.6806 81.1779 98.5965C81.5581 98.5125 81.9747 98.4865 82.3392 98.3965C82.7037 98.3065 83.0406 98.1887 83.4028 98.0941C83.7649 97.9994 84.1823 97.9617 84.5393 97.8636C84.8964 97.7655 85.304 97.7136 85.656 97.6106C86.0079 97.5075 86.2335 97.289 86.5829 97.1842C86.9323 97.0795 87.2715 96.9679 87.6158 96.8582C87.9602 96.7485 88.4724 96.779 88.8116 96.6659C89.1509 96.5527 89.3375 96.3128 89.6743 96.1965C90.0111 96.0802 90.4447 96.0411 90.771 95.9208C91.0973 95.8006 91.3962 95.6482 91.725 95.5311C92.0537 95.4141 92.5547 95.4124 92.8762 95.2843C93.1976 95.1562 93.3398 94.8987 93.6589 94.7659C93.9779 94.6332 94.3297 94.5331 94.6436 94.3983C94.9574 94.2636 95.4126 94.2236 95.7212 94.0868C96.0298 93.9501 96.3051 93.7896 96.6112 93.6511C96.9172 93.5127 97.1982 93.3482 97.4776 93.2043C97.7571 93.0604 98.1364 92.9526 98.4295 92.807C98.7226 92.6614 98.7317 92.3426 99.025 92.1941C99.3183 92.0456 99.7431 91.979 100.026 91.828C100.308 91.677 100.561 91.5024 100.841 91.3482C101.121 91.194 101.546 91.1186 101.821 90.9625C102.096 90.8063 102.405 90.6637 102.675 90.5041C102.945 90.3445 103.114 90.1295 103.378 89.9665C103.643 89.8034 103.991 89.6822 104.25 89.5187C104.51 89.3551 104.509 89.0576 104.766 88.8909C105.023 88.7241 105.282 88.5606 105.534 88.3904C105.786 88.2202 106.291 88.1656 106.537 88.0008C106.783 87.836 106.758 87.5332 106.999 87.3591C107.241 87.185 107.78 87.1439 108.013 86.9661C108.246 86.7883 108.294 86.5293 108.525 86.3498C108.756 86.1702 109.11 86.0452 109.335 85.8636C109.561 85.6821 109.493 85.3827 109.714 85.1992C109.934 85.0157 110.322 84.9027 110.537 84.7172C110.752 84.5318 110.86 84.3036 111.067 84.1174C111.274 83.9312 111.646 83.8049 111.848 83.6152C112.05 83.4256 112.134 83.1907 112.331 82.9991C112.528 82.8074 112.877 82.6701 113.071 82.4767C113.265 82.2834 113.456 82.0897 113.651 81.8949C113.845 81.7001 114.06 81.5146 114.23 81.316C114.401 81.1174 114.455 80.8769 114.629 80.6756C114.802 80.4744 114.996 80.2825 115.161 80.0805C115.326 79.8784 115.436 79.6623 115.596 79.4539C115.756 79.2455 115.976 79.0635 116.128 78.8573C116.28 78.651 116.493 78.4609 116.64 78.2527C116.786 78.0445 116.735 77.7836 116.874 77.5732C117.012 77.3628 117.405 77.2192 117.536 77.0065C117.667 76.7939 117.718 76.5605 117.852 76.3481C117.985 76.1357 118.194 75.9362 118.308 75.725C118.423 75.5138 118.374 75.2546 118.481 75.0368C118.588 74.8189 118.676 74.5978 118.773 74.3775C118.869 74.1572 119.027 73.9485 119.115 73.7274C119.203 73.5064 119.18 73.2644 119.261 73.0411C119.341 72.8178 119.35 72.5833 119.422 72.3592C119.495 72.1352 119.748 71.9459 119.81 71.7134C119.872 71.481 119.71 71.2274 119.761 70.9999C119.812 70.7723 120.13 70.5803 120.171 70.3517C120.211 70.1232 119.936 69.8561 119.953 69.6238C119.969 69.3915 120.411 69.2066 120.435 68.975C120.46 68.7435 120.34 68.4984 120.351 68.2656C120.362 68.0328 120.116 67.7817 120.111 67.5474C120.106 67.3131 120.235 67.0914 120.225 66.858C120.214 66.6247 120.123 66.3867 120.102 66.1539C120.081 65.921 120.38 65.696 120.348 65.4621C120.316 65.2283 120.196 64.9875 120.153 64.7526C120.111 64.5178 120.057 64.2819 120.004 64.046C119.951 63.8101 119.555 63.5789 119.491 63.3435C119.427 63.1081 119.589 62.8703 119.514 62.6368C119.439 62.4033 119.316 62.174 119.228 61.9334C119.14 61.6928 119.183 61.4586 119.084 61.2243C118.985 60.99 118.829 60.7563 118.719 60.5269C118.609 60.2974 118.556 60.0557 118.435 59.8238C118.314 59.5919 118.28 59.3474 118.148 59.1175C118.017 58.8875 117.47 58.7043 117.327 58.4748C117.184 58.2453 117.131 58.0123 116.978 57.7789C116.825 57.5454 116.589 57.3368 116.422 57.1109C116.255 56.885 116.202 56.6461 116.022 56.4175C115.841 56.1889 115.785 55.9513 115.594 55.7246C115.403 55.4979 115.274 55.2652 115.071 55.0464C114.869 54.8275 114.359 54.6833 114.146 54.4679C113.932 54.2524 113.93 53.9799 113.705 53.7663C113.481 53.5528 113.11 53.3833 112.872 53.1729C112.634 52.9625 112.638 52.6816 112.383 52.4742C112.129 52.2667 111.827 52.0784 111.567 51.8763C111.306 51.6742 111.106 51.4274 110.829 51.2253C110.553 51.0231 110.072 50.8964 109.79 50.6982C109.507 50.5 109.357 50.2312 109.058 50.0374C108.76 49.8435 108.403 49.6708 108.093 49.4818C107.784 49.2928 107.48 49.094 107.162 48.9101C106.844 48.7263 106.543 48.5248 106.214 48.3458C105.884 48.1668 105.425 48.0703 105.077 47.894C104.729 47.7176 104.435 47.5243 104.089 47.357C103.743 47.1897 103.3 47.0889 102.943 46.925C102.586 46.7611 102.29 46.5601 101.93 46.4004C101.57 46.2407 101.112 46.1621 100.746 46.0078C100.38 45.8535 100.126 45.609 99.7537 45.46C99.3819 45.311 98.9411 45.2237 98.5636 45.0786C98.1862 44.9336 97.8783 44.7181 97.4947 44.5843C97.111 44.4505 96.731 44.3037 96.3421 44.168C95.9532 44.0322 95.4733 44.0018 95.0813 43.8717C94.6893 43.7416 94.4091 43.4784 94.014 43.3539C93.619 43.2294 93.2251 43.0872 92.8325 42.9659C92.4399 42.8446 92.0435 42.7007 91.6451 42.5848C91.2467 42.4688 90.8379 42.3475 90.4313 42.2337C90.0247 42.12 89.4856 42.2039 89.076 42.0943C88.6664 41.9847 88.3197 41.7848 87.9098 41.6796C87.4999 41.5745 87.1197 41.4291 86.6961 41.3271C86.2725 41.2251 85.8645 41.1304 85.4487 41.0336C85.0328 40.9367 84.6262 40.8215 84.2075 40.7273C83.7887 40.6331 83.395 40.4895 82.9759 40.3997C82.5568 40.31 82.1285 40.2356 81.7067 40.1471C81.2848 40.0585 80.7915 40.1408 80.3667 40.0564C79.9418 39.972 79.5253 39.884 79.1002 39.8026C78.6752 39.7211 78.3171 39.455 77.8998 39.3773C77.4826 39.2995 76.968 39.4538 76.5398 39.3795C76.1115 39.3051 75.7156 39.1539 75.29 39.0813C74.8643 39.0087 74.4423 38.9216 74.0137 38.8516C73.5851 38.7817 73.1739 38.6571 72.7482 38.5845C72.3225 38.5119 71.9023 38.3998 71.4734 38.3343C71.0445 38.2688 70.5969 38.2769 70.1681 38.2114C69.7392 38.1459 69.2947 38.1484 68.8654 38.0888C68.4361 38.0291 67.9953 38.0172 67.5653 37.9664C67.1354 37.9156 66.7426 37.6448 66.313 37.5895C65.8834 37.5343 65.4527 37.4938 65.023 37.44C64.5933 37.3862 64.1707 37.308 63.7406 37.2586C63.3106 37.2092 62.8693 37.2432 62.4391 37.1953C62.009 37.1474 61.5822 37.0909 61.1518 37.046C60.7215 37.0011 60.2811 37.0972 59.8505 37.0552C59.42 37.0132 58.9929 36.9597 58.5622 36.9206C58.1314 36.8816 57.7068 36.7928 57.2759 36.7566C56.8449 36.7205 56.4185 36.5812 55.9874 36.548C55.5562 36.5148 55.1259 36.5069 54.6972 36.4769C54.2684 36.4469 53.8381 36.5544 53.409 36.5288C52.98 36.5032 52.5521 36.5 52.1203 36.4756C51.6884 36.4512 51.2634 36.4068 50.8313 36.3868C50.3992 36.3669 49.9614 36.2369 49.5344 36.2204C49.1075 36.2038 48.6868 36.2886 48.2597 36.2735C47.8326 36.2585 47.3853 36.1483 46.9577 36.1406C46.5301 36.1329 46.1033 36.1519 45.6781 36.1474C45.253 36.143 44.8013 36.0575 44.3758 36.0574C43.9504 36.0573 43.5388 36.1266 43.1128 36.1354C42.6867 36.1441 42.2964 36.2554 41.8702 36.2656C41.444 36.2758 40.979 36.1506 40.5579 36.1643C40.1369 36.1779 39.7556 36.3152 39.3368 36.335C38.918 36.3547 38.4203 36.1954 37.9985 36.2208C37.5766 36.2462 37.1668 36.2905 36.7524 36.3255C36.3379 36.3605 36.0221 36.5987 35.6102 36.6354C35.1983 36.6721 34.7151 36.5748 34.3054 36.6176C33.8958 36.6605 33.5053 36.7362 33.0979 36.7852C32.6905 36.8342 32.2006 36.7555 31.8008 36.8111C31.4011 36.8667 31.081 37.0512 30.6834 37.1144C30.2857 37.1776 29.8044 37.1294 29.4117 37.199C29.019 37.2685 28.6855 37.4148 28.3138 37.4923C27.9421 37.5697 27.5405 37.6503 27.1604 37.733C26.7802 37.8156 26.3442 37.85 25.9769 37.9413C25.6096 38.0325 25.3291 38.2281 24.964 38.3269C24.5988 38.4257 24.2515 38.5396 23.8938 38.6465C23.5362 38.7534 23.1508 38.8341 22.7953 38.9486C22.4398 39.0632 22.0545 39.1423 21.7145 39.2657C21.3745 39.3891 21.0757 39.5401 20.7487 39.6706C20.4216 39.8012 20.1664 39.9829 19.8497 40.1203C19.5329 40.2577 19.3116 40.4545 19.0079 40.599C18.7041 40.7436 18.1627 40.7459 17.8691 40.8988C17.5755 41.0518 17.5201 41.3381 17.2368 41.4979C16.9535 41.6578 16.6588 41.7884 16.3969 41.9502C16.135 42.112 15.751 42.2106 15.5021 42.3781C15.2533 42.5456 14.9574 42.6924 14.719 42.8653C14.4805 43.0382 14.4719 43.3112 14.2439 43.4881C14.016 43.6649 13.5815 43.7543 13.364 43.9351C13.1465 44.1159 13.0231 44.3366 12.8108 44.5209C12.5984 44.7051 12.234 44.8322 12.0349 45.0191C11.8358 45.2061 11.6522 45.4034 11.4557 45.5922C11.2592 45.7809 11.361 46.0909 11.1668 46.2857C10.9726 46.4806 10.7467 46.665 10.5576 46.8633C10.3685 47.0616 9.99541 47.1967 9.82225 47.3979C9.6491 47.5992 9.53621 47.8239 9.36295 48.0266C9.18969 48.2294 8.82407 48.3726 8.65616 48.5758C8.48825 48.779 8.55465 49.0576 8.39188 49.2643C8.22911 49.471 8.18792 49.7098 8.03307 49.9187C7.87822 50.1276 7.74766 50.3359 7.59784 50.5497C7.44803 50.7635 7.21696 50.946 7.07538 51.1576C6.9338 51.3693 6.76054 51.572 6.6241 51.7871C6.48766 52.0022 6.32531 52.203 6.20203 52.4222C6.07876 52.6415 6.03799 52.8745 5.9175 53.0926C5.79701 53.3106 5.33211 53.4489 5.22767 53.6685C5.12322 53.888 5.19345 54.1507 5.08365 54.3698C4.97386 54.5888 4.75543 54.7829 4.65592 55.0088C4.55641 55.2348 4.53694 55.4712 4.44309 55.6933C4.34924 55.9153 4.18605 56.1279 4.09745 56.3519C4.00885 56.5759 4.19934 56.8514 4.11876 57.0762C4.03818 57.301 3.98949 57.5317 3.91416 57.7584C3.83883 57.9852 3.61453 58.1861 3.55247 58.4156C3.49041 58.6451 3.54573 58.89 3.48644 59.1183C3.42716 59.3466 3.15718 59.5461 3.10582 59.7766C3.05446 60.0071 2.94178 60.2288 2.89577 60.4598C2.84975 60.6908 2.81969 60.9248 2.77902 61.1563C2.73836 61.3878 2.72691 61.625 2.69427 61.8572C2.66163 62.0895 2.46048 62.3059 2.44389 62.5396C2.4273 62.7734 2.69394 63.0383 2.67467 63.2718C2.65541 63.5053 2.44869 63.7241 2.43478 63.9581C2.42086 64.1921 2.57815 64.4423 2.57226 64.677C2.56637 64.9118 2.73723 65.1602 2.73937 65.3958C2.7415 65.6313 2.4997 65.8513 2.50718 66.0873C2.51467 66.3233 2.36947 66.5479 2.38467 66.7891C2.39987 67.0303 2.61961 67.273 2.62977 67.5093C2.63993 67.7456 2.81122 67.9881 2.84812 68.2269C2.88503 68.4657 2.89808 68.6993 2.93242 68.9364C2.96676 69.1735 2.81013 69.4074 2.8525 69.6452C2.89486 69.883 2.92107 70.1208 2.96878 70.3591C3.0165 70.5975 3.03468 70.8345 3.09042 71.0736C3.14616 71.3127 3.52848 71.5411 3.59204 71.7839C3.65559 72.0267 3.5286 72.2604 3.59792 72.4978C3.66725 72.7352 3.5637 72.98 3.6358 73.2162C3.7079 73.4524 3.77424 73.694 3.85436 73.9309C3.93449 74.1679 4.263 74.3956 4.34323 74.6311C4.42346 74.8666 4.57943 75.0973 4.68085 75.3378C4.78227 75.5782 4.59476 75.8299 4.69917 76.0662C4.80358 76.3025 4.98083 76.5367 5.09358 76.7693C5.20633 77.0019 5.22913 77.2498 5.34712 77.4844C5.46512 77.7189 5.66954 77.9498 5.79566 78.1837C5.92178 78.4176 6.24856 78.6319 6.38003 78.8662C6.5115 79.1006 6.76533 79.3184 6.90503 79.5506C7.04474 79.7828 7.11375 80.0246 7.26158 80.2561C7.40941 80.4876 7.67147 80.7031 7.82476 80.9337C7.97805 81.1642 7.85647 81.4354 8.01511 81.6664C8.17375 81.8974 8.2513 82.1327 8.41518 82.3656C8.57907 82.5986 8.90196 82.7918 9.09033 83.0212C9.27871 83.2506 9.35894 83.4861 9.55833 83.712C9.75771 83.938 10.2455 84.0846 10.4588 84.3044C10.672 84.5243 10.8311 84.7494 11.0554 84.9659C11.2797 85.1824 11.565 85.3735 11.8003 85.5866C12.0356 85.7997 12.1916 86.0304 12.4327 86.2381C12.6738 86.4458 13.036 86.6161 13.2852 86.8231C13.5344 87.03 13.6128 87.2905 13.8673 87.4995C14.1218 87.7084 14.3573 87.9186 14.6312 88.119C14.9051 88.3194 15.0517 88.5685 15.3258 88.766C15.5999 88.9635 16.0514 89.0903 16.3337 89.2856C16.6161 89.4809 16.9455 89.657 17.2226 89.8503C17.4997 90.0437 17.6176 90.3182 17.9112 90.5071C18.2047 90.6961 18.5146 90.8836 18.8165 91.0689C19.1184 91.2542 19.6995 91.3 20.0073 91.477C20.3152 91.654 20.3591 91.9837 20.6751 92.1615C20.991 92.3392 21.5113 92.406 21.8328 92.5813C22.1543 92.7566 22.4477 92.947 22.7752 93.114C23.1026 93.281 23.5139 93.404 23.8441 93.5713C24.1742 93.7385 24.269 94.0716 24.6048 94.2349C24.9406 94.3982 25.505 94.4129 25.8494 94.5696C26.1937 94.7263 26.5032 94.9183 26.8532 95.0711C27.2032 95.2239 27.578 95.3687 27.9338 95.5147C28.2897 95.6607 28.5549 95.9076 28.919 96.0514C29.2831 96.1952 29.8227 96.1809 30.1925 96.3193C30.5624 96.4577 30.9259 96.6103 31.3021 96.7346C31.6784 96.8588 32.0942 96.9571 32.4765 97.0716C32.8588 97.186 33.2536 97.3149 33.6448 97.4183Z" fill="#E8C15D"/>
<path d="M106.341 34.1672L63.6108 3.54305L7.82343 25.7899L8.11916 53.1879L52.0436 89.2765L106.636 61.5653L106.341 34.1672Z" fill="#EFDAC5"/>
<path fill-rule="evenodd" clip-rule="evenodd" d="M65.1282 1.05958C64.4498 0.592326 63.5838 0.490296 62.8136 0.786879L9.01949 21.4994C8.16964 21.8266 7.56347 22.5893 7.43684 23.4907C7.3892 23.8299 7.41228 24.1685 7.49836 24.4881C6.40191 25.6347 5.70492 27.2032 5.72474 29.0394L5.9718 51.9279C5.98808 53.4364 6.60885 54.8838 7.76468 55.9236C12.926 60.5667 38.451 83.3948 50.3004 91.298C50.9931 91.76 51.8714 91.8457 52.6424 91.5265C80.9294 79.8137 102.028 68.5972 107.796 65.4536C109.595 64.4735 110.661 62.5916 110.639 60.588L110.372 35.7993C110.355 34.285 109.746 32.966 108.797 32.007C108.674 31.3748 108.31 30.804 107.764 30.4279L65.1282 1.05958ZM11.1606 27.8946L40.4788 49.8543L48.8391 56.6103L49.1383 84.3351C36.6299 75.0344 15.8612 56.4731 11.1138 52.2023C11.0304 52.1272 10.9731 52.0214 10.9714 51.8609L10.7243 28.9725C10.7196 28.5338 10.8921 28.1614 11.1606 27.8946ZM61.2453 6.74401L18.4585 23.2184L52.6903 29.9188C52.7062 29.9098 52.7223 29.9009 52.7385 29.8922L61.4448 25.225L61.2453 6.74401ZM65.5546 28.689L94.9404 34.1275L79.4137 40.7348L54.6441 50.8004L55.9841 33.8195L65.5546 28.689ZM50.9029 34.6664L22.8564 29.1767L38.474 41.7974L49.6824 50.1326L50.9029 34.6664ZM104.561 35.9081L105.374 36.0586L105.64 60.6549C105.642 60.8477 105.545 60.9923 105.413 61.0644C99.9748 64.0278 80.4995 74.3861 54.151 85.4829L53.844 57.0448L81.3233 45.3512L104.561 35.9081ZM66.4293 23.7635L95.1654 29.0818L66.2651 8.55775L66.4293 23.7635Z" fill="#ECECEC"/>
</svg>
