<svg width="134" height="99" viewBox="0 0 134 99" fill="none" xmlns="http://www.w3.org/2000/svg">
<path d="M36.7852 90.7335C37.2127 90.8281 37.5919 91.0287 38.0666 91.1225C38.5413 91.2163 39.0043 91.2166 39.4795 91.3019C39.9548 91.3872 40.3151 91.6063 40.7908 91.6845C41.2665 91.7627 41.721 91.8037 42.1971 91.8748C42.6733 91.9459 43.1781 91.8482 43.6517 91.9134C44.1252 91.9786 44.5533 92.1088 45.0301 92.17C45.5069 92.2312 45.9295 92.3995 46.4066 92.4564C46.8837 92.5133 47.3401 92.5701 47.8175 92.6214C48.295 92.6726 48.7823 92.5708 49.26 92.6192C49.7376 92.6676 50.1795 92.8117 50.6573 92.8572C51.1351 92.9028 51.5885 93.0064 52.0636 93.0475C52.5388 93.0887 53.0254 92.9084 53.5008 92.9452C53.9762 92.9821 54.4309 93.2026 54.9066 93.2352C55.3823 93.2678 55.8525 93.3385 56.3281 93.3739C56.8036 93.4094 57.2724 93.2748 57.7457 93.3001C58.2189 93.3254 58.6861 93.3075 59.1624 93.3302C59.6388 93.3528 60.1065 93.4176 60.5802 93.4358C61.0539 93.454 61.5156 93.383 61.9866 93.3982C62.4575 93.4133 62.942 93.5378 63.4161 93.5489C63.8903 93.56 64.3517 93.5403 64.8232 93.5469C65.2947 93.5535 65.7475 93.4847 66.2192 93.4885C66.6908 93.4923 67.1778 93.5785 67.6468 93.5778C68.1158 93.5772 68.5871 93.5867 69.0564 93.5818C69.5257 93.5768 69.9967 93.5906 70.4634 93.5812C70.93 93.5718 71.4349 93.6536 71.8985 93.6468C72.362 93.6401 72.8072 93.5507 73.2686 93.5324C73.7299 93.5141 74.1433 93.3711 74.602 93.3469C75.0608 93.3226 75.5746 93.4037 76.0308 93.3736C76.487 93.3435 76.9225 93.2676 77.379 93.2333C77.8354 93.1989 78.2518 93.1003 78.7028 93.0598C79.1538 93.0194 79.6451 93.0389 80.0906 92.9909C80.5361 92.9429 81.0281 92.9525 81.4681 92.8984C81.9082 92.8443 82.2289 92.6289 82.6694 92.5677C83.11 92.5065 83.7232 92.6462 84.1434 92.5792C84.5637 92.5122 84.9872 92.4398 85.4049 92.3669C85.8226 92.2941 86.0883 92.0631 86.5004 91.9856C86.9124 91.908 87.2967 91.8042 87.6973 91.7215C88.098 91.6388 88.4797 91.5291 88.8952 91.4446C89.3106 91.3602 89.7667 91.3315 90.1649 91.2415C90.563 91.1515 90.9304 91.035 91.3259 90.9405C91.7214 90.8461 92.1782 90.806 92.568 90.7083C92.9578 90.6106 93.4037 90.5569 93.7879 90.4545C94.1721 90.352 94.416 90.1394 94.7973 90.0354C95.1787 89.9313 95.5487 89.8207 95.9244 89.7119C96.3002 89.6032 96.8619 89.6279 97.232 89.5159C97.6021 89.4039 97.803 89.171 98.1704 89.0559C98.5377 88.9408 99.0123 88.8992 99.3681 88.7804C99.7239 88.6616 100.049 88.5121 100.408 88.3963C100.766 88.2806 101.315 88.2745 101.666 88.1482C102.016 88.0218 102.168 87.7725 102.516 87.6417C102.863 87.5109 103.247 87.4113 103.589 87.2786C103.931 87.146 104.429 87.1033 104.766 86.9688C105.102 86.8343 105.401 86.6771 105.734 86.541C106.068 86.4048 106.373 86.2438 106.677 86.1027C106.981 85.9615 107.395 85.8542 107.714 85.7113C108.033 85.5683 108.038 85.261 108.358 85.1153C108.677 84.9695 109.141 84.9016 109.449 84.7535C109.756 84.6055 110.03 84.435 110.335 84.2839C110.64 84.1328 111.105 84.0564 111.404 83.9034C111.703 83.7505 112.039 83.6103 112.332 83.4541C112.626 83.2979 112.807 83.0892 113.095 82.9297C113.383 82.7702 113.762 82.6503 114.044 82.4904C114.326 82.3304 114.321 82.0437 114.6 81.8807C114.879 81.7178 115.16 81.5578 115.434 81.3916C115.707 81.2253 116.259 81.1682 116.526 81.0072C116.794 80.8461 116.762 80.5546 117.024 80.3846C117.286 80.2147 117.876 80.1703 118.129 79.9969C118.382 79.8234 118.431 79.5734 118.681 79.3983C118.931 79.2233 119.317 79.0996 119.561 78.9226C119.806 78.7457 119.727 78.4577 119.966 78.2789C120.205 78.1001 120.628 77.9878 120.861 77.8071C121.094 77.6264 121.209 77.4056 121.433 77.2243C121.657 77.043 122.063 76.918 122.282 76.7334C122.5 76.5488 122.589 76.3218 122.801 76.1353C123.014 75.9489 123.394 75.8134 123.604 75.6253C123.814 75.4372 124.021 75.2489 124.231 75.0594C124.441 74.8699 124.674 74.6893 124.858 74.4964C125.041 74.3035 125.098 74.0712 125.284 73.8757C125.471 73.6802 125.681 73.4935 125.859 73.2974C126.037 73.1012 126.153 72.892 126.326 72.6897C126.498 72.4874 126.737 72.31 126.9 72.11C127.064 71.9099 127.294 71.7247 127.452 71.5228C127.609 71.3208 127.549 71.0699 127.698 70.8659C127.847 70.6618 128.275 70.5199 128.415 70.3139C128.555 70.1078 128.608 69.8823 128.752 69.6765C128.895 69.4706 129.12 69.2765 129.242 69.072C129.365 68.8674 129.307 68.6181 129.421 68.4072C129.535 68.1963 129.629 67.9824 129.731 67.7692C129.833 67.556 130.003 67.3536 130.096 67.1397C130.19 66.9259 130.161 66.6929 130.246 66.477C130.331 66.2611 130.336 66.035 130.412 65.8184C130.488 65.6018 130.763 65.4172 130.828 65.1926C130.892 64.9681 130.711 64.7252 130.763 64.5054C130.816 64.2857 131.161 64.0977 131.202 63.8771C131.243 63.6565 130.938 63.4016 130.953 63.1775C130.967 62.9535 131.448 62.7714 131.472 62.5481C131.495 62.3247 131.36 62.0895 131.369 61.8651C131.377 61.6407 131.104 61.4009 131.095 61.1751C131.086 60.9494 131.224 60.7346 131.209 60.5098C131.194 60.285 131.091 60.0565 131.064 59.8323C131.037 59.608 131.361 59.3886 131.323 59.1635C131.285 58.9384 131.149 58.7074 131.099 58.4815C131.049 58.2555 130.987 58.0286 130.925 57.8018C130.863 57.5749 130.426 57.3557 130.352 57.1294C130.278 56.9031 130.453 56.6725 130.367 56.4481C130.281 56.2238 130.142 56.004 130.042 55.7728C129.942 55.5417 129.986 55.3157 129.874 55.0907C129.762 54.8658 129.588 54.642 129.463 54.4219C129.339 54.2018 129.278 53.9693 129.142 53.7469C129.006 53.5245 128.965 53.2892 128.817 53.0688C128.669 52.8483 128.067 52.6766 127.907 52.4567C127.747 52.2368 127.685 52.0128 127.514 51.7892C127.343 51.5656 127.081 51.3666 126.895 51.1504C126.708 50.9342 126.647 50.7045 126.445 50.4858C126.244 50.2671 126.18 50.0386 125.967 49.8219C125.754 49.6051 125.609 49.382 125.383 49.1729C125.158 48.9638 124.598 48.8294 124.36 48.6237C124.123 48.418 124.116 48.1553 123.867 47.9516C123.618 47.7478 123.21 47.5877 122.945 47.3871C122.681 47.1865 122.681 46.9158 122.399 46.7181C122.117 46.5204 121.783 46.3417 121.495 46.1493C121.207 45.9568 120.983 45.7208 120.677 45.5284C120.371 45.3361 119.842 45.2183 119.53 45.0298C119.218 44.8413 119.048 44.5836 118.718 44.3995C118.388 44.2153 117.995 44.052 117.652 43.8727C117.31 43.6933 116.974 43.5044 116.623 43.3301C116.271 43.1557 115.939 42.9643 115.575 42.7947C115.212 42.6251 114.707 42.5363 114.323 42.3694C113.938 42.2026 113.614 42.0189 113.232 41.8608C112.85 41.7026 112.364 41.6094 111.97 41.4547C111.576 41.2999 111.249 41.1089 110.852 40.9582C110.454 40.8075 109.952 40.7358 109.548 40.5904C109.145 40.4449 108.862 40.2116 108.452 40.0713C108.043 39.9311 107.558 39.8508 107.142 39.7144C106.726 39.578 106.386 39.3731 105.963 39.2476C105.541 39.1221 105.122 38.984 104.694 38.8567C104.266 38.7293 103.739 38.7043 103.308 38.5824C102.876 38.4605 102.565 38.2094 102.13 38.0929C101.696 37.9764 101.262 37.843 100.83 37.7296C100.398 37.6161 99.961 37.481 99.5227 37.3729C99.0843 37.2647 98.6345 37.1514 98.1872 37.0454C97.7399 36.9394 97.1503 37.0251 96.6997 36.9231C96.2492 36.8212 95.8663 36.6317 95.4155 36.5339C94.9646 36.4362 94.5458 36.2996 94.0801 36.205C93.6143 36.1105 93.1658 36.0229 92.7085 35.9333C92.2513 35.8437 91.8041 35.7362 91.3437 35.6492C90.8833 35.5622 90.4497 35.4273 89.989 35.3445C89.5284 35.2618 89.0579 35.1939 88.5943 35.1124C88.1306 35.0308 87.5913 35.1145 87.1244 35.037C86.6575 34.9595 86.1997 34.8783 85.7327 34.8036C85.2656 34.7289 84.8691 34.4757 84.4107 34.4045C83.9523 34.3333 83.3907 34.4866 82.9203 34.4188C82.4498 34.351 82.0137 34.2088 81.5461 34.1426C81.0784 34.0764 80.6147 33.9962 80.1439 33.9327C79.6732 33.8691 79.2207 33.7527 78.753 33.6865C78.2854 33.6203 77.8232 33.5161 77.3522 33.4568C76.8812 33.3974 76.3908 33.4093 75.9198 33.35C75.4488 33.2907 74.9617 33.2971 74.4903 33.2435C74.0189 33.1898 73.5357 33.1823 73.0638 33.1371C72.5918 33.092 72.1573 32.8345 71.6856 32.7851C71.214 32.7357 70.7414 32.7005 70.2697 32.6525C69.7979 32.6045 69.3336 32.5329 68.8616 32.4892C68.3895 32.4454 67.9064 32.4821 67.4343 32.4398C66.9621 32.3975 66.4935 32.3469 66.0212 32.3074C65.5489 32.2679 65.0678 32.3645 64.5953 32.3279C64.1228 32.2913 63.654 32.2435 63.1813 32.2097C62.7086 32.1759 62.242 32.0941 61.7692 32.0631C61.2963 32.0322 60.827 31.9017 60.3539 31.8736C59.8809 31.8455 59.4092 31.8417 58.9389 31.8166C58.4686 31.7915 57.9986 31.8989 57.528 31.8781C57.0574 31.8573 56.5884 31.858 56.1148 31.8383C55.6412 31.8187 55.1748 31.7797 54.7009 31.7643C54.2271 31.7489 53.7453 31.6275 53.2771 31.6154C52.809 31.6033 52.3492 31.6887 51.8809 31.6781C51.4126 31.6674 50.9208 31.5652 50.4521 31.5616C49.9833 31.558 49.5159 31.5801 49.0499 31.5796C48.5839 31.5791 48.0876 31.5008 47.6213 31.5045C47.155 31.5082 46.7051 31.5787 46.2383 31.5909C45.7714 31.6031 45.3454 31.7138 44.8785 31.7274C44.4116 31.7411 43.9001 31.6246 43.4388 31.6415C42.9776 31.6584 42.5618 31.7941 42.1031 31.8169C41.6444 31.8397 41.0967 31.6906 40.6347 31.7189C40.1728 31.7471 39.7244 31.7935 39.2707 31.8309C38.817 31.8683 38.4745 32.1007 38.0236 32.1397C37.5727 32.1788 37.0417 32.0893 36.5934 32.1343C36.1451 32.1792 35.7184 32.2557 35.2727 32.3065C34.8269 32.3573 34.2889 32.2859 33.8516 32.3431C33.4143 32.4002 33.0663 32.5808 32.6315 32.6453C32.1966 32.7098 31.6685 32.6676 31.2391 32.7381C30.8098 32.8087 30.4465 32.9526 30.0403 33.0306C29.6341 33.1086 29.1953 33.1899 28.7799 33.2729C28.3645 33.3559 27.8872 33.393 27.4861 33.4842C27.0849 33.5754 26.7805 33.7664 26.3818 33.8649C25.9831 33.9634 25.6041 34.0762 25.2138 34.1824C24.8234 34.2887 24.4023 34.3698 24.0144 34.4834C23.6265 34.5969 23.2055 34.6767 22.8347 34.7986C22.464 34.9206 22.1388 35.0687 21.7824 35.1974C21.426 35.3261 21.149 35.5035 20.8039 35.6388C20.4589 35.7741 20.2193 35.9656 19.8886 36.1077C19.5579 36.2497 18.9645 36.2568 18.6451 36.4068C18.3256 36.5567 18.2693 36.8332 17.9612 36.9897C17.6532 37.1463 17.3322 37.2748 17.0476 37.4331C16.763 37.5914 16.3436 37.6898 16.0734 37.8534C15.8032 38.017 15.4812 38.1612 15.2225 38.3299C14.9637 38.4987 14.9584 38.7619 14.7113 38.9343C14.4641 39.1068 13.9893 39.1968 13.7536 39.373C13.518 39.5492 13.3861 39.763 13.1562 39.9425C12.9263 40.1219 12.5288 40.2476 12.3134 40.4296C12.0981 40.6115 11.8998 40.8033 11.6873 40.9869C11.4748 41.1705 11.5911 41.4684 11.3811 41.6579C11.1712 41.8474 10.9265 42.0272 10.7222 42.22C10.518 42.4127 10.1111 42.5462 9.92437 42.7417C9.73764 42.9373 9.61731 43.1548 9.43048 43.3517C9.24365 43.5486 8.84513 43.6899 8.66418 43.8873C8.48322 44.0846 8.56018 44.3525 8.38491 44.5531C8.20965 44.7537 8.16811 44.9843 8.00155 45.187C7.835 45.3897 7.69504 45.5915 7.53408 45.7989C7.37312 46.0063 7.12264 46.1843 6.97066 46.3895C6.81869 46.5947 6.63187 46.7916 6.48558 47.0001C6.33929 47.2086 6.16439 47.4036 6.0326 47.616C5.90081 47.8284 5.85964 48.0533 5.73087 48.2645C5.6021 48.4757 5.0947 48.6131 4.98355 48.8256C4.87239 49.0382 4.95331 49.2907 4.83628 49.5028C4.71926 49.7149 4.48281 49.9038 4.37715 50.1225C4.2715 50.3411 4.25372 50.5691 4.15422 50.784C4.05471 50.9988 3.87907 51.2051 3.78534 51.4218C3.69162 51.6385 3.90453 51.9022 3.81961 52.1195C3.73468 52.3369 3.6848 52.5597 3.60566 52.7789C3.52652 52.9981 3.28373 53.1937 3.21918 53.4154C3.15462 53.6371 3.21893 53.8727 3.1574 54.0932C3.09587 54.3137 2.803 54.5084 2.75019 54.731C2.69737 54.9535 2.57722 55.1682 2.53028 55.3913C2.48333 55.6143 2.4539 55.84 2.41283 56.0635C2.37175 56.2869 2.36278 56.5156 2.33051 56.7397C2.29823 56.9639 2.08104 57.1742 2.06638 57.3996C2.05172 57.625 2.34793 57.8779 2.33033 58.1031C2.31274 58.3283 2.08949 58.541 2.07777 58.7667C2.06604 58.9923 2.24218 59.232 2.23926 59.4583C2.23634 59.6846 2.42734 59.9225 2.43322 60.1494C2.43911 60.3764 2.17743 60.5905 2.18919 60.8179C2.20094 61.0453 2.04521 61.263 2.06549 61.4953C2.08578 61.7276 2.33026 61.9596 2.34495 62.1872C2.35965 62.4148 2.55101 62.647 2.59506 62.8768C2.6391 63.1066 2.65692 63.3316 2.69812 63.5598C2.73932 63.7879 2.5712 64.0147 2.62121 64.2436C2.67122 64.4724 2.70352 64.7013 2.7594 64.9306C2.81528 65.1598 2.83878 65.3881 2.90347 65.618C2.96815 65.8479 3.39059 66.0646 3.4639 66.298C3.5372 66.5314 3.40155 66.7578 3.4811 66.9859C3.56065 67.2141 3.45086 67.451 3.53343 67.6779C3.61601 67.9049 3.69234 68.1371 3.78372 68.3647C3.8751 68.5924 4.23855 68.8089 4.33003 69.0351C4.4215 69.2614 4.5959 69.4823 4.71067 69.7131C4.82544 69.9439 4.62373 70.1882 4.74172 70.4149C4.8597 70.6417 5.05748 70.8659 5.18455 71.089C5.31161 71.3122 5.34034 71.5508 5.47318 71.7759C5.60602 72.0009 5.83353 72.2215 5.97527 72.4458C6.11701 72.6701 6.47836 72.8737 6.62597 73.0983C6.77358 73.323 7.05503 73.5306 7.21164 73.7532C7.36824 73.9757 7.44751 74.2081 7.61301 74.4299C7.77851 74.6516 8.06895 74.857 8.24041 75.0778C8.41187 75.2986 8.28272 75.5611 8.46005 75.7823C8.63739 76.0035 8.72592 76.2295 8.90903 76.4525C9.09215 76.6756 9.44891 76.8589 9.65881 77.0783C9.86871 77.2976 9.96018 77.5239 10.1821 77.7398C10.404 77.9558 10.9408 78.0927 11.1778 78.3027C11.4149 78.5127 11.5926 78.7282 11.8416 78.9348C12.0907 79.1415 12.4063 79.3231 12.6674 79.5264C12.9285 79.7296 13.1029 79.9506 13.3702 80.1486C13.6375 80.3466 14.037 80.5074 14.3133 80.7047C14.5895 80.9019 14.6794 81.1522 14.9614 81.3513C15.2434 81.5504 15.5047 81.7508 15.8079 81.9415C16.1111 82.1322 16.2755 82.371 16.5788 82.5589C16.8822 82.7467 17.3789 82.8649 17.6913 83.0506C18.0037 83.2363 18.3674 83.403 18.674 83.5869C18.9806 83.7707 19.1139 84.0342 19.4384 84.2137C19.763 84.3932 20.1054 84.5711 20.439 84.747C20.7727 84.9229 21.4102 84.9619 21.7503 85.1297C22.0904 85.2975 22.1435 85.6148 22.4923 85.7833C22.8412 85.9518 23.4125 86.0114 23.7674 86.1775C24.1224 86.3436 24.4469 86.5245 24.8082 86.6825C25.1696 86.8405 25.6222 86.9554 25.9865 87.1136C26.3508 87.2718 26.4598 87.592 26.8302 87.7464C27.2007 87.9008 27.8195 87.9098 28.1992 88.0578C28.5789 88.2058 28.921 88.388 29.3069 88.5321C29.6927 88.6763 30.1057 88.8125 30.4978 88.95C30.89 89.0875 31.1844 89.3231 31.5856 89.4584C31.9868 89.5938 32.5779 89.5751 32.9853 89.7052C33.3927 89.8353 33.7934 89.9791 34.2076 90.0955C34.6218 90.2118 35.0789 90.3029 35.4997 90.4098C35.9204 90.5166 36.355 90.6373 36.7852 90.7335Z" fill="#E8C15D"/>
<path d="M17.5898 32.9618L63.0793 2.90625L123.19 23.6202V50.0203L76.4824 85.3558L17.5898 59.3619V32.9618Z" fill="#EFDAC5"/>
<path fill-rule="evenodd" clip-rule="evenodd" d="M61.6306 0.389834C62.2649 -0.0130813 63.0467 -0.109374 63.7597 0.127605L121.714 19.3891C122.614 19.688 123.267 20.4701 123.401 21.4086C123.425 21.5766 123.431 21.7445 123.422 21.9099C124.561 23.0491 125.297 24.6305 125.297 26.4877V48.6349C125.297 50.2439 124.608 51.788 123.329 52.8471C117.732 57.4796 90.7415 79.687 78.1698 87.4234C77.5233 87.8213 76.7311 87.9038 76.0165 87.6479C45.5496 76.7343 22.7955 66.2058 16.5732 63.253C14.6472 62.339 13.4658 60.4072 13.4658 58.3171V34.5787C13.4658 32.9696 14.1396 31.5674 15.1874 30.5808C15.3629 30.0342 15.7247 29.5536 16.2274 29.2342L61.6306 0.389834ZM119.922 25.4922L88.219 47.3736L79.3595 53.9667V80.6814C92.5947 71.6735 114.956 53.2874 120.141 48.9955C120.233 48.9192 120.297 48.8066 120.297 48.6349V26.4877C120.297 26.0913 120.152 25.7493 119.922 25.4922ZM65.4711 5.96532L111.465 21.2515L75.0307 28.1079C74.9784 28.0788 74.9246 28.0513 74.8694 28.0255L65.4711 23.6397V5.96532ZM61.3426 27.2306L30.0823 32.8128L46.407 38.8272L73.4277 48.321L71.807 32.1141L61.3426 27.2306ZM76.9049 32.843L106.973 27.1846L90.6977 39.2964L78.3934 47.7286L76.9049 32.843ZM19.5557 34.6926L18.5416 34.8737C18.5163 34.8782 18.4911 34.8823 18.4658 34.886V58.3171C18.4658 58.5182 18.5729 58.6675 18.7168 58.7358C24.6159 61.5352 45.7815 71.3329 74.3595 81.7336V54.454L44.7139 43.532L19.5557 34.6926ZM60.4711 22.3072L29.7104 27.8002L60.4711 7.6592V22.3072Z" fill="#ECECEC"/>
</svg>
