<svg width="286" height="157" viewBox="0 0 286 157" fill="none" xmlns="http://www.w3.org/2000/svg">
<path d="M39.6614 111.646C30.4701 124.432 40.0166 139.708 52.4642 145.511C67.7535 152.641 86.0326 154.526 102.669 155.675C140.603 158.283 179.263 156.324 217.035 152.405C233.375 150.711 251.788 150.196 266.899 143.184C278.858 137.631 289.397 124.02 284.246 110.35C278.089 94.0141 257.353 98.1975 243.78 98.9193L183.748 102.101C139.819 104.428 95.89 106.756 51.9609 109.083C40.5939 109.687 40.5199 127.364 51.9609 126.76C115.412 123.401 178.864 120.043 242.33 116.669C249.168 116.301 256.095 115.535 262.947 115.638C268.365 115.727 269.149 118.187 265.686 122.665C258.507 131.945 240.287 132.033 229.823 133.285C199.052 136.983 168.074 138.868 137.081 138.897C120.681 138.912 104.06 138.824 87.7939 136.496C82.4804 135.73 47.6539 130.752 54.9951 120.558C61.6555 111.293 46.2626 102.455 39.6614 111.632V111.646Z" fill="#F9CA53"/>
<path d="M66.0945 138.957C121.672 135.2 177.368 133.418 233.078 133.609L230.71 116.242C206.777 122.635 180.061 121.192 155.447 121.825C129.649 122.473 103.852 122.65 78.0536 122.4C66.5977 122.282 66.657 139.649 78.0536 140.076C139.314 142.374 200.664 140.12 261.585 133.285V115.609C207.428 122.444 153.479 135.701 98.6565 127.629C92.2773 126.686 85.9425 125.552 79.6077 124.359C76.4551 123.77 73.3025 123.136 70.15 122.517C67.3082 121.958 63.3268 120.205 60.4998 120.499C57.4952 120.809 58.8717 125.464 61.4174 125.699C62.1871 125.773 63.9188 124.977 64.718 124.801C67.6634 124.138 70.7272 123.873 73.7318 123.46C81.1026 122.459 88.4586 121.472 95.8443 120.544C123.744 117.008 151.747 114.121 179.854 113.105C194.907 112.56 210.077 112.368 225.115 113.296C236.245 113.974 250.173 115.123 258.032 123.976L264.308 108.892L136.399 106.889V124.565L213.955 120.116C225.322 119.468 225.441 102.867 213.955 102.44L187.817 101.483C176.391 101.055 176.405 118.732 187.817 119.159L213.955 120.116V102.44L136.399 106.889C125.061 107.537 124.884 124.388 136.399 124.565L264.308 126.568C272.404 126.701 275.483 117.008 270.583 111.484C262.339 102.19 249.773 98.6248 237.844 96.9308C223.013 94.8244 207.872 94.8833 192.923 95.1043C159.458 95.5904 126.112 98.9931 92.9433 103.25C85.4393 104.208 77.9352 105.224 70.4312 106.24C63.3564 107.213 55.6303 107.669 49.6803 112.059C44.722 115.742 41.7471 121.855 43.8784 127.909C46.0097 133.963 51.7377 136.659 57.6876 138.029C88.6067 145.143 120.399 149.297 152.147 147.618C188.942 145.674 225.071 137.911 261.555 133.315C272.685 131.915 272.981 114.357 261.555 115.638C200.635 122.459 139.285 124.727 78.024 122.429V140.106C104.799 140.371 131.574 140.179 158.334 139.457C183.658 138.78 210.758 139.914 235.402 133.33C245.082 130.737 243.083 116.007 233.034 115.962C177.323 115.771 121.627 117.553 66.0501 121.31C54.7126 122.076 54.6238 139.767 66.0501 138.986L66.0945 138.957Z" fill="#F9CA53"/>
<path d="M114.234 13.1189C116.128 13.1189 116.336 10.1729 114.426 10.1729C112.517 10.1729 112.325 13.1189 114.234 13.1189Z" fill="#E9E9E9"/>
<path d="M134.427 11.7049C136.322 11.7049 136.529 8.75879 134.62 8.75879C132.71 8.75879 132.518 11.7049 134.427 11.7049Z" fill="#E9E9E9"/>
<path d="M212.959 97.5539C233.74 95.3444 264.644 87.2132 268.33 62.7167C269.528 54.777 269.662 47.7948 265.414 40.5769C261.906 34.6259 255.038 28.9399 248.171 27.3785C234.45 24.2704 215.061 31.5472 212.663 47.4413C213.137 44.3332 225.629 34.6111 219.723 37.8223C227.168 33.7568 221.159 37.0711 218.969 37.8223C217.192 38.441 215.402 39.045 213.581 39.5458C211.509 40.1203 204.39 40.9894 212.959 40.0761C205.085 40.9157 198.351 42.7276 192.549 48.4871C187.546 53.466 183.772 61.6413 184.098 68.8003C184.734 82.9856 196.886 99.2332 212.959 97.5245V97.5539Z" fill="#CD8B49"/>
<path d="M98.9944 70.0801C97.7659 72.1423 96.1526 73.851 94.1397 75.1768C90.5135 76.532 89.7438 76.8855 91.8456 76.2521C98.6096 75.2946 89.5514 75.9869 92.186 75.8249C98.0915 75.4419 103.953 74.9411 109.873 74.838C115.453 74.7496 121.018 74.838 126.583 75.1473C129.366 75.2946 132.148 75.5008 134.916 75.7513C136.766 75.9133 138.616 76.1048 140.466 76.311C146.076 77.1359 144.211 76.4583 134.872 74.2782L124.511 63.967L125.429 65.3516L121.492 50.8569L121.344 52.4036L125.281 37.909C132.444 31.4276 133.865 29.7631 129.558 32.9448C128.226 33.8287 126.864 34.683 125.488 35.4784C124.304 36.156 115.127 40.2216 121.536 37.7469C115.897 39.927 110.08 41.5621 104.145 42.77C102.991 43.0057 93.7697 44.3609 99.838 43.6243C96.2266 44.0662 92.5856 44.3609 88.9594 44.5965C85.3332 44.8322 81.6773 45.009 78.0363 45.1563C76.2158 45.2299 74.3953 45.2889 72.5748 45.3478C68.919 45.3331 68.9338 45.4656 72.6044 45.775L85.3332 53.1549C100.593 65.1601 88.8114 84.2065 92.2304 73.2029C93.7105 68.4745 93.6957 64.0848 93.0592 59.3858C91.7271 49.5312 86.5764 40.9434 77.4887 36.0971L87.8493 75.3977C89.4922 72.0392 91.2239 68.5481 92.0084 64.895L93.0444 57.2646C93.3404 54.0534 93.296 54.6279 92.8964 59.0028C95.827 47.3953 91.1351 32.1936 79.6348 26.5666C83.8087 30.0282 84.7559 30.7058 82.447 28.5994C80.5081 26.4929 78.2731 24.8431 75.7274 23.6794V73.2913C77.0447 72.3633 78.4064 71.5384 79.7384 70.6398C83.5719 68.062 79.6052 71.5384 78.5988 70.9197C79.398 71.4205 85.57 68.607 86.6356 68.224C90.3211 66.9278 93.8585 65.1896 97.5883 64.0112C98.3875 63.7607 103.657 62.8769 100.223 63.1568C96.789 63.4367 102.058 63.363 102.665 63.363C118.68 63.5692 134.694 64.4825 150.694 64.8213C166.427 65.1601 182.175 65.3369 197.909 65.3516C216.839 65.3811 236.154 67.1193 253.738 59.1354C267.517 52.875 271.957 31.9726 264.098 19.8348C254.936 5.67893 239.351 2.83597 224.609 9.52355C225.068 9.31733 229.568 6.94574 229.864 7.71172C229.76 7.4613 224.891 7.78537 224.476 7.78537C220.539 7.82956 216.602 7.85902 212.665 7.87375C204.303 7.91795 195.94 7.90321 187.578 7.87375C171.341 7.78537 155.119 7.52023 138.883 7.09305C122.646 6.66587 105.137 4.52996 88.693 7.13724C81.4849 8.2862 75.0466 11.5858 68.1641 13.8543C60.6453 16.329 53.0968 19.0836 46.6141 23.6794C38.1036 29.7041 32.3164 37.6438 32.3164 48.4854C32.3164 58.0306 37.6743 68.9164 46.6141 73.2913C42.4402 69.8296 41.493 69.1521 43.8019 71.2585C45.7408 73.3649 47.9757 75.0147 50.5215 76.1784L37.2599 43.7422C36.4014 46.865 35.8834 50.0468 35.7354 53.3169C35.0842 58.34 35.839 56.042 38.0295 46.4231C31.3988 59.975 33.8113 77.9461 48.3902 85.7237L49.4114 86.2687L39.0508 75.9575C33.7077 68.607 38.1332 50.6213 35.765 61.2124C34.6105 66.3827 34.3589 69.6823 35.0102 74.5286C36.2978 84.1034 41.4337 93.5897 50.3883 98.3034C62.895 104.873 78.0955 102.944 91.7123 101.883C116.089 99.9827 141.488 95.1659 161.646 80.4797C171.4 73.3797 178.697 65.2632 179.097 52.4331C179.437 41.459 173.798 30.3081 164.029 24.6958C152.322 17.9788 135.775 18.023 122.439 17.5369C95.7826 16.5794 65.6184 16.9182 49.1894 41.1202C40.7085 53.5968 46.3772 73.4975 59.55 80.4208C74.1437 88.0953 89.9954 83.4405 99.0388 70.1095L98.9944 70.0801Z" fill="#CD8B49"/>
<path d="M193.248 29.5001C192.226 30.6048 185.018 36.8652 190.761 32.5934C188.334 34.3905 185.744 35.9814 183.079 37.3808C181.747 38.0879 175.383 40.2385 181.659 38.2352C178.743 39.1632 175.916 40.2532 172.956 41.0487C169.596 41.9619 166.177 42.6837 162.743 43.3024C161.5 43.5234 153.655 44.5692 159.62 43.8474C152.841 44.6723 146.033 45.2174 139.239 45.9244C124.527 47.4564 109.785 49.445 95.3398 52.6709C89.1234 54.0703 83.0106 55.838 76.7943 57.2373C75.0182 57.6498 73.2421 58.018 71.4512 58.3421C74.6629 58.0328 74.5445 58.0328 71.0959 58.3421C67.4549 58.401 64.0063 58.3716 60.3801 57.9002L89.2418 86.6244L89.6266 79.9663C89.7154 78.3901 90.5591 72.2328 89.3306 79.0235L81.9154 91.6916L83.0994 90.4101L62.689 98.8211L64.0951 98.8948L49.531 94.9765C46.186 91.8537 45.6088 91.4707 47.7993 93.8128L40.3841 81.1447L39.9401 76.9907L43.8771 62.4961C45.2684 60.5517 46.9557 58.8871 48.9094 57.5172C46.3785 59.329 43.8919 61.2145 41.4646 63.1737C36.9207 67.4455 33.3537 72.8662 31.548 78.8468C27.3149 92.8553 33.1761 108.307 45.742 115.923C50.9075 119.046 57.3607 120.828 63.4143 120.887C65.7084 120.917 79.7692 119.075 72.7388 119.974C80.4353 118.987 88.1465 118.059 95.8578 117.219C126.732 113.876 157.74 111.916 188.778 111.209C203.86 110.871 218.35 98.2467 217.639 82.4852C216.929 66.7237 204.955 53.3927 188.778 53.761C167.435 54.2471 146.107 55.3077 124.838 57.0311C114.196 57.8855 103.569 58.9166 92.9716 60.095C88.1465 60.6253 83.3363 61.1998 78.5112 61.8037C75.625 62.1573 72.7388 62.5403 69.8527 62.9233L62.1858 63.9544C68.4466 62.4371 74.2781 64.3226 79.6952 69.5961L87.1105 82.2642L86.7405 80.5555V95.8309C86.6369 96.2139 73.7453 109.825 79.6804 106.068C82.1966 104.478 84.9052 102.386 87.0957 100.338C92.5424 95.2269 96.139 88.1563 97.1307 80.8501C99.0104 66.9741 92.3056 53.2601 79.9765 46.1454C67.6473 39.0306 51.0999 40.1354 41.0797 51.1242C31.9328 61.1703 32.2436 73.9857 31.5036 86.6686C30.5119 103.623 45.6532 113.448 60.3653 115.393C76.5131 117.529 92.4684 112.373 108.009 108.72C115.069 107.055 122.189 105.774 129.352 104.61C131.75 104.227 132.771 104.095 129.752 104.492C131.543 104.257 133.348 104.05 135.154 103.844C139.224 103.388 143.295 103.005 147.365 102.607C178.728 99.5871 211.586 94.564 234.009 70.1411C244.192 59.0492 245.85 40.3416 234.009 29.5148C222.923 19.3803 204.067 17.6716 193.188 29.5148L193.248 29.5001Z" fill="#CD8B49"/>
<path d="M229.302 5.12055C212.163 1.73257 195.985 3.0583 178.757 3.76536C163.009 4.41349 147.276 3.16141 131.587 1.90933C119.554 0.95186 106.396 11.4693 103.761 23.0032C100.771 36.0543 105.996 48.0154 117.023 55.4395L123.994 60.1384C136.53 68.5789 156.526 62.9225 163.483 49.8272C171.194 35.3031 166.502 19.5416 153.122 10.5266L146.151 5.82761L131.587 59.3577C146.358 60.5362 161.159 61.7293 175.989 61.3169C183.212 61.1106 190.42 60.4183 197.628 60.109C201.21 59.9469 204.792 59.8586 208.374 59.9911C210.15 60.0501 211.941 60.1532 213.702 60.3299C210.446 59.8438 210.535 59.9175 213.954 60.5362C228.71 63.4528 245.82 56.3527 249.461 40.4734C252.732 26.2144 245.139 8.27285 229.302 5.13528V5.12055Z" fill="#CD8B49"/>
<path d="M226.726 61.1691C241.823 61.1691 256.283 47.956 255.587 32.4449C254.892 16.9338 242.903 3.7207 226.726 3.7207C211.629 3.7207 197.168 16.9338 197.864 32.4449C198.56 47.956 210.548 61.1691 226.726 61.1691Z" fill="#CD8B49"/>
<path d="M211.092 64.3078L211.226 60.4927L218.641 47.8246C216.598 50.1962 217.102 49.9605 220.136 47.1175C223.155 45.8065 223.096 45.6445 219.958 46.6167C216.613 47.2059 216.717 47.2354 220.284 46.7051C218.641 46.8818 216.998 47.0586 215.355 47.2501C206.445 48.3254 197.757 49.6953 189.128 52.17C175.274 56.1472 166.557 69.5813 168.451 83.693C170.286 97.2597 182.379 109.162 196.795 108.602C211.211 108.042 229.031 107.1 241.893 99.5871C257.656 90.3806 261.756 73.7205 263.191 56.9427L213.919 77.2558C222.607 85.9467 233.353 90.5279 245.815 87.7733C255.007 85.7405 261.993 78.3164 265.5 70.0232C266.951 66.6058 268.179 63.3209 269.23 59.7709C270.385 55.8526 274.559 48.1781 268.86 58.6661L216.11 51.8018C217.131 54.9983 215.607 43.5233 215.562 47.0144C215.562 47.854 215.666 48.7379 215.71 49.5775C215.814 52.1995 215.814 54.8215 215.799 57.4435C215.799 59.6678 215.755 61.8921 215.769 64.1311C215.784 67.6369 214.437 70.5388 216.584 62.5697L223.999 49.9016C232.998 45.1584 235.336 43.5528 231 45.0847C229.727 45.5119 228.454 45.9244 227.181 46.3221C225.479 46.8524 223.777 47.3827 222.06 47.8835C217.368 49.2681 212.646 50.5497 207.895 51.7134C196.144 54.6005 186.345 57.6203 177.036 65.8104C165.091 76.3131 166.897 95.6688 177.036 106.437C193.997 124.437 218.271 117.352 237.571 108.028C245.164 104.36 252.638 100.353 258.766 94.4756C267.721 85.8878 271.406 73.4112 271.954 61.4207C272.634 46.3957 258.189 32.0189 243.092 32.6965C226.87 33.4183 214.955 45.3204 214.23 61.4207C214.319 59.3143 215.399 56.869 214.23 60.2865C215.311 57.1194 216.658 56.1472 218.374 53.6136C219.988 51.242 217.812 53.5547 216.435 54.3059C214.541 55.3223 212.646 56.324 210.737 57.2962C209.213 58.0622 207.659 58.7692 206.119 59.5352C208.606 58.2979 208.487 58.725 205.971 59.5058C204.151 60.0655 198.645 60.095 203.233 60.7284C208.991 61.5091 212.528 60.1981 217.842 65.8398V106.466C216.273 107.851 210.219 109.898 214.689 109.132C217.102 108.72 219.558 108.028 221.941 107.468C226.693 106.334 231.414 105.067 236.121 103.697C251.144 99.3219 267.247 94.7555 272.235 77.8892C274.07 71.6878 273.493 64.735 273.508 58.2979C273.537 51.3157 273.893 43.2434 271.761 36.5706C268.253 25.5523 259.388 17.5537 247.769 15.9923C236.15 14.4309 224.517 19.6012 219.011 29.7062C216.806 33.7718 215.459 37.9994 214.186 42.3596C213.771 43.8032 213.372 45.2615 212.928 46.7051C210.737 53.7756 208.591 50.8001 218.019 39.7376L230.748 32.3577L230.452 32.4166L252.698 35.3185L254.725 36.6737C246.511 28.4542 233.767 26.2888 223.2 30.7374C212.04 35.4216 206.46 45.2762 205.453 56.9869C205.142 60.2128 205.246 59.7414 205.779 55.5727C205.557 56.9279 205.261 58.2537 204.876 59.5647C206.134 55.4549 208.769 52.2731 212.735 50.0341C216.613 48.5464 217.057 48.2223 214.038 49.0767C213.12 49.1061 201.931 51.1389 207.895 50.4024C204.195 50.859 200.48 51.0505 196.765 51.1978L204.432 107.615C209.657 106.113 214.926 104.89 220.313 104.08C213.979 105.037 221.335 104.08 222.711 103.903C227.225 103.358 232.021 102.901 236.476 101.752C255.036 96.9798 267.484 83.6488 268.786 64.3668C269.807 49.3418 254.785 34.9797 239.924 35.6426C223.422 36.3791 212.158 48.2812 211.063 64.3668L211.092 64.3078Z" fill="#CD8B49"/>
<path d="M167.36 67.6078C167.078 68.197 166.723 68.742 166.309 69.2428L170.823 63.4243C170.409 63.9252 169.95 64.3818 169.447 64.7943L175.293 60.3015C173.946 61.3326 172.525 62.0986 170.986 62.7909L177.883 59.889C172.288 62.1575 166.028 63.7042 161.143 67.3721C157.162 70.3623 153.358 73.3084 150.783 77.6833C147.497 83.2661 146.505 89.6591 147.364 95.9932C148.059 101.164 149.835 105.45 153.047 109.575C156.673 114.259 162.046 118.619 168.041 119.871C172.806 120.858 177.632 121.639 182.486 121.212C190.582 120.504 194.963 119.017 202.467 115.643C208.654 112.859 213.997 104.728 215.729 98.4826C217.638 91.6035 216.78 82.456 212.813 76.3429C208.847 70.2298 202.926 64.809 195.57 63.1444L187.903 62.1133C182.693 62.1281 177.839 63.4391 173.339 66.0316L172.303 66.503L179.2 63.6011C177.75 64.1461 176.344 64.5291 174.819 64.7795L182.486 63.7484C180.947 63.9104 179.496 63.9399 177.957 63.8221L185.624 64.8532C184.869 64.7648 184.129 64.6469 183.389 64.4554L190.286 116.954C191.781 115.835 193.335 115.025 195.052 114.303L188.155 117.205C192.921 115.364 197.938 113.802 202.379 111.269C208.403 107.822 213.805 102.607 217.224 96.5824C220.939 90.0274 222.153 81.7489 220.14 74.4426C218.29 67.7845 213.124 60.5519 206.878 57.2818C193.217 50.0934 175.323 53.6139 167.389 67.593L167.36 67.6078Z" fill="#CD8B49"/>
<path d="M239.069 106.789C254.166 106.789 268.627 93.5761 267.931 78.065C267.236 62.554 255.247 49.3408 239.069 49.3408C223.973 49.3408 209.512 62.554 210.208 78.065C210.903 93.5761 222.892 106.789 239.069 106.789Z" fill="#CD8B49"/>
<path d="M105.713 120.281C107.622 119.987 109.517 119.692 111.426 119.427C106.512 120.119 112.891 119.28 113.794 119.177C118.101 118.69 122.423 118.278 126.745 117.939C135.389 117.262 144.062 116.893 152.735 116.82C171.251 116.658 189.56 116.923 207.706 112.533L185.46 60.0341C178.859 63.4957 188.405 59.6511 184.394 60.6822C182.396 61.1978 180.457 61.9491 178.444 62.4352C177.675 62.6119 170.911 63.7462 174.907 63.2159C178.903 62.6856 171.991 63.3779 171.207 63.4074C162.607 63.864 153.979 63.3337 145.394 62.8771C125.99 61.8312 106.571 60.7854 87.1674 59.7395V117.188L159.114 119.397L151.448 62.9802C149.642 63.3926 147.836 63.7314 146.016 64.0113C148.68 63.6431 148.961 63.5547 146.845 63.7462C144.121 63.643 141.324 64.0408 138.586 64.0408C132.562 64.0408 126.553 63.6283 120.558 63.098C108.466 62.0227 96.4623 60.5497 84.296 60.6086C69.1991 60.6675 54.7386 73.7775 55.4343 89.3328C56.2039 106.582 68.1926 115.936 84.296 118.057C104.81 120.753 125.442 121.872 146.134 121.401C161.216 121.062 175.706 108.423 174.996 92.6766C174.285 76.9298 162.311 64.3206 146.134 63.9524L85.1545 62.5383V119.987L103.952 119.088C119.004 118.366 133.539 106.391 132.813 90.3639C132.147 75.4126 120.099 60.8737 103.952 61.6397L85.1545 62.5383C70.102 63.2601 55.5675 75.2358 56.2927 91.2625C57.0032 107.127 68.9771 119.618 85.1545 119.987L146.134 121.401V63.9524C125.442 64.409 104.825 63.3043 84.296 60.6086V118.057C112.314 117.939 138.837 124.2 166.796 118.366C180.842 115.435 189.264 100.13 187.473 86.8434C185.549 72.5549 173.619 62.391 159.129 61.9343L87.1822 59.7248C72.0705 59.2534 57.6396 73.262 58.3205 88.449C59.0457 104.711 71.0048 116.304 87.1822 117.173C108.407 118.307 129.616 119.53 150.841 120.591C172.065 121.651 194.651 120.06 214.588 109.602C227.302 102.929 231.728 86.2983 226.399 73.7333C220.76 60.4318 206.477 53.6706 192.357 57.1028C190.552 57.5447 188.731 57.9424 186.911 58.3254C178.814 60.0341 189.589 58.5021 184.927 58.62C180.739 58.7378 176.565 59.1945 172.361 59.2829C163.895 59.4596 155.414 59.2387 146.933 59.4302C127.944 59.8721 109.102 61.9785 90.3496 64.8509C75.3859 67.1489 65.7801 86.6077 70.1908 100.189C75.4599 116.407 89.6539 122.712 105.698 120.252L105.713 120.281Z" fill="#CD8B49"/>
<path d="M166.517 95.1533L168.145 95.2858L153.581 91.3676C145.544 85.5491 142.258 78.6405 143.694 70.642L163.853 50.5792C167.775 50.3141 168.456 50.3288 165.895 50.5939C164.963 50.7118 164.016 50.8296 163.083 50.918C160.73 51.1831 158.377 51.4188 156.023 51.6251C151.317 52.0375 146.595 52.3468 141.859 52.5236C137.611 52.7004 133.348 52.774 129.086 52.7593C126.718 52.7593 124.349 52.7151 121.996 52.6562L119.154 52.5678C115.069 52.3174 115.365 52.4352 120.072 52.9361L140.231 72.9988L140.038 72.2034C136.442 57.6056 119.065 47.4564 104.531 52.1406C89.9966 56.8249 80.524 71.8351 84.3722 87.4788C89.5081 108.337 109.963 110.09 127.68 110.222C139.032 110.311 150.384 109.736 161.677 108.543C169.714 107.689 179.083 107.6 186.099 103.093C196.134 96.6558 201.048 86.0646 201.092 74.3982C201.166 53.7315 186.809 39.3399 166.517 37.7196C151.435 36.5117 136.989 51.7871 137.655 66.4438C138.395 83.0302 150.355 93.8717 166.517 95.168V95.1533Z" fill="#D69554"/>
<path d="M84.4601 47.3522C80.4639 48.4275 76.4233 49.2524 72.3086 49.8416L79.9755 48.8105C78.8506 48.9578 77.7405 49.0903 76.6157 49.1935C68.7564 50.0036 61.9924 51.8597 56.2053 57.6045C51.2026 62.5834 47.4283 70.7587 47.754 77.9177C48.0796 85.0766 50.5365 93.0457 56.2053 98.2308C61.504 103.077 69.1412 107.423 76.6157 106.642C84.0901 105.861 92.2158 104.786 99.7938 102.738C106.78 100.853 113.396 95.7414 117.037 89.5399C120.678 83.3384 122.188 74.3087 119.953 67.4002C115.113 52.5372 100.06 43.1393 84.4453 47.3374L84.4601 47.3522Z" fill="#C28847"/>
<path d="M85.9099 48.6332C84.2226 49.3255 82.5057 49.8558 80.7296 50.2388C84.341 49.3108 87.8044 50.1063 91.105 52.6399L101.466 62.9511C102.886 73.2329 103.745 76.2526 104.026 72.0103C104.115 70.8761 104.248 69.7418 104.426 68.6076L104.751 66.0592C105.551 60.7268 104.885 62.6123 102.753 71.6862L92.3927 81.9975L83.0977 84.5458L86.0283 84.6195C87.9376 84.8404 89.9653 84.7226 91.8894 84.7668L105.092 85.1056L130.031 85.7537C145.987 86.1662 162.327 85.5917 178.193 87.0942L163.629 83.1759L164.68 83.6915L154.32 73.3802C151.922 63.1574 150.945 60.388 151.389 65.0576L151.685 69.0495L151.892 71.7157C151.966 76.8566 152.736 74.4408 154.172 64.4831L164.532 54.1718C159.692 57.8397 171.933 51.6382 172.377 52.5957C172.229 52.2716 167.685 52.2127 167.211 52.1685C162.09 51.6677 156.984 52.3305 151.966 53.5237C137.269 57.0295 127.116 74.4408 131.807 88.8618C136.751 104.078 151.567 112.681 167.315 108.925C160.625 110.515 165.864 109.543 168.321 109.749C170.379 109.926 172.229 110 174.271 109.882C184.957 109.263 195.155 104.903 201.786 96.3743C210.918 84.6048 211.51 67.002 207.721 52.8314C204.983 42.5643 196.591 33.078 185.875 30.6474C179.185 29.1302 172.066 29.3806 165.243 29.2039L130.031 28.2906L94.82 27.3773C77.9026 26.9354 61.148 27.5541 51.9715 44.4351C47.9308 51.8444 47.6644 60.388 46.7024 68.5929C45.7995 76.2674 46.954 83.7504 50.6542 90.6442C60.26 108.512 84.119 110.191 101.258 104.019C115.408 98.9079 126.479 84.2512 121.417 68.6812C116.918 54.8347 101.11 43.1388 85.9099 48.6185V48.6332Z" fill="#D69554"/>
<path d="M86.5155 90.7028C88.4248 90.4082 90.3194 90.1136 92.2287 89.8485C89.3277 90.2462 89.6385 90.2167 93.1463 89.7748C96.9798 89.3918 100.798 88.9647 104.647 88.6406C111.84 88.0514 119.063 87.6684 126.285 87.4622C133.508 87.2559 140.731 87.2412 147.969 87.3885C150.603 87.4327 156.479 86.5047 158.803 87.7273C156.479 87.7568 154.392 87.0939 152.527 85.724C141.012 76.7532 139.828 65.7496 148.975 52.7133L161.704 45.3333C155.502 47.9259 147.806 48.2205 141.175 49.2663C137.445 49.8556 133.716 50.43 129.971 50.9456C135.625 50.1796 126.123 51.3581 125.013 51.4759C117.997 52.2124 110.967 52.7427 103.907 52.9195C100.147 53.0079 96.3729 52.7574 92.6283 52.89C88.3952 52.6396 88.8541 52.7869 94.0048 53.3467C98.0158 55.512 98.8299 55.7624 96.4321 54.0979L106.793 64.4091L109.487 74.6909L105.549 89.1856C102.693 93.428 98.9335 96.2562 94.2564 97.685C96.965 97.0664 96.5061 97.0516 92.8503 97.6114C96.7429 97.2431 100.621 96.6392 104.484 96.1825C111.766 95.3282 119.048 94.5327 126.345 93.8257C141.427 92.3526 156.524 91.1889 171.65 90.3051C186.777 89.4213 201.237 77.7254 200.512 61.5809C199.846 46.7769 187.798 31.914 171.65 32.8567C145.305 34.4034 119.018 36.8045 92.8355 40.163C84.5618 41.2236 76.9986 41.8128 69.6129 46.1435C60.3772 51.5643 53.7168 60.1226 52.2663 70.8611C49.2469 93.2512 67.1116 108.32 88.0696 110.073C114.03 112.239 140.79 107.319 166.277 103.062C175.069 101.589 182.884 99.5558 189.766 93.3396C196.649 87.1234 200.882 77.1509 200.556 67.7235C199.861 47.3809 184.187 33.5932 164.783 31.0007C134.234 26.9204 101.405 30.6472 71.1522 35.3167C56.1885 37.6294 46.5828 57.0734 50.9934 70.6548C56.2625 86.8582 70.4566 93.1923 86.5007 90.7176L86.5155 90.7028Z" fill="#D69554"/>
<path d="M181.285 123.728C181.477 123.698 181.67 123.625 181.847 123.551C183.239 122.859 183.387 121.283 182.573 120.119C181.759 118.955 179.08 119.323 177.836 119.338C174.625 119.338 171.413 119.368 168.201 119.397C157.9 119.456 147.613 119.515 137.312 119.515C125.619 119.515 113.926 119.471 102.248 119.265C90.3779 119.044 78.5076 118.175 66.6373 118.513C62.123 118.646 57.6827 119.132 53.2129 118.101C47.2777 116.716 41.9346 113.417 38.2788 108.541C35.6294 104.991 34.3714 101.014 34.5046 96.624C34.5638 94.6649 34.5046 92.691 34.5046 90.7171C34.4898 75.8247 34.3122 60.9176 34.4602 46.0252C34.5046 40.7959 37.1391 36.0675 40.5433 32.2081C44.806 27.3766 50.7411 23.2963 57.1351 21.9558C59.3404 21.4992 61.4718 21.5728 63.6919 21.5875L74.2597 21.7054C87.8617 21.8527 101.479 22.0589 115.081 22.1031C130.651 22.1473 146.222 22.2946 161.792 22.2651L187.664 22.2357C190.373 22.2357 193.081 22.162 195.745 22.7365C201.769 24.0475 207.349 27.4797 211.049 32.4144C213.743 36.0086 215.046 40.2804 215.061 44.7289C215.061 47.13 215.061 49.531 215.061 51.9321V78.5056C215.061 85.0459 215.061 91.5715 215.061 98.1118C215.061 107.996 205.721 113.549 197.344 116.525C192.149 118.366 186.524 119.427 181.004 119.397C178.162 119.397 177.851 123.787 180.722 123.802C186.82 123.831 192.859 122.697 198.602 120.723C204.345 118.749 209.954 115.891 214.098 111.487C217.384 107.981 219.456 103.695 219.486 98.8483C219.486 96.8891 219.486 94.93 219.486 92.9561V45.2298C219.486 33.7254 212.248 24.2685 201.666 19.9672C194.709 17.139 187.102 17.8313 179.76 17.8313C164.072 17.846 148.383 17.8313 132.694 17.7577C118.204 17.6987 103.728 17.6103 89.253 17.4483L63.8695 17.1832C61.309 17.1537 58.8076 17.0948 56.2767 17.6251C49.6903 19.0097 43.5479 22.8396 38.856 27.5681C34.1641 32.2965 30.4195 38.115 30.0347 44.6995C29.9311 46.5113 30.0051 48.3526 30.0199 50.1644L30.0495 76.4729C30.0495 83.0426 30.2271 89.6271 30.0791 96.1821C29.9755 100.572 30.7451 104.623 32.9653 108.482C36.0587 113.859 40.8837 117.983 46.5377 120.531C49.6903 121.945 53.1389 122.785 56.5875 123.094C58.112 123.227 59.6217 123.242 61.1462 123.168C61.5458 123.153 60.5393 123.198 61.1018 123.168C61.4718 123.153 61.827 123.124 62.197 123.109C69.2718 122.756 76.3763 122.77 83.4511 123.109C94.0041 123.595 104.572 123.787 115.14 123.875C135.669 124.052 156.212 123.875 176.741 123.787C177.674 123.787 178.621 123.787 179.553 123.787C179.82 123.787 180.13 123.831 180.382 123.787C181.27 123.654 182.5 122 179.198 123.036L179.923 119.603C180.456 119.456 180.634 119.397 180.441 119.427C177.614 119.839 178.458 124.184 181.285 123.757V123.728Z" fill="#A9682E"/>
<path d="M231.326 106.465C220.284 110.177 209.154 113.697 197.831 116.481C195.063 117.159 195.892 121.505 198.675 120.812C210.367 117.925 221.838 114.272 233.25 110.442C234.389 110.059 234.745 108.483 234.286 107.496C233.723 106.303 232.45 106.082 231.326 106.465Z" fill="#A9682E"/>
<path d="M53.1119 22.7526C63.5318 17.597 74.4252 13.3841 85.7183 10.5706C91.165 9.21539 96.7005 8.16953 102.266 7.47721C107.831 6.78488 113.455 6.65231 119.094 6.46081C140.348 5.76849 161.602 4.64898 182.871 4.42802C193.409 4.31018 203.962 4.42802 214.501 4.86993C219.918 5.09089 225.335 5.40022 230.737 5.78321C233.579 5.98944 236.421 6.21039 239.248 6.44608C241.202 6.60811 243.362 6.60811 245.079 7.15314C248.336 8.18426 251.459 9.89299 254.374 11.6606C257.601 13.605 259.599 15.7999 261.952 18.9963C264.868 22.9441 267.34 27.4516 268.628 32.1947C269.915 36.9379 269.53 42.1525 269.604 47.1313C269.782 59.8289 270.063 72.88 266.452 85.1946C265.667 87.905 264.72 90.2618 262.929 92.4714C261.612 94.0917 259.939 95.4764 258.134 96.537C254.049 98.9527 249.401 100.278 244.931 101.796C242.223 102.709 244.176 106.686 246.855 105.773C255.085 102.989 263.669 100.337 268.346 92.4272C271.144 87.6987 272.106 81.5267 272.905 76.1649C273.778 70.3169 274.045 64.41 274.104 58.5032C274.163 52.5963 273.985 46.4685 273.956 40.4438C273.926 35.3029 273.127 30.6481 271.07 25.9049C269.012 21.1617 266.141 16.7868 262.766 12.9422C260.413 10.2612 257.749 8.43468 254.626 6.72596C251.503 5.01724 248.232 3.14648 244.783 2.55727C239.381 1.64398 233.697 1.5556 228.236 1.20208C216.943 0.465558 205.635 0.082567 194.312 0.00891515C172.333 -0.108928 150.383 0.966386 128.419 1.76183C116.682 2.18901 105.033 2.24793 93.4443 4.39856C81.8553 6.54919 70.3846 10.2023 59.5059 14.916C56.6938 16.1387 53.9112 17.4349 51.173 18.8049C48.6125 20.0717 50.5366 24.0489 53.0971 22.782L53.1119 22.7526Z" fill="#A9682E"/>
<path d="M230.588 29.9109C237.249 27.996 243.82 25.7864 250.273 23.2823C251.398 22.8551 251.798 21.3526 251.31 20.3362C250.762 19.1872 249.459 18.8631 248.349 19.3051C242.237 21.6766 236.035 23.7684 229.745 25.5802C228.59 25.919 227.747 26.9207 227.983 28.1727C228.191 29.2628 229.434 30.2497 230.588 29.9256V29.9109Z" fill="#A9682E"/>
<path d="M232.408 47.7641C241.245 45.2894 250.214 43.2861 259.257 41.7394C260.145 41.5921 260.012 40.1633 259.065 40.3253C250.021 41.872 241.052 43.8753 232.216 46.35C231.358 46.5857 231.491 48.0145 232.408 47.7641Z" fill="#B66C28"/>
<path d="M233.931 58.5758C240.399 56.6314 247.074 55.4087 253.823 54.9521C254.741 54.8932 254.563 53.4643 253.616 53.5233C246.867 53.9799 240.206 55.2025 233.723 57.1469C232.865 57.4121 233.013 58.8409 233.931 58.5758Z" fill="#B66C28"/>
<path d="M233.284 73.5709C241.321 70.4923 249.847 68.8277 258.461 68.7099C259.186 68.7099 259.6 67.3252 258.727 67.34C250.009 67.4725 241.366 69.1371 233.225 72.2599C232.53 72.525 232.426 73.9097 233.284 73.5856V73.5709Z" fill="#B66C28"/>
<path d="M236.274 44.3314L236.851 61.2566L237.147 69.7118L237.28 73.7626L237.354 75.9722L237.399 77.077C237.399 77.2537 237.31 77.8871 237.488 77.7251L237.961 77.5189H237.843L238.257 77.7104V77.8871L237.502 78.5795H237.591C238.302 78.4764 238.701 77.077 237.858 77.1948H237.769C237.369 77.2685 237.118 77.5189 237.014 77.9019C236.748 78.8004 237.769 79.1392 238.331 78.55C238.731 78.1228 238.701 77.6073 238.701 77.0622C238.686 76.2079 238.642 75.3388 238.612 74.4844L238.257 64.3647L237.547 43.9484C237.517 43.0204 236.244 43.5801 236.274 44.3167V44.3314Z" fill="#B66C28"/>
<path d="M245.951 41.6797L246.469 72.4956C246.484 73.4236 247.801 72.9375 247.787 72.1568L247.269 41.3409C247.254 40.4129 245.936 40.899 245.951 41.6797Z" fill="#B66C28"/>
<path d="M253.615 64.5432L254.311 75.1196C254.37 76.0624 255.761 75.6941 255.702 74.825L255.006 64.2486C254.947 63.3059 253.556 63.6741 253.615 64.5432Z" fill="#B66C28"/>
<path d="M111.16 10.0247C124.303 9.67117 137.446 9.47968 150.589 9.43549C163.732 9.3913 176.994 9.50914 190.196 9.77429C197.626 9.92159 205.057 10.1278 212.487 10.3782C213.33 10.4077 213.611 8.99357 212.694 8.94938C199.565 8.50747 186.422 8.2276 173.279 8.09503C160.136 7.96245 146.874 7.97718 133.672 8.15394C126.242 8.25706 118.812 8.40436 111.382 8.59585C110.538 8.62531 110.272 10.0394 111.175 10.0247H111.16Z" fill="#B66C28"/>
<path d="M100.961 14.5039L144.772 14.7838L188.583 15.0636L213.344 15.2257C214.144 15.2257 214.469 13.8263 213.567 13.8263L169.756 13.5464L125.945 13.2665L101.183 13.1045C100.384 13.1045 100.059 14.5039 100.961 14.5039Z" fill="#B66C28"/>
<path d="M130.194 5.91606L122.646 14.2534C122.379 14.5481 122.512 15.0636 122.808 15.2698C123.164 15.5203 123.563 15.3877 123.83 15.0931L131.378 6.75569C131.645 6.46109 131.511 5.94553 131.215 5.7393C130.86 5.48889 130.46 5.62146 130.194 5.91606Z" fill="#B66C28"/>
<path d="M143.44 7.19692L137.239 15.549C136.676 16.3003 137.727 17.0515 138.29 16.3003L144.491 7.94817C145.054 7.19692 144.003 6.44567 143.44 7.19692Z" fill="#B66C28"/>
<path d="M164.222 5.87089C161.72 8.97899 159.515 12.3081 157.606 15.7991C157.443 16.1085 157.591 16.5357 157.916 16.6535C158.301 16.7861 158.627 16.462 158.79 16.1674C160.64 12.7942 162.801 9.58293 165.213 6.57794C165.435 6.3128 165.435 5.84143 165.139 5.62047C164.814 5.38479 164.414 5.60574 164.207 5.87089H164.222Z" fill="#B66C28"/>
<path d="M186.925 7.91858C184.483 10.2902 182.248 12.8827 180.265 15.6373C180.058 15.9172 180.028 16.3738 180.339 16.5948C180.65 16.8157 181.079 16.639 181.271 16.3591C183.181 13.6929 185.312 11.2182 187.665 8.92025C187.917 8.66983 188.08 8.24265 187.843 7.93332C187.621 7.63871 187.177 7.66817 186.925 7.90386V7.91858Z" fill="#B66C28"/>
<path d="M211.733 7.31487C209.365 10.2609 207.322 13.4427 205.606 16.8012C205.457 17.0811 205.517 17.5083 205.857 17.6114C206.212 17.7292 206.553 17.3904 206.701 17.0958C208.358 13.8551 210.342 10.7912 212.636 7.94827C212.828 7.69786 212.902 7.24122 212.621 7.03499C212.31 6.81404 211.925 7.07918 211.733 7.31487Z" fill="#B66C28"/>
<path d="M81.0104 121.815L80.1076 128.679C80.004 129.445 80.7292 130.226 81.4841 130.24C82.3277 130.255 82.9493 129.681 83.0529 128.87L83.9558 122.006C84.0594 121.24 83.3342 120.459 82.5793 120.445C81.7357 120.43 81.114 121.004 81.0104 121.815Z" fill="#90582C"/>
<path d="M79.8467 128.47L80.4509 123.159L80.4213 123.174L80.5253 122.26C80.6395 121.255 81.4886 120.368 82.6231 120.447C83.6424 120.508 84.5886 121.45 84.4643 122.563L84.4642 122.564L83.5764 130.369C83.572 130.411 83.5665 130.453 83.5599 130.494C83.5753 130.504 83.5906 130.515 83.6059 130.526L83.6107 130.529L83.6107 130.529C84.9518 131.507 84.8772 133.406 83.7219 134.43L83.7165 134.435L83.7165 134.435C82.8922 135.145 81.8639 135.312 80.9942 135.454C80.9164 135.467 80.8398 135.479 80.7648 135.492L79.8467 128.47ZM79.8467 128.47C78.3806 128.796 76.9541 129.474 75.9047 130.608C75.0399 131.535 74.5918 132.862 75.2482 134.151L75.2485 134.151C75.8043 135.239 76.9881 135.68 77.9832 135.776M79.8467 128.47L80.7647 135.492C80.6203 135.516 80.4701 135.544 80.3154 135.572C79.5938 135.705 78.774 135.856 77.9832 135.776M77.9832 135.776C77.9828 135.776 77.9823 135.776 77.9819 135.776L78.0323 135.279L77.9843 135.776C77.9839 135.776 77.9836 135.776 77.9832 135.776Z" fill="#A9682E" stroke="#A9682E"/>
<path d="M175.798 120.587C175.115 120.723 174.619 121.178 174.376 121.747L174.009 121.382L174.217 122.856C174.543 125.17 174.925 127.468 175.35 129.761C175.13 129.741 174.91 129.736 174.693 129.744C173.191 129.799 171.562 130.521 171.028 132.016L171.028 132.016L171.027 132.02C170.909 132.359 170.952 132.673 171.071 132.949C171.063 132.974 171.056 133 171.049 133.026C170.872 133.682 170.992 134.467 171.738 134.926L171.74 134.927C172.822 135.586 174.103 135.757 175.305 135.524C176.072 135.577 176.843 135.53 177.594 135.372C178.751 135.275 179.892 134.968 180.939 134.46L180.939 134.46L180.944 134.458C181.506 134.178 182.072 133.525 182.05 132.759C182.006 131.235 180.923 129.988 179.678 129.404C179.551 129.345 179.421 129.291 179.288 129.245C178.849 126.894 178.457 124.541 178.123 122.171L178.123 122.171L178.122 122.166C178.038 121.611 177.695 121.168 177.274 120.893C176.855 120.619 176.321 120.485 175.8 120.587L175.798 120.587Z" fill="#A9682E" stroke="#A9682E"/>
<path d="M229.617 95.8359C229.379 96.5393 229.489 97.4327 230.143 98.001L230.032 98.1113L230.757 98.386C235.064 100.018 238.559 103.437 240.356 107.623C239.468 107.731 238.62 108.084 237.906 108.607C237.567 108.856 237.256 109.144 236.981 109.467C236.7 109.693 236.444 109.965 236.221 110.288C234.74 112.43 235.845 115.296 237.894 116.565C238.016 116.641 238.143 116.711 238.273 116.774C238.991 117.17 239.802 117.407 240.612 117.483C242.534 117.663 244.617 116.952 245.652 115.12C246.385 113.839 246.556 112.139 245.555 110.828C245.445 110.683 245.323 110.547 245.192 110.419C245.242 110.181 245.245 109.928 245.187 109.667L245.187 109.665C243.625 102.843 238.639 97.1273 232.074 94.6376C231.497 94.4177 230.948 94.4715 230.501 94.727C230.067 94.975 229.768 95.39 229.617 95.8359Z" fill="#A9682E" stroke="#A9682E"/>
<path d="M8.17632 79.45L8.10154 79.0513L8.04085 79.0712C8.02764 79.0389 8.01373 79.0073 7.99915 78.9764C8.58008 77.0106 7.31828 74.6325 4.72055 74.5059C2.70674 74.4054 1.33512 75.5857 0.781077 77.1104C0.23572 78.6112 0.46802 80.4706 1.62094 81.825C2.55976 82.9344 4.16988 83.3627 5.54137 83.1591C7.70369 86.8803 11.6161 89.4849 15.8148 90.3434L15.8149 90.3434C21.5413 91.5136 27.2917 89.5482 31.8392 86.2215C32.339 85.8579 32.5916 85.3692 32.6076 84.8534C32.6231 84.3552 32.417 83.8873 32.1102 83.5317C31.5018 82.8265 30.3485 82.4235 29.3247 83.1754L28.8539 83.5211L28.8622 83.5292C25.3102 85.9767 20.8409 87.3865 16.5946 86.5064C12.7559 85.7036 9.50804 83.0932 8.17632 79.45Z" fill="#A9682E" stroke="#A9682E"/>
<path d="M99.5246 88.3043C107.562 92.3404 116.235 94.712 125.308 94.3437C129.556 94.1669 133.892 93.5335 137.963 92.3109C142.788 90.8673 147.065 87.9949 152.201 88.2895L145.925 73.2056C139.975 80.0258 129.289 79.4071 121.134 77.8015C109.974 75.6067 105.193 92.6497 116.412 94.8445C130.666 97.6433 148.16 97.5107 158.477 85.697C163.612 79.8048 160.09 71.0697 152.201 70.6131C144.312 70.1565 137.622 74.5608 129.852 76.1223C122.555 77.5806 115.08 76.3727 108.479 73.0436C98.2962 67.9174 89.2972 83.1634 99.5098 88.3043H99.5246Z" fill="#F5BED6"/>
<path d="M143.04 88.2427L143.84 87.1232L138.526 91.1888C141.383 90.2313 144.417 89.8483 147.377 89.2886L142.656 72.2456C136.661 74.0574 131.214 75.5304 124.939 74.897C120.943 74.4846 114.031 75.28 111.011 72.9674C107.178 70.036 101.109 72.4076 98.8598 76.1344C96.1364 80.6713 98.2677 85.3261 102.042 88.228C107.962 92.765 115.481 91.4098 122.452 92.2494C131.185 93.31 138.985 91.8075 147.362 89.2886C158.419 85.9595 153.771 70.1244 142.641 72.2456C136.365 73.4387 131.599 73.8954 127.677 79.3161C120.987 88.5668 136.395 97.405 143.011 88.2427H143.04Z" fill="#F5BED6"/>
<path d="M136.082 91.7206C141.262 89.8204 146.605 88.4211 152.126 87.9644C156.907 87.5667 161.007 84.1787 161.007 79.1262C161.007 74.6482 156.936 69.8903 152.126 70.288C144.992 70.8772 138.08 72.2029 131.36 74.6629C126.861 76.3127 123.812 80.6582 125.159 85.5339C126.343 89.8352 131.568 93.3704 136.082 91.7059V91.7206Z" fill="#F5BED6"/>
<path d="M106.332 92.398C109.352 90.6009 112.741 89.7907 116.175 89.1279C120.171 88.3619 124.212 87.8316 128.267 87.537C134.291 87.0951 141.869 86.5648 146.901 90.6156C148.455 91.8677 150.616 92.1329 152.141 90.6156C153.443 89.3194 153.695 86.6679 152.141 85.4011C145.525 80.0687 137.162 79.5679 128.978 80.1129C124.256 80.4222 119.549 81.0262 114.917 81.8953C110.624 82.6907 106.391 83.7955 102.617 86.0345C98.5321 88.465 102.247 94.8285 106.347 92.398H106.332Z" fill="#F0D0E0"/>
<path d="M107.622 93.8704C111.145 93.6936 114.623 94.165 118.131 94.4743C121.638 94.7836 125.087 94.8426 128.58 94.71C135.788 94.4301 142.952 93.399 150.086 92.3973L145.527 87.8604C145.69 87.0944 146.593 87.4921 145.838 87.4479C146.267 87.4626 144.817 87.6541 145.098 87.6099C144.121 87.772 142.611 87.772 141.457 87.8309L132.428 88.3759L123.755 88.8915C122.304 88.9799 120.869 89.083 119.418 89.1566C119.004 89.1714 118.323 89.0977 117.983 89.1861C117.494 89.3334 117.331 88.7295 117.938 89.5544L113.764 94.9604C119.862 97.1405 126.434 97.0226 132.783 96.2419C139.488 95.417 146.178 94.2975 152.853 93.2959C154.837 93.0013 155.917 90.5266 155.444 88.7589C154.866 86.6525 152.868 85.8865 150.885 86.1811C144.861 87.0797 138.837 88.1108 132.783 88.862C127.041 89.5838 121.254 89.8195 115.733 87.8456C112.847 86.8145 109.65 90.7033 111.559 93.2517C113.942 96.4334 117.168 96.6397 120.869 96.404L133.153 95.6675C137.076 95.4318 141.013 95.2845 144.935 94.9604C148.221 94.6805 151.906 93.4137 152.676 89.79C153.312 86.8145 150.944 84.8701 148.117 85.2531C141.398 86.1958 134.648 87.1091 127.855 87.3301C124.495 87.4332 121.135 87.3448 117.775 87.0355C114.416 86.7261 111.026 86.2842 107.622 86.461C102.886 86.7114 102.856 94.0766 107.622 93.8262V93.8704Z" fill="#F0D0E0"/>
<path d="M126.568 72.2917C123.607 73.3228 120.44 72.218 117.657 71.1722C114.727 70.0674 111.87 68.7858 108.762 68.2113C102.857 67.1213 96.4922 68.6238 92.7624 73.5585C89.2694 78.1543 89.7578 84.1643 93.458 88.4656C97.5135 93.194 104.129 95.0943 109.857 96.9503C122.808 101.148 136.751 102.563 149.642 97.3185C154.719 95.2563 159.618 91.8536 162.208 86.9189C164.473 82.6324 164.754 77.2263 162.652 72.8219C159.707 66.6499 153.061 65.1769 146.756 66.046C139.089 67.1066 131.452 69.6107 124.17 72.1591C121.476 73.1018 123.43 77.079 126.094 76.1363C131.822 74.1329 137.653 72.4537 143.574 71.1427C148.044 70.141 154.068 68.9331 157.472 72.9103C160.003 75.8711 160.151 80.4081 158.745 83.8845C157.013 88.1563 152.824 91.0581 148.739 92.87C138.171 97.569 126.138 97.0092 115.215 93.9453C110.02 92.487 104.129 90.9403 99.5708 87.9648C95.619 85.3722 93.162 80.7469 96.1074 76.4456C99.556 71.4078 106.32 71.6877 111.471 73.5143C117.095 75.5029 122.453 78.3753 128.477 76.2689C131.171 75.3261 129.217 71.3489 126.553 72.2917H126.568Z" fill="#90582C"/>
<path d="M146.752 47.7638C147.507 47.7933 148.261 47.8816 149.001 48.0289L148.439 47.9111C149.031 48.0289 149.623 48.1762 150.2 48.3677C150.733 48.5445 151.355 48.515 151.873 48.2646C152.391 48.0142 152.864 47.5134 153.012 46.9831C153.16 46.4528 153.175 45.8341 152.909 45.3185C152.642 44.803 152.198 44.3611 151.621 44.1843C150.141 43.7129 148.587 43.4331 147.048 43.3594C146.485 43.3299 145.893 43.5214 145.464 43.8897C145.035 44.258 144.709 44.8619 144.694 45.4217C144.68 45.9814 144.828 46.5854 145.227 46.9978C145.627 47.4103 146.16 47.7343 146.766 47.7638H146.752Z" fill="#90582C"/>
<path d="M108.004 44.2288L103.949 44.8916C103.401 44.98 102.839 45.363 102.528 45.8196C102.217 46.2763 102.054 46.9391 102.187 47.4842C102.321 48.0292 102.617 48.5889 103.12 48.8983C103.623 49.2076 104.186 49.3255 104.792 49.2371L108.848 48.5742C109.395 48.4858 109.958 48.1028 110.269 47.6462C110.58 47.1896 110.742 46.5267 110.609 45.9817C110.476 45.4366 110.18 44.8769 109.677 44.5675C109.173 44.2582 108.611 44.1404 108.004 44.2288Z" fill="#90582C"/>
<path d="M104.542 62.5682C104.764 62.1999 105.001 61.8317 105.267 61.4929C105.385 61.3456 105.504 61.1983 105.622 61.0657C105.356 61.375 105.593 61.1099 105.741 60.9626C106.007 60.6974 106.288 60.4618 106.584 60.2261C106.644 60.1819 107.191 59.8136 106.954 59.9609C106.718 60.1082 107.221 59.8136 107.265 59.7842C107.62 59.5927 107.99 59.4306 108.36 59.298C107.887 59.4601 108.464 59.2981 108.523 59.2686C108.701 59.2244 108.878 59.1949 109.056 59.1655C109.175 59.1508 109.293 59.136 109.411 59.1213C109.175 59.1213 109.145 59.1213 109.293 59.1213C109.471 59.1213 109.663 59.1213 109.841 59.1213C110.048 59.1213 110.255 59.1655 110.477 59.1802C110.936 59.2097 110.137 59.0771 110.625 59.1949C110.98 59.2833 111.306 59.4159 111.646 59.5337C112.12 59.7105 111.365 59.3275 111.75 59.5927C111.927 59.7105 112.105 59.8136 112.283 59.9315C112.416 60.0198 112.801 60.4618 112.46 60.064L112.594 60.1966C112.756 60.4028 112.756 60.3881 112.594 60.1671C112.682 60.3586 112.697 60.3881 112.638 60.2261C112.534 60.0051 112.549 59.7694 112.638 59.519C112.742 59.2539 112.934 59.0624 113.186 58.9298C112.771 59.136 113.541 58.9298 113.112 58.974C112.682 59.0182 113.496 58.9593 112.919 58.974C112.756 58.9593 112.801 58.974 113.052 59.0034C112.816 58.9151 112.83 58.9298 113.112 59.0624C112.771 58.8856 113.23 59.1802 113.304 59.3423C113.363 59.6074 113.378 59.6663 113.348 59.5043C113.319 59.3423 113.319 59.4012 113.348 59.681C113.348 60.064 113.008 60.5501 112.668 60.7122C112.09 60.9921 111.498 60.7122 111.069 60.3144C109.974 59.2686 111.202 57.8987 112.342 57.8987C111.187 57.8987 110.003 58.7088 109.989 59.9609C109.959 61.0952 110.817 62.3178 112.061 62.303C113.082 62.303 113.985 61.9201 114.592 61.0804C115.065 60.4028 115.272 59.4895 115.08 58.6794C114.606 56.735 112.431 55.9248 110.699 56.7644C108.967 57.6041 108.523 59.6663 109.308 61.2572C110.092 62.8481 111.927 63.5257 113.63 63.3489C115.332 63.1721 116.827 61.9201 116.989 60.1819C117.152 58.4437 116.013 57.1769 114.754 56.2636C112.727 54.7906 109.9 54.3339 107.487 54.9673C104.69 55.7039 102.307 57.6041 100.856 60.0788C100.264 61.0804 100.383 62.4945 101.448 63.1427C102.425 63.7319 103.905 63.6141 104.527 62.5535L104.542 62.5682Z" fill="#90582C"/>
<path d="M140.803 59.5484C141.025 59.2979 141.276 59.077 141.528 58.8708C141.661 58.7677 141.809 58.6056 141.957 58.5614C141.957 58.5614 141.572 58.7824 141.794 58.6645C141.883 58.6204 141.972 58.5614 142.061 58.5172C142.357 58.3552 142.668 58.2226 142.978 58.0901C143.082 58.0459 143.171 58.0164 143.274 57.9869C143.319 57.9722 143.585 57.8838 143.304 57.9869C143.023 58.0901 143.274 57.9869 143.334 57.9869C143.452 57.9575 143.585 57.9133 143.704 57.8838C144.029 57.7954 144.355 57.7365 144.681 57.6776C144.829 57.6481 144.977 57.6334 145.125 57.6187C145.199 57.6187 145.273 57.604 145.347 57.5892C145.702 57.5598 145.48 57.6481 145.302 57.5892C145.554 57.6776 145.998 57.5892 146.264 57.6187C146.412 57.6187 146.56 57.6629 146.708 57.6776C147.004 57.7218 146.294 57.5598 146.575 57.6629C146.664 57.6923 146.767 57.7071 146.856 57.7365C147.004 57.7807 147.182 57.8986 147.33 57.9133C147.33 57.9133 146.915 57.6776 147.123 57.8102C147.182 57.8544 147.241 57.8838 147.315 57.928C147.404 57.9869 147.863 58.3552 147.522 58.0606C147.211 57.7807 147.522 58.1048 147.611 58.1932C147.863 58.4583 147.374 57.7218 147.582 58.1343C147.626 58.2374 147.685 58.3405 147.73 58.4436C147.937 58.8708 147.656 58.0606 147.715 58.3847C147.73 58.5172 147.744 58.7087 147.789 58.8266C147.789 58.8266 147.789 58.3405 147.774 58.5467C147.774 58.6056 147.774 58.6645 147.774 58.7087C147.774 58.8118 147.7 59.2685 147.774 58.856C147.848 58.473 147.759 58.8413 147.73 58.9297C147.596 59.3569 148.026 58.5025 147.759 58.856C147.759 58.856 147.685 58.9886 147.67 58.9886C147.611 58.9886 148.085 58.6203 147.892 58.7382C147.833 58.7677 147.774 58.8266 147.73 58.8708C147.611 59.0033 147.966 58.7087 147.981 58.7087C147.937 58.7087 147.848 58.7677 147.804 58.7971C147.611 58.915 148.04 58.7235 148.026 58.7235C147.818 58.7824 147.848 58.6498 148.203 58.7235C148.159 58.7235 147.981 58.694 147.937 58.7235C147.966 58.7235 148.366 58.856 148.188 58.7677C148.04 58.694 147.759 58.532 148.322 58.8413C148.233 58.7971 148.129 58.6498 148.351 58.8708C148.455 58.9297 148.529 59.0181 148.573 59.1212C148.662 59.2832 148.692 59.3127 148.632 59.2096C148.544 58.9886 148.706 59.5042 148.706 59.4747C148.632 59.0623 148.706 59.8872 148.706 59.6367C148.706 59.1948 148.588 59.9903 148.706 59.6957C148.544 60.1523 148.484 60.0934 148.603 59.9313C148.47 60.1228 148.292 60.2996 148.07 60.4027C147.907 60.4764 147.744 60.4764 147.582 60.5058C147.374 60.5058 147.36 60.5058 147.522 60.5206L147.182 60.4616C147.182 60.4616 146.723 60.1818 146.901 60.3291C147.123 60.4911 146.531 59.9608 146.723 60.1523C146.886 60.3291 146.531 59.8135 146.516 59.7399C146.471 59.6367 146.442 59.5189 146.457 59.4011C146.457 59.1948 146.457 59.1654 146.427 59.3421C146.249 60.4911 147.374 61.6695 148.499 61.6843C149.787 61.7137 150.66 60.8446 150.853 59.622C151.134 57.8396 149.565 56.3961 147.922 56.1309C146.279 55.8658 144.843 57.0147 144.429 58.5025C143.97 60.1523 144.695 61.9199 146.249 62.6859C147.67 63.3783 149.284 63.2162 150.556 62.2882C152.407 60.933 152.688 58.1342 151.622 56.2046C150.29 53.7741 147.552 53.0375 144.947 53.229C142.342 53.4205 139.707 54.378 137.976 56.234C137.561 56.6907 137.251 57.1326 137.206 57.766C137.176 58.2963 137.369 58.9592 137.739 59.3421C138.479 60.1376 140.018 60.4911 140.877 59.5778L140.803 59.5484Z" fill="#90582C"/>
<path d="M175.29 71.5703H172.67V74.1776H175.29V71.5703Z" fill="white"/>
<path d="M184.661 72.8809H182.041V75.4881H184.661V72.8809Z" fill="white"/>
<path d="M179.227 78.5518H176.607V81.159H179.227V78.5518Z" fill="white"/>
<path d="M187.296 79.8477H184.676V82.4549H187.296V79.8477Z" fill="white"/>
<path d="M67.6862 71.3623H65.0664V73.9696H67.6862V71.3623Z" fill="white"/>
<path d="M62.4655 76.0762H59.8457V78.6834H62.4655V76.0762Z" fill="white"/>
<path d="M71.1823 77.9756H68.5625V80.5829H71.1823V77.9756Z" fill="white"/>
<path d="M76.3776 73.3213H73.7578V75.9286H76.3776V73.3213Z" fill="white"/>
<path d="M38.4698 96.4048C38.9878 99.292 39.5947 102.312 41.208 104.816C43.0729 107.718 46.1959 109.662 49.7333 109.53C50.6361 109.5 51.4354 108.94 51.5094 107.983C51.5686 107.158 50.8582 106.186 49.9553 106.215C48.5936 106.274 47.3503 105.994 46.2995 105.346C45.6334 104.934 45.4262 104.772 44.9674 104.286C44.7306 104.035 44.5234 103.77 44.3162 103.505C44.3014 103.475 44.0498 103.137 44.1386 103.269C44.1978 103.343 43.9757 103.004 43.9461 102.945C43.3097 101.855 42.8805 100.691 42.5845 99.6602C42.2292 98.3787 41.9776 97.0824 41.7408 95.7714C41.578 94.8876 40.6604 94.2984 39.7871 94.4604C38.9138 94.6224 38.307 95.521 38.4698 96.4048Z" fill="#F1BF92"/>
<path d="M56.2018 112.297L59.014 112.253C59.458 112.253 59.8576 112.15 60.198 111.856C60.5089 111.59 60.7605 111.119 60.7753 110.707C60.7901 110.294 60.6717 109.838 60.3756 109.528C60.0796 109.219 59.6652 108.939 59.2212 108.954L56.409 108.998C55.965 108.998 55.5654 109.101 55.2249 109.396C54.9141 109.661 54.6625 110.132 54.6477 110.545C54.6329 110.957 54.7513 111.414 55.0473 111.723C55.3434 112.032 55.7578 112.312 56.2018 112.297Z" fill="#F1BF92"/>
<path d="M231.194 33.8445C237.795 31.9443 244.292 29.7495 250.686 27.2748C252.418 26.5972 251.16 24.0193 249.428 24.6822C243.256 27.0685 236.996 29.1897 230.631 31.0163C228.855 31.5318 229.388 34.3453 231.179 33.8298L231.194 33.8445Z" fill="#F1BF92"/>
</svg>
