<svg width="142" height="111" viewBox="0 0 142 111" fill="none" xmlns="http://www.w3.org/2000/svg">
<path d="M39.0264 100.599C39.4772 100.709 39.8751 100.938 40.3759 101.048C40.8767 101.158 41.3667 101.162 41.8682 101.263C42.3697 101.363 42.7473 101.613 43.2494 101.705C43.7515 101.797 44.2318 101.848 44.7345 101.932C45.2372 102.016 45.7731 101.911 46.2731 101.988C46.7732 102.066 47.224 102.216 47.7276 102.29C48.2311 102.363 48.6756 102.556 49.1795 102.624C49.6834 102.693 50.1655 102.761 50.6699 102.823C51.1743 102.885 51.6917 102.774 52.1964 102.833C52.701 102.892 53.1663 103.058 53.6711 103.114C54.176 103.169 54.6541 103.29 55.1562 103.34C55.6584 103.391 56.1763 103.192 56.6788 103.238C57.1813 103.284 57.6588 103.536 58.1616 103.577C58.6645 103.618 59.161 103.702 59.6636 103.746C60.1663 103.79 60.6647 103.643 61.1651 103.675C61.6655 103.708 62.1602 103.692 62.6639 103.722C63.1676 103.752 63.6615 103.829 64.1625 103.854C64.6634 103.878 65.1533 103.803 65.6514 103.824C66.1496 103.845 66.6602 103.99 67.1618 104.006C67.6634 104.023 68.152 104.005 68.6508 104.017C69.1497 104.028 69.63 103.955 70.1291 103.964C70.6282 103.972 71.1421 104.073 71.6384 104.077C72.1348 104.08 72.6334 104.095 73.1301 104.094C73.6268 104.093 74.1251 104.112 74.6191 104.106C75.113 104.099 75.646 104.196 76.1367 104.193C76.6273 104.189 77.1 104.093 77.5885 104.076C78.077 104.06 78.5169 103.902 79.0028 103.879C79.4887 103.856 80.0311 103.952 80.5143 103.922C80.9976 103.892 81.4598 103.811 81.9434 103.776C82.4271 103.742 82.8694 103.634 83.3473 103.593C83.8252 103.551 84.3448 103.578 84.8171 103.528C85.2894 103.478 85.8099 103.493 86.2765 103.436C86.743 103.379 87.0861 103.139 87.5533 103.074C88.0205 103.009 88.6671 103.172 89.113 103.101C89.5588 103.029 90.0083 102.951 90.4515 102.873C90.8947 102.795 91.1798 102.537 91.6172 102.454C92.0546 102.37 92.463 102.257 92.8883 102.167C93.3137 102.078 93.7195 101.957 94.1606 101.866C94.6017 101.775 95.0848 101.747 95.5076 101.649C95.9305 101.551 96.3213 101.423 96.7414 101.321C97.1615 101.218 97.6456 101.177 98.0597 101.07C98.4739 100.964 98.9467 100.907 99.355 100.795C99.7633 100.684 100.025 100.446 100.43 100.333C100.836 100.219 101.229 100.098 101.628 99.9787C102.028 99.8597 102.622 99.8926 103.015 99.7698C103.409 99.647 103.626 99.3867 104.016 99.2604C104.407 99.1342 104.91 99.0916 105.288 98.9611C105.667 98.8306 106.014 98.6652 106.395 98.5381C106.776 98.411 107.357 98.4091 107.73 98.27C108.103 98.131 108.268 97.8516 108.638 97.7075C109.008 97.5634 109.416 97.4547 109.781 97.3085C110.145 97.1622 110.673 97.1187 111.031 96.9703C111.389 96.8219 111.708 96.6477 112.063 96.4974C112.418 96.3472 112.744 96.1687 113.068 96.0125C113.392 95.8563 113.832 95.7392 114.172 95.5812C114.512 95.4232 114.523 95.0773 114.863 94.9161C115.203 94.7549 115.696 94.6826 116.024 94.5188C116.352 94.3549 116.644 94.1654 116.969 93.9981C117.294 93.8307 117.788 93.7488 118.107 93.5794C118.426 93.4099 118.784 93.2551 119.097 93.0819C119.41 92.9087 119.606 92.6754 119.913 92.4985C120.22 92.3215 120.624 92.19 120.925 92.0125C121.225 91.835 121.225 91.5122 121.523 91.3312C121.821 91.1503 122.122 90.9728 122.414 90.7881C122.706 90.6034 123.291 90.5441 123.577 90.3652C123.862 90.1863 123.834 89.8579 124.114 89.669C124.394 89.48 125.019 89.4353 125.289 89.2423C125.56 89.0494 125.616 88.7685 125.884 88.5736C126.152 88.3788 126.562 88.243 126.823 88.046C127.085 87.849 127.007 87.5242 127.262 87.3251C127.518 87.126 127.968 87.0033 128.217 86.802C128.467 86.6008 128.592 86.3532 128.832 86.1511C129.072 85.9491 129.505 85.812 129.739 85.6062C129.973 85.4004 130.071 85.1456 130.299 84.9376C130.527 84.7297 130.932 84.5806 131.157 84.3708C131.382 84.1609 131.604 83.9508 131.83 83.7394C132.055 83.528 132.305 83.3267 132.502 83.1113C132.7 82.8958 132.763 82.6348 132.964 82.4164C133.165 82.1981 133.39 81.9898 133.582 81.7706C133.773 81.5514 133.901 81.3169 134.086 81.0908C134.272 80.8647 134.528 80.6671 134.704 80.4434C134.88 80.2196 135.127 80.0133 135.297 79.7874C135.468 79.5615 135.408 79.2785 135.569 79.0502C135.73 78.8218 136.186 78.666 136.337 78.4352C136.489 78.2045 136.549 77.9513 136.704 77.7208C136.859 77.4904 137.1 77.2739 137.233 77.0447C137.366 76.8156 137.31 76.5344 137.434 76.2981C137.558 76.0617 137.661 75.8218 137.772 75.5828C137.884 75.3437 138.067 75.1173 138.17 74.8774C138.272 74.6376 138.245 74.3751 138.339 74.1328C138.432 73.8905 138.442 73.6361 138.526 73.393C138.61 73.1499 138.904 72.9445 138.976 72.6923C139.048 72.4402 138.86 72.1651 138.919 71.9182C138.979 71.6713 139.348 71.4629 139.395 71.2149C139.442 70.967 139.123 70.6773 139.142 70.4253C139.162 70.1732 139.673 69.9725 139.702 69.7213C139.73 69.4701 139.591 69.2042 139.604 68.9517C139.617 68.6991 139.332 68.4268 139.326 68.1726C139.321 67.9184 139.47 67.6778 139.458 67.4247C139.446 67.1715 139.341 66.9134 139.316 66.6608C139.292 66.4081 139.638 66.164 139.601 65.9103C139.564 65.6565 139.425 65.3954 139.376 65.1406C139.326 64.8858 139.265 64.6299 139.203 64.374C139.141 64.118 138.682 63.8674 138.608 63.612C138.534 63.3566 138.722 63.0986 138.635 62.8453C138.548 62.592 138.405 62.3433 138.303 62.0823C138.201 61.8212 138.251 61.5671 138.136 61.313C138.021 61.0588 137.841 60.8053 137.713 60.5564C137.585 60.3076 137.524 60.0453 137.384 59.7937C137.243 59.5422 137.204 59.277 137.051 59.0275C136.899 58.7781 136.264 58.5794 136.099 58.3305C135.933 58.0815 135.871 57.8288 135.694 57.5756C135.516 57.3223 135.243 57.096 135.049 56.851C134.856 56.606 134.794 56.3469 134.585 56.0989C134.376 55.8509 134.311 55.5931 134.089 55.3472C133.868 55.1014 133.718 54.849 133.483 54.6116C133.248 54.3742 132.657 54.2179 132.41 53.9842C132.162 53.7505 132.159 53.4548 131.899 53.2232C131.639 52.9916 131.209 52.8078 130.933 52.5796C130.657 52.3514 130.661 52.0467 130.366 51.8216C130.071 51.5966 129.721 51.3925 129.419 51.1733C129.117 50.9541 128.884 50.6863 128.564 50.4671C128.243 50.2479 127.685 50.1105 127.358 49.8955C127.031 49.6805 126.856 49.389 126.51 49.1788C126.163 48.9685 125.75 48.7812 125.39 48.5763C125.031 48.3713 124.679 48.1557 124.31 47.9563C123.941 47.7569 123.592 47.5384 123.21 47.3443C122.828 47.1502 122.296 47.0456 121.892 46.8543C121.488 46.6631 121.148 46.4534 120.746 46.272C120.345 46.0906 119.832 45.9813 119.417 45.8036C119.003 45.6259 118.66 45.4079 118.242 45.2347C117.824 45.0615 117.294 44.9764 116.869 44.809C116.445 44.6417 116.149 44.3765 115.718 44.215C115.287 44.0535 114.776 43.9588 114.338 43.8015C113.9 43.6442 113.543 43.4105 113.098 43.2655C112.653 43.1204 112.212 42.9612 111.761 42.814C111.31 42.6668 110.753 42.634 110.299 42.4929C109.844 42.3518 109.519 42.0664 109.061 41.9314C108.603 41.7964 108.146 41.6423 107.691 41.5107C107.235 41.3792 106.775 41.2232 106.313 41.0975C105.851 40.9718 105.377 40.8403 104.906 40.7169C104.434 40.5936 103.809 40.6848 103.333 40.566C102.858 40.4472 102.456 40.2304 101.981 40.1164C101.505 40.0024 101.065 39.8448 100.573 39.7342C100.082 39.6236 99.6087 39.521 99.1263 39.416C98.6439 39.3111 98.1725 39.1861 97.6867 39.0841C97.201 38.982 96.7443 38.8263 96.2582 38.729C95.7722 38.6317 95.2754 38.5511 94.7861 38.4551C94.2968 38.3592 93.7247 38.4486 93.2319 38.3571C92.7391 38.2657 92.256 38.1703 91.763 38.082C91.2699 37.9937 90.8546 37.7051 90.3706 37.6209C89.8867 37.5366 89.2899 37.7042 88.7931 37.6236C88.2964 37.543 87.8373 37.3791 87.3435 37.3004C86.8498 37.2217 86.3603 37.1273 85.8632 37.0515C85.3661 36.9757 84.8891 36.8407 84.3954 36.762C83.9016 36.6833 83.4143 36.5618 82.9168 36.4908C82.4193 36.4198 81.9002 36.4288 81.4027 36.3578C80.9052 36.2868 80.3897 36.2897 79.8917 36.2251C79.3938 36.1605 78.8825 36.1477 78.3838 36.0926C77.8852 36.0376 77.4296 35.7439 76.9313 35.684C76.433 35.6242 75.9335 35.5803 75.4351 35.5221C74.9366 35.4639 74.4465 35.379 73.9477 35.3256C73.4489 35.2721 72.9369 35.3091 72.438 35.2572C71.9391 35.2054 71.444 35.1442 70.9449 35.0955C70.4457 35.0469 69.9349 35.1513 69.4355 35.1058C68.9361 35.0604 68.4408 35.0024 67.9411 34.9601C67.4415 34.9178 66.949 34.8216 66.4492 34.7825C65.9493 34.7434 65.4548 34.5924 64.9546 34.5565C64.4545 34.5206 63.9554 34.512 63.4581 34.4796C62.9609 34.4472 62.4616 34.5639 61.964 34.5362C61.4664 34.5086 60.97 34.5051 60.4691 34.4788C59.9683 34.4524 59.4753 34.4043 58.9741 34.3828C58.4729 34.3612 57.9651 34.2203 57.4699 34.2024C56.9746 34.1846 56.4866 34.2766 55.9912 34.2604C55.4958 34.2442 54.9771 34.1248 54.4811 34.1165C53.9851 34.1083 53.49 34.129 52.9969 34.1242C52.5038 34.1194 51.9798 34.0269 51.4864 34.0269C50.9929 34.0269 50.5155 34.1021 50.0213 34.1117C49.5271 34.1213 49.0744 34.2421 48.58 34.2533C48.0857 34.2644 47.5463 34.1287 47.0579 34.1436C46.5695 34.1585 46.1272 34.3075 45.6414 34.3291C45.1556 34.3506 44.5785 34.1779 44.0891 34.2056C43.5998 34.2332 43.1245 34.2814 42.6437 34.3195C42.1629 34.3575 41.7966 34.616 41.3188 34.6559C40.841 34.6958 40.2806 34.5904 39.8054 34.6369C39.3302 34.6835 38.8773 34.7657 38.4048 34.819C37.9322 34.8722 37.364 34.787 36.9003 34.8474C36.4365 34.9078 36.0652 35.108 35.604 35.1767C35.1428 35.2453 34.5845 35.1931 34.129 35.2687C33.6735 35.3443 33.2866 35.503 32.8555 35.5871C32.4243 35.6713 31.9585 35.7588 31.5175 35.8485C31.0765 35.9383 30.5708 35.9757 30.1448 36.0748C29.7187 36.1738 29.3933 36.3861 28.9698 36.4934C28.5462 36.6007 28.1433 36.7243 27.7284 36.8404C27.3135 36.9565 26.8665 37.044 26.4541 37.1684C26.0417 37.2927 25.5948 37.3787 25.2004 37.5127C24.8061 37.6466 24.4594 37.8104 24.0801 37.9521C23.7007 38.0938 23.4046 38.291 23.0372 38.4402C22.6698 38.5893 22.4131 38.8028 22.0607 38.9597C21.7083 39.1166 21.0803 39.1193 20.7397 39.2853C20.3991 39.4512 20.3349 39.7619 20.0063 39.9353C19.6776 40.1088 19.3357 40.2506 19.0319 40.4262C18.7281 40.6018 18.2827 40.7088 17.994 40.8906C17.7053 41.0724 17.3621 41.2317 17.0855 41.4193C16.8088 41.607 16.7988 41.9031 16.5343 42.0951C16.2699 42.287 15.7659 42.384 15.5136 42.5802C15.2613 42.7764 15.1181 43.016 14.8718 43.2159C14.6254 43.4158 14.2027 43.5537 13.9717 43.7566C13.7408 43.9595 13.5277 44.1736 13.2997 44.3784C13.0718 44.5832 13.1899 44.9195 12.9645 45.1309C12.7392 45.3423 12.4772 45.5425 12.2578 45.7577C12.0384 45.9728 11.6056 46.1195 11.4047 46.3378C11.2038 46.5562 11.0729 46.8 10.8718 47.02C10.6708 47.24 10.2467 47.3954 10.0519 47.6159C9.85711 47.8365 9.93407 48.1387 9.74523 48.3629C9.55639 48.5872 9.50857 48.8463 9.32891 49.073C9.14925 49.2997 8.99776 49.5256 8.82395 49.7576C8.65013 49.9896 8.38207 50.1877 8.21781 50.4173C8.05354 50.6469 7.85253 50.8669 7.69423 51.1003C7.53593 51.3336 7.34757 51.5515 7.20453 51.7895C7.0615 52.0274 7.01417 52.2801 6.87436 52.5167C6.73455 52.7533 6.19528 52.9034 6.07409 53.1417C5.9529 53.3799 6.03429 53.6648 5.9069 53.9025C5.7795 54.1402 5.52611 54.3508 5.41063 54.5959C5.29516 54.8411 5.27253 55.0976 5.16362 55.3385C5.05472 55.5795 4.86539 55.8101 4.76257 56.0532C4.65975 56.2962 4.88065 56.595 4.78714 56.8389C4.69362 57.0828 4.6371 57.3331 4.54967 57.5791C4.46225 57.8251 4.20204 58.0431 4.13001 58.2921C4.05797 58.5411 4.12209 58.8068 4.05328 59.0545C3.98446 59.3021 3.67127 59.5187 3.61165 59.7688C3.55202 60.0188 3.42128 60.2594 3.36786 60.51C3.31444 60.7606 3.27952 61.0145 3.2323 61.2656C3.18509 61.5168 3.17176 61.7741 3.13385 62.0261C3.09595 62.2781 2.86257 62.5129 2.84328 62.7665C2.82399 63.0201 3.13322 63.3074 3.11082 63.5607C3.08843 63.8141 2.84861 64.0515 2.83242 64.3054C2.81623 64.5593 2.99861 64.8306 2.99173 65.0853C2.98485 65.34 3.18299 65.6095 3.18542 65.865C3.18785 66.1205 2.90733 66.3592 2.91596 66.6153C2.92459 66.8713 2.75613 67.115 2.77371 67.3767C2.79129 67.6384 3.04612 67.9016 3.05786 68.1579C3.06959 68.4143 3.26821 68.6774 3.31098 68.9364C3.35374 69.1955 3.36882 69.4489 3.4086 69.7061C3.44838 69.9633 3.26666 70.2171 3.31575 70.4751C3.36484 70.7331 3.39519 70.9911 3.45048 71.2496C3.50578 71.5082 3.52682 71.7653 3.59142 72.0247C3.65602 72.2841 4.09944 72.5318 4.17311 72.7951C4.24678 73.0585 4.09943 73.3121 4.17979 73.5697C4.26014 73.8272 4.13999 74.0928 4.22357 74.3491C4.30715 74.6053 4.38405 74.8673 4.47694 75.1244C4.56982 75.3814 4.95083 75.6284 5.04384 75.8839C5.13685 76.1393 5.3177 76.3896 5.43529 76.6505C5.55288 76.9113 5.33533 77.1844 5.45639 77.4407C5.57745 77.697 5.783 77.9511 5.91373 78.2034C6.04446 78.4558 6.07086 78.7246 6.20767 78.9791C6.34448 79.2336 6.58155 79.484 6.72779 79.7377C6.87403 79.9914 7.25302 80.2238 7.40547 80.478C7.55791 80.7323 7.85228 80.9685 8.01428 81.2204C8.17628 81.4722 8.25627 81.7346 8.4277 81.9857C8.59912 82.2367 8.90304 82.4706 9.0808 82.7206C9.25855 82.9707 9.11747 83.265 9.30143 83.5155C9.48539 83.7661 9.5753 84.0213 9.76534 84.274C9.95538 84.5268 10.3299 84.7363 10.5483 84.9851C10.7668 85.2339 10.8598 85.4893 11.091 85.7344C11.3222 85.9795 11.888 86.1384 12.1353 86.3769C12.3827 86.6154 12.5671 86.8596 12.8272 87.0944C13.0873 87.3292 13.4183 87.5365 13.6912 87.7676C13.9641 87.9987 14.1449 88.249 14.4245 88.4743C14.7041 88.6996 15.1242 88.8842 15.4132 89.1087C15.7022 89.3332 15.7932 89.6158 16.0883 89.8424C16.3834 90.069 16.6565 90.2969 16.9742 90.5143C17.2918 90.7317 17.4618 91.0019 17.7797 91.2161C18.0976 91.4303 18.6213 91.5678 18.9487 91.7796C19.2762 91.9914 19.6583 92.1824 19.9797 92.392C20.3011 92.6017 20.4377 92.8995 20.7782 93.1045C21.1187 93.3094 21.478 93.5128 21.8281 93.7137C22.1783 93.9147 22.8523 93.9642 23.2094 94.1562C23.5664 94.3481 23.6173 94.7058 23.9837 94.8986C24.3501 95.0913 24.9537 95.1636 25.3265 95.3537C25.6993 95.5438 26.0397 95.7504 26.4195 95.9315C26.7992 96.1125 27.2763 96.246 27.6592 96.4273C28.0421 96.6087 28.152 96.97 28.5415 97.1471C28.9309 97.3242 29.5856 97.34 29.985 97.5099C30.3843 97.6799 30.7433 97.8881 31.1492 98.0538C31.5551 98.2195 31.9898 98.3765 32.4026 98.5348C32.8153 98.6931 33.1229 98.9609 33.5452 99.1169C33.9675 99.2728 34.5933 99.2571 35.0223 99.4072C35.4513 99.5573 35.8729 99.7228 36.3093 99.8574C36.7457 99.9921 37.2279 100.099 37.6714 100.223C38.1148 100.347 38.5727 100.487 39.0264 100.599Z" fill="#E8C15D"/>
<path d="M120.406 35.7749L71.6125 3.59147L7.90844 26.971L8.24614 55.764L58.4038 93.69L120.744 64.5679L120.406 35.7749Z" fill="#EFDAC5"/>
<path fill-rule="evenodd" clip-rule="evenodd" d="M73.062 1.03514C72.4138 0.624227 71.6126 0.53402 70.8889 0.790473L9.46103 22.5576C8.57538 22.8714 7.94013 23.6551 7.81653 24.5865C7.80703 24.6581 7.80067 24.7297 7.79739 24.8011C6.60348 25.9619 5.83508 27.597 5.85764 29.5201L6.14977 54.4281C6.16839 56.0154 6.85724 57.5314 8.11678 58.5744C13.9227 63.3819 43.1569 87.4494 56.6937 95.7586C57.3546 96.1643 58.1665 96.2401 58.8915 95.9638C91.4062 83.5733 115.598 71.7114 121.969 68.5122C123.864 67.5606 124.986 65.6286 124.961 63.5664L124.651 37.133C124.631 35.4277 123.858 33.9652 122.691 32.9879C122.494 32.5484 122.171 32.1666 121.748 31.8988L73.062 1.03514ZM11.1525 28.5425L45.5012 52.22L55.1004 59.359L55.4479 88.9895C41.1844 79.3329 16.7154 59.2009 11.307 54.7225C11.2149 54.6463 11.1514 54.5344 11.1494 54.3665L10.8573 29.4586C10.8531 29.1032 10.9659 28.7905 11.1525 28.5425ZM69.2634 6.67015L19.4938 24.3061L59.2383 31.4656C59.3022 31.4267 59.3684 31.3902 59.4368 31.3565L69.4947 26.3943L69.2634 6.67015ZM73.7548 29.8667L107.934 35.6884L89.864 42.7652L60.9932 53.5625L62.551 35.3942L73.7548 29.8667ZM57.4616 36.2266L24.3596 30.2636L42.6192 43.8436L56.022 53.0164L57.4616 36.2266ZM118.325 37.4583L119.433 37.6468C119.508 37.6596 119.583 37.6689 119.657 37.6748L119.962 63.628C119.964 63.8355 119.861 63.9768 119.727 64.0442C113.671 67.0854 91.0747 78.1691 60.4602 90.007L60.1057 59.7883L91.649 47.4349L118.325 37.4583ZM74.4778 24.9173L108.423 30.6992L74.2839 8.38628L74.4778 24.9173Z" fill="#ECECEC"/>
</svg>
