<svg width="343" height="374" viewBox="0 0 343 374" fill="none" xmlns="http://www.w3.org/2000/svg">
<rect x="2" y="2" width="339" height="370" rx="126" fill="#FFD873" stroke="white" stroke-width="4"/>
<rect x="9" y="8" width="325" height="358" rx="119" fill="white" stroke="white" stroke-width="2"/>
<mask id="mask0_361_5014" style="mask-type:alpha" maskUnits="userSpaceOnUse" x="10" y="9" width="322" height="356">
<rect x="10" y="9" width="322" height="356" rx="117" fill="#FFE49E"/>
</mask>
<g mask="url(#mask0_361_5014)">
<rect x="207.061" y="37.5371" width="4.02075" height="267.383" rx="2.01037" fill="#FFD873" fill-opacity="0.3"/>
<rect x="125.305" y="37.5371" width="4.02075" height="267.383" rx="2.01037" fill="#FFD873" fill-opacity="0.3"/>
<path d="M170.026 92.588C167.093 92.748 164.599 92.5613 162.546 92.028C160.519 91.5213 158.906 90.7613 157.706 89.748C156.506 88.7347 155.693 87.548 155.266 86.188C154.866 84.8013 154.799 83.3347 155.066 81.788C155.359 80.1613 156.079 78.828 157.226 77.788C158.373 76.7213 159.826 75.9747 161.586 75.548C163.346 75.0947 165.293 75.0013 167.426 75.268C167.213 74.8947 166.999 74.5213 166.786 74.148C166.573 73.748 166.359 73.348 166.146 72.948C164.653 73.188 163.146 73.4147 161.626 73.628C160.133 73.8147 158.693 73.9747 157.306 74.108C156.506 74.188 155.799 73.9747 155.186 73.468C154.599 72.9347 154.279 72.268 154.226 71.468C154.146 70.668 154.359 69.9613 154.866 69.348C155.399 68.7347 156.066 68.4013 156.866 68.348C157.906 68.268 158.986 68.1613 160.106 68.028C161.253 67.8947 162.413 67.7347 163.586 67.548C163.479 67.2547 163.359 66.948 163.226 66.628C163.119 66.308 162.999 66.0013 162.866 65.708C161.879 65.868 160.919 66.0147 159.986 66.148C159.079 66.2547 158.213 66.3613 157.386 66.468C156.586 66.548 155.866 66.348 155.226 65.868C154.613 65.3613 154.266 64.708 154.186 63.908C154.079 63.1347 154.279 62.428 154.786 61.788C155.293 61.148 155.933 60.788 156.706 60.708C157.346 60.6547 158.026 60.5747 158.746 60.468C159.493 60.3613 160.239 60.2547 160.986 60.148C160.906 59.828 160.813 59.508 160.706 59.188C160.626 58.868 160.546 58.548 160.466 58.228C160.279 57.4547 160.386 56.708 160.786 55.988C161.213 55.268 161.826 54.8147 162.626 54.628C163.426 54.4147 164.173 54.5213 164.866 54.948C165.586 55.348 166.039 55.948 166.226 56.748C166.333 57.148 166.439 57.548 166.546 57.948C166.653 58.348 166.759 58.748 166.866 59.148C167.613 58.988 168.333 58.8413 169.026 58.708C169.746 58.548 170.413 58.4013 171.026 58.268C171.799 58.0813 172.519 58.2013 173.186 58.628C173.879 59.0547 174.319 59.6547 174.506 60.428C174.693 61.2013 174.573 61.9213 174.146 62.588C173.719 63.2547 173.119 63.6947 172.346 63.908C171.759 64.0147 171.159 64.1347 170.546 64.268C169.933 64.4013 169.306 64.5347 168.666 64.668C168.853 65.2547 169.093 65.868 169.386 66.508C170.399 66.2947 171.386 66.0813 172.346 65.868C173.333 65.628 174.239 65.4013 175.066 65.188C175.839 64.9747 176.559 65.0947 177.226 65.548C177.919 65.9747 178.359 66.5747 178.546 67.348C178.733 68.1213 178.613 68.8413 178.186 69.508C177.759 70.1747 177.159 70.6147 176.386 70.828C175.719 71.0147 175.013 71.2013 174.266 71.388C173.519 71.548 172.733 71.708 171.906 71.868C172.519 72.9347 173.146 73.9213 173.786 74.828C174.453 75.7347 175.133 76.5213 175.826 77.188C176.359 77.668 176.666 78.268 176.746 78.988C176.826 79.6813 176.679 80.3347 176.306 80.948C175.933 81.5347 175.413 81.948 174.746 82.188C174.079 82.428 173.413 82.4147 172.746 82.148C170.506 81.1613 168.493 80.6013 166.706 80.468C164.946 80.3347 163.533 80.4947 162.466 80.948C161.426 81.3747 160.853 82.0013 160.746 82.828C160.586 84.2147 161.186 85.2413 162.546 85.908C163.933 86.5747 166.319 86.828 169.706 86.668C170.533 86.6147 171.253 86.868 171.866 87.428C172.479 87.9613 172.799 88.6547 172.826 89.508C172.879 90.3347 172.626 91.0413 172.066 91.628C171.533 92.2147 170.853 92.5347 170.026 92.588ZM165.546 133.628C164.719 133.735 163.986 133.535 163.346 133.028C162.706 132.521 162.319 131.868 162.186 131.068C161.919 128.828 161.439 126.321 160.746 123.548C160.079 120.775 159.279 118.055 158.346 115.388C157.093 115.815 155.893 116.241 154.746 116.668C153.626 117.095 152.599 117.481 151.666 117.828C150.893 118.095 150.133 118.055 149.386 117.708C148.639 117.335 148.133 116.761 147.866 115.988C147.599 115.215 147.639 114.455 147.986 113.708C148.359 112.961 148.919 112.455 149.666 112.188C150.653 111.841 151.706 111.481 152.826 111.108C153.946 110.708 155.106 110.308 156.306 109.908C155.879 108.895 155.453 107.935 155.026 107.028C154.626 106.095 154.199 105.255 153.746 104.508C153.346 103.788 153.266 103.041 153.506 102.268C153.746 101.468 154.226 100.868 154.946 100.468C155.666 100.068 156.426 99.988 157.226 100.228C158.026 100.441 158.613 100.908 158.986 101.628C159.493 102.588 159.986 103.615 160.466 104.708C160.973 105.801 161.453 106.935 161.906 108.108C162.706 107.841 163.506 107.588 164.306 107.348C165.106 107.108 165.879 106.881 166.626 106.668C166.199 106.401 165.853 106.081 165.586 105.708L163.586 102.668C163.133 101.975 162.986 101.228 163.146 100.428C163.333 99.628 163.759 99.0013 164.426 98.548C165.119 98.0947 165.866 97.948 166.666 98.108C167.493 98.268 168.119 98.6947 168.546 99.388L170.546 102.428C170.866 102.908 171.026 103.428 171.026 103.988C171.053 104.548 170.933 105.068 170.666 105.548L170.746 105.508C173.359 104.815 175.666 104.615 177.666 104.908C179.693 105.175 181.319 105.921 182.546 107.148C183.773 108.375 184.506 110.068 184.746 112.228C184.959 114.041 184.786 115.668 184.226 117.108C183.666 118.521 182.813 119.695 181.666 120.628C180.519 121.561 179.186 122.201 177.666 122.548C176.146 122.895 174.533 122.895 172.826 122.548C171.119 122.201 169.426 121.468 167.746 120.348C167.053 119.895 166.613 119.268 166.426 118.468C166.239 117.668 166.359 116.935 166.786 116.268C167.213 115.575 167.826 115.121 168.626 114.908C169.453 114.668 170.199 114.801 170.866 115.308C171.906 116.055 172.919 116.521 173.906 116.708C174.893 116.895 175.773 116.855 176.546 116.588C177.346 116.295 177.933 115.828 178.306 115.188C178.706 114.521 178.826 113.735 178.666 112.828C178.559 112.241 178.279 111.748 177.826 111.348C177.399 110.921 176.733 110.655 175.826 110.548C174.919 110.441 173.679 110.588 172.106 110.988C170.959 111.255 169.666 111.615 168.226 112.068C166.813 112.495 165.359 112.961 163.866 113.468C164.559 115.495 165.186 117.535 165.746 119.588C166.333 121.615 166.826 123.548 167.226 125.388C167.653 127.201 167.946 128.828 168.106 130.268C168.213 131.095 168.013 131.828 167.506 132.468C167.026 133.108 166.373 133.495 165.546 133.628ZM163.346 174.828C162.519 174.828 161.813 174.535 161.226 173.948C160.639 173.388 160.333 172.695 160.306 171.868C160.279 171.041 160.546 170.335 161.106 169.748C161.693 169.161 162.399 168.868 163.226 168.868C166.826 168.815 169.506 168.281 171.266 167.268C173.053 166.255 173.946 164.855 173.946 163.068C173.946 161.895 173.533 160.948 172.706 160.228C171.879 159.481 170.693 159.108 169.146 159.108C168.026 159.108 166.866 159.308 165.666 159.708C164.493 160.108 163.359 160.681 162.266 161.428C161.199 162.148 160.266 163.015 159.466 164.028C159.039 164.535 158.466 164.841 157.746 164.948C157.026 165.055 156.386 164.961 155.826 164.668C155.239 164.375 154.813 163.935 154.546 163.348C154.306 162.761 154.239 162.148 154.346 161.508C154.533 160.308 154.746 159.001 154.986 157.588C155.253 156.175 155.519 154.801 155.786 153.468C156.079 152.135 156.333 151.015 156.546 150.108C156.759 149.308 157.213 148.695 157.906 148.268C158.626 147.841 159.373 147.735 160.146 147.948C160.946 148.135 161.559 148.588 161.986 149.308C162.413 150.028 162.519 150.788 162.306 151.588C161.986 152.948 161.599 154.415 161.146 155.988C162.479 155.188 163.826 154.575 165.186 154.148C166.546 153.695 167.933 153.468 169.346 153.468C171.506 153.468 173.373 153.868 174.946 154.668C176.519 155.441 177.733 156.548 178.586 157.988C179.439 159.401 179.866 161.095 179.866 163.068C179.866 166.695 178.439 169.548 175.586 171.628C172.759 173.681 168.679 174.748 163.346 174.828ZM169.506 149.548C168.706 149.148 167.773 148.708 166.706 148.228C165.666 147.721 164.599 147.241 163.506 146.788C162.413 146.308 161.399 145.895 160.466 145.548C159.719 145.255 159.213 144.708 158.946 143.908C158.679 143.108 158.719 142.335 159.066 141.588C159.439 140.841 159.999 140.348 160.746 140.108C161.519 139.868 162.293 139.895 163.066 140.188C164.479 140.721 165.946 141.321 167.466 141.988C168.986 142.655 170.439 143.348 171.826 144.068C172.546 144.415 173.066 144.961 173.386 145.708C173.706 146.428 173.706 147.175 173.386 147.948C173.093 148.695 172.559 149.241 171.786 149.588C171.013 149.908 170.253 149.895 169.506 149.548ZM169.386 215.828C168.559 215.881 167.839 215.641 167.226 215.108C166.613 214.575 166.266 213.895 166.186 213.068C166.133 212.241 166.373 211.521 166.906 210.908C167.439 210.268 168.119 209.921 168.946 209.868C171.719 209.681 173.853 208.935 175.346 207.628C176.839 206.321 177.586 204.495 177.586 202.148C177.586 200.735 177.133 199.455 176.226 198.308C175.346 197.135 174.119 196.255 172.546 195.668C172.039 197.028 171.479 198.321 170.866 199.548C170.279 200.775 169.639 201.935 168.946 203.028C169.106 203.135 169.266 203.255 169.426 203.388C169.586 203.495 169.733 203.615 169.866 203.748C170.559 204.201 170.973 204.828 171.106 205.628C171.266 206.428 171.106 207.175 170.626 207.868C170.173 208.535 169.546 208.948 168.746 209.108C167.946 209.241 167.199 209.081 166.506 208.628C166.319 208.495 166.119 208.348 165.906 208.188C165.693 208.028 165.479 207.868 165.266 207.708C164.493 208.455 163.693 209.148 162.866 209.788C162.039 210.428 161.173 211.001 160.266 211.508C158.959 212.255 157.653 212.668 156.346 212.748C155.039 212.828 153.853 212.601 152.786 212.068C151.719 211.535 150.866 210.721 150.226 209.628C149.586 208.535 149.266 207.175 149.266 205.548C149.266 203.201 149.746 201.081 150.706 199.188C151.693 197.295 152.973 195.655 154.546 194.268C154.066 193.388 153.626 192.521 153.226 191.668C152.826 190.788 152.479 189.961 152.186 189.188C151.919 188.415 151.959 187.655 152.306 186.908C152.679 186.161 153.253 185.655 154.026 185.388C154.799 185.095 155.546 185.135 156.266 185.508C157.013 185.855 157.519 186.415 157.786 187.188C158.026 187.828 158.293 188.481 158.586 189.148C158.879 189.815 159.199 190.495 159.546 191.188C160.879 190.601 162.253 190.161 163.666 189.868C165.106 189.548 166.546 189.388 167.986 189.388H168.266C168.399 188.775 168.533 188.148 168.666 187.508C168.826 186.841 168.959 186.175 169.066 185.508C169.199 184.681 169.599 184.028 170.266 183.548C170.933 183.068 171.666 182.895 172.466 183.028C173.293 183.161 173.933 183.575 174.386 184.268C174.866 184.935 175.039 185.668 174.906 186.468C174.799 187.135 174.679 187.788 174.546 188.428C174.439 189.041 174.306 189.655 174.146 190.268C177.079 191.175 179.359 192.681 180.986 194.788C182.613 196.868 183.426 199.321 183.426 202.148C183.426 204.735 182.866 207.015 181.746 208.988C180.653 210.961 179.066 212.535 176.986 213.708C174.906 214.881 172.373 215.588 169.386 215.828ZM157.586 206.468C158.253 206.121 158.879 205.721 159.466 205.268C160.079 204.788 160.666 204.268 161.226 203.708C160.586 203.015 159.959 202.281 159.346 201.508C158.759 200.708 158.173 199.908 157.586 199.108C155.933 200.921 155.106 202.935 155.106 205.148C155.106 205.895 155.333 206.401 155.786 206.668C156.239 206.935 156.839 206.868 157.586 206.468ZM164.746 198.908C165.066 198.295 165.386 197.655 165.706 196.988C166.026 196.321 166.319 195.628 166.586 194.908C165.839 194.961 165.106 195.081 164.386 195.268C163.666 195.428 162.999 195.628 162.386 195.868C163.133 196.961 163.919 197.975 164.746 198.908ZM166.026 259.188C164.373 259.108 162.919 258.761 161.666 258.148C160.439 257.561 159.493 256.735 158.826 255.668C158.159 254.601 157.866 253.361 157.946 251.948C158.026 250.748 158.386 249.695 159.026 248.788C159.666 247.881 160.533 247.188 161.626 246.708C162.746 246.201 164.013 246.015 165.426 246.148C167.639 246.308 169.239 246.988 170.226 248.188C171.213 249.388 171.586 250.841 171.346 252.548C172.093 252.041 172.626 251.401 172.946 250.628C173.293 249.828 173.466 248.921 173.466 247.908C173.466 247.081 173.199 246.268 172.666 245.468C172.159 244.668 171.426 244.015 170.466 243.508C169.533 242.975 168.413 242.708 167.106 242.708C165.826 242.681 164.413 243.041 162.866 243.788C161.319 244.535 159.679 245.788 157.946 247.548C157.333 248.188 156.546 248.521 155.586 248.548C154.653 248.548 153.893 248.201 153.306 247.508C152.799 246.895 152.559 246.188 152.586 245.388C152.639 244.561 152.986 243.908 153.626 243.428C155.226 242.228 156.853 240.935 158.506 239.548C160.159 238.161 161.733 236.801 163.226 235.468C164.719 234.108 166.026 232.881 167.146 231.788C167.573 231.388 167.719 231.015 167.586 230.668C167.453 230.321 167.039 230.201 166.346 230.308C165.413 230.441 164.453 230.575 163.466 230.708C162.479 230.841 161.479 230.975 160.466 231.108C159.666 231.215 158.933 231.028 158.266 230.548C157.626 230.041 157.239 229.375 157.106 228.548C156.999 227.748 157.186 227.028 157.666 226.388C158.173 225.721 158.839 225.335 159.666 225.228C160.333 225.121 161.133 225.028 162.066 224.948C163.026 224.868 163.986 224.788 164.946 224.708C165.906 224.628 166.719 224.575 167.386 224.548C169.173 224.415 170.639 224.681 171.786 225.348C172.933 225.988 173.719 226.855 174.146 227.948C174.573 229.041 174.613 230.215 174.266 231.468C173.946 232.721 173.186 233.895 171.986 234.988C171.639 235.335 171.159 235.775 170.546 236.308C169.959 236.841 169.293 237.428 168.546 238.068C170.493 238.015 172.279 238.375 173.906 239.148C175.559 239.895 176.893 241.028 177.906 242.548C178.919 244.041 179.426 245.895 179.426 248.108C179.426 250.641 178.853 252.761 177.706 254.468C176.559 256.148 174.973 257.388 172.946 258.188C170.946 258.988 168.639 259.321 166.026 259.188ZM164.986 253.708C165.333 253.735 165.826 253.735 166.466 253.708C166.786 253.068 166.853 252.495 166.666 251.988C166.479 251.455 166.039 251.135 165.346 251.028C164.813 250.921 164.359 250.975 163.986 251.188C163.613 251.401 163.399 251.708 163.346 252.108C163.293 252.588 163.413 252.948 163.706 253.188C164.026 253.428 164.453 253.601 164.986 253.708Z" fill="#FFD873" fill-opacity="0.3"/>
<ellipse cx="40.8984" cy="30.2419" rx="26.9472" ry="23.2419" fill="#D9D9D9"/>
<path d="M84.7535 89.0424C84.7535 109.841 65.1188 106.068 40.8982 106.068C16.6776 106.068 -2.95703 109.841 -2.95703 89.0424C-2.95703 68.2441 16.6776 51.3838 40.8982 51.3838C65.1188 51.3838 84.7535 68.2441 84.7535 89.0424Z" fill="#D9D9D9"/>
<ellipse cx="304.029" cy="30.2419" rx="26.9472" ry="23.2419" fill="#D9D9D9"/>
<path d="M347.884 89.0424C347.884 109.841 328.25 106.068 304.029 106.068C279.809 106.068 260.174 109.841 260.174 89.0424C260.174 68.2441 279.809 51.3838 304.029 51.3838C328.25 51.3838 347.884 68.2441 347.884 89.0424Z" fill="#D9D9D9"/>
<ellipse cx="128.609" cy="30.2419" rx="26.9472" ry="23.2419" fill="#D9D9D9"/>
<path d="M172.464 89.0424C172.464 109.841 152.83 106.068 128.609 106.068C104.389 106.068 84.7539 109.841 84.7539 89.0424C84.7539 68.2441 104.389 51.3838 128.609 51.3838C152.83 51.3838 172.464 68.2441 172.464 89.0424Z" fill="#D9D9D9"/>
<ellipse cx="90.5664" cy="86.2497" rx="26.9472" ry="23.2419" fill="#CDCDCD"/>
<path d="M134.421 145.05C134.421 165.848 114.787 162.075 90.5662 162.075C66.3456 162.075 46.7109 165.848 46.7109 145.05C46.7109 124.252 66.3456 107.392 90.5662 107.392C114.787 107.392 134.421 124.252 134.421 145.05Z" fill="#CDCDCD"/>
<ellipse cx="216.318" cy="30.2419" rx="26.9472" ry="23.2419" fill="#D9D9D9"/>
<path d="M260.173 89.0424C260.173 109.841 240.539 106.068 216.318 106.068C192.098 106.068 172.463 109.841 172.463 89.0424C172.463 68.2441 192.098 51.3838 216.318 51.3838C240.539 51.3838 260.173 68.2441 260.173 89.0424Z" fill="#D9D9D9"/>
<ellipse cx="178.275" cy="86.2497" rx="26.9472" ry="23.2419" fill="#CDCDCD"/>
<path d="M222.13 145.05C222.13 165.848 202.496 162.075 178.275 162.075C154.055 162.075 134.42 165.848 134.42 145.05C134.42 124.252 154.055 107.392 178.275 107.392C202.496 107.392 222.13 124.252 222.13 145.05Z" fill="#CDCDCD"/>
<ellipse cx="2.85542" cy="86.2497" rx="26.9472" ry="23.2419" fill="#CDCDCD"/>
<path d="M46.7105 145.05C46.7105 165.848 27.0759 162.075 2.85527 162.075C-21.3653 162.075 -41 165.848 -41 145.05C-41 124.252 -21.3653 107.392 2.85527 107.392C27.0759 107.392 46.7105 124.252 46.7105 145.05Z" fill="#CDCDCD"/>
<ellipse cx="52.5214" cy="144.372" rx="26.9472" ry="23.2419" fill="#B7B7B7"/>
<path d="M96.3766 203.172C96.3766 223.971 76.7419 220.197 52.5213 220.197C28.3007 220.197 8.66602 223.971 8.66602 203.172C8.66602 182.374 28.3007 165.514 52.5213 165.514C76.7419 165.514 96.3766 182.374 96.3766 203.172Z" fill="#B7B7B7"/>
<ellipse cx="264.932" cy="86.2497" rx="26.9472" ry="23.2419" fill="#CDCDCD"/>
<path d="M308.787 145.05C308.787 165.848 289.152 162.075 264.931 162.075C240.711 162.075 221.076 165.848 221.076 145.05C221.076 124.252 240.711 107.392 264.931 107.392C289.152 107.392 308.787 124.252 308.787 145.05Z" fill="#CDCDCD"/>
<ellipse cx="314.598" cy="144.372" rx="26.9472" ry="23.2419" fill="#B7B7B7"/>
<path d="M358.453 203.172C358.453 223.971 338.818 220.197 314.597 220.197C290.377 220.197 270.742 223.971 270.742 203.172C270.742 182.374 290.377 165.514 314.597 165.514C338.818 165.514 358.453 182.374 358.453 203.172Z" fill="#B7B7B7"/>
<ellipse cx="140.232" cy="144.372" rx="26.9472" ry="23.2419" fill="#B7B7B7"/>
<path d="M184.087 203.172C184.087 223.971 164.453 220.197 140.232 220.197C116.012 220.197 96.377 223.971 96.377 203.172C96.377 182.374 116.012 165.514 140.232 165.514C164.453 165.514 184.087 182.374 184.087 203.172Z" fill="#B7B7B7"/>
<ellipse cx="227.945" cy="144.372" rx="26.9472" ry="23.2419" fill="#B7B7B7"/>
<path d="M271.8 203.172C271.8 223.971 252.166 220.197 227.945 220.197C203.725 220.197 184.09 223.971 184.09 203.172C184.09 182.374 203.725 165.514 227.945 165.514C252.166 165.514 271.8 182.374 271.8 203.172Z" fill="#B7B7B7"/>
<path d="M318.95 290.989C330.444 307.695 319.861 328.517 305.391 336.798C287.619 346.972 266.055 350.26 246.403 352.495C201.591 357.574 155.703 356.58 110.774 352.929C91.3377 351.351 69.5027 351.435 51.2691 342.697C36.8392 335.775 23.71 318.023 29.1625 299.532C35.6806 277.435 60.4423 282.157 76.5539 282.551L147.817 284.282C199.964 285.548 252.111 286.814 304.258 288.079C317.752 288.409 318.679 312.036 305.097 311.71C229.776 309.886 154.454 308.062 79.1147 306.219C70.9971 306.014 62.7555 305.281 54.6428 305.707C48.2301 306.053 47.4177 309.374 51.7329 315.215C60.6766 327.319 82.2634 326.672 94.7183 327.906C131.344 331.556 168.129 332.775 204.844 331.512C224.271 330.843 243.955 330.026 263.113 326.231C269.371 324.984 310.389 316.865 301.209 303.547C292.879 291.44 310.694 278.979 318.949 290.969L318.95 290.989Z" fill="#F5EBD2"/>
<path d="M294.949 327.169C223.386 324.183 151.773 324.101 80.245 326.92L82.38 301.299C113.446 309.601 147.676 306.263 179.316 306.073C212.478 305.85 245.614 304.934 278.728 303.392C293.433 302.697 294.263 328.212 279.65 329.358C201.105 335.524 122.208 335.008 43.6226 327.742L42.7006 301.775C112.6 309.349 182.568 326.367 252.545 312.012C260.687 310.336 268.763 308.382 276.835 306.34C280.852 305.331 284.868 304.257 288.884 303.205C292.504 302.253 297.525 299.497 301.17 299.801C305.045 300.118 303.52 307.019 300.263 307.481C299.279 307.624 297.013 306.535 295.978 306.311C292.161 305.472 288.213 305.222 284.333 304.753C274.816 303.617 265.319 302.502 255.786 301.475C219.776 297.553 183.666 294.587 147.521 294.374C128.163 294.259 108.672 294.668 89.4106 296.717C75.1535 298.219 57.3289 300.541 47.6985 313.904L38.8532 292.032L202.998 283.263L203.92 309.23L104.097 306.227C89.4665 305.793 88.4485 281.411 103.175 280.26L136.689 277.663C151.34 276.515 152.243 302.483 137.611 303.63L104.097 306.227L103.175 280.26L202.998 283.263C217.59 283.699 218.697 308.446 203.92 309.23L39.7752 317.999C29.3859 318.562 24.9271 304.464 30.9299 296.126C41.0314 282.096 56.9815 276.287 72.2119 273.255C91.146 269.485 110.592 268.882 129.8 268.526C172.797 267.716 215.795 271.196 258.61 275.939C268.295 277.004 277.984 278.155 287.674 279.306C296.809 280.412 306.754 280.731 314.623 286.909C321.182 292.093 325.321 300.937 322.9 309.928C320.479 318.919 313.265 323.14 305.696 325.423C266.363 337.283 225.755 344.833 184.9 343.812C137.55 342.632 90.7515 332.874 43.6622 327.784C29.2967 326.235 28.0008 300.455 42.7402 301.817C121.324 309.061 200.222 309.599 278.768 303.433L279.69 329.4C245.322 331.009 210.93 331.948 176.53 332.106C143.975 332.264 109.235 335.165 77.2464 326.614C64.6813 323.247 66.4788 301.517 79.3815 300.994C150.91 298.175 222.522 298.257 294.085 301.244C308.684 301.852 309.721 327.837 295.007 327.21L294.949 327.169Z" fill="#F5EBD2"/>
<path d="M251.063 273.835C249.655 270.212 263.619 269.66 263.961 265.906C264.348 261.667 268.604 244.782 269.21 240.587C269.809 236.432 272.748 204.738 273.027 200.549C273.494 193.519 254.023 222.409 254.023 215.366C254.023 213.302 254.485 209.944 251.556 209.944C246.387 209.944 241.182 209.789 236.023 210.123C228.967 210.579 221.955 211.335 214.879 211.702C198.987 212.526 182.927 210.165 167.182 212.614C161.242 213.538 155.62 215.499 149.785 216.798C143.637 218.168 137.525 217.51 131.328 216.684C125.249 215.874 119.238 215.025 113.291 213.64C111.099 213.129 108.533 212.433 106.255 212.288M106.255 212.288C105.064 212.212 102.646 211.404 101.558 212.158C100.042 213.209 107.97 211.645 106.255 212.288ZM106.255 212.288C105.276 212.656 98.9719 214.65 97.9165 214.821C96.9488 214.978 102.745 210.931 105.074 210.009C106.612 209.4 103.881 209.286 105.073 208.141C106.476 206.796 108.426 204.076 110.322 203.138C113.444 201.592 111.881 204.152 114.616 202.158C117.788 199.846 117.772 198.89 121.602 199.269C125.126 199.618 127.378 198.152 130.926 198.22C134.978 198.299 138.959 199.627 142.987 199.914C150.348 200.438 158.067 200.936 165.446 200.549C165.727 200.534 166.855 200.351 165.666 200.435C162.213 200.678 158.719 200.414 155.267 200.272C143.046 199.769 139.564 200.61 127.435 199.269C124.039 198.894 128.899 202.7 125.553 202.158C124.98 202.065 132.365 209.007 129.408 203.138C150.956 200.341 128.95 202.145 131.328 202.158C137.827 202.192 129.979 201.65 136.483 201.65C139.95 201.65 147.37 205.296 150.823 205.254C162.155 205.118 173.216 207.306 184.557 207.306C191.099 207.306 180.854 207.306 187.419 207.306C190.6 207.306 191.964 209.205 198.865 205.254C199.364 205.112 197.449 204.775 197.189 204.771C194.883 204.742 206.886 203.105 204.589 202.93C200.309 207.812 192.17 202.314 185.702 203.137C184.321 203.313 177.686 197.404 176.393 197.569C172.635 198.047 168.548 206.534 164.871 205.967C161.523 205.45 163.915 204.075 160.52 204.075C159.905 204.075 152.897 205.254 153.504 196.462C151.612 204.647 147.997 203.431 158.231 203.138C166.04 203.745 168.826 203.041 176.393 203.138C180.87 203.195 193.821 202.817 198.293 203.138C202.564 203.444 211.456 204.492 211.456 203.503C218.761 204.407 218.209 196.992 225.552 197.406C231.538 197.744 237.517 197.908 243.497 198.204C246.109 198.333 248.749 198.22 251.246 198.22C255.02 198.22 258.842 198.833 262.503 199.621C262.987 199.725 264.79 199.827 265.372 199.539C266.958 198.754 274.005 199.126 267.364 198.741C262.508 198.46 257.521 197.844 252.671 198.237C246.625 198.726 240.784 198.409 234.762 197.634C229.316 196.934 240.278 201.65 234.762 201.65C232.395 201.65 223.551 200.478 221.186 200.549C216.478 200.691 199.933 208.117 195.431 209.226C190.387 210.468 187.238 201.376 182.387 203.138C177.918 204.761 173.744 206.349 169.01 207.306C164.064 208.305 159.219 209.356 154.153 209.781C147.777 210.315 141.479 210.196 135.092 210.009C132.008 209.918 128.512 209.829 125.553 210.758C124.765 211.005 122.506 211.161 123.214 211.556C124.084 212.04 126.588 211.83 127.435 211.881C135.52 212.372 143.564 213.218 151.612 214.047C170.171 215.957 188.807 217.454 207.332 219.615C219.403 221.024 229.725 228.157 236.443 236.972C238.626 239.837 240.98 242.523 243.351 245.276C244.62 246.749 247.241 249.307 246.933 251.414C246.456 254.671 246.312 258.091 246.476 261.379C246.572 263.307 247.546 268.192 249.747 269.146C252.989 270.551 257.303 268.893 258.464 265.906C259.224 263.951 259.765 266.944 260.091 267.762C260.558 268.935 260.31 269.439 260.273 270.611C260.237 271.773 262.302 276.184 262.053 277.327C261.666 279.098 259.679 277.636 258.957 279.338C256.977 284.009 251.556 292.245 246.933 294.027C244.828 294.837 238.913 303.594 237.241 305.001C236.829 305.348 238.272 291.917 237.741 292.022C237.531 292.064 232.521 306.293 232.947 305.955C234.945 304.373 241.574 288.678 243.497 287.024" stroke="#CD8B49" stroke-width="25" stroke-linecap="round"/>
<path d="M270.379 202.993C268.187 199.311 259.145 204.192 254.157 204.424C252.662 204.493 254.667 202.498 253.202 202.993C250.942 203.756 247.441 201.14 245.056 201.561C240.72 202.327 239.155 202.684 234.754 202.684C228.86 202.684 222.335 202.495 216.44 202.495C210.127 202.495 209.302 196 203 196C203 201.493 193.497 198.512 191.123 198.357C188.552 198.189 205.046 201.82 205.965 201.561C212.778 199.644 205.274 203.408 212.168 202.038C221.706 203.466 222.445 205.014 224.046 205.219C235.746 206.719 239.087 202.993 250.817 202.993" stroke="#CD8B49" stroke-width="25" stroke-linecap="round"/>
<path d="M260.846 235.788C267.717 233.763 274.62 232.288 281.515 231.34C282.191 231.252 282.291 229.612 281.569 229.711C274.674 230.659 267.771 232.134 260.901 234.159C260.234 234.35 260.134 235.99 260.846 235.788V235.788Z" fill="#B66C28"/>
<path d="M260.428 247.269C265.59 245.693 270.81 244.943 275.981 245.056C276.684 245.075 276.744 243.462 276.019 243.441C270.848 243.328 265.639 244.079 260.466 245.653C259.78 245.87 259.698 247.48 260.428 247.269Z" fill="#B66C28"/>
<path d="M258.204 264.262C264.391 261.255 270.72 259.993 276.884 260.6C277.402 260.664 277.901 259.033 277.276 258.974C271.035 258.375 264.622 259.627 258.354 262.678C257.819 262.937 257.542 264.595 258.202 264.28L258.204 264.262Z" fill="#B66C28"/>
<path d="M267.599 230.882L265.784 249.516L264.883 258.826L264.445 263.285L264.207 265.717L264.094 266.934C264.07 267.128 263.916 267.815 264.076 267.654L264.473 267.473L264.381 267.462L264.679 267.711L264.655 267.905L263.973 268.593L264.043 268.602C264.611 268.556 265.11 267.058 264.436 267.107L264.367 267.099C264.045 267.142 263.815 267.393 263.683 267.803C263.355 268.764 264.106 269.233 264.624 268.64C264.993 268.209 265.039 267.64 265.112 267.042C265.215 266.103 265.296 265.145 265.388 264.204L266.465 253.062L268.643 230.583C268.744 229.561 267.676 230.055 267.601 230.866L267.599 230.882Z" fill="#B66C28"/>
<path d="M271.507 230.365L267.68 263.972C267.565 264.984 268.309 264.538 268.405 263.686L272.232 230.079C272.347 229.067 271.603 229.513 271.507 230.365Z" fill="#B66C28"/>
<path d="M274.186 255.706L273.389 267.491C273.315 268.541 274.626 268.287 274.689 267.318L275.486 255.533C275.56 254.483 274.25 254.737 274.186 255.706V255.706Z" fill="#B66C28"/>
<path d="M119.787 198.795C134.286 198.405 148.786 198.194 163.286 198.145C177.785 198.097 192.416 198.227 206.981 198.519C215.178 198.682 223.375 198.909 231.572 199.185C232.502 199.218 232.812 197.658 231.8 197.609C217.317 197.122 202.817 196.813 188.317 196.667C173.818 196.52 159.187 196.537 144.622 196.732C136.425 196.845 128.228 197.008 120.032 197.219C119.101 197.252 118.807 198.812 119.803 198.795H119.787Z" fill="#B66C28"/>
<path d="M108.535 203.736L156.867 204.045L205.2 204.354L232.517 204.532C233.399 204.532 233.758 202.989 232.762 202.989L184.43 202.68L136.098 202.371L108.78 202.192C107.898 202.192 107.539 203.736 108.535 203.736Z" fill="#B66C28"/>
<path d="M140.783 194.262L132.455 203.46C132.161 203.785 132.308 204.354 132.635 204.582C133.027 204.858 133.468 204.712 133.762 204.387L142.089 195.189C142.383 194.864 142.236 194.295 141.91 194.067C141.518 193.791 141.077 193.937 140.783 194.262Z" fill="#B66C28"/>
<path d="M155.4 195.675L148.558 204.889C147.938 205.718 149.097 206.547 149.717 205.718L156.559 196.504C157.18 195.675 156.02 194.847 155.4 195.675Z" fill="#B66C28"/>
<path d="M178.325 194.213C175.566 197.642 173.133 201.314 171.027 205.166C170.847 205.507 171.01 205.978 171.369 206.108C171.794 206.254 172.153 205.897 172.333 205.572C174.374 201.851 176.758 198.308 179.419 194.993C179.664 194.7 179.664 194.18 179.338 193.936C178.979 193.676 178.538 193.92 178.309 194.213H178.325Z" fill="#B66C28"/>
<path d="M203.369 196.471C200.675 199.088 198.21 201.948 196.022 204.987C195.793 205.295 195.76 205.799 196.103 206.043C196.446 206.287 196.92 206.092 197.132 205.783C199.238 202.842 201.59 200.111 204.186 197.576C204.463 197.3 204.643 196.829 204.382 196.488C204.137 196.163 203.647 196.195 203.369 196.455V196.471Z" fill="#B66C28"/>
<path d="M230.741 195.806C228.128 199.057 225.875 202.567 223.981 206.272C223.817 206.581 223.883 207.052 224.258 207.166C224.65 207.296 225.026 206.922 225.189 206.597C227.018 203.022 229.206 199.642 231.737 196.505C231.949 196.229 232.031 195.725 231.72 195.498C231.377 195.254 230.953 195.546 230.741 195.806V195.806Z" fill="#B66C28"/>
<path d="M78.3526 217.206L101.487 194.828C106.91 189.583 114.046 186.574 121.589 186.425C152.325 185.821 235.514 184.445 269.96 186.469C279.227 187.013 286.069 193.004 285.832 202.283C285.294 223.39 278.4 260.493 274.957 277.868C273.729 284.062 270.505 289.625 265.822 293.859L238.195 318.837M263.395 211.117L276.717 196.685" stroke="#A9682E" stroke-width="5" stroke-linecap="round"/>
<path d="M67.6825 322.295C120.402 323.823 148.581 323.464 218.377 322.576C221.314 322.538 224.324 322.5 227.413 322.461C233.333 322.386 239.094 318.92 241.52 313.56C243.189 309.872 244.679 305.819 245.27 302.206C246.948 291.936 252.407 270.466 254.511 264.586C255.427 262.024 256.444 256.832 257.362 251.517C257.704 249.539 258.032 247.548 258.331 245.729C258.805 242.848 259.208 240.402 259.482 239.133C259.687 238.182 260.142 236.224 260.712 233.801C263.135 223.516 256.588 214.784 246.474 214.758C235.118 214.729 222.728 214.59 210.312 214.45C184.672 214.162 158.921 213.873 141.946 214.55C117.765 215.515 103.685 215.52 86.3014 215.464C78.5713 215.439 71.0675 221.332 69.028 229.117C63.1476 251.562 59.672 269.674 57.2355 282.37C56.672 285.306 56.1641 287.953 55.6948 290.297C54.1474 298.025 54.2016 304.109 54.6057 309.777C55.1114 316.867 60.5654 322.089 67.6825 322.295Z" fill="#CD8B49" stroke="#A9682E" stroke-width="5"/>
<path d="M224.52 315.952C227.155 315.321 229.911 314.586 232.19 312.69C234.832 310.499 236.591 306.861 236.45 302.766C236.418 301.721 235.902 300.802 235.027 300.726C234.273 300.666 233.389 301.5 233.42 302.545C233.482 304.121 233.233 305.564 232.647 306.788C232.274 307.564 232.127 307.806 231.685 308.342C231.457 308.619 231.216 308.862 230.975 309.105C230.948 309.122 230.64 309.417 230.761 309.313C230.828 309.244 230.519 309.504 230.466 309.539C229.473 310.288 228.412 310.798 227.472 311.152C226.303 311.577 225.12 311.882 223.923 312.171C223.116 312.369 222.583 313.438 222.736 314.447C222.889 315.457 223.713 316.15 224.52 315.952Z" fill="#F1BF92"/>
<path d="M217.307 312.529L214.604 312.518C214.176 312.507 213.794 312.625 213.473 312.982C213.179 313.303 212.947 313.88 212.941 314.39C212.935 314.9 213.058 315.468 213.349 315.858C213.64 316.248 214.045 316.604 214.471 316.596L217.175 316.607C217.602 316.618 217.984 316.5 218.306 316.143C218.599 315.822 218.832 315.245 218.838 314.735C218.843 314.225 218.72 313.657 218.429 313.267C218.138 312.877 217.734 312.521 217.307 312.529Z" fill="#F1BF92"/>
<path d="M189.591 295.878L191.33 296.018L175.778 291.889C167.196 285.757 163.687 278.477 165.221 270.048L186.746 248.906C190.935 248.626 191.662 248.642 188.927 248.921C187.932 249.045 186.92 249.17 185.924 249.263C183.412 249.542 180.899 249.79 178.386 250.008C173.36 250.442 168.318 250.768 163.261 250.955C158.725 251.141 154.173 251.219 149.621 251.203C147.093 251.203 144.564 251.157 142.051 251.094L139.017 251.001C134.655 250.737 134.971 250.862 139.996 251.389L161.522 272.532L161.317 271.693C157.476 256.31 138.922 245.615 123.402 250.551C107.882 255.487 97.7667 271.305 101.876 287.791C107.36 309.771 129.202 311.619 148.12 311.758C160.242 311.851 160.589 311.758 178.386 311.758C186.968 310.858 203.009 308.995 210.501 304.245C221.216 297.462 226.463 286.301 226.511 274.006C226.59 252.228 211.259 237.062 189.591 235.354C173.486 234.081 158.061 250.179 158.772 265.624C159.562 283.103 172.333 294.528 189.591 295.894V295.878Z" fill="#D69554"/>
<path d="M108.852 246.327C107.101 247.071 105.319 247.64 103.475 248.051C107.223 247.055 110.818 247.909 114.243 250.63L124.996 261.702C126.471 272.742 127.362 275.985 127.653 271.429C127.746 270.211 127.884 268.994 128.068 267.776L128.406 265.039C129.236 259.313 128.544 261.338 126.332 271.081L115.58 282.154L105.933 284.89L108.975 284.969C110.956 285.206 113.061 285.08 115.058 285.127L128.759 285.491L154.643 286.187C171.202 286.63 188.16 286.013 204.627 287.626L189.512 283.419L190.602 283.973L179.85 272.9C177.361 261.923 176.348 258.95 176.808 263.964L177.116 268.25L177.331 271.113C177.407 276.633 178.206 274.039 179.696 263.347L190.449 252.275C185.426 256.213 198.129 249.554 198.59 250.582C198.437 250.234 193.721 250.171 193.229 250.123C187.914 249.586 182.615 250.297 177.407 251.579C162.154 255.343 151.616 274.039 156.486 289.524C161.616 305.864 162.331 312.227 184.28 311.953C184.28 311.953 191.831 311.732 194.381 311.953C196.516 312.143 198.437 312.222 200.556 312.096C211.647 311.431 222.231 306.75 229.112 297.591C238.59 284.953 236.644 272.189 241.12 250.123C243.369 239.038 236.297 228.074 225.176 225.464C217.707 225.464 198.268 225.654 191.186 225.464L154.643 224.484L118.099 223.503C100.541 223.028 83.1529 223.693 73.6292 241.819C69.4356 249.775 69.1591 258.95 68.1607 267.76C67.2237 276.001 68.4218 284.036 72.262 291.438C82.2313 310.625 106.993 312.428 124.781 305.8C139.466 300.312 150.956 284.574 145.703 267.855C141.033 252.986 124.627 240.427 108.852 246.311V246.327Z" fill="#D69554"/>
<path d="M104.165 291.188C106.204 290.877 108.227 290.567 110.266 290.288C107.168 290.707 107.5 290.676 111.246 290.21C115.339 289.806 119.417 289.356 123.526 289.015C131.207 288.394 138.919 287.99 146.632 287.773C154.345 287.555 162.057 287.54 169.786 287.695C172.599 287.742 178.873 286.764 181.355 288.052C178.873 288.083 176.645 287.385 174.653 285.941C162.358 276.488 161.093 264.892 170.86 251.154L184.452 243.377C177.83 246.109 169.612 246.419 162.531 247.522C158.549 248.143 154.566 248.748 150.567 249.291C156.605 248.484 146.458 249.726 145.273 249.85C137.781 250.626 130.274 251.185 122.736 251.371C118.721 251.464 114.691 251.201 110.692 251.34C106.172 251.076 106.662 251.232 112.162 251.821C116.445 254.103 117.315 254.367 114.754 252.613L125.817 263.479L128.694 274.314L124.49 289.589C121.44 294.06 117.425 297.04 112.431 298.546C115.323 297.894 114.833 297.878 110.93 298.468C115.086 298.08 119.227 297.444 123.352 296.962C131.128 296.062 138.904 295.224 146.695 294.479C162.8 292.926 178.921 291.7 195.073 290.769C211.225 289.837 226.666 277.512 225.892 260.499C225.181 244.898 212.316 229.235 195.073 230.229C166.941 231.859 138.872 234.389 110.914 237.928C102.079 239.046 94.0029 239.667 86.1164 244.231C76.2544 249.943 69.1423 258.962 67.5935 270.278C64.3693 293.873 83.4454 309.753 105.825 311.601C133.546 313.882 162.12 308.698 189.336 304.212C198.724 302.659 207.069 300.517 214.418 293.966C221.767 287.416 226.287 276.907 225.939 266.972C225.196 245.535 208.459 231.005 187.74 228.273C155.119 223.973 125.049 225.308 92.7443 230.229C76.7659 232.666 73.3211 244.448 67.5935 270.278C73.2199 287.354 87.0172 293.811 104.149 291.203L104.165 291.188Z" fill="#D69554"/>
<path d="M155.149 256.786L152.727 258.362L154.295 260.773L156.718 259.197L155.149 256.786Z" fill="white"/>
<path d="M164.604 252.362L162.182 253.938L163.75 256.35L166.173 254.773L164.604 252.362Z" fill="white"/>
<path d="M162.991 260.874L160.568 262.45L162.137 264.861L164.56 263.285L162.991 260.874Z" fill="white"/>
<path d="M171.231 257.218L168.809 258.794L170.377 261.205L172.8 259.629L171.231 257.218Z" fill="white"/>
<path d="M83.187 274.94H80.2969V277.817H83.187V274.94Z" fill="white"/>
<path d="M77.4272 280.141H74.5371V283.017H77.4272V280.141Z" fill="white"/>
<path d="M87.0425 282.237H84.1523V285.114H87.0425V282.237Z" fill="white"/>
<path d="M92.7749 277.103H89.8848V279.979H92.7749V277.103Z" fill="white"/>
<path d="M125.019 246.384C125.638 245.826 126.303 245.315 127.001 244.862L126.466 245.201C127.025 244.839 127.606 244.5 128.21 244.207C128.767 243.936 129.235 243.435 129.452 242.838C129.669 242.241 129.658 241.481 129.366 240.948C129.075 240.415 128.611 239.914 128.003 239.712C127.396 239.51 126.705 239.502 126.113 239.807C124.58 240.573 123.136 241.548 121.863 242.675C121.396 243.084 121.075 243.691 121.02 244.313C120.964 244.934 121.171 245.662 121.59 246.116C122.009 246.57 122.591 246.933 123.225 246.952C123.858 246.97 124.528 246.816 125.031 246.372L125.019 246.384Z" fill="#90582C"/>
<path d="M98.9084 251.103L94.436 250.362C93.8325 250.261 93.1093 250.462 92.623 250.829C92.1368 251.197 91.7322 251.832 91.6787 252.448C91.6252 253.065 91.7366 253.755 92.1531 254.256C92.5696 254.757 93.1157 255.079 93.7811 255.201L98.2535 255.943C98.857 256.044 99.5802 255.842 100.066 255.475C100.553 255.108 100.957 254.473 101.011 253.856C101.064 253.239 100.953 252.55 100.536 252.049C100.12 251.547 99.5738 251.225 98.9084 251.103Z" fill="#90582C"/>
<path d="M96.4568 270.692C96.7018 270.286 96.963 269.879 97.2569 269.506C97.3876 269.343 97.5182 269.181 97.6488 269.034C97.3549 269.376 97.6162 269.083 97.7795 268.921C98.0734 268.628 98.3836 268.368 98.7102 268.108C98.7755 268.059 99.3796 267.653 99.1184 267.816C98.8571 267.978 99.4123 267.653 99.4613 267.621C99.8532 267.409 100.261 267.231 100.67 267.084C100.147 267.263 100.784 267.084 100.849 267.052C101.045 267.003 101.241 266.971 101.437 266.938C101.568 266.922 101.698 266.906 101.829 266.889C101.568 266.889 101.535 266.889 101.698 266.889C101.894 266.889 102.106 266.889 102.302 266.889C102.531 266.889 102.76 266.938 103.005 266.954C103.511 266.987 102.629 266.84 103.168 266.97C103.56 267.068 103.919 267.214 104.295 267.344C104.817 267.539 103.984 267.117 104.409 267.409C104.605 267.539 104.801 267.653 104.997 267.783C105.144 267.881 105.568 268.368 105.193 267.929L105.34 268.076C105.519 268.303 105.519 268.287 105.34 268.043C105.438 268.254 105.454 268.287 105.389 268.108C105.274 267.864 105.291 267.604 105.389 267.328C105.503 267.036 105.715 266.824 105.993 266.678C105.535 266.905 106.385 266.678 105.911 266.727C105.438 266.776 106.336 266.71 105.699 266.727C105.519 266.71 105.568 266.727 105.846 266.759C105.584 266.662 105.601 266.678 105.911 266.824C105.535 266.629 106.042 266.954 106.123 267.133C106.189 267.426 106.205 267.491 106.172 267.312C106.14 267.133 106.14 267.198 106.172 267.507C106.172 267.929 105.797 268.466 105.421 268.644C104.784 268.953 104.131 268.644 103.658 268.206C102.449 267.052 103.805 265.54 105.062 265.54C103.788 265.54 102.482 266.434 102.466 267.816C102.433 269.067 103.38 270.416 104.752 270.399C105.878 270.399 106.874 269.977 107.544 269.051C108.066 268.303 108.295 267.296 108.083 266.402C107.56 264.257 105.16 263.363 103.249 264.289C101.339 265.215 100.849 267.491 101.715 269.246C102.58 271.001 104.605 271.748 106.483 271.553C108.36 271.358 110.009 269.977 110.189 268.059C110.369 266.142 109.111 264.744 107.723 263.737C105.486 262.112 102.368 261.608 99.7062 262.307C96.6201 263.119 93.9912 265.215 92.391 267.946C91.7379 269.051 91.8685 270.611 93.0442 271.326C94.1219 271.976 95.7547 271.846 96.4405 270.676L96.4568 270.692Z" fill="#90582C"/>
<path d="M127.971 257.003C128.216 256.727 128.494 256.483 128.771 256.256C128.918 256.142 129.081 255.963 129.245 255.915C129.245 255.915 128.82 256.158 129.065 256.028C129.163 255.98 129.261 255.915 129.359 255.866C129.686 255.687 130.028 255.541 130.371 255.395C130.486 255.346 130.584 255.313 130.698 255.281C130.747 255.265 131.041 255.167 130.731 255.281C130.42 255.395 130.698 255.281 130.763 255.281C130.894 255.248 131.041 255.2 131.171 255.167C131.531 255.07 131.89 255.005 132.249 254.94C132.412 254.907 132.576 254.891 132.739 254.875C132.821 254.875 132.902 254.858 132.984 254.842C133.376 254.81 133.131 254.907 132.935 254.842C133.213 254.94 133.702 254.842 133.996 254.875C134.16 254.875 134.323 254.923 134.486 254.94C134.813 254.988 134.029 254.81 134.339 254.923C134.437 254.956 134.551 254.972 134.649 255.005C134.813 255.053 135.009 255.183 135.172 255.2C135.172 255.2 134.715 254.94 134.943 255.086C135.009 255.135 135.074 255.167 135.156 255.216C135.254 255.281 135.76 255.687 135.384 255.362C135.041 255.053 135.384 255.411 135.482 255.508C135.76 255.801 135.221 254.988 135.45 255.443C135.499 255.557 135.564 255.671 135.613 255.785C135.841 256.256 135.531 255.362 135.597 255.72C135.613 255.866 135.629 256.077 135.678 256.207C135.678 256.207 135.678 255.671 135.662 255.898C135.662 255.963 135.662 256.028 135.662 256.077C135.662 256.191 135.58 256.695 135.662 256.24C135.743 255.817 135.645 256.223 135.613 256.321C135.466 256.792 135.939 255.85 135.645 256.24C135.645 256.24 135.564 256.386 135.548 256.386C135.482 256.386 136.005 255.98 135.792 256.11C135.727 256.142 135.662 256.207 135.613 256.256C135.482 256.402 135.874 256.077 135.89 256.077C135.841 256.077 135.743 256.142 135.694 256.175C135.482 256.305 135.956 256.093 135.939 256.093C135.711 256.158 135.743 256.012 136.135 256.093C136.086 256.093 135.89 256.061 135.841 256.093C135.874 256.093 136.315 256.24 136.119 256.142C135.956 256.061 135.645 255.882 136.266 256.223C136.168 256.175 136.054 256.012 136.299 256.256C136.413 256.321 136.495 256.418 136.544 256.532C136.642 256.711 136.674 256.743 136.609 256.63C136.511 256.386 136.691 256.955 136.691 256.922C136.609 256.467 136.691 257.377 136.691 257.101C136.691 256.613 136.56 257.491 136.691 257.166C136.511 257.67 136.446 257.605 136.576 257.426C136.429 257.637 136.233 257.832 135.988 257.946C135.809 258.027 135.629 258.027 135.45 258.06C135.221 258.06 135.205 258.06 135.384 258.076L135.009 258.011C135.009 258.011 134.502 257.702 134.698 257.865C134.943 258.043 134.29 257.458 134.503 257.67C134.682 257.865 134.29 257.296 134.274 257.215C134.225 257.101 134.192 256.971 134.209 256.841C134.209 256.613 134.209 256.581 134.176 256.776C133.98 258.043 135.221 259.343 136.462 259.36C137.882 259.392 138.846 258.433 139.058 257.085C139.368 255.118 137.638 253.526 135.825 253.233C134.013 252.941 132.429 254.208 131.972 255.85C131.465 257.67 132.265 259.62 133.98 260.465C135.548 261.229 137.327 261.05 138.732 260.026C140.773 258.531 141.083 255.443 139.907 253.314C138.438 250.633 135.417 249.821 132.543 250.032C129.669 250.243 126.763 251.299 124.852 253.347C124.395 253.851 124.052 254.338 124.003 255.037C123.971 255.622 124.183 256.353 124.591 256.776C125.408 257.653 127.106 258.043 128.053 257.036L127.971 257.003Z" fill="#90582C"/>
<path d="M109.016 323.462C106.208 329.079 100.655 335.004 94.2736 336.31C92.3631 336.7 90.6299 337.47 89.1956 335.877C87.5555 334.054 86.0303 332.724 84.8899 330.483C83.5441 327.838 82.021 325.039 81.4733 322.082C81.272 320.995 80.6434 321.201 79.6949 320.888C78.6131 320.532 77.242 319.964 76.5006 319.051C75.8277 318.223 74.7525 316.375 74.9445 315.296C75.6629 311.254 82.9678 311.674 85.8025 312.09C88.5633 312.494 90.1315 313.842 89.1839 316.922C87.7795 321.486 82.1233 321.625 78.5716 319.882C76.6287 318.929 74.7279 317.003 77.1676 315.155C80.2785 312.798 85.5881 314.907 86.6566 318.513C87.2134 320.392 78.6012 320.77 79.6715 317.519C80.2025 315.905 81.8805 315.227 83.439 315.085C85.1646 314.928 84.8909 316.626 84.3516 317.764C83.8085 318.911 82.7614 319.588 81.4616 319.32C80.3686 319.095 80.2861 317.476 81.0521 316.817C81.952 316.042 82.5776 316.465 83.1231 317.25C83.2461 317.426 84.0341 318.739 83.5326 317.987" stroke="#A9682E" stroke-width="5" stroke-linecap="round"/>
<path d="M256.02 288.989C256.445 284.944 259.163 281.604 260.619 277.803C261.582 275.29 262.753 272.332 264.436 270.168C265.513 268.785 266.844 266.493 268.253 265.397C270.777 263.434 271.217 261.785 273.979 260.148C277.241 258.216 278.047 258.018 278.673 261.286C280.571 271.198 281.672 280.85 282.4 290.945C282.798 296.464 282.664 313.079 282.664 307.545C282.664 302.632 286.089 302.896 290.171 303.844C293.843 304.696 297.81 306.525 292.55 308.761C288.643 310.421 281.759 310.32 278.964 306.593C276.845 303.768 286.558 304.743 287.792 305.271C292.078 307.108 287.732 308.169 285.466 307.915C282.931 307.63 279.236 307.104 277.272 305.271C276.02 304.103 281.274 304.319 281.29 304.32C284.106 304.473 289.017 304.144 291.387 306.012C291.877 306.397 291.753 307.161 291.229 307.439C289.422 308.396 284.754 306.066 283.14 305.642" stroke="#A9682E" stroke-width="5" stroke-linecap="round"/>
<path d="M254.662 296.939C256.536 296.096 258.706 295.63 260.722 295.339C264.679 294.768 268.636 294.17 272.596 293.617C275.727 293.179 278.692 292.652 281.84 292.371C286.412 291.963 291.095 291.918 295.636 291.679C296.003 291.659 296.376 291.679 296.744 291.679C297.101 291.679 296.254 291.993 296.067 291.94C295.128 291.672 295.359 287.68 295.359 286.818C295.359 283.93 296.446 280.974 297.082 278.174C297.188 277.709 297.566 277.282 298.066 277.282C299.252 277.282 299.187 278.503 299.251 279.359C299.473 282.356 299.103 284.967 297.236 287.526C296.977 287.881 295.279 290.232 295.421 289.279C295.768 286.948 295.992 284.632 296.528 282.327C296.846 280.961 297.146 278.884 298.005 277.713C298.608 276.891 300.87 275.704 301.665 277.006C303.141 279.42 301.09 283.623 300.343 285.865C299.714 287.751 299.291 289.962 297.851 291.402C296.572 292.681 295.815 291.218 295.083 290.079C293.847 288.157 296.866 283.804 298.251 282.42C298.449 282.221 298.873 281.519 299.112 281.451C299.238 281.415 300.175 281.435 299.789 281.435" stroke="#A9682E" stroke-width="5" stroke-linecap="round"/>
<path d="M194.777 262.534C194.41 260.549 192.751 258.417 191.704 256.728C191.009 255.609 189.196 253.765 188.908 252.485C188.501 250.684 187.966 248.864 187.623 247.002C187.188 244.645 186.852 242.514 187.522 240.204C187.597 239.947 188.2 237.723 188.429 237.723C188.872 237.723 190.288 241.784 190.444 242.189C191.787 245.675 192.003 249.488 192.535 253.155C192.725 254.464 193.8 256 193.87 257.175C193.933 258.226 194.323 261.354 194.323 260.301" stroke="#A9682E" stroke-width="5" stroke-linecap="round"/>
<path d="M195.246 261.579C195.679 261.032 195.458 259.556 195.526 258.877C195.63 257.817 195.753 256.761 195.883 255.706C196.064 254.241 196.616 252.692 196.974 251.246C197.555 248.892 198.354 246.307 199.8 244.34C200.742 243.058 201.914 242.268 203.079 241.214C203.797 240.564 204.69 239.806 205.687 239.65C207.495 239.369 207.297 242.196 206.952 243.174C205.692 246.747 202.938 249.03 200.75 251.962C199.044 254.248 197.513 256.653 195.944 259.036C195.563 259.615 194.775 260.536 194.775 261.261" stroke="#A9682E" stroke-width="5" stroke-linecap="round"/>
<path d="M190.779 262.679C189.266 262.679 187.036 261.998 185.684 262.977C183.394 264.635 182.512 267.631 182.386 270.27C182.262 272.875 182.872 276.014 185.003 277.786C186.961 279.414 188.981 280.161 191.559 280.395C193.832 280.602 196.116 280.729 198.399 280.634C199.568 280.585 201.035 280.661 202.04 279.963C202.767 279.458 203.252 278.614 203.861 277.987C204.566 277.261 205.092 276.508 205.575 275.623C206.526 273.881 206.295 272.061 205.789 270.225C205.032 267.481 203.53 264.654 201.811 262.373C200.69 260.886 199.711 260.908 197.901 260.807C196.402 260.724 194.897 260.673 193.395 260.666C192.778 260.662 191.712 260.478 191.192 260.934C190.697 261.368 190.301 261.914 189.876 262.41C189.371 263.001 188.86 263.397 188.438 264.051C188.171 264.463 187.778 265.525 188.162 265.9" stroke="#A9682E" stroke-width="5" stroke-linecap="round"/>
<path d="M189.995 265.666C188.408 266.818 187.595 269.74 188.427 271.512C189.72 274.268 194.861 273.931 196.936 272.433C198.873 271.035 199.429 268.427 199.434 266.194C199.439 263.972 198.81 261.333 196.298 260.756C191.914 259.749 188.459 264.806 188.388 268.581C188.346 270.827 190.235 271.617 192.239 271.043C195.201 270.196 196.066 265.655 194.822 263.211C194.434 262.448 193.728 262.776 193.254 263.264C191.889 264.667 191.322 266.76 191.163 268.642C191.11 269.267 190.922 270.704 191.532 271.194C192.078 271.634 193.153 270.718 193.492 270.409C194.698 269.309 195.596 267.884 196.206 266.391C196.253 266.274 196.755 264.703 196.682 265.001C196.352 266.343 196.215 267.722 196.083 269.095C195.957 270.396 195.51 272.352 196.083 273.627C196.709 275.019 198.922 271.96 199.103 271.542C199.494 270.643 199.792 269.625 199.818 268.642C199.839 267.87 199.327 268.73 199.173 268.974C198.263 270.408 197.539 272.01 197.043 273.627C196.908 274.068 196.133 276.551 197.02 276.822C197.735 277.04 198.747 275.885 199.126 275.47C200.024 274.487 200.975 273.304 201.34 272.01C201.698 270.742 201.121 272.085 200.994 272.584C200.868 273.081 200.787 273.688 200.787 272.871" stroke="#A9682E" stroke-width="5" stroke-linecap="round"/>
<path d="M186.21 267.611C186.21 268.938 185.806 270.397 186.488 271.693C186.799 272.284 187.522 272.498 187.848 273.053C188.496 274.155 189.894 274.731 190.973 275.271C193.088 276.328 196.707 277.198 199.036 276.631C200.403 276.299 201.158 274.546 201.908 273.507C202.851 272.201 203.218 270.136 203.218 268.53C203.218 268.239 203.211 266.502 202.652 266.502C202.419 266.502 202.538 271.084 202.538 271.567C202.538 273.096 201.718 273.961 200.711 275.094C199.302 276.68 197.858 276.682 195.861 276.682C193.458 276.682 190.869 276.935 188.478 276.669C187.757 276.589 186.722 276.517 186.11 276.127C185.287 275.604 185.536 275.07 185.757 274.187" stroke="#A9682E" stroke-width="5" stroke-linecap="round"/>
<path d="M106.238 300.34C114.524 301.259 122.827 300.527 130.598 297.287C134.234 295.767 137.801 293.821 140.947 291.449C144.679 288.643 147.474 284.772 152.035 283.375L141.73 272.296C138.749 280.133 129.258 283.035 121.651 284.265C111.243 285.951 112.564 302.29 123.024 300.585C136.317 298.428 151.485 292.683 156.658 279.104C159.23 272.334 153.359 265.882 146.353 268.025C139.347 270.167 134.946 276.145 128.691 280.001C122.816 283.616 115.929 284.973 109.119 284.206C98.6173 283.032 95.6934 299.167 106.226 300.345L106.238 300.34Z" fill="#F5BED6"/>
<path d="M144.297 286.698L144.615 285.438L141.384 290.783C143.529 289.012 146.018 287.7 148.384 286.253L138.652 272.464C134.085 276.003 129.878 279.064 124.257 280.498C120.675 281.403 114.98 284.323 111.608 283.211C107.329 281.803 102.885 285.868 102.183 289.931C101.342 294.872 104.726 298.369 108.944 299.769C115.556 301.951 121.588 298.335 127.878 296.864C135.759 295.029 141.985 291.192 148.371 286.258C156.798 279.742 147.531 267.013 138.639 272.469C133.625 275.543 129.667 277.473 128.086 283.59C125.391 294.027 141.611 297.042 144.272 286.708L144.297 286.698Z" fill="#F5BED6"/>
<path d="M139.135 291.635C143.017 288.341 147.199 285.425 151.835 283.263C155.848 281.389 158.321 277.162 156.713 272.818C155.288 268.969 150.249 266.183 146.21 268.067C140.219 270.86 134.655 274.215 129.619 278.484C126.247 281.345 124.989 286.058 127.707 289.818C130.101 293.136 135.751 294.5 139.131 291.622L139.135 291.635Z" fill="#F5BED6"/>
<path d="M113.877 301.845C115.913 299.262 118.599 297.444 121.372 295.743C124.601 293.768 127.947 291.99 131.384 290.418C136.488 288.079 142.917 285.16 148.645 287.162C150.414 287.781 152.385 287.321 153.211 285.472C153.917 283.891 153.258 281.437 151.484 280.805C143.951 278.167 136.497 280.417 129.544 283.545C125.531 285.345 121.629 287.404 117.88 289.676C114.402 291.773 111.079 294.127 108.531 297.348C105.776 300.841 111.121 305.337 113.89 301.84L113.877 301.845Z" fill="#F0D0E0"/>
<path d="M115.387 302.859C118.387 301.561 121.572 300.881 124.726 300.04C127.881 299.2 130.898 298.145 133.887 296.898C140.054 294.32 145.924 291.057 151.779 287.831L146.256 285.079C146.134 284.315 147.056 284.394 146.384 284.596C146.762 284.472 145.568 285.116 145.797 284.985C145.004 285.449 143.692 285.935 142.709 286.361L135.052 289.772L127.692 293.041C126.462 293.589 125.25 294.147 124.015 294.682C123.66 294.829 123.043 294.979 122.778 295.171C122.404 295.465 122.055 294.956 122.866 295.528L121.099 301.896C127.149 301.962 132.818 299.739 138.067 296.971C143.609 294.047 149.037 290.855 154.493 287.777C156.115 286.865 156.202 284.216 155.183 282.725C153.956 280.953 151.956 280.883 150.334 281.795C145.409 284.568 140.529 287.464 135.527 290.109C130.786 292.628 125.838 294.708 120.362 294.648C117.499 294.618 116.059 299.262 118.595 301.017C121.761 303.209 124.635 302.363 127.77 300.954L138.191 296.318C141.518 294.837 144.888 293.434 148.185 291.871C150.944 290.554 153.711 288.191 153.132 284.574C152.661 281.603 149.934 280.557 147.61 281.822C142.095 284.86 136.545 287.88 130.718 290.27C127.834 291.447 124.884 292.445 121.858 293.238C118.832 294.031 115.734 294.711 112.837 295.97C108.808 297.726 111.317 304.583 115.372 302.817L115.387 302.859Z" fill="#F0D0E0"/>
<path d="M124.935 278.079C122.705 279.897 119.628 279.972 116.901 279.975C114.027 279.976 111.162 279.803 108.302 280.308C102.868 281.271 97.8505 284.574 96.1802 289.941C94.608 294.947 96.9123 299.878 101.451 302.338C106.429 305.046 112.73 304.543 118.251 304.286C130.734 303.706 143.201 300.453 152.674 291.899C156.406 288.533 159.565 284.089 160.252 279.085C160.862 274.733 159.411 270.068 156.218 267.01C151.745 262.726 145.552 263.6 140.387 266.348C134.108 269.693 128.307 274.251 122.826 278.732C120.798 280.39 123.729 283.133 125.731 281.485C130.043 277.96 134.545 274.678 139.24 271.678C142.781 269.404 147.597 266.458 151.779 268.738C154.889 270.437 156.438 274.23 156.315 277.622C156.16 281.79 153.457 285.584 150.502 288.421C142.861 295.772 132.309 299.139 121.93 300.032C116.993 300.456 111.429 301.027 106.565 299.963C102.345 299.03 98.7771 295.899 99.9693 291.318C101.365 285.953 107.285 284.03 112.299 283.933C117.772 283.821 123.293 284.542 127.828 280.836C129.855 279.178 126.924 276.435 124.922 278.084L124.935 278.079Z" fill="#90582C"/>
<path d="M204.568 243.081C203.672 244.666 202.51 246.039 201.893 247.779C201.697 248.331 201.547 248.866 201.305 249.399C201.016 250.033 200.827 250.725 200.507 251.349C200.27 251.81 199.861 252.205 199.637 252.654" stroke="#A9682E" stroke-width="5" stroke-linecap="round"/>
<path d="M40.5247 224.652C46.1634 220.51 46.707 212.89 47.9596 206.004C47.9592 212.503 47.0325 217.888 49.5528 223.845C51.1195 227.547 53.4752 230.509 56.8697 232.058C57.5902 232.387 60.47 232.513 59.407 232.799C53.8786 234.283 47.8586 235.827 44.1898 241.164C44.7913 245.419 43.3118 249.911 42.2359 254.207C41.3981 257.553 42.1085 251.593 42.1179 250.841C42.1532 248.025 42.0586 244.82 43.4456 242.359C43.6811 241.94 43.9295 241.543 44.1898 241.164C43.9525 239.486 43.3914 237.844 42.3539 236.266C39.9856 232.663 37.3543 229.067 33.916 227.045C31.1924 227.375 28.3639 227.211 25.773 227.211C24.3417 227.211 23.6406 227.054 24.5928 225.696C25.1284 224.932 27.5704 225.37 28.3103 225.393C30.4078 225.459 32.2559 226.069 33.916 227.045C36.2714 226.76 38.5482 226.104 40.5247 224.652Z" fill="#FFCF55"/>
<path d="M47.9596 206.004C46.707 212.89 46.1634 220.51 40.5247 224.652C36.2628 227.783 30.6046 227.211 25.773 227.211C24.3417 227.211 23.6406 227.054 24.5928 225.696C25.1284 224.932 27.5704 225.37 28.3103 225.393C34.7521 225.597 38.8422 230.923 42.3539 236.266C46.0213 241.845 43.7362 248.216 42.2359 254.207C41.3981 257.553 42.1085 251.593 42.1179 250.841C42.1532 248.025 42.0586 244.82 43.4456 242.358C47.0021 236.046 53.4865 234.388 59.407 232.799C60.47 232.513 57.5902 232.387 56.8697 232.058C53.4752 230.509 51.1195 227.547 49.5528 223.845C47.032 217.887 47.9596 212.501 47.9596 206" stroke="#A9682E" stroke-width="4" stroke-linecap="round"/>
<path d="M23.4482 252.449C26.3586 250.522 26.6391 246.978 27.2856 243.775C27.2854 246.798 26.8071 249.303 28.1079 252.073C28.9165 253.795 30.1323 255.173 31.8843 255.893C32.2562 256.046 33.7426 256.105 33.1939 256.238C30.3406 256.928 27.2335 257.646 25.3399 260.129C25.6503 262.108 24.8867 264.197 24.3314 266.195C23.899 267.752 24.2657 264.98 24.2705 264.63C24.2887 263.32 24.2399 261.829 24.9558 260.684C25.0774 260.49 25.2056 260.305 25.3399 260.129C25.2174 259.348 24.9278 258.585 24.3924 257.851C23.17 256.175 21.8119 254.502 20.0373 253.562C18.6316 253.715 17.1717 253.639 15.8344 253.639C15.0957 253.639 14.7338 253.566 15.2253 252.934C15.5018 252.579 16.7621 252.783 17.144 252.793C18.2266 252.824 19.1805 253.108 20.0373 253.562C21.253 253.429 22.4281 253.124 23.4482 252.449Z" fill="#FFCF55"/>
<path d="M27.2856 243.775C26.6391 246.978 26.3586 250.522 23.4482 252.449C21.2485 253.905 18.3282 253.639 15.8344 253.639C15.0957 253.639 14.7338 253.566 15.2253 252.934C15.5018 252.579 16.7621 252.783 17.144 252.793C20.4688 252.888 22.5798 255.366 24.3924 257.851C26.2852 260.445 25.1058 263.409 24.3314 266.195C23.899 267.752 24.2657 264.98 24.2705 264.63C24.2887 263.32 24.2399 261.829 24.9558 260.684C26.7914 257.749 30.1382 256.977 33.1939 256.238C33.7426 256.105 32.2562 256.046 31.8843 255.893C30.1323 255.173 28.9165 253.795 28.1079 252.073C26.8069 249.302 27.2856 246.797 27.2856 243.773" stroke="#A9682E" stroke-width="3" stroke-linecap="round"/>
</g>
<path d="M271.261 61.6598C270.861 60.9932 270.528 60.2065 270.261 59.2998C270.008 58.3798 269.828 57.3798 269.721 56.2998C269.628 55.2198 269.608 54.1198 269.661 52.9998C269.674 52.5865 269.828 52.2465 270.121 51.9798C270.428 51.7132 270.788 51.5932 271.201 51.6198C271.614 51.6332 271.948 51.7932 272.201 52.0998C272.468 52.4065 272.588 52.7665 272.561 53.1798C272.494 54.0865 272.494 54.9665 272.561 55.8198C272.641 56.6732 272.768 57.4532 272.941 58.1598C273.128 58.8532 273.334 59.4265 273.561 59.8798C273.868 60.4532 274.228 60.6865 274.641 60.5798C275.068 60.4732 275.428 59.9732 275.721 59.0798C275.854 58.6932 276.101 58.3998 276.461 58.1998C276.834 57.9998 277.214 57.9665 277.601 58.0998C277.988 58.2332 278.261 58.4798 278.421 58.8398C278.594 59.1998 278.628 59.5798 278.521 59.9798C278.201 61.0998 277.734 61.9665 277.121 62.5798C276.508 63.1932 275.841 63.5598 275.121 63.6798C274.401 63.7998 273.694 63.6865 273.001 63.3398C272.321 62.9932 271.741 62.4332 271.261 61.6598ZM285.741 60.1198C285.368 60.2532 284.988 60.2332 284.601 60.0598C284.228 59.8865 283.961 59.6132 283.801 59.2398C283.628 58.7998 283.368 58.3398 283.021 57.8598C282.688 57.3665 282.314 56.8998 281.901 56.4598C281.501 56.0198 281.094 55.6532 280.681 55.3598C280.348 55.1198 280.128 54.8065 280.021 54.4198C279.928 54.0198 280.008 53.6398 280.261 53.2798C280.501 52.9598 280.821 52.7665 281.221 52.6998C281.621 52.6198 281.988 52.6998 282.321 52.9398C282.948 53.3932 283.541 53.9198 284.101 54.5198C284.674 55.1065 285.174 55.7198 285.601 56.3598C286.041 56.9865 286.374 57.5932 286.601 58.1798C286.748 58.5532 286.734 58.9332 286.561 59.3198C286.401 59.7065 286.128 59.9732 285.741 60.1198Z" fill="#A9682E"/>
<path d="M282.221 87.4398C281.141 87.4398 280.268 87.3132 279.601 87.0598C278.934 86.8065 278.474 86.3732 278.221 85.7598C277.968 85.1332 277.914 84.2732 278.061 83.1798C278.114 82.7665 278.028 82.4998 277.801 82.3798C277.588 82.2465 277.294 82.3532 276.921 82.6998C276.681 82.9265 276.381 83.2132 276.021 83.5598C275.661 83.8932 275.274 84.2532 274.861 84.6398C274.461 85.0265 274.068 85.3998 273.681 85.7598C273.308 86.1198 272.981 86.4265 272.701 86.6798C272.408 86.9465 272.048 87.0732 271.621 87.0598C271.194 87.0598 270.841 86.9132 270.561 86.6198C270.281 86.3132 270.141 85.9532 270.141 85.5398C270.141 85.1132 270.301 84.7732 270.621 84.5198C271.168 84.0532 271.768 83.5332 272.421 82.9598C273.074 82.3865 273.734 81.7932 274.401 81.1798C275.068 80.5665 275.694 79.9798 276.281 79.4198C276.868 78.8465 277.368 78.3398 277.781 77.8998C278.208 77.4598 278.354 77.1398 278.221 76.9398C278.101 76.7398 277.768 76.6865 277.221 76.7798L273.481 77.3998C273.068 77.4532 272.694 77.3665 272.361 77.1398C272.028 76.9132 271.828 76.5998 271.761 76.1998C271.694 75.7865 271.774 75.4198 272.001 75.0998C272.241 74.7665 272.568 74.5732 272.981 74.5198C274.061 74.3732 274.894 74.2598 275.481 74.1798C276.068 74.0998 276.488 74.0465 276.741 74.0198C277.008 73.9798 277.168 73.9598 277.221 73.9598C277.274 73.9465 277.301 73.9398 277.301 73.9398C278.221 73.8198 279.001 73.8998 279.641 74.1798C280.281 74.4465 280.734 74.8598 281.001 75.4198C281.281 75.9665 281.348 76.5998 281.201 77.3198C281.054 78.0398 280.654 78.7865 280.001 79.5598C279.934 79.6532 279.848 79.7532 279.741 79.8598C279.634 79.9665 279.534 80.0732 279.441 80.1798C279.774 80.2332 280.061 80.3532 280.301 80.5398C280.554 80.7265 280.734 81.0198 280.841 81.4198C280.961 81.8065 280.981 82.3532 280.901 83.0598C280.821 83.6598 280.861 84.0598 281.021 84.2598C281.194 84.4465 281.528 84.5398 282.021 84.5398C282.328 84.5398 282.721 84.5065 283.201 84.4398C283.694 84.3598 284.168 84.2732 284.621 84.1798C285.034 84.0732 285.414 84.1265 285.761 84.3398C286.121 84.5532 286.341 84.8865 286.421 85.3398C286.501 85.7798 286.408 86.1598 286.141 86.4798C285.888 86.8132 285.561 87.0198 285.161 87.0998C284.108 87.3265 283.128 87.4398 282.221 87.4398ZM279.561 73.3998C279.028 73.3465 278.421 73.2532 277.741 73.1198C277.061 72.9732 276.408 72.8132 275.781 72.6398C275.168 72.4532 274.668 72.2798 274.281 72.1198C273.908 71.9732 273.634 71.7132 273.461 71.3398C273.288 70.9665 273.274 70.5865 273.421 70.1998C273.568 69.8132 273.828 69.5398 274.201 69.3798C274.574 69.2198 274.954 69.2065 275.341 69.3398C275.994 69.5532 276.728 69.7665 277.541 69.9798C278.368 70.1798 279.134 70.3332 279.841 70.4398C280.294 70.5065 280.641 70.6932 280.881 70.9998C281.121 71.2932 281.221 71.6465 281.181 72.0598C281.141 72.4732 280.961 72.8132 280.641 73.0798C280.334 73.3332 279.974 73.4398 279.561 73.3998Z" fill="#A9682E"/>
<path d="M278.001 107.5C277.588 107.5 277.228 107.347 276.921 107.04C276.614 106.733 276.461 106.373 276.461 105.96V93.4998C276.461 93.0732 276.614 92.7065 276.921 92.3998C277.228 92.0932 277.588 91.9398 278.001 91.9398C278.428 91.9398 278.788 92.0932 279.081 92.3998C279.388 92.7065 279.541 93.0732 279.541 93.4998V105.96C279.541 106.373 279.388 106.733 279.081 107.04C278.788 107.347 278.428 107.5 278.001 107.5Z" fill="#A9682E"/>
<path d="M271.261 124.66C270.861 123.993 270.528 123.207 270.261 122.3C270.008 121.38 269.828 120.38 269.721 119.3C269.628 118.22 269.608 117.12 269.661 116C269.674 115.587 269.828 115.247 270.121 114.98C270.428 114.713 270.788 114.593 271.201 114.62C271.614 114.633 271.948 114.793 272.201 115.1C272.468 115.407 272.588 115.767 272.561 116.18C272.494 117.087 272.494 117.967 272.561 118.82C272.641 119.673 272.768 120.453 272.941 121.16C273.128 121.853 273.334 122.427 273.561 122.88C273.868 123.453 274.228 123.687 274.641 123.58C275.068 123.473 275.428 122.973 275.721 122.08C275.854 121.693 276.101 121.4 276.461 121.2C276.834 121 277.214 120.967 277.601 121.1C277.988 121.233 278.261 121.48 278.421 121.84C278.594 122.2 278.628 122.58 278.521 122.98C278.201 124.1 277.734 124.967 277.121 125.58C276.508 126.193 275.841 126.56 275.121 126.68C274.401 126.8 273.694 126.687 273.001 126.34C272.321 125.993 271.741 125.433 271.261 124.66ZM285.741 123.12C285.368 123.253 284.988 123.233 284.601 123.06C284.228 122.887 283.961 122.613 283.801 122.24C283.628 121.8 283.368 121.34 283.021 120.86C282.688 120.367 282.314 119.9 281.901 119.46C281.501 119.02 281.094 118.653 280.681 118.36C280.348 118.12 280.128 117.807 280.021 117.42C279.928 117.02 280.008 116.64 280.261 116.28C280.501 115.96 280.821 115.767 281.221 115.7C281.621 115.62 281.988 115.7 282.321 115.94C282.948 116.393 283.541 116.92 284.101 117.52C284.674 118.107 285.174 118.72 285.601 119.36C286.041 119.987 286.374 120.593 286.601 121.18C286.748 121.553 286.734 121.933 286.561 122.32C286.401 122.707 286.128 122.973 285.741 123.12Z" fill="#A9682E"/>
<path d="M279.441 149.56C279.028 149.587 278.668 149.467 278.361 149.2C278.054 148.933 277.881 148.593 277.841 148.18C277.814 147.767 277.934 147.407 278.201 147.1C278.468 146.78 278.808 146.607 279.221 146.58C280.608 146.487 281.674 146.113 282.421 145.46C283.168 144.807 283.541 143.893 283.541 142.72C283.541 142.013 283.314 141.373 282.861 140.8C282.421 140.213 281.808 139.773 281.021 139.48C280.768 140.16 280.488 140.807 280.181 141.42C279.888 142.033 279.568 142.613 279.221 143.16C279.301 143.213 279.381 143.273 279.461 143.34C279.541 143.393 279.614 143.453 279.681 143.52C280.028 143.747 280.234 144.06 280.301 144.46C280.381 144.86 280.301 145.233 280.061 145.58C279.834 145.913 279.521 146.12 279.121 146.2C278.721 146.267 278.348 146.187 278.001 145.96C277.908 145.893 277.808 145.82 277.701 145.74C277.594 145.66 277.488 145.58 277.381 145.5C276.994 145.873 276.594 146.22 276.181 146.54C275.768 146.86 275.334 147.147 274.881 147.4C274.228 147.773 273.574 147.98 272.921 148.02C272.268 148.06 271.674 147.947 271.141 147.68C270.608 147.413 270.181 147.007 269.861 146.46C269.541 145.913 269.381 145.233 269.381 144.42C269.381 143.247 269.621 142.187 270.101 141.24C270.594 140.293 271.234 139.473 272.021 138.78C271.781 138.34 271.561 137.907 271.361 137.48C271.161 137.04 270.988 136.627 270.841 136.24C270.708 135.853 270.728 135.473 270.901 135.1C271.088 134.727 271.374 134.473 271.761 134.34C272.148 134.193 272.521 134.213 272.881 134.4C273.254 134.573 273.508 134.853 273.641 135.24C273.761 135.56 273.894 135.887 274.041 136.22C274.188 136.553 274.348 136.893 274.521 137.24C275.188 136.947 275.874 136.727 276.581 136.58C277.301 136.42 278.021 136.34 278.741 136.34H278.881C278.948 136.033 279.014 135.72 279.081 135.4C279.161 135.067 279.228 134.733 279.281 134.4C279.348 133.987 279.548 133.66 279.881 133.42C280.214 133.18 280.581 133.093 280.981 133.16C281.394 133.227 281.714 133.433 281.941 133.78C282.181 134.113 282.268 134.48 282.201 134.88C282.148 135.213 282.088 135.54 282.021 135.86C281.968 136.167 281.901 136.473 281.821 136.78C283.288 137.233 284.428 137.987 285.241 139.04C286.054 140.08 286.461 141.307 286.461 142.72C286.461 144.013 286.181 145.153 285.621 146.14C285.074 147.127 284.281 147.913 283.241 148.5C282.201 149.087 280.934 149.44 279.441 149.56ZM273.541 144.88C273.874 144.707 274.188 144.507 274.481 144.28C274.788 144.04 275.081 143.78 275.361 143.5C275.041 143.153 274.728 142.787 274.421 142.4C274.128 142 273.834 141.6 273.541 141.2C272.714 142.107 272.301 143.113 272.301 144.22C272.301 144.593 272.414 144.847 272.641 144.98C272.868 145.113 273.168 145.08 273.541 144.88ZM277.121 141.1C277.281 140.793 277.441 140.473 277.601 140.14C277.761 139.807 277.908 139.46 278.041 139.1C277.668 139.127 277.301 139.187 276.941 139.28C276.581 139.36 276.248 139.46 275.941 139.58C276.314 140.127 276.708 140.633 277.121 141.1Z" fill="#A9682E"/>
<path d="M277.761 171.24C276.934 171.2 276.208 171.027 275.581 170.72C274.968 170.427 274.494 170.013 274.161 169.48C273.828 168.947 273.681 168.327 273.721 167.62C273.761 167.02 273.941 166.493 274.261 166.04C274.581 165.587 275.014 165.24 275.561 165C276.121 164.747 276.754 164.653 277.461 164.72C278.568 164.8 279.368 165.14 279.861 165.74C280.354 166.34 280.541 167.067 280.421 167.92C280.794 167.667 281.061 167.347 281.221 166.96C281.394 166.56 281.481 166.107 281.481 165.6C281.481 165.187 281.348 164.78 281.081 164.38C280.828 163.98 280.461 163.653 279.981 163.4C279.514 163.133 278.954 163 278.301 163C277.661 162.987 276.954 163.167 276.181 163.54C275.408 163.913 274.588 164.54 273.721 165.42C273.414 165.74 273.021 165.907 272.541 165.92C272.074 165.92 271.694 165.747 271.401 165.4C271.148 165.093 271.028 164.74 271.041 164.34C271.068 163.927 271.241 163.6 271.561 163.36C272.361 162.76 273.174 162.113 274.001 161.42C274.828 160.727 275.614 160.047 276.361 159.38C277.108 158.7 277.761 158.087 278.321 157.54C278.534 157.34 278.608 157.153 278.541 156.98C278.474 156.807 278.268 156.747 277.921 156.8C277.454 156.867 276.974 156.933 276.481 157C275.988 157.067 275.488 157.133 274.981 157.2C274.581 157.253 274.214 157.16 273.881 156.92C273.561 156.667 273.368 156.333 273.301 155.92C273.248 155.52 273.341 155.16 273.581 154.84C273.834 154.507 274.168 154.313 274.581 154.26C274.914 154.207 275.314 154.16 275.781 154.12C276.261 154.08 276.741 154.04 277.221 154C277.701 153.96 278.108 153.933 278.441 153.92C279.334 153.853 280.068 153.987 280.641 154.32C281.214 154.64 281.608 155.073 281.821 155.62C282.034 156.167 282.054 156.753 281.881 157.38C281.721 158.007 281.341 158.593 280.741 159.14C280.568 159.313 280.328 159.533 280.021 159.8C279.728 160.067 279.394 160.36 279.021 160.68C279.994 160.653 280.888 160.833 281.701 161.22C282.528 161.593 283.194 162.16 283.701 162.92C284.208 163.667 284.461 164.593 284.461 165.7C284.461 166.967 284.174 168.027 283.601 168.88C283.028 169.72 282.234 170.34 281.221 170.74C280.221 171.14 279.068 171.307 277.761 171.24ZM277.241 168.5C277.414 168.513 277.661 168.513 277.981 168.5C278.141 168.18 278.174 167.893 278.081 167.64C277.988 167.373 277.768 167.213 277.421 167.16C277.154 167.107 276.928 167.133 276.741 167.24C276.554 167.347 276.448 167.5 276.421 167.7C276.394 167.94 276.454 168.12 276.601 168.24C276.761 168.36 276.974 168.447 277.241 168.5Z" fill="#A9682E"/>
<path d="M283.601 181.12C283.001 181.12 282.448 180.973 281.941 180.68C281.448 180.387 281.048 179.993 280.741 179.5C280.448 178.993 280.301 178.427 280.301 177.8C280.301 177.187 280.448 176.633 280.741 176.14C281.048 175.647 281.448 175.253 281.941 174.96C282.448 174.653 283.001 174.5 283.601 174.5C284.228 174.5 284.788 174.653 285.281 174.96C285.774 175.253 286.168 175.653 286.461 176.16C286.754 176.653 286.901 177.2 286.901 177.8C286.901 178.427 286.748 178.993 286.441 179.5C286.148 179.993 285.748 180.387 285.241 180.68C284.748 180.973 284.201 181.12 283.601 181.12ZM283.601 179.46C284.054 179.46 284.441 179.293 284.761 178.96C285.081 178.627 285.241 178.247 285.241 177.82C285.241 177.38 285.081 177 284.761 176.68C284.454 176.347 284.068 176.18 283.601 176.18C283.148 176.18 282.761 176.34 282.441 176.66C282.134 176.98 281.981 177.367 281.981 177.82C281.981 178.26 282.134 178.647 282.441 178.98C282.761 179.3 283.148 179.46 283.601 179.46Z" fill="#A9682E"/>
<path fill-rule="evenodd" clip-rule="evenodd" d="M270.407 62.1808L270.403 62.1743C269.951 61.4212 269.587 60.5533 269.301 59.582L269.299 59.5737L269.297 59.5653C269.026 58.5837 268.837 57.5271 268.726 56.3981L268.724 56.3859C268.627 55.2622 268.607 54.1198 268.662 52.9592C268.685 52.2919 268.947 51.6952 269.448 51.2399L269.456 51.2325L269.465 51.2252C269.97 50.7856 270.585 50.5819 271.249 50.6209C271.926 50.6468 272.524 50.926 272.964 51.4531C273.401 51.961 273.602 52.5778 273.559 53.2442L273.558 53.2532C273.495 54.1098 273.495 54.9366 273.557 55.7342C273.633 56.5395 273.751 57.264 273.909 57.9107C274.082 58.5511 274.265 59.0487 274.449 59.4197C274.457 59.4342 274.464 59.4479 274.472 59.4609C274.56 59.3172 274.663 59.0948 274.771 58.7679L274.773 58.7608L274.775 58.7538C274.99 58.1322 275.401 57.6445 275.975 57.3257L275.982 57.322L275.989 57.3184C276.598 56.9921 277.266 56.9267 277.927 57.1545C278.56 57.3727 279.05 57.8029 279.328 58.4196C279.604 58.9993 279.652 59.6205 279.487 60.2375L279.485 60.246L279.482 60.2546C279.131 61.4841 278.596 62.5192 277.828 63.2869C277.096 64.0192 276.247 64.5059 275.285 64.6662C274.343 64.8232 273.424 64.6692 272.554 64.2343L272.547 64.2308C271.675 63.7865 270.969 63.0855 270.411 62.1872L270.407 62.1808ZM278.421 58.8398C278.261 58.4798 277.988 58.2332 277.601 58.0998C277.214 57.9665 276.834 57.9998 276.461 58.1998C276.101 58.3998 275.854 58.6932 275.721 59.0798C275.428 59.9732 275.068 60.4732 274.641 60.5798C274.228 60.6865 273.868 60.4532 273.561 59.8798C273.334 59.4265 273.128 58.8532 272.941 58.1598C272.768 57.4532 272.641 56.6732 272.561 55.8198C272.494 54.9665 272.494 54.0865 272.561 53.1798C272.588 52.7665 272.468 52.4065 272.201 52.0998C271.948 51.7932 271.614 51.6332 271.201 51.6198C270.788 51.5932 270.428 51.7132 270.121 51.9798C269.828 52.2465 269.674 52.5865 269.661 52.9998C269.608 54.1198 269.628 55.2198 269.721 56.2998C269.828 57.3798 270.008 58.3798 270.261 59.2998C270.528 60.2065 270.861 60.9932 271.261 61.6598C271.741 62.4332 272.321 62.9932 273.001 63.3398C273.694 63.6865 274.401 63.7998 275.121 63.6798C275.841 63.5598 276.508 63.1932 277.121 62.5798C277.734 61.9665 278.201 61.0998 278.521 59.9798C278.628 59.5798 278.594 59.1998 278.421 58.8398ZM286.086 61.0583L286.077 61.0616C285.443 61.288 284.796 61.2432 284.192 60.9723L284.18 60.9669C283.586 60.6913 283.14 60.237 282.882 59.6338L282.876 59.6201L282.87 59.6064C282.734 59.2607 282.52 58.8738 282.21 58.4453L282.201 58.4326L282.192 58.4197C281.889 57.9712 281.549 57.5462 281.172 57.1445L281.166 57.1386L281.161 57.1325C280.801 56.7369 280.448 56.4206 280.102 56.1753L280.097 56.1714C279.583 55.8016 279.226 55.2979 279.057 54.6858L279.052 54.6665L279.047 54.6471C278.884 53.9478 279.039 53.2786 279.443 52.7043L279.452 52.692L279.461 52.6798C279.854 52.1552 280.398 51.8271 281.041 51.7161C281.709 51.5866 282.353 51.7305 282.905 52.1283L282.907 52.1296C283.586 52.6209 284.225 53.1882 284.824 53.8291C285.432 54.4517 285.966 55.1069 286.426 55.7951C286.899 56.4703 287.273 57.1444 287.533 57.8171C287.781 58.4505 287.75 59.1039 287.479 59.7157C287.214 60.3469 286.739 60.8108 286.096 61.0548L286.086 61.0583ZM286.561 59.3198C286.401 59.7065 286.128 59.9732 285.741 60.1198C285.368 60.2532 284.988 60.2332 284.601 60.0598C284.228 59.8865 283.961 59.6132 283.801 59.2398C283.628 58.7998 283.368 58.3398 283.021 57.8598C282.688 57.3665 282.314 56.8998 281.901 56.4598C281.501 56.0198 281.094 55.6532 280.681 55.3598C280.348 55.1198 280.128 54.8065 280.021 54.4198C279.928 54.0198 280.008 53.6398 280.261 53.2798C280.501 52.9598 280.821 52.7665 281.221 52.6998C281.621 52.6198 281.988 52.6998 282.321 52.9398C282.948 53.3932 283.541 53.9198 284.101 54.5198C284.674 55.1065 285.174 55.7198 285.601 56.3598C286.041 56.9865 286.374 57.5932 286.601 58.1798C286.748 58.5532 286.734 58.9332 286.561 59.3198ZM277.294 86.1346C277.046 85.5213 276.958 84.8051 276.985 84.0203C276.899 84.1027 276.809 84.1893 276.715 84.2802L276.707 84.2869L276.7 84.2936C276.343 84.624 275.96 84.981 275.55 85.3646C275.15 85.7512 274.756 86.1249 274.369 86.4858C273.993 86.848 273.66 87.1603 273.372 87.4214C272.875 87.8722 272.263 88.0769 271.605 88.0598C270.927 88.056 270.313 87.8087 269.838 87.3103L269.83 87.3023L269.822 87.2941C269.375 86.8041 269.141 86.204 269.141 85.5398C269.141 84.8305 269.423 84.2007 269.984 83.7488C270.523 83.2883 271.116 82.7748 271.761 82.2082C272.408 81.6402 273.063 81.0522 273.724 80.4439C274.385 79.8357 275.006 79.2546 275.586 78.7005C275.863 78.43 276.119 78.1755 276.355 77.937L273.627 78.3893L273.609 78.3916C272.962 78.4751 272.341 78.336 271.799 77.9668C271.238 77.5854 270.886 77.0319 270.774 76.3642L270.774 76.3591C270.668 75.7064 270.796 75.0711 271.185 74.5218L271.189 74.5155C271.593 73.9549 272.168 73.6174 272.849 73.5285C273.514 73.4382 274.086 73.3605 274.563 73.2955C274.323 73.2112 274.103 73.1284 273.906 73.047C273.291 72.8029 272.831 72.3577 272.554 71.7609C272.267 71.142 272.244 70.4823 272.486 69.8452C272.727 69.2099 273.179 68.7298 273.807 68.4607C274.408 68.2033 275.041 68.181 275.658 68.3915C276.285 68.596 276.994 68.8023 277.785 69.0101C278.585 69.2033 279.319 69.3496 279.989 69.4508C280.644 69.5476 281.237 69.8371 281.662 70.375C282.081 70.8916 282.239 71.5111 282.176 72.1562C282.111 72.8324 281.803 73.4135 281.281 73.8481L281.278 73.8508C281.233 73.8879 281.187 73.9231 281.141 73.9565C281.451 74.2407 281.707 74.5804 281.897 74.9769C282.294 75.7598 282.362 76.6273 282.181 77.5194C282.016 78.3281 281.617 79.1074 281.045 79.8568C281.435 80.2018 281.67 80.6599 281.802 81.1434C281.977 81.7229 281.979 82.4252 281.895 83.1723L281.893 83.1822L281.892 83.192C281.873 83.3324 281.864 83.4455 281.862 83.5348C281.907 83.5379 281.96 83.5398 282.021 83.5398C282.261 83.5398 282.6 83.5133 283.052 83.4509C283.521 83.3748 283.969 83.2927 284.398 83.2048C285.048 83.0437 285.697 83.129 286.278 83.4838C286.911 83.8616 287.28 84.4592 287.405 85.1635C287.532 85.8623 287.383 86.5404 286.924 87.1023C286.53 87.6123 286 87.9499 285.365 88.0788C284.257 88.3168 283.208 88.4398 282.221 88.4398C281.076 88.4398 280.068 88.3073 279.246 87.9946C278.343 87.6515 277.664 87.0304 277.297 86.1416L277.294 86.1346ZM285.161 87.0998C285.561 87.0198 285.888 86.8132 286.141 86.4798C286.408 86.1598 286.501 85.7798 286.421 85.3398C286.341 84.8865 286.121 84.5532 285.761 84.3398C285.414 84.1265 285.034 84.0732 284.621 84.1798C284.168 84.2732 283.694 84.3598 283.201 84.4398C282.721 84.5065 282.328 84.5398 282.021 84.5398C281.528 84.5398 281.194 84.4465 281.021 84.2598C280.861 84.0598 280.821 83.6598 280.901 83.0598C280.981 82.3532 280.961 81.8065 280.841 81.4198C280.748 81.0723 280.6 80.8053 280.397 80.6188C280.366 80.5906 280.334 80.5643 280.301 80.5398C280.061 80.3532 279.774 80.2332 279.441 80.1798C279.534 80.0732 279.634 79.9665 279.741 79.8598C279.848 79.7532 279.934 79.6532 280.001 79.5598C280.062 79.4872 280.121 79.4148 280.178 79.3426C280.727 78.6465 281.068 77.9722 281.201 77.3198C281.348 76.5998 281.281 75.9665 281.001 75.4198C280.796 74.9886 280.48 74.6444 280.053 74.3871C279.925 74.3103 279.788 74.2412 279.641 74.1798C279.592 74.1584 279.542 74.1381 279.491 74.119C279.491 74.1187 279.49 74.1184 279.489 74.1181C278.948 73.9147 278.314 73.8449 277.586 73.9086C277.581 73.9091 277.576 73.9096 277.57 73.91C277.482 73.918 277.392 73.9279 277.301 73.9398L277.221 73.9598C277.189 73.9598 277.118 73.967 277.01 73.9814C276.937 73.991 276.848 74.0038 276.741 74.0198C276.488 74.0465 276.068 74.0998 275.481 74.1798C274.894 74.2598 274.061 74.3732 272.981 74.5198C272.568 74.5732 272.241 74.7665 272.001 75.0998C271.774 75.4198 271.694 75.7865 271.761 76.1998C271.828 76.5998 272.028 76.9132 272.361 77.1398C272.694 77.3665 273.068 77.4532 273.481 77.3998L277.221 76.7798C277.768 76.6865 278.101 76.7398 278.221 76.9398C278.354 77.1398 278.208 77.4598 277.781 77.8998C277.368 78.3398 276.868 78.8465 276.281 79.4198C275.694 79.9798 275.068 80.5665 274.401 81.1798C273.734 81.7932 273.074 82.3865 272.421 82.9598C271.768 83.5332 271.168 84.0532 270.621 84.5198C270.301 84.7732 270.141 85.1132 270.141 85.5398C270.141 85.9532 270.281 86.3132 270.561 86.6198C270.841 86.9132 271.194 87.0598 271.621 87.0598C272.048 87.0732 272.408 86.9465 272.701 86.6798C272.981 86.4265 273.308 86.1198 273.681 85.7598C274.068 85.3998 274.461 85.0265 274.861 84.6398C275.274 84.2532 275.661 83.8932 276.021 83.5598C276.381 83.2132 276.681 82.9265 276.921 82.6998C277.294 82.3532 277.588 82.2465 277.801 82.3798C278.028 82.4998 278.114 82.7665 278.061 83.1798C277.914 84.2732 277.968 85.1332 278.221 85.7598C278.474 86.3732 278.934 86.8065 279.601 87.0598C280.268 87.3132 281.141 87.4398 282.221 87.4398C283.128 87.4398 284.108 87.3265 285.161 87.0998ZM277.068 72.9683C277.104 72.9769 277.141 72.9854 277.177 72.9939C277.192 72.9972 277.206 73.0005 277.221 73.0039C277.392 73.0434 277.566 73.0821 277.741 73.1198C278.421 73.2532 279.028 73.3465 279.561 73.3998C279.704 73.4137 279.84 73.41 279.97 73.3887C279.976 73.3877 279.982 73.3867 279.988 73.3857C280.059 73.3731 280.129 73.3553 280.196 73.3322C280.355 73.2775 280.503 73.1934 280.641 73.0798C280.961 72.8132 281.141 72.4732 281.181 72.0598C281.221 71.6465 281.121 71.2932 280.881 70.9998C280.641 70.6932 280.294 70.5065 279.841 70.4398C279.134 70.3332 278.368 70.1798 277.541 69.9798C276.728 69.7665 275.994 69.5532 275.341 69.3398C274.954 69.2065 274.574 69.2198 274.201 69.3798C273.828 69.5398 273.568 69.8132 273.421 70.1998C273.274 70.5865 273.288 70.9665 273.461 71.3398C273.634 71.7132 273.908 71.9732 274.281 72.1198C274.668 72.2798 275.168 72.4532 275.781 72.6398C276.197 72.755 276.626 72.8644 277.066 72.9678C277.067 72.968 277.067 72.9681 277.068 72.9683ZM270.407 125.181L270.403 125.174C269.951 124.421 269.587 123.553 269.301 122.582L269.299 122.574L269.297 122.565C269.026 121.584 268.837 120.527 268.726 119.398L268.724 119.386C268.627 118.262 268.607 117.12 268.662 115.959C268.685 115.292 268.947 114.695 269.448 114.24L269.456 114.232L269.465 114.225C269.97 113.786 270.585 113.582 271.249 113.621C271.926 113.647 272.524 113.926 272.964 114.453C273.401 114.961 273.602 115.578 273.559 116.244L273.558 116.253C273.495 117.11 273.495 117.937 273.557 118.734C273.633 119.539 273.751 120.264 273.909 120.911C274.082 121.551 274.265 122.049 274.449 122.42C274.457 122.434 274.464 122.448 274.472 122.461C274.56 122.317 274.663 122.095 274.771 121.768L274.773 121.761L274.775 121.754C274.99 121.132 275.401 120.645 275.975 120.326L275.982 120.322L275.989 120.318C276.598 119.992 277.266 119.927 277.927 120.154C278.56 120.373 279.05 120.803 279.328 121.42C279.604 121.999 279.652 122.621 279.487 123.237L279.485 123.246L279.482 123.255C279.131 124.484 278.596 125.519 277.828 126.287C277.096 127.019 276.247 127.506 275.285 127.666C274.343 127.823 273.424 127.669 272.554 127.234L272.547 127.231C271.675 126.787 270.969 126.085 270.411 125.187L270.407 125.181ZM278.421 121.84C278.261 121.48 277.988 121.233 277.601 121.1C277.214 120.966 276.834 121 276.461 121.2C276.101 121.4 275.854 121.693 275.721 122.08C275.428 122.973 275.068 123.473 274.641 123.58C274.228 123.687 273.868 123.453 273.561 122.88C273.334 122.426 273.128 121.853 272.941 121.16C272.768 120.453 272.641 119.673 272.561 118.82C272.494 117.966 272.494 117.087 272.561 116.18C272.588 115.767 272.468 115.406 272.201 115.1C271.948 114.793 271.614 114.633 271.201 114.62C270.788 114.593 270.428 114.713 270.121 114.98C269.828 115.246 269.674 115.586 269.661 116C269.608 117.12 269.628 118.22 269.721 119.3C269.828 120.38 270.008 121.38 270.261 122.3C270.528 123.207 270.861 123.993 271.261 124.66C271.741 125.433 272.321 125.993 273.001 126.34C273.694 126.686 274.401 126.8 275.121 126.68C275.841 126.56 276.508 126.193 277.121 125.58C277.734 124.966 278.201 124.1 278.521 122.98C278.628 122.58 278.594 122.2 278.421 121.84ZM286.086 124.058L286.077 124.062C285.443 124.288 284.796 124.243 284.192 123.972L284.18 123.967C283.586 123.691 283.14 123.237 282.882 122.634L282.876 122.62L282.87 122.606C282.734 122.261 282.52 121.874 282.21 121.445L282.201 121.433L282.192 121.42C281.889 120.971 281.549 120.546 281.172 120.145L281.166 120.139L281.161 120.133C280.801 119.737 280.448 119.421 280.102 119.175L280.097 119.171C279.583 118.802 279.226 118.298 279.057 117.686L279.052 117.667L279.047 117.647C278.884 116.948 279.039 116.279 279.443 115.704L279.452 115.692L279.461 115.68C279.854 115.155 280.398 114.827 281.041 114.716C281.709 114.587 282.353 114.73 282.905 115.128L282.907 115.13C283.586 115.621 284.225 116.188 284.824 116.829C285.432 117.452 285.967 118.107 286.426 118.795C286.899 119.47 287.272 120.144 287.533 120.817C287.781 121.45 287.75 122.104 287.479 122.716C287.214 123.347 286.739 123.811 286.096 124.055L286.086 124.058ZM286.561 122.32C286.401 122.706 286.128 122.973 285.741 123.12C285.368 123.253 284.988 123.233 284.601 123.06C284.228 122.886 283.961 122.613 283.801 122.24C283.628 121.8 283.368 121.34 283.021 120.86C282.688 120.367 282.314 119.9 281.901 119.46C281.501 119.02 281.094 118.653 280.681 118.36C280.348 118.12 280.128 117.806 280.021 117.42C279.928 117.02 280.008 116.64 280.261 116.28C280.501 115.96 280.821 115.766 281.221 115.7C281.621 115.62 281.988 115.7 282.321 115.94C282.948 116.393 283.541 116.92 284.101 117.52C284.674 118.106 285.174 118.72 285.601 119.36C286.041 119.986 286.374 120.593 286.601 121.18C286.748 121.553 286.734 121.933 286.561 122.32ZM279.513 150.557L279.505 150.558C278.835 150.601 278.214 150.398 277.705 149.954C277.2 149.516 276.91 148.938 276.846 148.276L276.844 148.26L276.843 148.244C276.818 147.864 276.873 147.499 277.006 147.162C276.936 147.219 276.865 147.275 276.793 147.331C276.342 147.68 275.868 147.993 275.373 148.27C274.608 148.707 273.808 148.967 272.982 149.018C272.171 149.068 271.399 148.927 270.694 148.574C269.976 148.215 269.409 147.668 268.998 146.965C268.566 146.227 268.381 145.361 268.381 144.42C268.381 143.106 268.651 141.889 269.209 140.788L269.214 140.778C269.638 139.963 270.163 139.23 270.785 138.58C270.67 138.353 270.56 138.128 270.455 137.904L270.45 137.894C270.243 137.437 270.061 137.004 269.906 136.594L269.9 136.58L269.895 136.566C269.677 135.933 269.712 135.285 269.994 134.679L270 134.666L270.006 134.653C270.305 134.055 270.788 133.622 271.421 133.399C272.056 133.163 272.714 133.193 273.322 133.502C273.925 133.788 274.36 134.268 274.581 134.9C274.693 135.198 274.818 135.503 274.956 135.817C274.979 135.868 275.001 135.919 275.025 135.971C275.465 135.82 275.914 135.697 276.371 135.602C276.935 135.477 277.5 135.397 278.067 135.361C278.079 135.306 278.09 135.251 278.102 135.196L278.105 135.181L278.108 135.166C278.183 134.858 278.244 134.549 278.293 134.242L278.294 134.241C278.402 133.571 278.743 133.007 279.297 132.608C279.842 132.215 280.477 132.063 281.143 132.173C281.822 132.283 282.384 132.64 282.765 133.214C283.149 133.755 283.297 134.383 283.188 135.041C283.133 135.382 283.072 135.718 283.003 136.048C282.998 136.078 282.992 136.109 282.987 136.14C284.223 136.658 285.249 137.415 286.03 138.426C286.99 139.654 287.461 141.101 287.461 142.72C287.461 144.16 287.148 145.473 286.493 146.629C285.852 147.785 284.922 148.7 283.732 149.371C282.538 150.044 281.123 150.428 279.521 150.557L279.513 150.557ZM285.621 146.14C286.181 145.153 286.461 144.013 286.461 142.72C286.461 141.307 286.054 140.08 285.241 139.04C284.428 137.986 283.288 137.233 281.821 136.78C281.901 136.473 281.968 136.166 282.021 135.86C282.088 135.54 282.148 135.213 282.201 134.88C282.268 134.48 282.181 134.113 281.941 133.78C281.714 133.433 281.394 133.226 280.981 133.16C280.581 133.093 280.214 133.18 279.881 133.42C279.548 133.66 279.348 133.987 279.281 134.4C279.228 134.733 279.161 135.066 279.081 135.4C279.014 135.72 278.948 136.033 278.881 136.34H278.741C278.021 136.34 277.301 136.42 276.581 136.58C275.874 136.727 275.188 136.946 274.521 137.24C274.348 136.893 274.188 136.553 274.041 136.22C273.894 135.886 273.761 135.56 273.641 135.24C273.508 134.853 273.254 134.573 272.881 134.4C272.521 134.213 272.148 134.193 271.761 134.34C271.374 134.473 271.088 134.726 270.901 135.1C270.728 135.473 270.708 135.853 270.841 136.24C270.988 136.626 271.161 137.04 271.361 137.48C271.561 137.906 271.781 138.34 272.021 138.78C271.234 139.473 270.594 140.293 270.101 141.24C269.621 142.187 269.381 143.246 269.381 144.42C269.381 145.233 269.541 145.913 269.861 146.46C270.181 147.007 270.608 147.413 271.141 147.68C271.674 147.947 272.268 148.06 272.921 148.02C273.574 147.98 274.228 147.773 274.881 147.4C275.334 147.146 275.768 146.86 276.181 146.54C276.594 146.22 276.994 145.873 277.381 145.5L277.701 145.74C277.806 145.819 277.905 145.891 277.997 145.957C277.998 145.958 277.999 145.959 278.001 145.96C278.348 146.187 278.721 146.266 279.121 146.2C279.146 146.195 279.17 146.189 279.194 146.184C279.195 146.183 279.195 146.183 279.195 146.183C279.56 146.093 279.848 145.892 280.061 145.58C280.091 145.537 280.118 145.493 280.143 145.449C280.318 145.14 280.371 144.81 280.301 144.46C280.234 144.06 280.028 143.746 279.681 143.52C279.614 143.453 279.541 143.393 279.461 143.34C279.381 143.273 279.301 143.213 279.221 143.16C279.568 142.613 279.888 142.033 280.181 141.42C280.486 140.81 280.764 140.167 281.016 139.492C281.018 139.488 281.019 139.484 281.021 139.48C281.352 139.603 281.652 139.752 281.921 139.927C282.293 140.169 282.606 140.46 282.861 140.8C283.314 141.373 283.541 142.013 283.541 142.72C283.541 143.893 283.168 144.806 282.421 145.46C281.977 145.848 281.419 146.138 280.749 146.328C280.292 146.458 279.783 146.542 279.221 146.58C279.213 146.58 279.205 146.581 279.197 146.582C279.193 146.582 279.189 146.582 279.185 146.583C278.788 146.617 278.46 146.789 278.201 147.1C278.192 147.11 278.184 147.119 278.176 147.129C277.927 147.429 277.815 147.78 277.841 148.18C277.881 148.593 278.054 148.933 278.361 149.2C278.668 149.466 279.028 149.586 279.441 149.56C280.934 149.44 282.201 149.087 283.241 148.5C284.281 147.913 285.074 147.126 285.621 146.14ZM281.536 140.878C281.391 141.213 281.239 141.54 281.079 141.859C280.906 142.221 280.723 142.573 280.532 142.915C280.93 143.269 281.19 143.733 281.285 144.279C281.333 144.532 281.343 144.781 281.316 145.023C281.484 144.927 281.632 144.821 281.762 144.707C282.252 144.279 282.541 143.663 282.541 142.72C282.541 142.246 282.395 141.823 282.076 141.42L282.069 141.41L282.061 141.4C281.917 141.208 281.744 141.034 281.536 140.878ZM273.32 143.859C273.511 143.747 273.693 143.624 273.867 143.491C273.898 143.466 273.929 143.442 273.959 143.417C273.851 143.287 273.744 143.155 273.637 143.021L273.626 143.006L273.571 142.932C273.437 143.234 273.355 143.543 273.32 143.859ZM272.913 142.035C272.505 142.714 272.301 143.442 272.301 144.22C272.301 144.593 272.414 144.847 272.641 144.98C272.868 145.113 273.168 145.08 273.541 144.88C273.874 144.706 274.188 144.507 274.481 144.28C274.527 144.244 274.573 144.207 274.619 144.17C274.674 144.125 274.729 144.079 274.783 144.033C274.982 143.864 275.174 143.686 275.361 143.5C275.041 143.153 274.728 142.786 274.421 142.4L273.541 141.2C273.295 141.469 273.086 141.748 272.913 142.035ZM276.888 139.292C276.548 139.37 276.232 139.466 275.941 139.58C276.1 139.813 276.263 140.039 276.429 140.257C276.471 140.312 276.513 140.367 276.556 140.421C276.74 140.656 276.928 140.882 277.121 141.1C277.277 140.8 277.434 140.487 277.591 140.161C277.594 140.154 277.597 140.147 277.601 140.14C277.602 140.136 277.604 140.133 277.606 140.13C277.764 139.799 277.909 139.456 278.041 139.1C277.67 139.126 277.307 139.186 276.949 139.278C276.947 139.278 276.944 139.279 276.941 139.28C276.923 139.284 276.905 139.288 276.888 139.292ZM275.781 154.12L277.221 154C277.701 153.96 278.108 153.933 278.441 153.92C279.334 153.853 280.068 153.986 280.641 154.32C281.214 154.64 281.608 155.073 281.821 155.62C282.034 156.167 282.054 156.753 281.881 157.38C281.721 158.006 281.341 158.593 280.741 159.14C280.583 159.298 280.369 159.495 280.1 159.731C280.074 159.753 280.048 159.776 280.021 159.8C279.728 160.066 279.394 160.36 279.021 160.68C279.504 160.667 279.968 160.704 280.412 160.793C280.862 160.883 281.291 161.025 281.701 161.22C282.528 161.593 283.194 162.16 283.701 162.92C284.208 163.666 284.461 164.593 284.461 165.7C284.461 166.966 284.174 168.026 283.601 168.88C283.028 169.72 282.234 170.34 281.221 170.74C280.221 171.14 279.068 171.306 277.761 171.24C276.934 171.2 276.208 171.026 275.581 170.72C274.968 170.426 274.494 170.013 274.161 169.48C273.828 168.947 273.681 168.326 273.721 167.62C273.749 167.205 273.843 166.825 274.005 166.48C274.077 166.326 274.162 166.18 274.261 166.04C274.273 166.022 274.285 166.005 274.298 165.988C274.3 165.985 274.302 165.982 274.305 165.979C274.62 165.556 275.039 165.229 275.561 165C275.665 164.953 275.771 164.911 275.88 164.876C276.358 164.717 276.885 164.666 277.461 164.72C278.568 164.8 279.368 165.14 279.861 165.74C280.063 165.985 280.213 166.252 280.313 166.54C280.316 166.55 280.319 166.561 280.323 166.571C280.325 166.577 280.327 166.584 280.329 166.591C280.458 166.993 280.489 167.436 280.421 167.92C280.794 167.666 281.061 167.346 281.221 166.96C281.275 166.834 281.321 166.702 281.359 166.566C281.44 166.269 281.481 165.947 281.481 165.6C281.481 165.187 281.348 164.78 281.081 164.38C280.828 163.98 280.461 163.653 279.981 163.4C279.514 163.133 278.954 163 278.301 163C277.661 162.986 276.954 163.166 276.181 163.54C275.934 163.659 275.682 163.804 275.426 163.975C275.346 164.028 275.265 164.084 275.184 164.142C275.182 164.144 275.179 164.147 275.176 164.149C274.706 164.488 274.221 164.912 273.721 165.42C273.674 165.469 273.625 165.514 273.575 165.555C273.476 165.637 273.369 165.704 273.255 165.758C273.043 165.859 272.805 165.912 272.541 165.92C272.074 165.92 271.694 165.746 271.401 165.4C271.148 165.093 271.028 164.74 271.041 164.34C271.068 163.926 271.241 163.6 271.561 163.36C272.361 162.76 273.174 162.113 274.001 161.42C274.828 160.726 275.614 160.046 276.361 159.38C276.996 158.802 277.563 158.272 278.063 157.79C278.066 157.787 278.069 157.784 278.072 157.781C278.075 157.778 278.079 157.775 278.082 157.772C278.163 157.693 278.243 157.616 278.321 157.54C278.534 157.34 278.608 157.153 278.541 156.98C278.474 156.806 278.268 156.746 277.921 156.8C277.835 156.812 277.749 156.824 277.662 156.837C277.654 156.838 277.646 156.839 277.638 156.84C277.633 156.841 277.629 156.841 277.624 156.842C277.616 156.843 277.609 156.844 277.601 156.845C277.235 156.897 276.862 156.948 276.481 157C275.988 157.066 275.488 157.133 274.981 157.2C274.581 157.253 274.214 157.16 273.881 156.92C273.561 156.666 273.368 156.333 273.301 155.92C273.248 155.52 273.341 155.16 273.581 154.84C273.834 154.506 274.168 154.313 274.581 154.26C274.914 154.207 275.314 154.16 275.781 154.12ZM274.436 153.27C274.798 153.213 275.219 153.164 275.695 153.123L275.698 153.123L277.138 153.003C277.619 152.963 278.035 152.936 278.384 152.921C279.399 152.848 280.342 152.992 281.136 153.451C281.882 153.87 282.446 154.47 282.752 155.256C283.052 156.023 283.069 156.829 282.847 157.637C282.628 158.485 282.128 159.225 281.432 159.863C281.391 159.904 281.347 159.946 281.301 159.99C281.581 160.079 281.854 160.186 282.122 160.313C283.115 160.763 283.923 161.452 284.531 162.362C285.171 163.308 285.461 164.44 285.461 165.7C285.461 167.119 285.138 168.385 284.431 169.438L284.427 169.444C283.733 170.46 282.775 171.201 281.59 171.669C280.431 172.132 279.13 172.311 277.711 172.239C276.776 172.193 275.914 171.995 275.146 171.62C274.377 171.252 273.754 170.716 273.313 170.01C272.857 169.28 272.672 168.449 272.722 167.563L272.723 167.553C272.738 167.331 272.768 167.114 272.814 166.903C272.733 166.912 272.651 166.917 272.569 166.919L272.555 166.92H272.541C271.789 166.92 271.127 166.624 270.637 166.046L270.63 166.037C270.22 165.541 270.02 164.949 270.041 164.307L270.042 164.291L270.043 164.275C270.088 163.582 270.398 162.982 270.961 162.56C271.745 161.972 272.544 161.336 273.358 160.654C274.176 159.967 274.954 159.295 275.691 158.637C275.923 158.426 276.144 158.223 276.357 158.026C275.946 158.081 275.531 158.136 275.111 158.191C274.454 158.279 273.832 158.117 273.297 157.731L273.278 157.718L273.26 157.704C272.739 157.291 272.419 156.732 272.314 156.079L272.311 156.066L272.31 156.052C272.222 155.395 272.382 154.771 272.781 154.24L272.785 154.235C273.196 153.694 273.763 153.361 274.436 153.27ZM281.44 181.545L281.43 181.539C280.797 181.163 280.282 180.655 279.892 180.028L279.883 180.014L279.875 180.001C279.488 179.331 279.301 178.59 279.301 177.8C279.301 177.019 279.49 176.287 279.881 175.629L279.886 175.62L279.892 175.612C280.281 174.985 280.795 174.478 281.426 174.102C282.091 173.701 282.822 173.5 283.601 173.5C284.396 173.5 285.138 173.696 285.801 174.105C286.438 174.486 286.948 175.008 287.323 175.654C287.711 176.308 287.901 177.03 287.901 177.8C287.901 178.597 287.704 179.343 287.298 180.014C286.917 180.654 286.395 181.166 285.747 181.542C285.093 181.93 284.37 182.12 283.601 182.12C282.829 182.12 282.103 181.929 281.44 181.545ZM285.241 180.68C285.748 180.386 286.148 179.993 286.441 179.5C286.748 178.993 286.901 178.426 286.901 177.8C286.901 177.2 286.754 176.653 286.461 176.16C286.168 175.653 285.774 175.253 285.281 174.96C284.788 174.653 284.228 174.5 283.601 174.5C283.001 174.5 282.448 174.653 281.941 174.96C281.448 175.253 281.048 175.646 280.741 176.14C280.448 176.633 280.301 177.187 280.301 177.8C280.301 178.426 280.448 178.993 280.741 179.5C281.048 179.993 281.448 180.386 281.941 180.68C282.448 180.973 283.001 181.12 283.601 181.12C284.201 181.12 284.748 180.973 285.241 180.68ZM284.761 176.68C284.454 176.346 284.068 176.18 283.601 176.18C283.148 176.18 282.761 176.34 282.441 176.66C282.134 176.98 281.981 177.366 281.981 177.82C281.981 178.26 282.134 178.646 282.441 178.98C282.761 179.3 283.148 179.46 283.601 179.46C284.054 179.46 284.441 179.293 284.761 178.96C285.081 178.626 285.241 178.246 285.241 177.82C285.241 177.38 285.081 177 284.761 176.68ZM283.163 178.287C283.29 178.409 283.419 178.46 283.601 178.46C283.776 178.46 283.904 178.408 284.039 178.267C284.197 178.103 284.241 177.966 284.241 177.82C284.241 177.653 284.192 177.525 284.054 177.387L284.039 177.372L284.025 177.357C283.914 177.236 283.797 177.18 283.601 177.18C283.416 177.18 283.285 177.233 283.156 177.359C283.037 177.486 282.981 177.622 282.981 177.82C282.981 177.995 283.031 178.138 283.163 178.287ZM276.421 167.7C276.394 167.94 276.454 168.12 276.601 168.24C276.761 168.36 276.974 168.446 277.241 168.5C277.414 168.513 277.661 168.513 277.981 168.5C278.141 168.18 278.174 167.893 278.081 167.64C277.988 167.373 277.768 167.213 277.421 167.16C277.154 167.106 276.928 167.133 276.741 167.24C276.554 167.346 276.448 167.5 276.421 167.7ZM278.001 108.5C277.308 108.5 276.698 108.231 276.214 107.747C275.73 107.263 275.461 106.653 275.461 105.96V93.4998C275.461 92.8031 275.723 92.1835 276.214 91.6927C276.698 91.2088 277.308 90.9398 278.001 90.9398C278.695 90.9398 279.314 91.2007 279.796 91.7006C280.281 92.19 280.541 92.8068 280.541 93.4998V105.96C280.541 106.649 280.275 107.256 279.796 107.739C279.314 108.239 278.695 108.5 278.001 108.5ZM276.921 107.04C277.228 107.347 277.588 107.5 278.001 107.5C278.428 107.5 278.788 107.347 279.081 107.04C279.388 106.733 279.541 106.373 279.541 105.96V93.4998C279.541 93.0732 279.388 92.7065 279.081 92.3998C278.788 92.0932 278.428 91.9398 278.001 91.9398C277.588 91.9398 277.228 92.0932 276.921 92.3998C276.614 92.7065 276.461 93.0732 276.461 93.4998V105.96C276.461 106.373 276.614 106.733 276.921 107.04Z" fill="white"/>
</svg>
