<svg width="375" height="58" viewBox="0 0 375 58" fill="none" xmlns="http://www.w3.org/2000/svg">
<rect y="9" width="375" height="49" fill="#FFE195"/>
<path d="M95.8511 19.6411C93.1155 18.6462 17.4772 19.2266 0 19.6411V2.37762C47.8723 -1.35347 56.1018 4.86511 67.5 2.37762C108 0 141.881 2.37762 151 2.37762H195.5C222.856 2.37762 227.045 0.000343323 238.5 0.000343323C248.758 0.000343323 261.843 0.000769496 283.5 0.000769496C305.157 0.000769496 318.948 2.37762 331 2.37762C363.702 2.37762 354.5 0.00065124 375 0V19.6411H310.03C299.772 19.6411 303 25.9773 293.5 25.2369C285.521 24.6151 284.954 19.6411 278.115 19.6411C269.213 19.6411 269 28.9678 262.158 28.9678C255.316 28.9678 261.599 19.6411 252.48 19.6411C245.547 19.6411 248 24.3776 245 30.3776C242 36.3776 233 32.6986 233 28.9678C233 25.2369 232.058 19.6411 225.125 19.6411C219.426 19.6411 225.125 28.9678 217.146 28.9678C209.071 28.9678 206.289 23.4333 204.412 20.8323C203.65 19.7777 202.361 19.5147 201.061 19.5021C193.721 19.431 169.579 19.4553 143.173 19.6295C142.03 19.6371 140.814 19.7591 139.989 20.5502C138.178 22.2868 137.956 25.2369 132.325 25.2369C126.626 25.2369 127.766 19.6411 120.927 19.6411C111.188 19.6411 118.311 28.9678 107.5 28.9678C99.5213 28.9678 99.2705 20.8847 95.8511 19.6411Z" fill="#D77824"/>
<path d="M101 20.2236C101.112 20.7231 101.671 21.39 101.96 21.8378C102.419 22.3658 103.006 22.8099 103.253 23.1282C104.219 23.9198 105.098 24.4177 106.187 24.8291" stroke="#F09F57" stroke-width="3" stroke-linecap="round"/>
<path d="M242.971 23.9999C243.025 24.6713 242.955 25.1055 242.81 25.7784C242.701 26.2886 242.153 27.5926 242.153 27.5926C242.153 27.5926 241.473 29.2937 240.543 29.6889C239.614 30.0835 238.566 29.9393 238.014 29.6886" stroke="#F09F57" stroke-width="3" stroke-linecap="round"/>
<path d="M265.212 24C265.11 24.5588 263.807 25.8752 263 26.1214" stroke="#F09F57" stroke-width="3" stroke-linecap="round"/>
<path d="M213.867 24.7597C212.962 24.7597 212.356 24.4345 212 24" stroke="#F09F57" stroke-width="3" stroke-linecap="round"/>
</svg>
