<svg width="354" height="631" viewBox="0 0 354 631" fill="none" xmlns="http://www.w3.org/2000/svg">
<rect width="21.1057" height="21.1057" rx="2" fill="#FFE195"/>
<rect y="72.9102" width="21.1057" height="20.1463" rx="2" fill="#FFE195"/>
<rect y="145.821" width="21.1057" height="20.1463" rx="2" fill="#FFE195"/>
<rect y="218.731" width="21.1057" height="20.1463" rx="2" fill="#FFE195"/>
<rect y="437.464" width="21.1057" height="19.187" rx="2" fill="#FFE195"/>
<rect y="291.643" width="21.1057" height="20.1463" rx="2" fill="#FFE195"/>
<rect y="510.374" width="21.1057" height="20.1463" rx="2" fill="#FFE195"/>
<rect y="364.553" width="21.1057" height="21.1057" rx="2" fill="#FFE195"/>
<rect y="582.325" width="21.1057" height="21.1057" rx="2" fill="#FFE195"/>
<rect x="35.4961" y="36.4551" width="20.1463" height="21.1057" rx="2" fill="#FFE195"/>
<rect x="35.4961" y="109.366" width="20.1463" height="20.1463" rx="2" fill="#FFE195"/>
<rect x="35.4961" y="183.235" width="20.1463" height="19.187" rx="2" fill="#FFE195"/>
<rect x="35.4961" y="255.187" width="20.1463" height="20.1463" rx="2" fill="#FFE195"/>
<rect x="35.4961" y="473.919" width="20.1463" height="19.187" rx="2" fill="#FFE195"/>
<rect x="35.4961" y="328.098" width="20.1463" height="21.1057" rx="2" fill="#FFE195"/>
<rect x="35.4961" y="546.829" width="20.1463" height="20.1463" rx="2" fill="#FFE195"/>
<rect x="35.4961" y="401.008" width="20.1463" height="21.1057" rx="2" fill="#FFE195"/>
<rect x="35.4961" y="618.78" width="20.1463" height="21.1057" rx="2" fill="#FFE195"/>
<rect x="74.8301" width="20.1463" height="21.1057" rx="2" fill="#FFE195"/>
<rect x="74.8301" y="72.9102" width="20.1463" height="20.1463" rx="2" fill="#FFE195"/>
<rect x="74.8301" y="145.821" width="20.1463" height="20.1463" rx="2" fill="#FFE195"/>
<rect x="74.8301" y="218.731" width="20.1463" height="20.1463" rx="2" fill="#FFE195"/>
<rect x="74.8301" y="437.464" width="20.1463" height="19.187" rx="2" fill="#FFE195"/>
<rect x="74.8301" y="291.643" width="20.1463" height="20.1463" rx="2" fill="#FFE195"/>
<rect x="74.8301" y="510.374" width="20.1463" height="20.1463" rx="2" fill="#FFE195"/>
<rect x="74.8301" y="364.553" width="20.1463" height="21.1057" rx="2" fill="#FFE195"/>
<rect x="74.8301" y="582.325" width="20.1463" height="21.1057" rx="2" fill="#FFE195"/>
<rect x="110.326" y="36.4551" width="20.1463" height="21.1057" rx="2" fill="#FFE195"/>
<rect x="110.326" y="109.366" width="20.1463" height="20.1463" rx="2" fill="#FFE195"/>
<rect x="110.326" y="183.235" width="20.1463" height="19.187" rx="2" fill="#FFE195"/>
<rect x="110.326" y="255.187" width="20.1463" height="20.1463" rx="2" fill="#FFE195"/>
<rect x="110.326" y="473.919" width="20.1463" height="19.187" rx="2" fill="#FFE195"/>
<rect x="110.326" y="328.098" width="20.1463" height="21.1057" rx="2" fill="#FFE195"/>
<rect x="110.326" y="546.829" width="20.1463" height="20.1463" rx="2" fill="#FFE195"/>
<rect x="110.326" y="401.008" width="20.1463" height="21.1057" rx="2" fill="#FFE195"/>
<rect x="110.326" y="618.78" width="20.1463" height="21.1057" rx="2" fill="#FFE195"/>
<rect x="149.658" width="19.187" height="21.1057" rx="2" fill="#FFE195"/>
<rect x="149.658" y="72.9102" width="19.187" height="20.1463" rx="2" fill="#FFE195"/>
<rect x="149.658" y="145.821" width="19.187" height="20.1463" rx="2" fill="#FFE195"/>
<rect x="149.658" y="218.731" width="19.187" height="20.1463" rx="2" fill="#FFE195"/>
<rect x="149.658" y="437.464" width="19.187" height="19.187" rx="2" fill="#FFE195"/>
<rect x="149.658" y="291.643" width="19.187" height="20.1463" rx="2" fill="#FFE195"/>
<rect x="149.658" y="510.374" width="19.187" height="20.1463" rx="2" fill="#FFE195"/>
<rect x="149.658" y="364.553" width="19.187" height="21.1057" rx="2" fill="#FFE195"/>
<rect x="149.658" y="582.325" width="19.187" height="21.1057" rx="2" fill="#FFE195"/>
<rect x="185.154" y="36.4551" width="19.187" height="21.1057" rx="2" fill="#FFE195"/>
<rect x="185.154" y="109.366" width="19.187" height="20.1463" rx="2" fill="#FFE195"/>
<rect x="185.154" y="183.235" width="19.187" height="19.187" rx="2" fill="#FFE195"/>
<rect x="185.154" y="255.187" width="19.187" height="20.1463" rx="2" fill="#FFE195"/>
<rect x="185.154" y="473.919" width="19.187" height="19.187" rx="2" fill="#FFE195"/>
<rect x="185.154" y="328.098" width="19.187" height="21.1057" rx="2" fill="#FFE195"/>
<rect x="185.154" y="546.829" width="19.187" height="20.1463" rx="2" fill="#FFE195"/>
<rect x="185.154" y="401.008" width="19.187" height="21.1057" rx="2" fill="#FFE195"/>
<rect x="185.154" y="618.78" width="19.187" height="21.1057" rx="2" fill="#FFE195"/>
<rect x="223.529" width="20.1463" height="21.1057" rx="2" fill="#FFE195"/>
<rect x="223.529" y="72.9102" width="20.1463" height="20.1463" rx="2" fill="#FFE195"/>
<rect x="223.529" y="145.821" width="20.1463" height="20.1463" rx="2" fill="#FFE195"/>
<rect x="223.529" y="218.731" width="20.1463" height="20.1463" rx="2" fill="#FFE195"/>
<rect x="223.529" y="437.464" width="20.1463" height="19.187" rx="2" fill="#FFE195"/>
<rect x="223.529" y="291.643" width="20.1463" height="20.1463" rx="2" fill="#FFE195"/>
<rect x="223.529" y="510.374" width="20.1463" height="20.1463" rx="2" fill="#FFE195"/>
<rect x="223.529" y="364.553" width="20.1463" height="21.1057" rx="2" fill="#FFE195"/>
<rect x="223.529" y="582.325" width="20.1463" height="21.1057" rx="2" fill="#FFE195"/>
<rect x="259.984" y="36.4551" width="19.187" height="21.1057" rx="2" fill="#FFE195"/>
<rect x="259.984" y="109.366" width="19.187" height="20.1463" rx="2" fill="#FFE195"/>
<rect x="259.984" y="183.235" width="19.187" height="19.187" rx="2" fill="#FFE195"/>
<rect x="259.984" y="255.187" width="19.187" height="20.1463" rx="2" fill="#FFE195"/>
<rect x="259.984" y="473.919" width="19.187" height="19.187" rx="2" fill="#FFE195"/>
<rect x="259.984" y="328.098" width="19.187" height="21.1057" rx="2" fill="#FFE195"/>
<rect x="259.984" y="546.829" width="19.187" height="20.1463" rx="2" fill="#FFE195"/>
<rect x="259.984" y="401.008" width="19.187" height="21.1057" rx="2" fill="#FFE195"/>
<rect x="259.984" y="618.78" width="19.187" height="21.1057" rx="2" fill="#FFE195"/>
<rect x="298.357" width="20.1463" height="21.1057" rx="2" fill="#FFE195"/>
<rect x="298.357" y="72.9102" width="20.1463" height="20.1463" rx="2" fill="#FFE195"/>
<rect x="298.357" y="145.821" width="20.1463" height="20.1463" rx="2" fill="#FFE195"/>
<rect x="298.357" y="218.731" width="20.1463" height="20.1463" rx="2" fill="#FFE195"/>
<rect x="298.357" y="437.464" width="20.1463" height="19.187" rx="2" fill="#FFE195"/>
<rect x="298.357" y="291.643" width="20.1463" height="20.1463" rx="2" fill="#FFE195"/>
<rect x="298.357" y="510.374" width="20.1463" height="20.1463" rx="2" fill="#FFE195"/>
<rect x="298.357" y="364.553" width="20.1463" height="21.1057" rx="2" fill="#FFE195"/>
<rect x="298.357" y="582.325" width="20.1463" height="21.1057" rx="2" fill="#FFE195"/>
<rect x="333.854" y="36.4551" width="20.1463" height="21.1057" rx="2" fill="#FFE195"/>
<rect x="333.854" y="109.366" width="20.1463" height="20.1463" rx="2" fill="#FFE195"/>
<rect x="333.854" y="183.235" width="20.1463" height="19.187" rx="2" fill="#FFE195"/>
<rect x="333.854" y="255.187" width="20.1463" height="20.1463" rx="2" fill="#FFE195"/>
<rect x="333.854" y="473.919" width="20.1463" height="19.187" rx="2" fill="#FFE195"/>
<rect x="333.854" y="328.098" width="20.1463" height="21.1057" rx="2" fill="#FFE195"/>
<rect x="333.854" y="546.829" width="20.1463" height="20.1463" rx="2" fill="#FFE195"/>
<rect x="333.854" y="401.008" width="20.1463" height="21.1057" rx="2" fill="#FFE195"/>
<rect x="333.854" y="618.78" width="20.1463" height="21.1057" rx="2" fill="#FFE195"/>
</svg>
