<svg width="32" height="32" viewBox="0 0 32 32" fill="none" xmlns="http://www.w3.org/2000/svg">
<circle cx="15.5" cy="15.5" r="15.5" fill="#FFF3D3"/>
<path d="M17.4089 15.5L21.2281 11.6822C21.4814 11.4289 21.6237 11.0853 21.6237 10.7271C21.6237 10.3688 21.4814 10.0253 21.2281 9.77195C20.9747 9.51864 20.6312 9.37632 20.2729 9.37632C19.9147 9.37632 19.5711 9.51864 19.3178 9.77195L15.5 13.5911L11.6822 9.77195C11.4289 9.51864 11.0853 9.37632 10.7271 9.37632C10.3688 9.37632 10.0253 9.51864 9.77195 9.77195C9.51864 10.0253 9.37632 10.3688 9.37632 10.7271C9.37632 11.0853 9.51864 11.4289 9.77195 11.6822L13.5911 15.5L9.77195 19.3178C9.51864 19.5711 9.37632 19.9147 9.37632 20.2729C9.37632 20.6312 9.51864 20.9747 9.77195 21.2281C10.0253 21.4814 10.3688 21.6237 10.7271 21.6237C11.0853 21.6237 11.4289 21.4814 11.6822 21.2281L15.5 17.4089L19.3178 21.2281C19.5711 21.4814 19.9147 21.6237 20.2729 21.6237C20.6312 21.6237 20.9747 21.4814 21.2281 21.2281C21.4814 20.9747 21.6237 20.6312 21.6237 20.2729C21.6237 19.9147 21.4814 19.5711 21.2281 19.3178L17.4089 15.5ZM15.5 29C8.04395 29 2 22.956 2 15.5C2 8.04395 8.04395 2 15.5 2C22.956 2 29 8.04395 29 15.5C29 22.956 22.956 29 15.5 29Z" fill="#D77824"/>
</svg>
