<svg width="375" height="58" viewBox="0 0 375 58" fill="none" xmlns="http://www.w3.org/2000/svg">
<rect y="9" width="375" height="49" fill="#FFE195"/>
<path d="M95.8511 19.6408C93.1155 18.6459 17.4772 19.2262 0 19.6408V2C47.8723 -1.73109 56.1018 4.86476 67.5 2.37728C108 -0.000343323 141.881 2.37728 151 2.37728H195.5C222.856 2.37728 227.045 0 238.5 0C248.758 0 261.843 0.000426173 283.5 0.000426173C305.157 0.000426173 318.948 2.37728 331 2.37728C363.702 2.37728 354.5 2.00065 375 2V19.6408H310.03C299.772 19.6408 303 25.977 293.5 25.2366C285.521 24.6148 284.954 19.6408 278.115 19.6408C269.213 19.6408 269 28.9674 262.158 28.9674C255.316 28.9674 261.599 19.6408 252.48 19.6408C245.547 19.6408 248 24.3773 245 30.3773C242 36.3773 233 32.6982 233 28.9674C233 25.2366 232.058 19.6408 225.125 19.6408C219.426 19.6408 225.125 28.9674 217.146 28.9674C209.071 28.9674 206.289 23.433 204.412 20.832C203.65 19.7773 202.361 19.5143 201.061 19.5017C193.721 19.4307 169.579 19.4549 143.173 19.6292C142.03 19.6367 140.814 19.7587 139.989 20.5498C138.178 22.2865 137.956 25.2366 132.325 25.2366C126.626 25.2366 127.766 19.6408 120.927 19.6408C111.188 19.6408 118.311 28.9674 107.5 28.9674C99.5213 28.9674 99.2705 20.8844 95.8511 19.6408Z" fill="#D77824"/>
<path d="M101 20.2236C101.112 20.7231 101.671 21.39 101.96 21.8378C102.419 22.3658 103.006 22.8099 103.253 23.1282C104.219 23.9198 105.098 24.4177 106.187 24.8291" stroke="#F09F57" stroke-width="3" stroke-linecap="round"/>
<path d="M242.971 23.9999C243.025 24.6713 242.955 25.1055 242.81 25.7784C242.701 26.2886 242.153 27.5926 242.153 27.5926C242.153 27.5926 241.473 29.2937 240.543 29.6889C239.614 30.0835 238.566 29.9393 238.014 29.6886" stroke="#F09F57" stroke-width="3" stroke-linecap="round"/>
<path d="M265.212 24C265.11 24.5588 263.807 25.8752 263 26.1214" stroke="#F09F57" stroke-width="3" stroke-linecap="round"/>
<path d="M213.867 24.7597C212.962 24.7597 212.356 24.4345 212 24" stroke="#F09F57" stroke-width="3" stroke-linecap="round"/>
</svg>
