<svg width="343" height="130" viewBox="0 0 343 130" fill="none" xmlns="http://www.w3.org/2000/svg">
<path fill-rule="evenodd" clip-rule="evenodd" d="M39.128 4C19.798 4 4.12802 19.67 4.12802 39V55.8406C4.12781 55.8406 4.12761 55.8406 4.12741 55.8407L4.12625 82.0002C4.12625 82.556 4.11051 83.7599 4.09014 85.3175C4.02381 90.3905 3.90843 99.2151 4.12805 101.62C4.67218 107.578 9.97765 113.118 18.2157 113.065C24.9338 113.021 25.9209 109.674 26.7049 107.016C27.2236 105.257 27.6534 103.799 29.5952 103.799C32.8915 103.799 33.2284 106.412 33.5876 109.198C33.9978 112.381 34.4372 115.789 39.3487 115.789C44.972 115.789 46.9606 113.623 48.8893 111.522C50.1201 110.181 51.3264 108.867 53.4372 108.159C54.1552 107.919 55.9068 107.716 58.4594 107.548H154.592C155.261 107.865 155.823 108.355 156.21 109.077C156.388 109.408 156.573 109.77 156.77 110.153C158.751 114.009 161.877 120.095 169.323 120.047C173.788 120.018 174.08 116.226 174.348 112.753C174.519 110.532 174.681 108.441 175.917 107.548H180.245C184.829 109.274 185.343 115.544 185.371 119.943C185.398 124.243 194.972 127.949 198.08 122.183C199.198 120.109 199.575 117.557 199.932 115.136C200.415 111.86 200.862 108.825 203.066 107.548H208.87C211.086 108.64 211.956 110.977 212.826 113.315C214.023 116.532 215.221 119.75 219.928 119.719C224.664 119.689 226.458 116.413 228.24 113.157C229.46 110.93 230.675 108.711 232.823 107.548H240.269C241.69 108.205 242.878 109.177 244.109 110.183C246.337 112.004 248.706 113.941 252.847 114.346C258.175 114.867 259.597 112.854 261.092 110.737C261.916 109.57 262.763 108.371 264.298 107.548H288.03C288.061 107.55 288.092 107.553 288.123 107.556L288.778 108.063C289.462 108.79 290.172 110.102 290.977 111.588C292.954 115.241 295.501 119.947 299.626 119.612C309.051 118.844 310.512 113.464 311.523 109.74C311.75 108.901 311.955 108.147 312.223 107.548H314C327.807 107.548 339 96.3547 339 82.5475V39C339 19.67 323.33 4 304 4H39.128Z" fill="white"/>
<path d="M4.12802 55.8406L4.57774 59.8152C6.59996 59.5864 8.12802 57.8757 8.12802 55.8406H4.12802ZM4.12741 55.8407L3.67768 51.866C1.65553 52.0948 0.127499 53.8054 0.127409 55.8405L4.12741 55.8407ZM4.12625 82.0002L0.126253 82L0.126253 82.0002L4.12625 82.0002ZM4.09014 85.3175L8.0898 85.3698L8.0898 85.3698L4.09014 85.3175ZM4.12805 101.62L8.11147 101.256L8.11147 101.256L4.12805 101.62ZM18.2157 113.065L18.1899 109.065L18.1899 109.065L18.2157 113.065ZM26.7049 107.016L30.5415 108.147L30.5415 108.147L26.7049 107.016ZM33.5876 109.198L37.5547 108.687L37.5547 108.687L33.5876 109.198ZM39.3487 115.789L39.3487 111.789L39.3487 111.789L39.3487 115.789ZM48.8893 111.522L51.836 114.227L51.836 114.227L48.8893 111.522ZM53.4372 108.159L52.1657 104.367L52.1657 104.367L53.4372 108.159ZM58.4594 107.548V103.548C58.3713 103.548 58.2832 103.55 58.1953 103.556L58.4594 107.548ZM154.592 107.548L156.309 103.935C155.772 103.68 155.186 103.548 154.592 103.548V107.548ZM156.21 109.077L152.684 110.966L152.684 110.966L156.21 109.077ZM156.77 110.153L153.212 111.981L153.212 111.981L156.77 110.153ZM169.323 120.047L169.349 124.046L169.349 124.046L169.323 120.047ZM174.348 112.753L170.36 112.446L170.36 112.446L174.348 112.753ZM175.917 107.548V103.548C175.076 103.548 174.256 103.813 173.575 104.305L175.917 107.548ZM180.245 107.548L181.654 103.804C181.204 103.634 180.726 103.548 180.245 103.548V107.548ZM185.371 119.943L181.371 119.968L181.371 119.968L185.371 119.943ZM198.08 122.183L201.601 124.081L201.601 124.081L198.08 122.183ZM199.932 115.136L195.974 114.553L195.974 114.553L199.932 115.136ZM203.066 107.548V103.548C202.361 103.548 201.669 103.734 201.059 104.087L203.066 107.548ZM208.87 107.548L210.638 103.96C210.088 103.688 209.483 103.548 208.87 103.548V107.548ZM212.826 113.315L216.575 111.92L216.575 111.92L212.826 113.315ZM219.928 119.719L219.954 123.719L219.954 123.719L219.928 119.719ZM228.24 113.157L224.732 111.236L224.732 111.236L228.24 113.157ZM232.823 107.548V103.548C232.158 103.548 231.503 103.714 230.918 104.03L232.823 107.548ZM240.269 107.548L241.95 103.918C241.423 103.674 240.85 103.548 240.269 103.548V107.548ZM244.109 110.183L246.641 107.086L246.641 107.086L244.109 110.183ZM252.847 114.346L253.237 110.365L253.237 110.365L252.847 114.346ZM261.092 110.737L264.359 113.044L264.359 113.044L261.092 110.737ZM264.298 107.548V103.548C263.638 103.548 262.988 103.711 262.407 104.023L264.298 107.548ZM288.03 107.548L288.387 103.564C288.268 103.553 288.149 103.548 288.03 103.548V107.548ZM288.123 107.556L290.571 104.393C289.968 103.925 289.243 103.641 288.483 103.572L288.123 107.556ZM288.778 108.063L291.692 105.323C291.548 105.17 291.392 105.028 291.226 104.899L288.778 108.063ZM290.977 111.588L294.494 109.684L294.494 109.684L290.977 111.588ZM299.626 119.612L299.301 115.625L299.301 115.625L299.626 119.612ZM311.523 109.74L307.662 108.692L307.662 108.692L311.523 109.74ZM312.223 107.548V103.548C310.646 103.548 309.216 104.475 308.572 105.914L312.223 107.548ZM8.12802 39C8.12802 21.8791 22.0072 8 39.128 8V0C17.5889 0 0.128016 17.4609 0.128016 39H8.12802ZM8.12802 55.8406V39H0.128016V55.8406H8.12802ZM4.57714 59.8153C4.57714 59.8153 4.57714 59.8153 4.57714 59.8153C4.57714 59.8153 4.57714 59.8153 4.57714 59.8153C4.57714 59.8153 4.57714 59.8153 4.57714 59.8153C4.57714 59.8153 4.57714 59.8153 4.57714 59.8153C4.57714 59.8153 4.57714 59.8153 4.57714 59.8153C4.57714 59.8153 4.57714 59.8153 4.57714 59.8153C4.57714 59.8153 4.57714 59.8153 4.57714 59.8153C4.57714 59.8153 4.57714 59.8153 4.57715 59.8153C4.57715 59.8153 4.57715 59.8153 4.57715 59.8153C4.57715 59.8153 4.57715 59.8153 4.57715 59.8153C4.57715 59.8153 4.57715 59.8153 4.57715 59.8153C4.57715 59.8153 4.57715 59.8153 4.57715 59.8153C4.57715 59.8153 4.57715 59.8153 4.57715 59.8153C4.57715 59.8153 4.57715 59.8153 4.57715 59.8153C4.57715 59.8153 4.57715 59.8153 4.57715 59.8153C4.57715 59.8153 4.57715 59.8153 4.57715 59.8153C4.57716 59.8153 4.57716 59.8153 4.57716 59.8153C4.57716 59.8153 4.57716 59.8153 4.57716 59.8153C4.57716 59.8153 4.57716 59.8153 4.57716 59.8153C4.57716 59.8153 4.57716 59.8153 4.57716 59.8153C4.57716 59.8153 4.57716 59.8153 4.57716 59.8153C4.57716 59.8153 4.57716 59.8153 4.57716 59.8153C4.57716 59.8153 4.57716 59.8153 4.57716 59.8153C4.57716 59.8153 4.57716 59.8153 4.57716 59.8153C4.57716 59.8153 4.57717 59.8153 4.57717 59.8153C4.57717 59.8153 4.57717 59.8153 4.57717 59.8153C4.57717 59.8153 4.57717 59.8153 4.57717 59.8153C4.57717 59.8153 4.57717 59.8153 4.57717 59.8153C4.57717 59.8153 4.57717 59.8153 4.57717 59.8153C4.57717 59.8153 4.57717 59.8153 4.57717 59.8153C4.57717 59.8153 4.57717 59.8153 4.57717 59.8153C4.57717 59.8153 4.57717 59.8153 4.57717 59.8153C4.57717 59.8153 4.57717 59.8153 4.57717 59.8153C4.57718 59.8153 4.57718 59.8153 4.57718 59.8153C4.57718 59.8153 4.57718 59.8153 4.57718 59.8153C4.57718 59.8153 4.57718 59.8153 4.57718 59.8153C4.57718 59.8153 4.57718 59.8153 4.57718 59.8153C4.57718 59.8153 4.57718 59.8153 4.57718 59.8153C4.57718 59.8153 4.57718 59.8153 4.57718 59.8153C4.57718 59.8153 4.57718 59.8153 4.57718 59.8153C4.57718 59.8153 4.57718 59.8153 4.57718 59.8153C4.57718 59.8153 4.57719 59.8153 4.57719 59.8153C4.57719 59.8153 4.57719 59.8153 4.57719 59.8153C4.57719 59.8153 4.57719 59.8153 4.57719 59.8153C4.57719 59.8153 4.57719 59.8153 4.57719 59.8153C4.57719 59.8153 4.57719 59.8153 4.57719 59.8153C4.57719 59.8153 4.57719 59.8153 4.57719 59.8153C4.57719 59.8153 4.57719 59.8153 4.57719 59.8153C4.57719 59.8153 4.57719 59.8153 4.57719 59.8153C4.57719 59.8153 4.57719 59.8153 4.5772 59.8153C4.5772 59.8153 4.5772 59.8153 4.5772 59.8153C4.5772 59.8153 4.5772 59.8153 4.5772 59.8153C4.5772 59.8153 4.5772 59.8153 4.5772 59.8153C4.5772 59.8153 4.5772 59.8153 4.5772 59.8153C4.5772 59.8153 4.5772 59.8153 4.5772 59.8153C4.5772 59.8153 4.5772 59.8153 4.5772 59.8153C4.5772 59.8153 4.5772 59.8153 4.5772 59.8153C4.5772 59.8153 4.5772 59.8153 4.5772 59.8153C4.57721 59.8153 4.57721 59.8153 4.57721 59.8153C4.57721 59.8153 4.57721 59.8153 4.57721 59.8153C4.57721 59.8153 4.57721 59.8153 4.57721 59.8153C4.57721 59.8153 4.57721 59.8153 4.57721 59.8153C4.57721 59.8153 4.57721 59.8153 4.57721 59.8153C4.57721 59.8153 4.57721 59.8153 4.57721 59.8153C4.57721 59.8153 4.57721 59.8153 4.57721 59.8153C4.57721 59.8153 4.57721 59.8153 4.57721 59.8153C4.57721 59.8153 4.57721 59.8153 4.57722 59.8153C4.57722 59.8153 4.57722 59.8153 4.57722 59.8153C4.57722 59.8153 4.57722 59.8153 4.57722 59.8153C4.57722 59.8153 4.57722 59.8153 4.57722 59.8153C4.57722 59.8153 4.57722 59.8153 4.57722 59.8153C4.57722 59.8153 4.57722 59.8153 4.57722 59.8153C4.57722 59.8153 4.57722 59.8153 4.57722 59.8153C4.57722 59.8153 4.57722 59.8153 4.57722 59.8153C4.57722 59.8153 4.57722 59.8153 4.57722 59.8153C4.57723 59.8153 4.57723 59.8153 4.57723 59.8153C4.57723 59.8153 4.57723 59.8153 4.57723 59.8153C4.57723 59.8153 4.57723 59.8153 4.57723 59.8153C4.57723 59.8153 4.57723 59.8153 4.57723 59.8153C4.57723 59.8153 4.57723 59.8153 4.57723 59.8153C4.57723 59.8153 4.57723 59.8153 4.57723 59.8153C4.57723 59.8153 4.57723 59.8153 4.57723 59.8153C4.57723 59.8153 4.57723 59.8153 4.57723 59.8153C4.57723 59.8153 4.57724 59.8153 4.57724 59.8153C4.57724 59.8153 4.57724 59.8153 4.57724 59.8153C4.57724 59.8153 4.57724 59.8153 4.57724 59.8153C4.57724 59.8153 4.57724 59.8153 4.57724 59.8153C4.57724 59.8153 4.57724 59.8153 4.57724 59.8153C4.57724 59.8153 4.57724 59.8153 4.57724 59.8153C4.57724 59.8153 4.57724 59.8153 4.57724 59.8153C4.57724 59.8153 4.57724 59.8153 4.57724 59.8153C4.57724 59.8153 4.57724 59.8153 4.57724 59.8153C4.57725 59.8153 4.57725 59.8153 4.57725 59.8153C4.57725 59.8153 4.57725 59.8153 4.57725 59.8153C4.57725 59.8153 4.57725 59.8153 4.57725 59.8153C4.57725 59.8153 4.57725 59.8153 4.57725 59.8153C4.57725 59.8153 4.57725 59.8153 4.57725 59.8153C4.57725 59.8153 4.57725 59.8153 4.57725 59.8153C4.57725 59.8153 4.57725 59.8153 4.57725 59.8153C4.57725 59.8153 4.57725 59.8153 4.57725 59.8153C4.57725 59.8153 4.57726 59.8153 4.57726 59.8153C4.57726 59.8153 4.57726 59.8153 4.57726 59.8153C4.57726 59.8153 4.57726 59.8153 4.57726 59.8153C4.57726 59.8153 4.57726 59.8153 4.57726 59.8153C4.57726 59.8153 4.57726 59.8153 4.57726 59.8153C4.57726 59.8153 4.57726 59.8153 4.57726 59.8153C4.57726 59.8153 4.57726 59.8153 4.57726 59.8153C4.57726 59.8153 4.57726 59.8153 4.57726 59.8153C4.57726 59.8153 4.57726 59.8153 4.57727 59.8153C4.57727 59.8153 4.57727 59.8153 4.57727 59.8153C4.57727 59.8153 4.57727 59.8153 4.57727 59.8153C4.57727 59.8153 4.57727 59.8153 4.57727 59.8153C4.57727 59.8153 4.57727 59.8153 4.57727 59.8153C4.57727 59.8153 4.57727 59.8153 4.57727 59.8153C4.57727 59.8153 4.57727 59.8153 4.57727 59.8153C4.57727 59.8153 4.57727 59.8153 4.57727 59.8153C4.57727 59.8153 4.57727 59.8153 4.57727 59.8153C4.57727 59.8153 4.57728 59.8153 4.57728 59.8153C4.57728 59.8153 4.57728 59.8153 4.57728 59.8153C4.57728 59.8153 4.57728 59.8153 4.57728 59.8153C4.57728 59.8153 4.57728 59.8153 4.57728 59.8153C4.57728 59.8153 4.57728 59.8153 4.57728 59.8153C4.57728 59.8153 4.57728 59.8153 4.57728 59.8153C4.57728 59.8153 4.57728 59.8153 4.57728 59.8153C4.57728 59.8153 4.57728 59.8153 4.57728 59.8153C4.57728 59.8153 4.57728 59.8153 4.57729 59.8153C4.57729 59.8153 4.57729 59.8153 4.57729 59.8153C4.57729 59.8153 4.57729 59.8153 4.57729 59.8153C4.57729 59.8153 4.57729 59.8153 4.57729 59.8153C4.57729 59.8153 4.57729 59.8153 4.57729 59.8153C4.57729 59.8153 4.57729 59.8153 4.57729 59.8153C4.57729 59.8153 4.57729 59.8153 4.57729 59.8153C4.57729 59.8153 4.57729 59.8153 4.57729 59.8153C4.57729 59.8153 4.57729 59.8153 4.57729 59.8153C4.5773 59.8153 4.5773 59.8153 4.5773 59.8153C4.5773 59.8153 4.5773 59.8153 4.5773 59.8153C4.5773 59.8153 4.5773 59.8153 4.5773 59.8153C4.5773 59.8153 4.5773 59.8153 4.5773 59.8153C4.5773 59.8153 4.5773 59.8153 4.5773 59.8153C4.5773 59.8153 4.5773 59.8153 4.5773 59.8153C4.5773 59.8153 4.5773 59.8153 4.5773 59.8153C4.5773 59.8153 4.5773 59.8153 4.5773 59.8153C4.5773 59.8153 4.5773 59.8153 4.57731 59.8153C4.57731 59.8153 4.57731 59.8153 4.57731 59.8153C4.57731 59.8153 4.57731 59.8153 4.57731 59.8153C4.57731 59.8153 4.57731 59.8153 4.57731 59.8153C4.57731 59.8153 4.57731 59.8153 4.57731 59.8153C4.57731 59.8153 4.57731 59.8153 4.57731 59.8153C4.57731 59.8153 4.57731 59.8153 4.57731 59.8153C4.57731 59.8153 4.57731 59.8153 4.57731 59.8153C4.57731 59.8153 4.57731 59.8153 4.57731 59.8153C4.57732 59.8153 4.57732 59.8153 4.57732 59.8153C4.57732 59.8153 4.57732 59.8153 4.57732 59.8153C4.57732 59.8153 4.57732 59.8153 4.57732 59.8153C4.57732 59.8153 4.57732 59.8153 4.57732 59.8153C4.57732 59.8153 4.57732 59.8153 4.57732 59.8153C4.57732 59.8153 4.57732 59.8153 4.57732 59.8153C4.57732 59.8153 4.57732 59.8153 4.57732 59.8153C4.57732 59.8153 4.57732 59.8153 4.57732 59.8153C4.57732 59.8153 4.57733 59.8153 4.57733 59.8153C4.57733 59.8153 4.57733 59.8153 4.57733 59.8153C4.57733 59.8153 4.57733 59.8153 4.57733 59.8153C4.57733 59.8153 4.57733 59.8153 4.57733 59.8153C4.57733 59.8153 4.57733 59.8153 4.57733 59.8153C4.57733 59.8153 4.57733 59.8153 4.57733 59.8153C4.57733 59.8153 4.57733 59.8153 4.57733 59.8153C4.57733 59.8153 4.57733 59.8153 4.57733 59.8153C4.57733 59.8153 4.57733 59.8153 4.57733 59.8153C4.57734 59.8153 4.57734 59.8153 4.57734 59.8153C4.57734 59.8153 4.57734 59.8153 4.57734 59.8153C4.57734 59.8153 4.57734 59.8153 4.57734 59.8153C4.57734 59.8153 4.57734 59.8153 4.57734 59.8153C4.57734 59.8153 4.57734 59.8153 4.57734 59.8153C4.57734 59.8153 4.57734 59.8153 4.57734 59.8153C4.57734 59.8153 4.57734 59.8153 4.57734 59.8153C4.57734 59.8153 4.57734 59.8153 4.57734 59.8153C4.57734 59.8153 4.57735 59.8153 4.57735 59.8153C4.57735 59.8153 4.57735 59.8153 4.57735 59.8153C4.57735 59.8153 4.57735 59.8153 4.57735 59.8153C4.57735 59.8153 4.57735 59.8153 4.57735 59.8153C4.57735 59.8153 4.57735 59.8153 4.57735 59.8153C4.57735 59.8153 4.57735 59.8153 4.57735 59.8153C4.57735 59.8153 4.57735 59.8153 4.57735 59.8153C4.57735 59.8153 4.57735 59.8153 4.57735 59.8153C4.57735 59.8153 4.57735 59.8153 4.57736 59.8153C4.57736 59.8153 4.57736 59.8153 4.57736 59.8153C4.57736 59.8153 4.57736 59.8153 4.57736 59.8153C4.57736 59.8153 4.57736 59.8153 4.57736 59.8153C4.57736 59.8153 4.57736 59.8153 4.57736 59.8153C4.57736 59.8153 4.57736 59.8153 4.57736 59.8153C4.57736 59.8153 4.57736 59.8153 4.57736 59.8153C4.57736 59.8153 4.57736 59.8153 4.57736 59.8153C4.57736 59.8153 4.57736 59.8153 4.57736 59.8153C4.57737 59.8153 4.57737 59.8153 4.57737 59.8153C4.57737 59.8153 4.57737 59.8153 4.57737 59.8153C4.57737 59.8153 4.57737 59.8153 4.57737 59.8153C4.57737 59.8153 4.57737 59.8153 4.57737 59.8153C4.57737 59.8153 4.57737 59.8153 4.57737 59.8153C4.57737 59.8153 4.57737 59.8153 4.57737 59.8153C4.57737 59.8153 4.57737 59.8153 4.57737 59.8153C4.57737 59.8153 4.57737 59.8153 4.57737 59.8153C4.57737 59.8153 4.57737 59.8153 4.57738 59.8153C4.57738 59.8153 4.57738 59.8153 4.57738 59.8153C4.57738 59.8153 4.57738 59.8153 4.57738 59.8153C4.57738 59.8153 4.57738 59.8153 4.57738 59.8153C4.57738 59.8153 4.57738 59.8153 4.57738 59.8153C4.57738 59.8153 4.57738 59.8153 4.57738 59.8153C4.57738 59.8153 4.57738 59.8153 4.57738 59.8153C4.57738 59.8153 4.57738 59.8153 4.57738 59.8153C4.57738 59.8153 4.57738 59.8153 4.57738 59.8153C4.57739 59.8153 4.57739 59.8153 4.57739 59.8153C4.57739 59.8153 4.57739 59.8153 4.57739 59.8153C4.57739 59.8153 4.57739 59.8153 4.57739 59.8153C4.57739 59.8153 4.57739 59.8153 4.57739 59.8153C4.57739 59.8153 4.57739 59.8153 4.57739 59.8153C4.57739 59.8153 4.57739 59.8153 4.57739 59.8153C4.57739 59.8153 4.57739 59.8153 4.57739 59.8153C4.57739 59.8153 4.57739 59.8153 4.57739 59.8153C4.57739 59.8153 4.5774 59.8153 4.5774 59.8153C4.5774 59.8153 4.5774 59.8153 4.5774 59.8153C4.5774 59.8153 4.5774 59.8153 4.5774 59.8153C4.5774 59.8153 4.5774 59.8153 4.5774 59.8153C4.5774 59.8153 4.5774 59.8153 4.5774 59.8153C4.5774 59.8153 4.5774 59.8153 4.5774 59.8153C4.5774 59.8153 4.5774 59.8153 4.5774 59.8153C4.5774 59.8153 4.5774 59.8153 4.5774 59.8153C4.5774 59.8153 4.5774 59.8153 4.5774 59.8153C4.57741 59.8153 4.57741 59.8153 4.57741 59.8153C4.57741 59.8153 4.57741 59.8153 4.57741 59.8153C4.57741 59.8153 4.57741 59.8153 4.57741 59.8153C4.57741 59.8153 4.57741 59.8153 4.57741 59.8153C4.57741 59.8153 4.57741 59.8153 4.57741 59.8153C4.57741 59.8153 4.57741 59.8153 4.57741 59.8153C4.57741 59.8153 4.57741 59.8153 4.57741 59.8153C4.57741 59.8153 4.57741 59.8153 4.57741 59.8153C4.57741 59.8153 4.57742 59.8153 4.57742 59.8153C4.57742 59.8153 4.57742 59.8153 4.57742 59.8153C4.57742 59.8153 4.57742 59.8153 4.57742 59.8153C4.57742 59.8153 4.57742 59.8153 4.57742 59.8153C4.57742 59.8153 4.57742 59.8153 4.57742 59.8153C4.57742 59.8153 4.57742 59.8153 4.57742 59.8153C4.57742 59.8153 4.57742 59.8153 4.57742 59.8153C4.57742 59.8153 4.57742 59.8153 4.57742 59.8153C4.57742 59.8153 4.57742 59.8153 4.57743 59.8153C4.57743 59.8153 4.57743 59.8153 4.57743 59.8153C4.57743 59.8153 4.57743 59.8153 4.57743 59.8153C4.57743 59.8153 4.57743 59.8153 4.57743 59.8153C4.57743 59.8153 4.57743 59.8153 4.57743 59.8153C4.57743 59.8153 4.57743 59.8153 4.57743 59.8153C4.57743 59.8153 4.57743 59.8153 4.57743 59.8153C4.57743 59.8153 4.57743 59.8153 4.57743 59.8153C4.57743 59.8153 4.57743 59.8153 4.57743 59.8153C4.57743 59.8153 4.57744 59.8153 4.57744 59.8153C4.57744 59.8153 4.57744 59.8153 4.57744 59.8153C4.57744 59.8153 4.57744 59.8153 4.57744 59.8153C4.57744 59.8153 4.57744 59.8153 4.57744 59.8153C4.57744 59.8153 4.57744 59.8153 4.57744 59.8153C4.57744 59.8153 4.57744 59.8153 4.57744 59.8153C4.57744 59.8153 4.57744 59.8153 4.57744 59.8153C4.57744 59.8153 4.57744 59.8153 4.57744 59.8153C4.57744 59.8153 4.57744 59.8153 4.57745 59.8153C4.57745 59.8153 4.57745 59.8153 4.57745 59.8153C4.57745 59.8153 4.57745 59.8153 4.57745 59.8153C4.57745 59.8153 4.57745 59.8153 4.57745 59.8153C4.57745 59.8153 4.57745 59.8153 4.57745 59.8153C4.57745 59.8153 4.57745 59.8153 4.57745 59.8153C4.57745 59.8153 4.57745 59.8153 4.57745 59.8153C4.57745 59.8153 4.57745 59.8153 4.57745 59.8153C4.57745 59.8153 4.57745 59.8153 4.57745 59.8153C4.57746 59.8153 4.57746 59.8153 4.57746 59.8153C4.57746 59.8153 4.57746 59.8153 4.57746 59.8153C4.57746 59.8153 4.57746 59.8153 4.57746 59.8153C4.57746 59.8153 4.57746 59.8153 4.57746 59.8153C4.57746 59.8153 4.57746 59.8153 4.57746 59.8153C4.57746 59.8153 4.57746 59.8153 4.57746 59.8153C4.57746 59.8153 4.57746 59.8153 4.57746 59.8153C4.57746 59.8153 4.57746 59.8153 4.57746 59.8153C4.57746 59.8153 4.57746 59.8153 4.57747 59.8153C4.57747 59.8153 4.57747 59.8153 4.57747 59.8153C4.57747 59.8153 4.57747 59.8153 4.57747 59.8153C4.57747 59.8153 4.57747 59.8153 4.57747 59.8153C4.57747 59.8153 4.57747 59.8153 4.57747 59.8153C4.57747 59.8153 4.57747 59.8153 4.57747 59.8153C4.57747 59.8153 4.57747 59.8153 4.57747 59.8153C4.57747 59.8153 4.57747 59.8153 4.57747 59.8153C4.57747 59.8153 4.57747 59.8153 4.57747 59.8153C4.57748 59.8153 4.57748 59.8153 4.57748 59.8153C4.57748 59.8153 4.57748 59.8153 4.57748 59.8153C4.57748 59.8153 4.57748 59.8153 4.57748 59.8153C4.57748 59.8153 4.57748 59.8153 4.57748 59.8153C4.57748 59.8153 4.57748 59.8153 4.57748 59.8153C4.57748 59.8153 4.57748 59.8153 4.57748 59.8153C4.57748 59.8153 4.57748 59.8153 4.57748 59.8153C4.57748 59.8153 4.57748 59.8153 4.57748 59.8153C4.57748 59.8153 4.57749 59.8153 4.57749 59.8153C4.57749 59.8153 4.57749 59.8153 4.57749 59.8153C4.57749 59.8153 4.57749 59.8153 4.57749 59.8153C4.57749 59.8153 4.57749 59.8153 4.57749 59.8153C4.57749 59.8153 4.57749 59.8153 4.57749 59.8153C4.57749 59.8153 4.57749 59.8153 4.57749 59.8153C4.57749 59.8153 4.57749 59.8153 4.57749 59.8153C4.57749 59.8153 4.57749 59.8153 4.57749 59.8153C4.57749 59.8153 4.57749 59.8153 4.57749 59.8153C4.5775 59.8153 4.5775 59.8153 4.5775 59.8153C4.5775 59.8153 4.5775 59.8153 4.5775 59.8153C4.5775 59.8153 4.5775 59.8153 4.5775 59.8153C4.5775 59.8153 4.5775 59.8153 4.5775 59.8153C4.5775 59.8153 4.5775 59.8153 4.5775 59.8153C4.5775 59.8153 4.5775 59.8153 4.5775 59.8153C4.5775 59.8153 4.5775 59.8153 4.5775 59.8153C4.5775 59.8153 4.5775 59.8153 4.5775 59.8153C4.5775 59.8153 4.57751 59.8153 4.57751 59.8153C4.57751 59.8153 4.57751 59.8153 4.57751 59.8153C4.57751 59.8153 4.57751 59.8153 4.57751 59.8153C4.57751 59.8153 4.57751 59.8153 4.57751 59.8153C4.57751 59.8153 4.57751 59.8153 4.57751 59.8153C4.57751 59.8153 4.57751 59.8153 4.57751 59.8153C4.57751 59.8153 4.57751 59.8153 4.57751 59.8153C4.57751 59.8153 4.57751 59.8153 4.57751 59.8153C4.57751 59.8153 4.57751 59.8153 4.57752 59.8153C4.57752 59.8153 4.57752 59.8153 4.57752 59.8153C4.57752 59.8153 4.57752 59.8153 4.57752 59.8153C4.57752 59.8153 4.57752 59.8153 4.57752 59.8153C4.57752 59.8153 4.57752 59.8153 4.57752 59.8153C4.57752 59.8153 4.57752 59.8153 4.57752 59.8153C4.57752 59.8153 4.57752 59.8153 4.57752 59.8153C4.57752 59.8153 4.57752 59.8153 4.57752 59.8153C4.57752 59.8153 4.57752 59.8153 4.57752 59.8153C4.57753 59.8153 4.57753 59.8153 4.57753 59.8153C4.57753 59.8153 4.57753 59.8153 4.57753 59.8153C4.57753 59.8153 4.57753 59.8153 4.57753 59.8153C4.57753 59.8153 4.57753 59.8153 4.57753 59.8153C4.57753 59.8153 4.57753 59.8153 4.57753 59.8153C4.57753 59.8153 4.57753 59.8153 4.57753 59.8153C4.57753 59.8153 4.57753 59.8153 4.57753 59.8153C4.57753 59.8153 4.57753 59.8153 4.57753 59.8153C4.57753 59.8153 4.57753 59.8153 4.57754 59.8153C4.57754 59.8153 4.57754 59.8153 4.57754 59.8153C4.57754 59.8153 4.57754 59.8153 4.57754 59.8153C4.57754 59.8153 4.57754 59.8153 4.57754 59.8153C4.57754 59.8153 4.57754 59.8153 4.57754 59.8153C4.57754 59.8153 4.57754 59.8153 4.57754 59.8153C4.57754 59.8153 4.57754 59.8153 4.57754 59.8153C4.57754 59.8153 4.57754 59.8153 4.57754 59.8153C4.57754 59.8153 4.57754 59.8153 4.57754 59.8153C4.57755 59.8153 4.57755 59.8153 4.57755 59.8153C4.57755 59.8153 4.57755 59.8153 4.57755 59.8153C4.57755 59.8153 4.57755 59.8153 4.57755 59.8153C4.57755 59.8153 4.57755 59.8153 4.57755 59.8153C4.57755 59.8153 4.57755 59.8153 4.57755 59.8153C4.57755 59.8153 4.57755 59.8153 4.57755 59.8153C4.57755 59.8153 4.57755 59.8153 4.57755 59.8153C4.57755 59.8153 4.57755 59.8153 4.57755 59.8153C4.57755 59.8153 4.57756 59.8153 4.57756 59.8153C4.57756 59.8153 4.57756 59.8153 4.57756 59.8153C4.57756 59.8153 4.57756 59.8153 4.57756 59.8153C4.57756 59.8153 4.57756 59.8153 4.57756 59.8153C4.57756 59.8153 4.57756 59.8153 4.57756 59.8153C4.57756 59.8153 4.57756 59.8153 4.57756 59.8153C4.57756 59.8153 4.57756 59.8153 4.57756 59.8153C4.57756 59.8153 4.57756 59.8153 4.57756 59.8153C4.57756 59.8153 4.57756 59.8153 4.57756 59.8153C4.57757 59.8153 4.57757 59.8153 4.57757 59.8153C4.57757 59.8153 4.57757 59.8153 4.57757 59.8153C4.57757 59.8153 4.57757 59.8153 4.57757 59.8153C4.57757 59.8153 4.57757 59.8153 4.57757 59.8153C4.57757 59.8153 4.57757 59.8153 4.57757 59.8153C4.57757 59.8153 4.57757 59.8153 4.57757 59.8153C4.57757 59.8153 4.57757 59.8153 4.57757 59.8153C4.57757 59.8153 4.57757 59.8153 4.57757 59.8153C4.57757 59.8153 4.57758 59.8153 4.57758 59.8153C4.57758 59.8153 4.57758 59.8153 4.57758 59.8153C4.57758 59.8153 4.57758 59.8153 4.57758 59.8153C4.57758 59.8153 4.57758 59.8153 4.57758 59.8153C4.57758 59.8153 4.57758 59.8153 4.57758 59.8153C4.57758 59.8153 4.57758 59.8153 4.57758 59.8153C4.57758 59.8153 4.57758 59.8153 4.57758 59.8153C4.57758 59.8153 4.57758 59.8153 4.57758 59.8153C4.57758 59.8153 4.57758 59.8153 4.57759 59.8153C4.57759 59.8153 4.57759 59.8153 4.57759 59.8153C4.57759 59.8153 4.57759 59.8153 4.57759 59.8153C4.57759 59.8153 4.57759 59.8153 4.57759 59.8153C4.57759 59.8153 4.57759 59.8153 4.57759 59.8153C4.57759 59.8153 4.57759 59.8153 4.57759 59.8153C4.57759 59.8153 4.57759 59.8153 4.57759 59.8153C4.57759 59.8153 4.57759 59.8153 4.57759 59.8153C4.57759 59.8153 4.57759 59.8153 4.57759 59.8153C4.57759 59.8153 4.5776 59.8153 4.5776 59.8153C4.5776 59.8153 4.5776 59.8153 4.5776 59.8153C4.5776 59.8153 4.5776 59.8153 4.5776 59.8153C4.5776 59.8153 4.5776 59.8153 4.5776 59.8153C4.5776 59.8153 4.5776 59.8153 4.5776 59.8153C4.5776 59.8153 4.5776 59.8153 4.5776 59.8153C4.5776 59.8153 4.5776 59.8153 4.5776 59.8153C4.5776 59.8153 4.5776 59.8153 4.5776 59.8153C4.5776 59.8153 4.5776 59.8153 4.57761 59.8153C4.57761 59.8153 4.57761 59.8153 4.57761 59.8153C4.57761 59.8153 4.57761 59.8153 4.57761 59.8153C4.57761 59.8153 4.57761 59.8153 4.57761 59.8153C4.57761 59.8153 4.57761 59.8153 4.57761 59.8153C4.57761 59.8153 4.57761 59.8153 4.57761 59.8153C4.57761 59.8153 4.57761 59.8153 4.57761 59.8153C4.57761 59.8153 4.57761 59.8153 4.57761 59.8153C4.57761 59.8153 4.57761 59.8153 4.57761 59.8153C4.57762 59.8153 4.57762 59.8153 4.57762 59.8153C4.57762 59.8153 4.57762 59.8153 4.57762 59.8153C4.57762 59.8153 4.57762 59.8153 4.57762 59.8153C4.57762 59.8153 4.57762 59.8153 4.57762 59.8153C4.57762 59.8153 4.57762 59.8153 4.57762 59.8153C4.57762 59.8153 4.57762 59.8153 4.57762 59.8153C4.57762 59.8153 4.57762 59.8153 4.57762 59.8153C4.57762 59.8153 4.57762 59.8153 4.57762 59.8153C4.57762 59.8153 4.57762 59.8153 4.57763 59.8153C4.57763 59.8153 4.57763 59.8153 4.57763 59.8153C4.57763 59.8153 4.57763 59.8153 4.57763 59.8153C4.57763 59.8153 4.57763 59.8153 4.57763 59.8153C4.57763 59.8153 4.57763 59.8153 4.57763 59.8153C4.57763 59.8153 4.57763 59.8153 4.57763 59.8153C4.57763 59.8153 4.57763 59.8153 4.57763 59.8153C4.57763 59.8153 4.57763 59.8153 4.57763 59.8153C4.57763 59.8153 4.57763 59.8153 4.57763 59.8153C4.57764 59.8153 4.57764 59.8153 4.57764 59.8153C4.57764 59.8153 4.57764 59.8153 4.57764 59.8153C4.57764 59.8153 4.57764 59.8153 4.57764 59.8153C4.57764 59.8153 4.57764 59.8153 4.57764 59.8153C4.57764 59.8153 4.57764 59.8153 4.57764 59.8153C4.57764 59.8153 4.57764 59.8153 4.57764 59.8153C4.57764 59.8153 4.57764 59.8153 4.57764 59.8153C4.57764 59.8153 4.57764 59.8153 4.57764 59.8153C4.57764 59.8153 4.57765 59.8153 4.57765 59.8153C4.57765 59.8153 4.57765 59.8153 4.57765 59.8153C4.57765 59.8153 4.57765 59.8153 4.57765 59.8153C4.57765 59.8153 4.57765 59.8153 4.57765 59.8153C4.57765 59.8153 4.57765 59.8153 4.57765 59.8153C4.57765 59.8153 4.57765 59.8153 4.57765 59.8153C4.57765 59.8153 4.57765 59.8153 4.57765 59.8153C4.57765 59.8153 4.57765 59.8153 4.57765 59.8153C4.57765 59.8153 4.57765 59.8153 4.57766 59.8153C4.57766 59.8153 4.57766 59.8153 4.57766 59.8153C4.57766 59.8153 4.57766 59.8153 4.57766 59.8153C4.57766 59.8153 4.57766 59.8153 4.57766 59.8153C4.57766 59.8153 4.57766 59.8153 4.57766 59.8153C4.57766 59.8153 4.57766 59.8152 4.57766 59.8152C4.57766 59.8152 4.57766 59.8152 4.57766 59.8152C4.57766 59.8152 4.57766 59.8152 4.57766 59.8152C4.57766 59.8152 4.57766 59.8152 4.57766 59.8152C4.57766 59.8152 4.57767 59.8152 4.57767 59.8152C4.57767 59.8152 4.57767 59.8152 4.57767 59.8152C4.57767 59.8152 4.57767 59.8152 4.57767 59.8152C4.57767 59.8152 4.57767 59.8152 4.57767 59.8152C4.57767 59.8152 4.57767 59.8152 4.57767 59.8152C4.57767 59.8152 4.57767 59.8152 4.57767 59.8152C4.57767 59.8152 4.57767 59.8152 4.57767 59.8152C4.57767 59.8152 4.57767 59.8152 4.57767 59.8152C4.57767 59.8152 4.57767 59.8152 4.57768 59.8152C4.57768 59.8152 4.57768 59.8152 4.57768 59.8152C4.57768 59.8152 4.57768 59.8152 4.57768 59.8152C4.57768 59.8152 4.57768 59.8152 4.57768 59.8152C4.57768 59.8152 4.57768 59.8152 4.57768 59.8152C4.57768 59.8152 4.57768 59.8152 4.57768 59.8152C4.57768 59.8152 4.57768 59.8152 4.57768 59.8152C4.57768 59.8152 4.57768 59.8152 4.57768 59.8152C4.57768 59.8152 4.57768 59.8152 4.57768 59.8152C4.57769 59.8152 4.57769 59.8152 4.57769 59.8152C4.57769 59.8152 4.57769 59.8152 4.57769 59.8152C4.57769 59.8152 4.57769 59.8152 4.57769 59.8152C4.57769 59.8152 4.57769 59.8152 4.57769 59.8152C4.57769 59.8152 4.57769 59.8152 4.57769 59.8152C4.57769 59.8152 4.57769 59.8152 4.57769 59.8152C4.57769 59.8152 4.57769 59.8152 4.57769 59.8152C4.57769 59.8152 4.57769 59.8152 4.57769 59.8152C4.57769 59.8152 4.57769 59.8152 4.5777 59.8152C4.5777 59.8152 4.5777 59.8152 4.5777 59.8152C4.5777 59.8152 4.5777 59.8152 4.5777 59.8152C4.5777 59.8152 4.5777 59.8152 4.5777 59.8152C4.5777 59.8152 4.5777 59.8152 4.5777 59.8152C4.5777 59.8152 4.5777 59.8152 4.5777 59.8152C4.5777 59.8152 4.5777 59.8152 4.5777 59.8152C4.5777 59.8152 4.5777 59.8152 4.5777 59.8152C4.5777 59.8152 4.5777 59.8152 4.5777 59.8152C4.57771 59.8152 4.57771 59.8152 4.57771 59.8152C4.57771 59.8152 4.57771 59.8152 4.57771 59.8152C4.57771 59.8152 4.57771 59.8152 4.57771 59.8152C4.57771 59.8152 4.57771 59.8152 4.57771 59.8152C4.57771 59.8152 4.57771 59.8152 4.57771 59.8152C4.57771 59.8152 4.57771 59.8152 4.57771 59.8152C4.57771 59.8152 4.57771 59.8152 4.57771 59.8152C4.57771 59.8152 4.57771 59.8152 4.57771 59.8152C4.57771 59.8152 4.57772 59.8152 4.57772 59.8152C4.57772 59.8152 4.57772 59.8152 4.57772 59.8152C4.57772 59.8152 4.57772 59.8152 4.57772 59.8152C4.57772 59.8152 4.57772 59.8152 4.57772 59.8152C4.57772 59.8152 4.57772 59.8152 4.57772 59.8152C4.57772 59.8152 4.57772 59.8152 4.57772 59.8152C4.57772 59.8152 4.57772 59.8152 4.57772 59.8152C4.57772 59.8152 4.57772 59.8152 4.57772 59.8152C4.57772 59.8152 4.57772 59.8152 4.57772 59.8152C4.57773 59.8152 4.57773 59.8152 4.57773 59.8152C4.57773 59.8152 4.57773 59.8152 4.57773 59.8152C4.57773 59.8152 4.57773 59.8152 4.57773 59.8152C4.57773 59.8152 4.57773 59.8152 4.57773 59.8152C4.57773 59.8152 4.57773 59.8152 4.57773 59.8152C4.57773 59.8152 4.57773 59.8152 4.57773 59.8152C4.57773 59.8152 4.57773 59.8152 4.57773 59.8152C4.57773 59.8152 4.57773 59.8152 4.57773 59.8152C4.57773 59.8152 4.57774 59.8152 4.57774 59.8152C4.57774 59.8152 4.57774 59.8152 4.57774 59.8152C4.57774 59.8152 4.57774 59.8152 4.57774 59.8152C4.57774 59.8152 4.57774 59.8152 4.57774 59.8152C4.57774 59.8152 4.57774 59.8152 4.57774 59.8152C4.57774 59.8152 4.57774 59.8152 4.57774 59.8152C4.57774 59.8152 4.57774 59.8152 4.57774 59.8152L3.67829 51.866C3.67829 51.866 3.67829 51.866 3.67829 51.866C3.67829 51.866 3.67829 51.866 3.67829 51.866C3.67829 51.866 3.67829 51.866 3.67829 51.866C3.67828 51.866 3.67828 51.866 3.67828 51.866C3.67828 51.866 3.67828 51.866 3.67828 51.866C3.67828 51.866 3.67828 51.866 3.67828 51.866C3.67828 51.866 3.67828 51.866 3.67828 51.866C3.67828 51.866 3.67828 51.866 3.67828 51.866C3.67828 51.866 3.67828 51.866 3.67828 51.866C3.67828 51.866 3.67828 51.866 3.67828 51.866C3.67828 51.866 3.67828 51.866 3.67828 51.866C3.67828 51.866 3.67827 51.866 3.67827 51.866C3.67827 51.866 3.67827 51.866 3.67827 51.866C3.67827 51.866 3.67827 51.866 3.67827 51.866C3.67827 51.866 3.67827 51.866 3.67827 51.866C3.67827 51.866 3.67827 51.866 3.67827 51.866C3.67827 51.866 3.67827 51.866 3.67827 51.866C3.67827 51.866 3.67827 51.866 3.67827 51.866C3.67827 51.866 3.67827 51.866 3.67827 51.866C3.67827 51.866 3.67827 51.866 3.67827 51.866C3.67826 51.866 3.67826 51.866 3.67826 51.866C3.67826 51.866 3.67826 51.866 3.67826 51.866C3.67826 51.866 3.67826 51.866 3.67826 51.866C3.67826 51.866 3.67826 51.866 3.67826 51.866C3.67826 51.866 3.67826 51.866 3.67826 51.866C3.67826 51.866 3.67826 51.866 3.67826 51.866C3.67826 51.866 3.67826 51.866 3.67826 51.866C3.67826 51.866 3.67826 51.866 3.67826 51.866C3.67826 51.866 3.67825 51.866 3.67825 51.866C3.67825 51.866 3.67825 51.866 3.67825 51.866C3.67825 51.866 3.67825 51.866 3.67825 51.866C3.67825 51.866 3.67825 51.866 3.67825 51.866C3.67825 51.866 3.67825 51.866 3.67825 51.866C3.67825 51.866 3.67825 51.866 3.67825 51.866C3.67825 51.866 3.67825 51.866 3.67825 51.866C3.67825 51.866 3.67825 51.866 3.67825 51.866C3.67825 51.866 3.67825 51.866 3.67824 51.866C3.67824 51.866 3.67824 51.866 3.67824 51.866C3.67824 51.866 3.67824 51.866 3.67824 51.866C3.67824 51.866 3.67824 51.866 3.67824 51.866C3.67824 51.866 3.67824 51.866 3.67824 51.866C3.67824 51.866 3.67824 51.866 3.67824 51.866C3.67824 51.866 3.67824 51.866 3.67824 51.866C3.67824 51.866 3.67824 51.866 3.67824 51.866C3.67824 51.866 3.67824 51.866 3.67824 51.866C3.67824 51.866 3.67823 51.866 3.67823 51.866C3.67823 51.866 3.67823 51.866 3.67823 51.866C3.67823 51.866 3.67823 51.866 3.67823 51.866C3.67823 51.866 3.67823 51.866 3.67823 51.866C3.67823 51.866 3.67823 51.866 3.67823 51.866C3.67823 51.866 3.67823 51.866 3.67823 51.866C3.67823 51.866 3.67823 51.866 3.67823 51.866C3.67823 51.866 3.67823 51.866 3.67823 51.866C3.67823 51.866 3.67823 51.866 3.67822 51.866C3.67822 51.866 3.67822 51.866 3.67822 51.866C3.67822 51.866 3.67822 51.866 3.67822 51.866C3.67822 51.866 3.67822 51.866 3.67822 51.866C3.67822 51.866 3.67822 51.866 3.67822 51.866C3.67822 51.866 3.67822 51.866 3.67822 51.866C3.67822 51.866 3.67822 51.866 3.67822 51.866C3.67822 51.866 3.67822 51.866 3.67822 51.866C3.67822 51.866 3.67822 51.866 3.67822 51.866C3.67821 51.866 3.67821 51.866 3.67821 51.866C3.67821 51.866 3.67821 51.866 3.67821 51.866C3.67821 51.866 3.67821 51.866 3.67821 51.866C3.67821 51.866 3.67821 51.866 3.67821 51.866C3.67821 51.866 3.67821 51.866 3.67821 51.866C3.67821 51.866 3.67821 51.866 3.67821 51.866C3.67821 51.866 3.67821 51.866 3.67821 51.866C3.67821 51.866 3.67821 51.866 3.67821 51.866C3.67821 51.866 3.67821 51.866 3.6782 51.866C3.6782 51.866 3.6782 51.866 3.6782 51.866C3.6782 51.866 3.6782 51.866 3.6782 51.866C3.6782 51.866 3.6782 51.866 3.6782 51.866C3.6782 51.866 3.6782 51.866 3.6782 51.866C3.6782 51.866 3.6782 51.866 3.6782 51.866C3.6782 51.866 3.6782 51.866 3.6782 51.866C3.6782 51.866 3.6782 51.866 3.6782 51.866C3.6782 51.866 3.6782 51.866 3.6782 51.866C3.67819 51.866 3.67819 51.866 3.67819 51.866C3.67819 51.866 3.67819 51.866 3.67819 51.866C3.67819 51.866 3.67819 51.866 3.67819 51.866C3.67819 51.866 3.67819 51.866 3.67819 51.866C3.67819 51.866 3.67819 51.866 3.67819 51.866C3.67819 51.866 3.67819 51.866 3.67819 51.866C3.67819 51.866 3.67819 51.866 3.67819 51.866C3.67819 51.866 3.67819 51.866 3.67819 51.866C3.67819 51.866 3.67818 51.866 3.67818 51.866C3.67818 51.866 3.67818 51.866 3.67818 51.866C3.67818 51.866 3.67818 51.866 3.67818 51.866C3.67818 51.866 3.67818 51.866 3.67818 51.866C3.67818 51.866 3.67818 51.866 3.67818 51.866C3.67818 51.866 3.67818 51.866 3.67818 51.866C3.67818 51.866 3.67818 51.866 3.67818 51.866C3.67818 51.866 3.67818 51.866 3.67818 51.866C3.67818 51.866 3.67818 51.866 3.67817 51.866C3.67817 51.866 3.67817 51.866 3.67817 51.866C3.67817 51.866 3.67817 51.866 3.67817 51.866C3.67817 51.866 3.67817 51.866 3.67817 51.866C3.67817 51.866 3.67817 51.866 3.67817 51.866C3.67817 51.866 3.67817 51.866 3.67817 51.866C3.67817 51.866 3.67817 51.866 3.67817 51.866C3.67817 51.866 3.67817 51.866 3.67817 51.866C3.67817 51.866 3.67817 51.866 3.67817 51.866C3.67817 51.866 3.67816 51.866 3.67816 51.866C3.67816 51.866 3.67816 51.866 3.67816 51.866C3.67816 51.866 3.67816 51.866 3.67816 51.866C3.67816 51.866 3.67816 51.866 3.67816 51.866C3.67816 51.866 3.67816 51.866 3.67816 51.866C3.67816 51.866 3.67816 51.866 3.67816 51.866C3.67816 51.866 3.67816 51.866 3.67816 51.866C3.67816 51.866 3.67816 51.866 3.67816 51.866C3.67816 51.866 3.67816 51.866 3.67815 51.866C3.67815 51.866 3.67815 51.866 3.67815 51.866C3.67815 51.866 3.67815 51.866 3.67815 51.866C3.67815 51.866 3.67815 51.866 3.67815 51.866C3.67815 51.866 3.67815 51.866 3.67815 51.866C3.67815 51.866 3.67815 51.866 3.67815 51.866C3.67815 51.866 3.67815 51.866 3.67815 51.866C3.67815 51.866 3.67815 51.866 3.67815 51.866C3.67815 51.866 3.67815 51.866 3.67815 51.866C3.67814 51.866 3.67814 51.866 3.67814 51.866C3.67814 51.866 3.67814 51.866 3.67814 51.866C3.67814 51.866 3.67814 51.866 3.67814 51.866C3.67814 51.866 3.67814 51.866 3.67814 51.866C3.67814 51.866 3.67814 51.866 3.67814 51.866C3.67814 51.866 3.67814 51.866 3.67814 51.866C3.67814 51.866 3.67814 51.866 3.67814 51.866C3.67814 51.866 3.67814 51.866 3.67814 51.866C3.67814 51.866 3.67814 51.866 3.67813 51.866C3.67813 51.866 3.67813 51.866 3.67813 51.866C3.67813 51.866 3.67813 51.866 3.67813 51.866C3.67813 51.866 3.67813 51.866 3.67813 51.866C3.67813 51.866 3.67813 51.866 3.67813 51.866C3.67813 51.866 3.67813 51.866 3.67813 51.866C3.67813 51.866 3.67813 51.866 3.67813 51.866C3.67813 51.866 3.67813 51.866 3.67813 51.866C3.67813 51.866 3.67813 51.866 3.67813 51.866C3.67812 51.866 3.67812 51.866 3.67812 51.866C3.67812 51.866 3.67812 51.866 3.67812 51.866C3.67812 51.866 3.67812 51.866 3.67812 51.866C3.67812 51.866 3.67812 51.866 3.67812 51.866C3.67812 51.866 3.67812 51.866 3.67812 51.866C3.67812 51.866 3.67812 51.866 3.67812 51.866C3.67812 51.866 3.67812 51.866 3.67812 51.866C3.67812 51.866 3.67812 51.866 3.67812 51.866C3.67812 51.866 3.67811 51.866 3.67811 51.866C3.67811 51.866 3.67811 51.866 3.67811 51.866C3.67811 51.866 3.67811 51.866 3.67811 51.866C3.67811 51.866 3.67811 51.866 3.67811 51.866C3.67811 51.866 3.67811 51.866 3.67811 51.866C3.67811 51.866 3.67811 51.866 3.67811 51.866C3.67811 51.866 3.67811 51.866 3.67811 51.866C3.67811 51.866 3.67811 51.866 3.67811 51.866C3.67811 51.866 3.67811 51.866 3.67811 51.866C3.6781 51.866 3.6781 51.866 3.6781 51.866C3.6781 51.866 3.6781 51.866 3.6781 51.866C3.6781 51.866 3.6781 51.866 3.6781 51.866C3.6781 51.866 3.6781 51.866 3.6781 51.866C3.6781 51.866 3.6781 51.866 3.6781 51.866C3.6781 51.866 3.6781 51.866 3.6781 51.866C3.6781 51.866 3.6781 51.866 3.6781 51.866C3.6781 51.866 3.6781 51.866 3.6781 51.866C3.6781 51.866 3.67809 51.866 3.67809 51.866C3.67809 51.866 3.67809 51.866 3.67809 51.866C3.67809 51.866 3.67809 51.866 3.67809 51.866C3.67809 51.866 3.67809 51.866 3.67809 51.866C3.67809 51.866 3.67809 51.866 3.67809 51.866C3.67809 51.866 3.67809 51.866 3.67809 51.866C3.67809 51.866 3.67809 51.866 3.67809 51.866C3.67809 51.866 3.67809 51.866 3.67809 51.866C3.67809 51.866 3.67809 51.866 3.67808 51.866C3.67808 51.866 3.67808 51.866 3.67808 51.866C3.67808 51.866 3.67808 51.866 3.67808 51.866C3.67808 51.866 3.67808 51.866 3.67808 51.866C3.67808 51.866 3.67808 51.866 3.67808 51.866C3.67808 51.866 3.67808 51.866 3.67808 51.866C3.67808 51.866 3.67808 51.866 3.67808 51.866C3.67808 51.866 3.67808 51.866 3.67808 51.866C3.67808 51.866 3.67808 51.866 3.67808 51.866C3.67808 51.866 3.67807 51.866 3.67807 51.866C3.67807 51.866 3.67807 51.866 3.67807 51.866C3.67807 51.866 3.67807 51.866 3.67807 51.866C3.67807 51.866 3.67807 51.866 3.67807 51.866C3.67807 51.866 3.67807 51.866 3.67807 51.866C3.67807 51.866 3.67807 51.866 3.67807 51.866C3.67807 51.866 3.67807 51.866 3.67807 51.866C3.67807 51.866 3.67807 51.866 3.67807 51.866C3.67807 51.866 3.67807 51.866 3.67806 51.866C3.67806 51.866 3.67806 51.866 3.67806 51.866C3.67806 51.866 3.67806 51.866 3.67806 51.866C3.67806 51.866 3.67806 51.866 3.67806 51.866C3.67806 51.866 3.67806 51.866 3.67806 51.866C3.67806 51.866 3.67806 51.866 3.67806 51.866C3.67806 51.866 3.67806 51.866 3.67806 51.866C3.67806 51.866 3.67806 51.866 3.67806 51.866C3.67806 51.866 3.67806 51.866 3.67806 51.866C3.67805 51.866 3.67805 51.866 3.67805 51.866C3.67805 51.866 3.67805 51.866 3.67805 51.866C3.67805 51.866 3.67805 51.866 3.67805 51.866C3.67805 51.866 3.67805 51.866 3.67805 51.866C3.67805 51.866 3.67805 51.866 3.67805 51.866C3.67805 51.866 3.67805 51.866 3.67805 51.866C3.67805 51.866 3.67805 51.866 3.67805 51.866C3.67805 51.866 3.67805 51.866 3.67805 51.866C3.67805 51.866 3.67805 51.866 3.67804 51.866C3.67804 51.866 3.67804 51.866 3.67804 51.866C3.67804 51.866 3.67804 51.866 3.67804 51.866C3.67804 51.866 3.67804 51.866 3.67804 51.866C3.67804 51.866 3.67804 51.866 3.67804 51.866C3.67804 51.866 3.67804 51.866 3.67804 51.866C3.67804 51.866 3.67804 51.866 3.67804 51.866C3.67804 51.866 3.67804 51.866 3.67804 51.866C3.67804 51.866 3.67804 51.866 3.67804 51.866C3.67803 51.866 3.67803 51.866 3.67803 51.866C3.67803 51.866 3.67803 51.866 3.67803 51.866C3.67803 51.866 3.67803 51.866 3.67803 51.866C3.67803 51.866 3.67803 51.866 3.67803 51.866C3.67803 51.866 3.67803 51.866 3.67803 51.866C3.67803 51.866 3.67803 51.866 3.67803 51.866C3.67803 51.866 3.67803 51.866 3.67803 51.866C3.67803 51.866 3.67803 51.866 3.67803 51.866C3.67803 51.866 3.67802 51.866 3.67802 51.866C3.67802 51.866 3.67802 51.866 3.67802 51.866C3.67802 51.866 3.67802 51.866 3.67802 51.866C3.67802 51.866 3.67802 51.866 3.67802 51.866C3.67802 51.866 3.67802 51.866 3.67802 51.866C3.67802 51.866 3.67802 51.866 3.67802 51.866C3.67802 51.866 3.67802 51.866 3.67802 51.866C3.67802 51.866 3.67802 51.866 3.67802 51.866C3.67802 51.866 3.67802 51.866 3.67801 51.866C3.67801 51.866 3.67801 51.866 3.67801 51.866C3.67801 51.866 3.67801 51.866 3.67801 51.866C3.67801 51.866 3.67801 51.866 3.67801 51.866C3.67801 51.866 3.67801 51.866 3.67801 51.866C3.67801 51.866 3.67801 51.866 3.67801 51.866C3.67801 51.866 3.67801 51.866 3.67801 51.866C3.67801 51.866 3.67801 51.866 3.67801 51.866C3.67801 51.866 3.67801 51.866 3.67801 51.866C3.67801 51.866 3.678 51.866 3.678 51.866C3.678 51.866 3.678 51.866 3.678 51.866C3.678 51.866 3.678 51.866 3.678 51.866C3.678 51.866 3.678 51.866 3.678 51.866C3.678 51.866 3.678 51.866 3.678 51.866C3.678 51.866 3.678 51.866 3.678 51.866C3.678 51.866 3.678 51.866 3.678 51.866C3.678 51.866 3.678 51.866 3.678 51.866C3.678 51.866 3.678 51.866 3.67799 51.866C3.67799 51.866 3.67799 51.866 3.67799 51.866C3.67799 51.866 3.67799 51.866 3.67799 51.866C3.67799 51.866 3.67799 51.866 3.67799 51.866C3.67799 51.866 3.67799 51.866 3.67799 51.866C3.67799 51.866 3.67799 51.866 3.67799 51.866C3.67799 51.866 3.67799 51.866 3.67799 51.866C3.67799 51.866 3.67799 51.866 3.67799 51.866C3.67799 51.866 3.67799 51.866 3.67799 51.866C3.67798 51.866 3.67798 51.866 3.67798 51.866C3.67798 51.866 3.67798 51.866 3.67798 51.866C3.67798 51.866 3.67798 51.866 3.67798 51.866C3.67798 51.866 3.67798 51.866 3.67798 51.866C3.67798 51.866 3.67798 51.866 3.67798 51.866C3.67798 51.866 3.67798 51.866 3.67798 51.866C3.67798 51.866 3.67798 51.866 3.67798 51.866C3.67798 51.866 3.67798 51.866 3.67798 51.866C3.67798 51.866 3.67798 51.866 3.67797 51.866C3.67797 51.866 3.67797 51.866 3.67797 51.866C3.67797 51.866 3.67797 51.866 3.67797 51.866C3.67797 51.866 3.67797 51.866 3.67797 51.866C3.67797 51.866 3.67797 51.866 3.67797 51.866C3.67797 51.866 3.67797 51.866 3.67797 51.866C3.67797 51.866 3.67797 51.866 3.67797 51.866C3.67797 51.866 3.67797 51.866 3.67797 51.866C3.67797 51.866 3.67797 51.866 3.67797 51.866C3.67796 51.866 3.67796 51.866 3.67796 51.866C3.67796 51.866 3.67796 51.866 3.67796 51.866C3.67796 51.866 3.67796 51.866 3.67796 51.866C3.67796 51.866 3.67796 51.866 3.67796 51.866C3.67796 51.866 3.67796 51.866 3.67796 51.866C3.67796 51.866 3.67796 51.866 3.67796 51.866C3.67796 51.866 3.67796 51.866 3.67796 51.866C3.67796 51.866 3.67796 51.866 3.67796 51.866C3.67796 51.866 3.67795 51.866 3.67795 51.866C3.67795 51.866 3.67795 51.866 3.67795 51.866C3.67795 51.866 3.67795 51.866 3.67795 51.866C3.67795 51.866 3.67795 51.866 3.67795 51.866C3.67795 51.866 3.67795 51.866 3.67795 51.866C3.67795 51.866 3.67795 51.866 3.67795 51.866C3.67795 51.866 3.67795 51.866 3.67795 51.866C3.67795 51.866 3.67795 51.866 3.67795 51.866C3.67795 51.866 3.67795 51.866 3.67795 51.866C3.67794 51.866 3.67794 51.866 3.67794 51.866C3.67794 51.866 3.67794 51.866 3.67794 51.866C3.67794 51.866 3.67794 51.866 3.67794 51.866C3.67794 51.866 3.67794 51.866 3.67794 51.866C3.67794 51.866 3.67794 51.866 3.67794 51.866C3.67794 51.866 3.67794 51.866 3.67794 51.866C3.67794 51.866 3.67794 51.866 3.67794 51.866C3.67794 51.866 3.67794 51.866 3.67794 51.866C3.67794 51.866 3.67793 51.866 3.67793 51.866C3.67793 51.866 3.67793 51.866 3.67793 51.866C3.67793 51.866 3.67793 51.866 3.67793 51.866C3.67793 51.866 3.67793 51.866 3.67793 51.866C3.67793 51.866 3.67793 51.866 3.67793 51.866C3.67793 51.866 3.67793 51.866 3.67793 51.866C3.67793 51.866 3.67793 51.866 3.67793 51.866C3.67793 51.866 3.67793 51.866 3.67793 51.866C3.67793 51.866 3.67793 51.866 3.67792 51.866C3.67792 51.866 3.67792 51.866 3.67792 51.866C3.67792 51.866 3.67792 51.866 3.67792 51.866C3.67792 51.866 3.67792 51.866 3.67792 51.866C3.67792 51.866 3.67792 51.866 3.67792 51.866C3.67792 51.866 3.67792 51.866 3.67792 51.866C3.67792 51.866 3.67792 51.866 3.67792 51.866C3.67792 51.866 3.67792 51.866 3.67792 51.866C3.67792 51.866 3.67792 51.866 3.67792 51.866C3.67792 51.866 3.67791 51.866 3.67791 51.866C3.67791 51.866 3.67791 51.866 3.67791 51.866C3.67791 51.866 3.67791 51.866 3.67791 51.866C3.67791 51.866 3.67791 51.866 3.67791 51.866C3.67791 51.866 3.67791 51.866 3.67791 51.866C3.67791 51.866 3.67791 51.866 3.67791 51.866C3.67791 51.866 3.67791 51.866 3.67791 51.866C3.67791 51.866 3.67791 51.866 3.67791 51.866C3.67791 51.866 3.67791 51.866 3.6779 51.866C3.6779 51.866 3.6779 51.866 3.6779 51.866C3.6779 51.866 3.6779 51.866 3.6779 51.866C3.6779 51.866 3.6779 51.866 3.6779 51.866C3.6779 51.866 3.6779 51.866 3.6779 51.866C3.6779 51.866 3.6779 51.866 3.6779 51.866C3.6779 51.866 3.6779 51.866 3.6779 51.866C3.6779 51.866 3.6779 51.866 3.6779 51.866C3.6779 51.866 3.6779 51.866 3.6779 51.866C3.67789 51.866 3.67789 51.866 3.67789 51.866C3.67789 51.866 3.67789 51.866 3.67789 51.866C3.67789 51.866 3.67789 51.866 3.67789 51.866C3.67789 51.866 3.67789 51.866 3.67789 51.866C3.67789 51.866 3.67789 51.866 3.67789 51.866C3.67789 51.866 3.67789 51.866 3.67789 51.866C3.67789 51.866 3.67789 51.866 3.67789 51.866C3.67789 51.866 3.67789 51.866 3.67789 51.866C3.67789 51.866 3.67788 51.866 3.67788 51.866C3.67788 51.866 3.67788 51.866 3.67788 51.866C3.67788 51.866 3.67788 51.866 3.67788 51.866C3.67788 51.866 3.67788 51.866 3.67788 51.866C3.67788 51.866 3.67788 51.866 3.67788 51.866C3.67788 51.866 3.67788 51.866 3.67788 51.866C3.67788 51.866 3.67788 51.866 3.67788 51.866C3.67788 51.866 3.67788 51.866 3.67788 51.866C3.67788 51.866 3.67788 51.866 3.67788 51.866C3.67787 51.866 3.67787 51.866 3.67787 51.866C3.67787 51.866 3.67787 51.866 3.67787 51.866C3.67787 51.866 3.67787 51.866 3.67787 51.866C3.67787 51.866 3.67787 51.866 3.67787 51.866C3.67787 51.866 3.67787 51.866 3.67787 51.866C3.67787 51.866 3.67787 51.866 3.67787 51.866C3.67787 51.866 3.67787 51.866 3.67787 51.866C3.67787 51.866 3.67787 51.866 3.67787 51.866C3.67787 51.866 3.67786 51.866 3.67786 51.866C3.67786 51.866 3.67786 51.866 3.67786 51.866C3.67786 51.866 3.67786 51.866 3.67786 51.866C3.67786 51.866 3.67786 51.866 3.67786 51.866C3.67786 51.866 3.67786 51.866 3.67786 51.866C3.67786 51.866 3.67786 51.866 3.67786 51.866C3.67786 51.866 3.67786 51.866 3.67786 51.866C3.67786 51.866 3.67786 51.866 3.67786 51.866C3.67786 51.866 3.67786 51.866 3.67785 51.866C3.67785 51.866 3.67785 51.866 3.67785 51.866C3.67785 51.866 3.67785 51.866 3.67785 51.866C3.67785 51.866 3.67785 51.866 3.67785 51.866C3.67785 51.866 3.67785 51.866 3.67785 51.866C3.67785 51.866 3.67785 51.866 3.67785 51.866C3.67785 51.866 3.67785 51.866 3.67785 51.866C3.67785 51.866 3.67785 51.866 3.67785 51.866C3.67785 51.866 3.67785 51.866 3.67785 51.866C3.67785 51.866 3.67784 51.866 3.67784 51.866C3.67784 51.866 3.67784 51.866 3.67784 51.866C3.67784 51.866 3.67784 51.866 3.67784 51.866C3.67784 51.866 3.67784 51.866 3.67784 51.866C3.67784 51.866 3.67784 51.866 3.67784 51.866C3.67784 51.866 3.67784 51.866 3.67784 51.866C3.67784 51.866 3.67784 51.866 3.67784 51.866C3.67784 51.866 3.67784 51.866 3.67784 51.866C3.67784 51.866 3.67784 51.866 3.67783 51.866C3.67783 51.866 3.67783 51.866 3.67783 51.866C3.67783 51.866 3.67783 51.866 3.67783 51.866C3.67783 51.866 3.67783 51.866 3.67783 51.866C3.67783 51.866 3.67783 51.866 3.67783 51.866C3.67783 51.866 3.67783 51.866 3.67783 51.866C3.67783 51.866 3.67783 51.866 3.67783 51.866C3.67783 51.866 3.67783 51.866 3.67783 51.866C3.67783 51.866 3.67783 51.866 3.67783 51.866C3.67782 51.866 3.67782 51.866 3.67782 51.866C3.67782 51.866 3.67782 51.866 3.67782 51.866C3.67782 51.866 3.67782 51.866 3.67782 51.866C3.67782 51.866 3.67782 51.866 3.67782 51.866C3.67782 51.866 3.67782 51.866 3.67782 51.866C3.67782 51.866 3.67782 51.866 3.67782 51.866C3.67782 51.866 3.67782 51.866 3.67782 51.866C3.67782 51.866 3.67782 51.866 3.67782 51.866C3.67782 51.866 3.67782 51.866 3.67781 51.866C3.67781 51.866 3.67781 51.866 3.67781 51.866C3.67781 51.866 3.67781 51.866 3.67781 51.866C3.67781 51.866 3.67781 51.866 3.67781 51.866C3.67781 51.866 3.67781 51.866 3.67781 51.866C3.67781 51.866 3.67781 51.866 3.67781 51.866C3.67781 51.866 3.67781 51.866 3.67781 51.866C3.67781 51.866 3.67781 51.866 3.67781 51.866C3.67781 51.866 3.67781 51.866 3.67781 51.866C3.6778 51.866 3.6778 51.866 3.6778 51.866C3.6778 51.866 3.6778 51.866 3.6778 51.866C3.6778 51.866 3.6778 51.866 3.6778 51.866C3.6778 51.866 3.6778 51.866 3.6778 51.866C3.6778 51.866 3.6778 51.866 3.6778 51.866C3.6778 51.866 3.6778 51.866 3.6778 51.866C3.6778 51.866 3.6778 51.866 3.6778 51.866C3.6778 51.866 3.6778 51.866 3.6778 51.866C3.6778 51.866 3.67779 51.866 3.67779 51.866C3.67779 51.866 3.67779 51.866 3.67779 51.866C3.67779 51.866 3.67779 51.866 3.67779 51.866C3.67779 51.866 3.67779 51.866 3.67779 51.866C3.67779 51.866 3.67779 51.866 3.67779 51.866C3.67779 51.866 3.67779 51.866 3.67779 51.866C3.67779 51.866 3.67779 51.866 3.67779 51.866C3.67779 51.866 3.67779 51.866 3.67779 51.866C3.67779 51.866 3.67779 51.866 3.67779 51.866C3.67778 51.866 3.67778 51.866 3.67778 51.866C3.67778 51.866 3.67778 51.866 3.67778 51.866C3.67778 51.866 3.67778 51.866 3.67778 51.866C3.67778 51.866 3.67778 51.866 3.67778 51.866C3.67778 51.866 3.67778 51.866 3.67778 51.866C3.67778 51.866 3.67778 51.866 3.67778 51.866C3.67778 51.866 3.67778 51.866 3.67778 51.866C3.67778 51.866 3.67778 51.866 3.67778 51.866C3.67778 51.866 3.67777 51.866 3.67777 51.866C3.67777 51.866 3.67777 51.866 3.67777 51.866C3.67777 51.866 3.67777 51.866 3.67777 51.866C3.67777 51.866 3.67777 51.866 3.67777 51.866C3.67777 51.866 3.67777 51.866 3.67777 51.866C3.67777 51.866 3.67777 51.866 3.67777 51.866C3.67777 51.866 3.67777 51.866 3.67777 51.866C3.67777 51.866 3.67777 51.866 3.67777 51.866C3.67777 51.866 3.67777 51.866 3.67776 51.866C3.67776 51.866 3.67776 51.866 3.67776 51.866C3.67776 51.866 3.67776 51.866 3.67776 51.866C3.67776 51.866 3.67776 51.866 3.67776 51.866C3.67776 51.866 3.67776 51.866 3.67776 51.866C3.67776 51.866 3.67776 51.866 3.67776 51.866C3.67776 51.866 3.67776 51.866 3.67776 51.866C3.67776 51.866 3.67776 51.866 3.67776 51.866C3.67776 51.866 3.67776 51.866 3.67776 51.866C3.67776 51.866 3.67775 51.866 3.67775 51.866C3.67775 51.866 3.67775 51.866 3.67775 51.866C3.67775 51.866 3.67775 51.866 3.67775 51.866C3.67775 51.866 3.67775 51.866 3.67775 51.866C3.67775 51.866 3.67775 51.866 3.67775 51.866C3.67775 51.866 3.67775 51.866 3.67775 51.866C3.67775 51.866 3.67775 51.866 3.67775 51.866C3.67775 51.866 3.67775 51.866 3.67775 51.866C3.67775 51.866 3.67775 51.866 3.67774 51.866C3.67774 51.866 3.67774 51.866 3.67774 51.866C3.67774 51.866 3.67774 51.866 3.67774 51.866C3.67774 51.866 3.67774 51.866 3.67774 51.866C3.67774 51.866 3.67774 51.866 3.67774 51.866C3.67774 51.866 3.67774 51.866 3.67774 51.866C3.67774 51.866 3.67774 51.866 3.67774 51.866C3.67774 51.866 3.67774 51.866 3.67774 51.866C3.67774 51.866 3.67774 51.866 3.67774 51.866C3.67773 51.866 3.67773 51.866 3.67773 51.866C3.67773 51.866 3.67773 51.866 3.67773 51.866C3.67773 51.866 3.67773 51.866 3.67773 51.866C3.67773 51.866 3.67773 51.866 3.67773 51.866C3.67773 51.866 3.67773 51.866 3.67773 51.866C3.67773 51.866 3.67773 51.866 3.67773 51.866C3.67773 51.866 3.67773 51.866 3.67773 51.866C3.67773 51.866 3.67773 51.866 3.67773 51.866C3.67773 51.866 3.67772 51.866 3.67772 51.866C3.67772 51.866 3.67772 51.866 3.67772 51.866C3.67772 51.866 3.67772 51.866 3.67772 51.866C3.67772 51.866 3.67772 51.866 3.67772 51.866C3.67772 51.866 3.67772 51.866 3.67772 51.866C3.67772 51.866 3.67772 51.866 3.67772 51.866C3.67772 51.866 3.67772 51.866 3.67772 51.866C3.67772 51.866 3.67772 51.866 3.67772 51.866C3.67772 51.866 3.67772 51.866 3.67772 51.866C3.67771 51.866 3.67771 51.866 3.67771 51.866C3.67771 51.866 3.67771 51.866 3.67771 51.866C3.67771 51.866 3.67771 51.866 3.67771 51.866C3.67771 51.866 3.67771 51.866 3.67771 51.866C3.67771 51.866 3.67771 51.866 3.67771 51.866C3.67771 51.866 3.67771 51.866 3.67771 51.866C3.67771 51.866 3.67771 51.866 3.67771 51.866C3.67771 51.866 3.67771 51.866 3.67771 51.866C3.67771 51.866 3.6777 51.866 3.6777 51.866C3.6777 51.866 3.6777 51.866 3.6777 51.866C3.6777 51.866 3.6777 51.866 3.6777 51.866C3.6777 51.866 3.6777 51.866 3.6777 51.866C3.6777 51.866 3.6777 51.866 3.6777 51.866C3.6777 51.866 3.6777 51.866 3.6777 51.866C3.6777 51.866 3.6777 51.866 3.6777 51.866C3.6777 51.866 3.6777 51.866 3.6777 51.866C3.6777 51.866 3.6777 51.866 3.67769 51.866C3.67769 51.866 3.67769 51.866 3.67769 51.866C3.67769 51.866 3.67769 51.866 3.67769 51.866C3.67769 51.866 3.67769 51.866 3.67769 51.866C3.67769 51.866 3.67769 51.866 3.67769 51.866C3.67769 51.866 3.67769 51.866 3.67769 51.866C3.67769 51.866 3.67769 51.866 3.67769 51.866C3.67769 51.866 3.67769 51.866 3.67769 51.866C3.67769 51.866 3.67769 51.866 3.67769 51.866C3.67769 51.866 3.67768 51.866 3.67768 51.866C3.67768 51.866 3.67768 51.866 3.67768 51.866C3.67768 51.866 3.67768 51.866 3.67768 51.866L4.57714 59.8153ZM8.12625 82.0003L8.12741 55.8408L0.127409 55.8405L0.126253 82L8.12625 82.0003ZM8.0898 85.3698C8.10992 83.831 8.12625 82.5898 8.12625 82.0002L0.126253 82.0002C0.126253 82.5222 0.111098 83.6888 0.090486 85.2652L8.0898 85.3698ZM8.11147 101.256C7.91666 99.123 8.02116 90.6193 8.0898 85.3698L0.090486 85.2652C0.0264615 90.1617 -0.0998124 99.3071 0.144621 101.984L8.11147 101.256ZM18.1899 109.065C11.903 109.105 8.45529 105.021 8.11147 101.256L0.144621 101.984C0.889068 110.136 8.05235 117.13 18.2416 117.065L18.1899 109.065ZM22.8682 105.884C22.4419 107.33 22.2211 107.832 21.8692 108.18C21.6622 108.386 20.8879 109.047 18.1899 109.065L18.2416 117.065C22.2616 117.039 25.34 116.005 27.502 113.861C29.5191 111.861 30.1839 109.36 30.5415 108.147L22.8682 105.884ZM29.5952 99.7995C28.6001 99.7995 27.5631 99.9895 26.5785 100.492C25.586 100.999 24.8676 101.711 24.3554 102.432C23.4727 103.674 23.0677 105.208 22.8682 105.884L30.5415 108.147C30.6804 107.676 30.7644 107.398 30.8489 107.172C30.9311 106.952 30.9504 106.962 30.8773 107.065C30.7801 107.201 30.5657 107.439 30.2161 107.617C29.8745 107.792 29.6194 107.799 29.5952 107.799V99.7995ZM37.5547 108.687C37.4056 107.53 37.1803 105.345 36.2119 103.553C35.6577 102.527 34.8144 101.51 33.5559 100.785C32.3154 100.071 30.9496 99.7995 29.5952 99.7995V107.799C29.889 107.799 29.8014 107.855 29.5623 107.717C29.3053 107.569 29.1867 107.38 29.1737 107.356C29.1735 107.355 29.1799 107.367 29.1913 107.394C29.2028 107.422 29.2182 107.462 29.2364 107.517C29.2738 107.631 29.3162 107.787 29.361 108.001C29.4564 108.456 29.5262 108.98 29.6204 109.71L37.5547 108.687ZM39.3487 111.789C38.5743 111.789 38.2735 111.654 38.2235 111.629C38.2118 111.624 38.2164 111.639 38.1796 111.579C38.1112 111.469 37.9915 111.212 37.8692 110.678C37.7444 110.133 37.662 109.519 37.5547 108.687L29.6204 109.71C29.7956 111.069 30.0601 113.666 31.3807 115.795C32.119 116.986 33.18 118.052 34.6448 118.784C36.0714 119.498 37.6674 119.789 39.3487 119.789L39.3487 111.789ZM45.9426 108.817C44.9457 109.903 44.361 110.501 43.5553 110.95C42.8221 111.36 41.619 111.789 39.3487 111.789L39.3487 119.789C42.7017 119.789 45.3046 119.136 47.4537 117.936C49.5303 116.778 50.9043 115.242 51.836 114.227L45.9426 108.817ZM52.1657 104.367C48.9727 105.437 47.1523 107.499 45.9426 108.817L51.836 114.227C53.0878 112.863 53.68 112.297 54.7087 111.952L52.1657 104.367ZM58.1953 103.556C56.8839 103.643 55.7293 103.741 54.7831 103.855C53.9338 103.957 52.9516 104.103 52.1657 104.367L54.7087 111.952C54.6408 111.975 54.8934 111.899 55.7376 111.798C56.4848 111.708 57.4823 111.621 58.7236 111.539L58.1953 103.556ZM154.592 103.548H58.4594V111.548H154.592V103.548ZM159.736 107.187C158.909 105.644 157.676 104.584 156.309 103.935L152.876 111.16C152.88 111.163 152.842 111.145 152.789 111.095C152.733 111.044 152.699 110.993 152.684 110.966L159.736 107.187ZM160.329 108.326C160.135 107.949 159.933 107.555 159.736 107.187L152.684 110.966C152.842 111.261 153.011 111.59 153.212 111.981L160.329 108.326ZM169.297 116.047C164.592 116.077 162.472 112.499 160.328 108.326L153.212 111.981C155.03 115.52 159.162 124.112 169.349 124.046L169.297 116.047ZM170.36 112.446C170.29 113.345 170.232 114.068 170.128 114.723C170.023 115.379 169.901 115.757 169.803 115.961C169.725 116.123 169.719 116.063 169.828 115.995C169.929 115.932 169.841 116.043 169.297 116.047L169.349 124.046C171.038 124.035 172.661 123.662 174.08 122.771C175.508 121.876 176.429 120.646 177.016 119.422C178.07 117.223 178.219 114.576 178.336 113.061L170.36 112.446ZM173.575 104.305C171.795 105.591 171.138 107.479 170.841 108.729C170.538 110.007 170.439 111.423 170.36 112.446L178.336 113.061C178.38 112.492 178.417 112.015 178.467 111.574C178.516 111.134 178.569 110.813 178.625 110.575C178.761 110.001 178.803 110.397 178.26 110.79L173.575 104.305ZM180.245 103.548H175.917V111.548H180.245V103.548ZM189.371 119.917C189.356 117.65 189.226 114.499 188.346 111.586C187.46 108.655 185.59 105.286 181.654 103.804L178.835 111.291C179.484 111.535 180.163 112.164 180.687 113.9C181.217 115.653 181.357 117.837 181.371 119.968L189.371 119.917ZM194.559 120.285C194.324 120.722 194.04 120.92 193.649 121.036C193.169 121.178 192.449 121.199 191.602 120.973C190.754 120.747 190.045 120.342 189.619 119.956C189.15 119.53 189.368 119.477 189.371 119.917L181.371 119.968C181.387 122.559 182.812 124.581 184.243 125.88C185.717 127.218 187.601 128.185 189.539 128.703C193.273 129.699 198.813 129.253 201.601 124.081L194.559 120.285ZM195.974 114.553C195.593 117.137 195.282 118.945 194.559 120.285L201.601 124.081C203.115 121.273 203.556 117.976 203.889 115.72L195.974 114.553ZM201.059 104.087C198.78 105.409 197.668 107.52 197.063 109.314C196.478 111.05 196.202 113.012 195.974 114.553L203.889 115.72C204.145 113.984 204.334 112.791 204.644 111.87C204.786 111.449 204.913 111.217 204.995 111.1C205.033 111.045 205.058 111.021 205.065 111.014C205.071 111.008 205.072 111.008 205.072 111.008L201.059 104.087ZM208.87 103.548H203.066V111.548H208.87V103.548ZM216.575 111.92C215.839 109.944 214.528 105.877 210.638 103.96L207.102 111.136C207.319 111.243 207.578 111.443 207.916 112.011C208.3 112.656 208.615 113.469 209.077 114.71L216.575 111.92ZM219.902 115.719C219.188 115.724 218.802 115.606 218.607 115.521C218.424 115.44 218.266 115.327 218.09 115.122C217.609 114.565 217.233 113.69 216.575 111.92L209.077 114.71C209.616 116.158 210.438 118.5 212.032 120.348C213.885 122.496 216.506 123.742 219.954 123.719L219.902 115.719ZM224.732 111.236C223.778 112.978 223.157 114.046 222.401 114.782C221.843 115.326 221.188 115.711 219.902 115.719L219.954 123.719C223.404 123.697 226.014 122.429 227.982 120.514C229.753 118.79 230.92 116.592 231.749 115.078L224.732 111.236ZM230.918 104.03C227.548 105.856 225.82 109.249 224.732 111.236L231.749 115.078C233.101 112.61 233.802 111.567 234.729 111.065L230.918 104.03ZM240.269 103.548H232.823V111.548H240.269V103.548ZM246.641 107.086C245.475 106.133 243.905 104.823 241.95 103.918L238.588 111.177C239.474 111.587 240.28 112.22 241.577 113.28L246.641 107.086ZM253.237 110.365C250.382 110.085 248.821 108.869 246.641 107.086L241.577 113.28C243.852 115.139 247.03 117.796 252.458 118.327L253.237 110.365ZM257.824 108.429C257.017 109.572 256.742 109.872 256.396 110.073C256.145 110.219 255.38 110.575 253.237 110.365L252.458 118.327C255.643 118.639 258.252 118.248 260.418 116.988C262.488 115.784 263.671 114.019 264.359 113.044L257.824 108.429ZM262.407 104.023C259.942 105.345 258.62 107.303 257.824 108.429L264.359 113.044C265.212 111.836 265.583 111.397 266.188 111.072L262.407 104.023ZM288.03 103.548H264.298V111.548H288.03V103.548ZM288.483 103.572C288.451 103.569 288.419 103.566 288.387 103.564L287.672 111.532C287.702 111.534 287.733 111.537 287.764 111.54L288.483 103.572ZM291.226 104.899L290.571 104.393L285.675 110.719L286.33 111.226L291.226 104.899ZM294.494 109.684C293.81 108.42 292.822 106.524 291.692 105.323L285.864 110.803C285.864 110.802 285.878 110.818 285.909 110.856C285.939 110.894 285.978 110.946 286.028 111.017C286.131 111.162 286.254 111.353 286.404 111.602C286.712 112.114 287.045 112.728 287.459 113.492L294.494 109.684ZM299.301 115.625C299.051 115.645 298.515 115.609 297.499 114.454C296.454 113.265 295.532 111.601 294.494 109.684L287.459 113.492C288.399 115.229 289.739 117.744 291.492 119.738C293.275 121.765 296.075 123.914 299.95 123.598L299.301 115.625ZM307.662 108.692C307.136 110.633 306.701 112.03 305.72 113.149C304.882 114.107 303.221 115.306 299.301 115.625L299.95 123.598C305.455 123.15 309.238 121.276 311.739 118.42C314.097 115.727 314.899 112.572 315.383 110.788L307.662 108.692ZM308.572 105.914C308.149 106.859 307.864 107.951 307.662 108.692L315.383 110.788C315.637 109.852 315.761 109.435 315.875 109.181L308.572 105.914ZM314 103.548H312.223V111.548H314V103.548ZM335 82.5475C335 94.1455 325.598 103.548 314 103.548V111.548C330.016 111.548 343 98.5638 343 82.5475H335ZM335 39V82.5475H343V39H335ZM304 8C321.121 8 335 21.8792 335 39H343C343 17.4609 325.539 0 304 0V8ZM39.128 8H304V0H39.128V8Z" fill="#F09F57"/>
<path fill-rule="evenodd" clip-rule="evenodd" d="M39.128 4C19.798 4 4.12802 19.67 4.12802 39V55.8406C4.12781 55.8406 4.12761 55.8406 4.12741 55.8407L4.12625 82.0002C4.12625 82.556 4.11051 83.7599 4.09014 85.3175C4.02381 90.3905 3.90843 99.2151 4.12805 101.62C4.67218 107.578 9.97765 113.118 18.2157 113.065C24.9338 113.021 25.9209 109.674 26.7049 107.016C27.2236 105.257 27.6534 103.799 29.5952 103.799C32.8915 103.799 33.2284 106.412 33.5876 109.198C33.9978 112.381 34.4372 115.789 39.3487 115.789C44.972 115.789 46.9606 113.623 48.8893 111.522C50.1201 110.181 51.3264 108.867 53.4372 108.159C54.1552 107.919 55.9068 107.716 58.4594 107.548H154.592C155.261 107.865 155.823 108.355 156.21 109.077C156.388 109.408 156.573 109.77 156.77 110.153C158.751 114.009 161.877 120.095 169.323 120.047C173.788 120.018 174.08 116.226 174.348 112.753C174.519 110.532 174.681 108.441 175.917 107.548H180.245C184.829 109.274 185.343 115.544 185.371 119.943C185.398 124.243 194.972 127.949 198.08 122.183C199.198 120.109 199.575 117.557 199.932 115.136C200.415 111.86 200.862 108.825 203.066 107.548H208.87C211.086 108.64 211.956 110.977 212.826 113.315C214.023 116.532 215.221 119.75 219.928 119.719C224.664 119.689 226.458 116.413 228.24 113.157C229.46 110.93 230.675 108.711 232.823 107.548H240.269C241.69 108.205 242.878 109.177 244.109 110.183C246.337 112.004 248.706 113.941 252.847 114.346C258.175 114.867 259.597 112.854 261.092 110.737C261.916 109.57 262.763 108.371 264.298 107.548H288.03C288.061 107.55 288.092 107.553 288.123 107.556L288.778 108.063C289.462 108.79 290.172 110.102 290.977 111.588C292.954 115.241 295.501 119.947 299.626 119.612C309.051 118.844 310.512 113.464 311.523 109.74C311.75 108.901 311.955 108.147 312.223 107.548H314C327.807 107.548 339 96.3547 339 82.5475V39C339 19.67 323.33 4 304 4H39.128Z" fill="#D77824"/>
<path d="M8.72461 98.8271C8.81801 99.5909 9.44364 100.655 9.75713 101.36C10.2734 102.204 10.952 102.936 11.2268 103.442C12.3384 104.737 13.371 105.582 14.6662 106.318" stroke="#F09F57" stroke-width="3.5" stroke-linecap="round"/>
<path d="M324.23 98.124C325.181 97.8018 326.371 96.6593 327.187 96.0437C328.126 95.1093 328.877 93.9761 329.449 93.4645C330.802 91.5837 331.601 89.9267 332.191 87.929" stroke="#F09F57" stroke-width="4" stroke-linecap="round"/>
<path d="M196.759 112.344C196.815 113.273 196.742 113.874 196.593 114.804C196.48 115.51 195.915 117.314 195.915 117.314C195.915 117.314 195.212 119.667 194.252 120.213C193.292 120.759 192.21 120.56 191.641 120.213" stroke="#F09F57" stroke-width="3.5" stroke-linecap="round"/>
<path d="M258.639 108.062C258.534 108.834 257.188 110.655 256.355 110.996" stroke="#F09F57" stroke-width="3.5" stroke-linecap="round"/>
<path d="M306.166 110.613C305.593 111.834 303.098 114.286 302.026 114.519" stroke="#F09F57" stroke-width="3.5" stroke-linecap="round"/>
<path d="M167.796 116.229C166.862 116.229 166.237 115.779 165.869 115.178" stroke="#F09F57" stroke-width="3.5" stroke-linecap="round"/>
</svg>
